<svg width="10" height="16" viewBox="0 0 10 16" fill="none" xmlns="http://www.w3.org/2000/svg">
<path d="M2.00004 -6.99379e-07C2.17515 -0.000199048 2.34858 0.0342248 2.51036 0.101294C2.67213 0.168364 2.81906 0.266754 2.9427 0.390812L9.60937 7.06C9.73321 7.18382 9.83145 7.33084 9.89848 7.49265C9.9655 7.65446 10 7.8279 10 8.00306C10 8.17822 9.9655 8.35166 9.89848 8.51347C9.83145 8.67528 9.73321 8.8223 9.60937 8.94612L2.9427 15.6153C2.69214 15.8628 2.35387 16.0011 2.00174 16C1.64962 15.9989 1.31223 15.8584 1.06324 15.6094C0.814254 15.3603 0.673887 15.0227 0.672787 14.6705C0.671686 14.3182 0.809941 13.9798 1.05737 13.7292L6.78129 8.00302L1.05729 2.27686C0.870872 2.09032 0.743928 1.85267 0.692508 1.59396C0.641087 1.33525 0.667498 1.06709 0.768402 0.823399C0.869304 0.579704 1.04017 0.37141 1.2594 0.224848C1.47862 0.0782864 1.73636 3.93319e-05 2.00004 -6.99379e-07Z" fill="#333333"/>
</svg>
