<svg xmlns="http://www.w3.org/2000/svg" xmlns:xlink="http://www.w3.org/1999/xlink" height="67px" id="Layer_1" style="enable-background:new 0 0 67 67;" version="1.1" viewBox="0 0 67 67" width="67px" xml:space="preserve"><path d="M45.469,24.535c-0.027,0.039-2.375,3.43-8.152,5.79  c0.34,0.698,0.669,1.408,0.973,2.122c0.108,0.256,0.214,0.507,0.316,0.758c5.027-0.633,9.979,0.431,10.191,0.475  C48.763,30.211,47.521,27.028,45.469,24.535z M39.498,35.514c1.919,5.274,2.699,9.57,2.848,10.452  c3.285-2.217,5.619-5.737,6.27-9.815C48.314,36.053,44.221,34.757,39.498,35.514z M39.881,47.303  c-0.216-1.279-1.066-5.76-3.125-11.111c-0.033,0.012-0.065,0.021-0.098,0.033c-8.633,3.008-11.453,9.074-11.483,9.141  c2.484,1.932,5.6,3.098,8.994,3.098C36.195,48.463,38.125,48.05,39.881,47.303z M36.191,28.144c5.521-2.069,7.605-5.242,7.641-5.296  c-2.576-2.271-5.959-3.649-9.663-3.649c-1.189,0-2.343,0.144-3.448,0.41C30.94,19.903,33.688,23.549,36.191,28.144z M35.758,33.767  c-0.367-0.832-0.768-1.665-1.187-2.487c-7.535,2.256-14.764,2.094-15.023,2.084c-0.004,0.157-0.012,0.309-0.012,0.467  c0,3.759,1.418,7.187,3.749,9.776c-0.005-0.006,4-7.111,11.896-9.665C35.371,33.879,35.566,33.822,35.758,33.767z M50.954,30.381  c0.231,1.127,0.35,2.288,0.35,3.45c0,1.16-0.118,2.319-0.35,3.448c-0.226,1.103-0.561,2.186-0.999,3.221  c-0.428,1.016-0.959,1.996-1.58,2.91c-0.611,0.908-1.316,1.759-2.09,2.536c-0.776,0.772-1.629,1.476-2.535,2.092  c-0.916,0.617-1.896,1.147-2.911,1.579c-1.035,0.437-2.118,0.771-3.219,0.997c-1.13,0.233-2.291,0.352-3.451,0.352  c-1.162,0-2.323-0.118-3.451-0.352c-1.102-0.226-2.186-0.561-3.22-0.997c-1.016-0.432-1.996-0.962-2.912-1.579  c-0.906-0.615-1.759-1.319-2.533-2.092c-0.775-0.777-1.479-1.628-2.092-2.536c-0.618-0.914-1.15-1.895-1.58-2.91  c-0.438-1.035-0.774-2.118-1.001-3.221c-0.229-1.129-0.346-2.288-0.346-3.448c0-1.162,0.117-2.323,0.347-3.45  c0.227-1.103,0.562-2.187,1-3.22c0.43-1.018,0.962-1.998,1.58-2.912c0.612-0.909,1.317-1.759,2.092-2.536  c0.774-0.773,1.627-1.475,2.533-2.089c0.916-0.62,1.896-1.152,2.912-1.583c1.034-0.438,2.118-0.773,3.22-0.998  c1.128-0.231,2.289-0.348,3.451-0.348c1.16,0,2.321,0.117,3.451,0.348c1.101,0.225,2.184,0.56,3.219,0.998  c1.016,0.431,1.995,0.963,2.911,1.583c0.906,0.614,1.76,1.316,2.535,2.089c0.773,0.777,1.479,1.627,2.09,2.536  c0.621,0.914,1.152,1.894,1.58,2.912C50.394,28.194,50.729,29.278,50.954,30.381z M33.359,29.027  c-2.533-4.5-5.239-8.172-5.434-8.432c-4.081,1.927-7.126,5.688-8.076,10.219C20.235,30.817,26.333,30.894,33.359,29.027z M34,64  C17.432,64,4,50.568,4,34C4,17.431,17.432,4,34,4s30,13.431,30,30C64,50.568,50.568,64,34,64z" style="fill-rule:evenodd;clip-rule:evenodd;fill:#EC4A89;"/></svg>