<svg xmlns="http://www.w3.org/2000/svg" width="20" height="20" viewBox="0 0 20 20" fill="none"><script xmlns=""/>
<g opacity="0.8">
<circle cx="10" cy="10" r="9.25" stroke="black" stroke-width="1.5"/>
<path d="M19.25 9.99998C19.25 10.314 19.1004 10.6811 18.6878 11.0875C18.2726 11.4966 17.6332 11.8995 16.7826 12.254C15.0847 12.9614 12.6872 13.4166 10 13.4166C7.31285 13.4166 4.91527 12.9614 3.21739 12.254C2.36682 11.8995 1.72745 11.4966 1.31219 11.0875C0.899568 10.6811 0.75 10.314 0.75 9.99998C0.75 9.68595 0.899568 9.31889 1.31219 8.91242C1.72745 8.50334 2.36682 8.10042 3.21739 7.74601C4.91527 7.03856 7.31285 6.58331 10 6.58331C12.6872 6.58331 15.0847 7.03856 16.7826 7.74601C17.6332 8.10042 18.2726 8.50334 18.6878 8.91242C19.1004 9.31889 19.25 9.68595 19.25 9.99998Z" stroke="black" stroke-width="1.5"/>
<path d="M9.99935 19.25C9.68532 19.25 9.31826 19.1004 8.91179 18.6878C8.50271 18.2726 8.09979 17.6332 7.74538 16.7826C7.03793 15.0847 6.58268 12.6872 6.58268 10C6.58268 7.31285 7.03793 4.91527 7.74538 3.21739C8.09979 2.36682 8.50271 1.72745 8.91179 1.31219C9.31826 0.899568 9.68532 0.75 9.99935 0.75C10.3134 0.75 10.6804 0.899568 11.0869 1.31219C11.496 1.72745 11.8989 2.36682 12.2533 3.21739C12.9608 4.91527 13.416 7.31285 13.416 10C13.416 12.6872 12.9608 15.0847 12.2533 16.7826C11.8989 17.6332 11.496 18.2726 11.0869 18.6878C10.6804 19.1004 10.3134 19.25 9.99935 19.25Z" stroke="black" stroke-width="1.5"/>
</g>
</svg>