<svg width="27" height="18" viewBox="0 0 27 18" fill="none" xmlns="http://www.w3.org/2000/svg">
<path d="M2.25342 7.50823L24.7503 7.50823C25.347 7.50823 25.9192 7.66624 26.3411 7.94751C26.763 8.22877 27 8.61025 27 9.00802C27 9.40579 26.763 9.78727 26.3411 10.0685C25.9192 10.3498 25.347 10.5078 24.7503 10.5078L2.25342 10.5078C1.65676 10.5078 1.08455 10.3498 0.662647 10.0685C0.240749 9.78727 0.00373087 9.40579 0.00373091 9.00802C0.00373094 8.61025 0.24075 8.22877 0.662647 7.94751C1.08455 7.66624 1.65677 7.50823 2.25342 7.50823Z" fill="white"/>
<path d="M18.0013 0.00927846C18.1983 0.00905532 18.3933 0.0477631 18.5753 0.123178C18.7573 0.198591 18.9226 0.309222 19.0616 0.448716L26.5606 7.94768C26.6999 8.08691 26.8104 8.25222 26.8858 8.43416C26.9612 8.61611 27 8.81113 27 9.00808C27 9.20503 26.9612 9.40005 26.8858 9.582C26.8104 9.76394 26.6999 9.92925 26.5606 10.0685L19.0616 17.5674C18.7798 17.8457 18.3993 18.0012 18.0032 18C17.6071 17.9987 17.2276 17.8408 16.9475 17.5607C16.6675 17.2807 16.5096 16.9011 16.5083 16.5051C16.5071 16.109 16.6626 15.7285 16.9409 15.4466L23.3795 9.00804L16.9408 2.56943C16.7312 2.35967 16.5884 2.09245 16.5305 1.80155C16.4727 1.51066 16.5024 1.20914 16.6159 0.935126C16.7294 0.661111 16.9216 0.4269 17.1682 0.262103C17.4148 0.0973064 17.7047 0.00932421 18.0013 0.00927846Z" fill="white"/>
</svg>
