<svg width="27" height="18" viewBox="0 0 27 18" fill="none" xmlns="http://www.w3.org/2000/svg">
<path d="M24.7466 10.4918L2.24969 10.4918C1.65303 10.4918 1.08082 10.3338 0.658919 10.0525C0.237021 9.77123 0 9.38975 0 8.99198C0 8.59421 0.237021 8.21273 0.658919 7.93147C1.08082 7.6502 1.65303 7.49219 2.24969 7.49219L24.7466 7.49219C25.3432 7.49219 25.9155 7.6502 26.3374 7.93147C26.7593 8.21273 26.9963 8.59421 26.9963 8.99198C26.9963 9.38975 26.7593 9.77123 26.3374 10.0525C25.9155 10.3338 25.3432 10.4918 24.7466 10.4918Z" fill="white"/>
<path d="M8.99872 17.9907C8.80174 17.9909 8.60666 17.9522 8.42468 17.8768C8.24271 17.8014 8.07744 17.6908 7.93836 17.5513L0.4394 10.0523C0.300098 9.91309 0.189593 9.74778 0.114199 9.56583C0.0388052 9.38389 0 9.18887 0 8.99192C0 8.79497 0.0388052 8.59995 0.114199 8.418C0.189593 8.23606 0.300098 8.07075 0.4394 7.93152L7.93836 0.432557C8.22021 0.154252 8.60071 -0.00124715 8.99679 7.53416e-06C9.39288 0.00126221 9.77239 0.159169 10.0525 0.439253C10.3325 0.719338 10.4904 1.09885 10.4917 1.49494C10.4929 1.89103 10.3374 2.27152 10.0591 2.55335L3.62055 8.99196L10.0592 15.4306C10.2689 15.6403 10.4116 15.9075 10.4695 16.1984C10.5273 16.4893 10.4976 16.7909 10.3841 17.0649C10.2706 17.3389 10.0784 17.5731 9.83182 17.7379C9.58523 17.9027 9.29531 17.9907 8.99872 17.9907Z" fill="white"/>
</svg>
