<svg width="21" height="17" viewBox="0 0 21 17" fill="none" xmlns="http://www.w3.org/2000/svg">
<path d="M1.67748 1.6775C3.91412 -0.559141 7.54043 -0.559139 9.77707 1.6775L14.4054 6.30583C16.642 8.54247 16.642 12.1688 14.4054 14.4054C12.1688 16.6421 8.54245 16.6421 6.30581 14.4054L1.67748 9.77709C-0.559159 7.54045 -0.559161 3.91414 1.67748 1.6775Z" fill="#999999"/>
<path d="M19.0337 1.67748C21.2704 3.91412 21.2704 7.54043 19.0337 9.77707L14.4054 14.4054C12.1688 16.6421 8.54245 16.6421 6.30581 14.4054C4.06917 12.1688 4.06916 8.54245 6.3058 6.30581L10.9341 1.67748C13.1708 -0.55916 16.7971 -0.55916 19.0337 1.67748Z" fill="#999999"/>
</svg>
