<svg width="1121" height="534" viewBox="0 0 1121 534" fill="none" xmlns="http://www.w3.org/2000/svg">
<g clip-path="url(#clip0_1408_23)">
<path opacity="0.1" fill-rule="evenodd" clip-rule="evenodd" d="M0 -168H1121V813H0V-168ZM1.75156 -166.248H138.373V-29.6089H1.75156V-166.248ZM141.877 -166.248H278.498V-29.6089H141.877V-166.248ZM418.623 -166.248H282.002V-29.6089H418.623V-166.248ZM422.127 -166.248H558.748V-29.6089H422.127V-166.248ZM698.873 -166.248H562.252V-29.6089H698.873V-166.248ZM702.377 -166.248H838.998V-29.6089H702.377V-166.248ZM979.123 -166.248H842.502V-29.6089H979.123V-166.248ZM982.627 -166.248H1119.25V-29.6089H982.627V-166.248ZM138.373 -26.1053H1.75156V110.534H138.373V-26.1053ZM141.877 -26.1053H278.498V110.534H141.877V-26.1053ZM418.623 -26.1053H282.002V110.534H418.623V-26.1053ZM422.127 -26.1053H558.748V110.534H422.127V-26.1053ZM698.873 -26.1053H562.252V110.534H698.873V-26.1053ZM702.377 -26.1053H838.998V110.534H702.377V-26.1053ZM979.123 -26.1053H842.502V110.534H979.123V-26.1053ZM982.627 -26.1053H1119.25V110.534H982.627V-26.1053ZM138.373 114.038H1.75156V250.677H138.373V114.038ZM141.877 114.038H278.498V250.677H141.877V114.038ZM418.623 114.038H282.002V250.677H418.623V114.038ZM422.127 114.038H558.748V250.677H422.127V114.038ZM698.873 114.038H562.252V250.677H698.873V114.038ZM702.377 114.038H838.998V250.677H702.377V114.038ZM979.123 114.038H842.502V250.677H979.123V114.038ZM982.627 114.038H1119.25V250.677H982.627V114.038ZM138.373 254.18H1.75156V390.82H138.373V254.18ZM141.877 254.18H278.498V390.82H141.877V254.18ZM418.623 254.18H282.002V390.82H418.623V254.18ZM422.127 254.18H558.748V390.82H422.127V254.18ZM698.873 254.18H562.252V390.82H698.873V254.18ZM702.377 254.18H838.998V390.82H702.377V254.18ZM979.123 254.18H842.502V390.82H979.123V254.18ZM982.627 254.18H1119.25V390.82H982.627V254.18ZM138.373 394.323H1.75156V530.963H138.373V394.323ZM141.877 394.323H278.498V530.963H141.877V394.323ZM418.623 394.323H282.002V530.963H418.623V394.323ZM422.127 394.323H558.748V530.963H422.127V394.323ZM698.873 394.323H562.252V530.963H698.873V394.323ZM702.377 394.323H838.998V530.963H702.377V394.323ZM979.123 394.323H842.502V530.963H979.123V394.323ZM982.627 394.323H1119.25V530.963H982.627V394.323ZM138.373 534.466H1.75156V671.105H138.373V534.466ZM141.877 534.466H278.498V671.105H141.877V534.466ZM418.623 534.466H282.002V671.105H418.623V534.466ZM422.127 534.466H558.748V671.105H422.127V534.466ZM698.873 534.466H562.252V671.105H698.873V534.466ZM702.377 534.466H838.998V671.105H702.377V534.466ZM979.123 534.466H842.502V671.105H979.123V534.466ZM982.627 534.466H1119.25V671.105H982.627V534.466ZM138.373 674.609H1.75156V811.248H138.373V674.609ZM141.877 674.609H278.498V811.248H141.877V674.609ZM418.623 674.609H282.002V811.248H418.623V674.609ZM422.127 674.609H558.748V811.248H422.127V674.609ZM698.873 674.609H562.252V811.248H698.873V674.609ZM702.377 674.609H838.998V811.248H702.377V674.609ZM979.123 674.609H842.502V811.248H979.123V674.609ZM982.627 674.609H1119.25V811.248H982.627V674.609Z" fill="white"/>
<circle cx="560" cy="252" r="154.5" stroke="white" stroke-opacity="0.1" stroke-width="3"/>
<circle cx="560" cy="252" r="213.5" stroke="white" stroke-opacity="0.1" stroke-width="3"/>
<circle cx="560" cy="252" r="265.5" stroke="white" stroke-opacity="0.1" stroke-width="3"/>
</g>
<defs>
<clipPath id="clip0_1408_23">
<rect width="1121" height="534" fill="white"/>
</clipPath>
</defs>
</svg>
