<svg width="1121" height="534" viewBox="0 0 1121 534" fill="none" xmlns="http://www.w3.org/2000/svg">
<g clip-path="url(#clip0_1408_23)">
<mask id="path-1-outside-1_1408_23" maskUnits="userSpaceOnUse" x="-88" y="-187" width="1488" height="1303" fill="black">
<rect fill="white" x="-88" y="-187" width="1488" height="1303"/>
<path fill-rule="evenodd" clip-rule="evenodd" d="M-85 -184H1397V1113H-85V-184ZM-82.6844 -181.684H97.9344V-1.03036H-82.6844V-181.684ZM102.566 -181.684H283.184V-1.03036H102.566V-181.684ZM468.434 -181.684H287.816V-1.03036H468.434V-181.684ZM473.066 -181.684H653.684V-1.03036H473.066V-181.684ZM838.934 -181.684H658.316V-1.03036H838.934V-181.684ZM843.566 -181.684H1024.18V-1.03036H843.566V-181.684ZM1209.43 -181.684H1028.82V-1.03036H1209.43V-181.684ZM1214.07 -181.684H1394.68V-1.03036H1214.07V-181.684ZM97.9344 3.60181H-82.6844V184.255H97.9344V3.60181ZM102.566 3.60181H283.184V184.255H102.566V3.60181ZM468.434 3.60181H287.816V184.255H468.434V3.60181ZM473.066 3.60181H653.684V184.255H473.066V3.60181ZM838.934 3.60181H658.316V184.255H838.934V3.60181ZM843.566 3.60181H1024.18V184.255H843.566V3.60181ZM1209.43 3.60181H1028.82V184.255H1209.43V3.60181ZM1214.07 3.60181H1394.68V184.255H1214.07V3.60181ZM97.9344 188.888H-82.6844V369.541H97.9344V188.888ZM102.566 188.888H283.184V369.541H102.566V188.888ZM468.434 188.888H287.816V369.541H468.434V188.888ZM473.066 188.888H653.684V369.541H473.066V188.888ZM838.934 188.888H658.316V369.541H838.934V188.888ZM843.566 188.888H1024.18V369.541H843.566V188.888ZM1209.43 188.888H1028.82V369.541H1209.43V188.888ZM1214.07 188.888H1394.68V369.541H1214.07V188.888ZM97.9344 374.173H-82.6844V554.827H97.9344V374.173ZM102.566 374.173H283.184V554.827H102.566V374.173ZM468.434 374.173H287.816V554.827H468.434V374.173ZM473.066 374.173H653.684V554.827H473.066V374.173ZM838.934 374.173H658.316V554.827H838.934V374.173ZM843.566 374.173H1024.18V554.827H843.566V374.173ZM1209.43 374.173H1028.82V554.827H1209.43V374.173ZM1214.07 374.173H1394.68V554.827H1214.07V374.173ZM97.9344 559.459H-82.6844V740.113H97.9344V559.459ZM102.566 559.459H283.184V740.113H102.566V559.459ZM468.434 559.459H287.816V740.113H468.434V559.459ZM473.066 559.459H653.684V740.113H473.066V559.459ZM838.934 559.459H658.316V740.113H838.934V559.459ZM843.566 559.459H1024.18V740.113H843.566V559.459ZM1209.43 559.459H1028.82V740.113H1209.43V559.459ZM1214.07 559.459H1394.68V740.113H1214.07V559.459ZM97.9344 744.745H-82.6844V925.398H97.9344V744.745ZM102.566 744.745H283.184V925.398H102.566V744.745ZM468.434 744.745H287.816V925.398H468.434V744.745ZM473.066 744.745H653.684V925.398H473.066V744.745ZM838.934 744.745H658.316V925.398H838.934V744.745ZM843.566 744.745H1024.18V925.398H843.566V744.745ZM1209.43 744.745H1028.82V925.398H1209.43V744.745ZM1214.07 744.745H1394.68V925.398H1214.07V744.745ZM97.9344 930.03H-82.6844V1110.68H97.9344V930.03ZM102.566 930.03H283.184V1110.68H102.566V930.03ZM468.434 930.03H287.816V1110.68H468.434V930.03ZM473.066 930.03H653.684V1110.68H473.066V930.03ZM838.934 930.03H658.316V1110.68H838.934V930.03ZM843.566 930.03H1024.18V1110.68H843.566V930.03ZM1209.43 930.03H1028.82V1110.68H1209.43V930.03ZM1214.07 930.03H1394.68V1110.68H1214.07V930.03Z"/>
</mask>
<path fill-rule="evenodd" clip-rule="evenodd" d="M-85 -184H1397V1113H-85V-184ZM-82.6844 -181.684H97.9344V-1.03036H-82.6844V-181.684ZM102.566 -181.684H283.184V-1.03036H102.566V-181.684ZM468.434 -181.684H287.816V-1.03036H468.434V-181.684ZM473.066 -181.684H653.684V-1.03036H473.066V-181.684ZM838.934 -181.684H658.316V-1.03036H838.934V-181.684ZM843.566 -181.684H1024.18V-1.03036H843.566V-181.684ZM1209.43 -181.684H1028.82V-1.03036H1209.43V-181.684ZM1214.07 -181.684H1394.68V-1.03036H1214.07V-181.684ZM97.9344 3.60181H-82.6844V184.255H97.9344V3.60181ZM102.566 3.60181H283.184V184.255H102.566V3.60181ZM468.434 3.60181H287.816V184.255H468.434V3.60181ZM473.066 3.60181H653.684V184.255H473.066V3.60181ZM838.934 3.60181H658.316V184.255H838.934V3.60181ZM843.566 3.60181H1024.18V184.255H843.566V3.60181ZM1209.43 3.60181H1028.82V184.255H1209.43V3.60181ZM1214.07 3.60181H1394.68V184.255H1214.07V3.60181ZM97.9344 188.888H-82.6844V369.541H97.9344V188.888ZM102.566 188.888H283.184V369.541H102.566V188.888ZM468.434 188.888H287.816V369.541H468.434V188.888ZM473.066 188.888H653.684V369.541H473.066V188.888ZM838.934 188.888H658.316V369.541H838.934V188.888ZM843.566 188.888H1024.18V369.541H843.566V188.888ZM1209.43 188.888H1028.82V369.541H1209.43V188.888ZM1214.07 188.888H1394.68V369.541H1214.07V188.888ZM97.9344 374.173H-82.6844V554.827H97.9344V374.173ZM102.566 374.173H283.184V554.827H102.566V374.173ZM468.434 374.173H287.816V554.827H468.434V374.173ZM473.066 374.173H653.684V554.827H473.066V374.173ZM838.934 374.173H658.316V554.827H838.934V374.173ZM843.566 374.173H1024.18V554.827H843.566V374.173ZM1209.43 374.173H1028.82V554.827H1209.43V374.173ZM1214.07 374.173H1394.68V554.827H1214.07V374.173ZM97.9344 559.459H-82.6844V740.113H97.9344V559.459ZM102.566 559.459H283.184V740.113H102.566V559.459ZM468.434 559.459H287.816V740.113H468.434V559.459ZM473.066 559.459H653.684V740.113H473.066V559.459ZM838.934 559.459H658.316V740.113H838.934V559.459ZM843.566 559.459H1024.18V740.113H843.566V559.459ZM1209.43 559.459H1028.82V740.113H1209.43V559.459ZM1214.07 559.459H1394.68V740.113H1214.07V559.459ZM97.9344 744.745H-82.6844V925.398H97.9344V744.745ZM102.566 744.745H283.184V925.398H102.566V744.745ZM468.434 744.745H287.816V925.398H468.434V744.745ZM473.066 744.745H653.684V925.398H473.066V744.745ZM838.934 744.745H658.316V925.398H838.934V744.745ZM843.566 744.745H1024.18V925.398H843.566V744.745ZM1209.43 744.745H1028.82V925.398H1209.43V744.745ZM1214.07 744.745H1394.68V925.398H1214.07V744.745ZM97.9344 930.03H-82.6844V1110.68H97.9344V930.03ZM102.566 930.03H283.184V1110.68H102.566V930.03ZM468.434 930.03H287.816V1110.68H468.434V930.03ZM473.066 930.03H653.684V1110.68H473.066V930.03ZM838.934 930.03H658.316V1110.68H838.934V930.03ZM843.566 930.03H1024.18V1110.68H843.566V930.03ZM1209.43 930.03H1028.82V1110.68H1209.43V930.03ZM1214.07 930.03H1394.68V1110.68H1214.07V930.03Z" fill="white"/>
<path fill-rule="evenodd" clip-rule="evenodd" d="M-85 -184H1397V1113H-85V-184ZM-82.6844 -181.684H97.9344V-1.03036H-82.6844V-181.684ZM102.566 -181.684H283.184V-1.03036H102.566V-181.684ZM468.434 -181.684H287.816V-1.03036H468.434V-181.684ZM473.066 -181.684H653.684V-1.03036H473.066V-181.684ZM838.934 -181.684H658.316V-1.03036H838.934V-181.684ZM843.566 -181.684H1024.18V-1.03036H843.566V-181.684ZM1209.43 -181.684H1028.82V-1.03036H1209.43V-181.684ZM1214.07 -181.684H1394.68V-1.03036H1214.07V-181.684ZM97.9344 3.60181H-82.6844V184.255H97.9344V3.60181ZM102.566 3.60181H283.184V184.255H102.566V3.60181ZM468.434 3.60181H287.816V184.255H468.434V3.60181ZM473.066 3.60181H653.684V184.255H473.066V3.60181ZM838.934 3.60181H658.316V184.255H838.934V3.60181ZM843.566 3.60181H1024.18V184.255H843.566V3.60181ZM1209.43 3.60181H1028.82V184.255H1209.43V3.60181ZM1214.07 3.60181H1394.68V184.255H1214.07V3.60181ZM97.9344 188.888H-82.6844V369.541H97.9344V188.888ZM102.566 188.888H283.184V369.541H102.566V188.888ZM468.434 188.888H287.816V369.541H468.434V188.888ZM473.066 188.888H653.684V369.541H473.066V188.888ZM838.934 188.888H658.316V369.541H838.934V188.888ZM843.566 188.888H1024.18V369.541H843.566V188.888ZM1209.43 188.888H1028.82V369.541H1209.43V188.888ZM1214.07 188.888H1394.68V369.541H1214.07V188.888ZM97.9344 374.173H-82.6844V554.827H97.9344V374.173ZM102.566 374.173H283.184V554.827H102.566V374.173ZM468.434 374.173H287.816V554.827H468.434V374.173ZM473.066 374.173H653.684V554.827H473.066V374.173ZM838.934 374.173H658.316V554.827H838.934V374.173ZM843.566 374.173H1024.18V554.827H843.566V374.173ZM1209.43 374.173H1028.82V554.827H1209.43V374.173ZM1214.07 374.173H1394.68V554.827H1214.07V374.173ZM97.9344 559.459H-82.6844V740.113H97.9344V559.459ZM102.566 559.459H283.184V740.113H102.566V559.459ZM468.434 559.459H287.816V740.113H468.434V559.459ZM473.066 559.459H653.684V740.113H473.066V559.459ZM838.934 559.459H658.316V740.113H838.934V559.459ZM843.566 559.459H1024.18V740.113H843.566V559.459ZM1209.43 559.459H1028.82V740.113H1209.43V559.459ZM1214.07 559.459H1394.68V740.113H1214.07V559.459ZM97.9344 744.745H-82.6844V925.398H97.9344V744.745ZM102.566 744.745H283.184V925.398H102.566V744.745ZM468.434 744.745H287.816V925.398H468.434V744.745ZM473.066 744.745H653.684V925.398H473.066V744.745ZM838.934 744.745H658.316V925.398H838.934V744.745ZM843.566 744.745H1024.18V925.398H843.566V744.745ZM1209.43 744.745H1028.82V925.398H1209.43V744.745ZM1214.07 744.745H1394.68V925.398H1214.07V744.745ZM97.9344 930.03H-82.6844V1110.68H97.9344V930.03ZM102.566 930.03H283.184V1110.68H102.566V930.03ZM468.434 930.03H287.816V1110.68H468.434V930.03ZM473.066 930.03H653.684V1110.68H473.066V930.03ZM838.934 930.03H658.316V1110.68H838.934V930.03ZM843.566 930.03H1024.18V1110.68H843.566V930.03ZM1209.43 930.03H1028.82V1110.68H1209.43V930.03ZM1214.07 930.03H1394.68V1110.68H1214.07V930.03Z" stroke="white" stroke-width="6" mask="url(#path-1-outside-1_1408_23)"/>
<circle cx="560" cy="267" r="276.5" stroke="white" stroke-width="13"/>
<circle cx="560" cy="267" r="345" stroke="white" stroke-width="12"/>
</g>
<defs>
<clipPath id="clip0_1408_23">
<rect width="1121" height="534" fill="white"/>
</clipPath>
</defs>
</svg>
