<svg width="2162" height="534" viewBox="0 0 2162 534" fill="none" xmlns="http://www.w3.org/2000/svg">
<g clip-path="url(#clip0_1414_43)">
<mask id="path-1-outside-1_1414_43" maskUnits="userSpaceOnUse" x="1030" y="-254" width="1191" height="1043" fill="black">
<rect fill="white" x="1030" y="-254" width="1191" height="1043"/>
<path fill-rule="evenodd" clip-rule="evenodd" d="M1031 -253H2220V788H1031V-253ZM1032.86 -251.141H1177.77V-106.145H1032.86V-251.141ZM1181.48 -251.141H1326.39V-106.145H1181.48V-251.141ZM1475.02 -251.141H1330.11V-106.145H1475.02V-251.141ZM1478.73 -251.141H1623.64V-106.145H1478.73V-251.141ZM1772.27 -251.141H1627.36V-106.145H1772.27V-251.141ZM1775.98 -251.141H1920.89V-106.145H1775.98V-251.141ZM2069.52 -251.141H1924.61V-106.145H2069.52V-251.141ZM2073.23 -251.141H2218.14V-106.145H2073.23V-251.141ZM1177.77 -102.427H1032.86V42.5697H1177.77V-102.427ZM1181.48 -102.427H1326.39V42.5697H1181.48V-102.427ZM1475.02 -102.427H1330.11V42.5697H1475.02V-102.427ZM1478.73 -102.427H1623.64V42.5697H1478.73V-102.427ZM1772.27 -102.427H1627.36V42.5697H1772.27V-102.427ZM1775.98 -102.427H1920.89V42.5697H1775.98V-102.427ZM2069.52 -102.427H1924.61V42.5697H2069.52V-102.427ZM2073.23 -102.427H2218.14V42.5697H2073.23V-102.427ZM1177.77 46.2875H1032.86V191.284H1177.77V46.2875ZM1181.48 46.2875H1326.39V191.284H1181.48V46.2875ZM1475.02 46.2875H1330.11V191.284H1475.02V46.2875ZM1478.73 46.2875H1623.64V191.284H1478.73V46.2875ZM1772.27 46.2875H1627.36V191.284H1772.27V46.2875ZM1775.98 46.2875H1920.89V191.284H1775.98V46.2875ZM2069.52 46.2875H1924.61V191.284H2069.52V46.2875ZM2073.23 46.2875H2218.14V191.284H2073.23V46.2875ZM1177.77 195.002H1032.86V339.998H1177.77V195.002ZM1181.48 195.002H1326.39V339.998H1181.48V195.002ZM1475.02 195.002H1330.11V339.998H1475.02V195.002ZM1478.73 195.002H1623.64V339.998H1478.73V195.002ZM1772.27 195.002H1627.36V339.998H1772.27V195.002ZM1775.98 195.002H1920.89V339.998H1775.98V195.002ZM2069.52 195.002H1924.61V339.998H2069.52V195.002ZM2073.23 195.002H2218.14V339.998H2073.23V195.002ZM1177.77 343.716H1032.86V488.713H1177.77V343.716ZM1181.48 343.716H1326.39V488.713H1181.48V343.716ZM1475.02 343.716H1330.11V488.713H1475.02V343.716ZM1478.73 343.716H1623.64V488.713H1478.73V343.716ZM1772.27 343.716H1627.36V488.713H1772.27V343.716ZM1775.98 343.716H1920.89V488.713H1775.98V343.716ZM2069.52 343.716H1924.61V488.713H2069.52V343.716ZM2073.23 343.716H2218.14V488.713H2073.23V343.716ZM1177.77 492.43H1032.86V637.427H1177.77V492.43ZM1181.48 492.43H1326.39V637.427H1181.48V492.43ZM1475.02 492.43H1330.11V637.427H1475.02V492.43ZM1478.73 492.43H1623.64V637.427H1478.73V492.43ZM1772.27 492.43H1627.36V637.427H1772.27V492.43ZM1775.98 492.43H1920.89V637.427H1775.98V492.43ZM2069.52 492.43H1924.61V637.427H2069.52V492.43ZM2073.23 492.43H2218.14V637.427H2073.23V492.43ZM1177.77 641.145H1032.86V786.141H1177.77V641.145ZM1181.48 641.145H1326.39V786.141H1181.48V641.145ZM1475.02 641.145H1330.11V786.141H1475.02V641.145ZM1478.73 641.145H1623.64V786.141H1478.73V641.145ZM1772.27 641.145H1627.36V786.141H1772.27V641.145ZM1775.98 641.145H1920.89V786.141H1775.98V641.145ZM2069.52 641.145H1924.61V786.141H2069.52V641.145ZM2073.23 641.145H2218.14V786.141H2073.23V641.145Z"/>
</mask>
<path fill-rule="evenodd" clip-rule="evenodd" d="M1031 -253H2220V788H1031V-253ZM1032.86 -251.141H1177.77V-106.145H1032.86V-251.141ZM1181.48 -251.141H1326.39V-106.145H1181.48V-251.141ZM1475.02 -251.141H1330.11V-106.145H1475.02V-251.141ZM1478.73 -251.141H1623.64V-106.145H1478.73V-251.141ZM1772.27 -251.141H1627.36V-106.145H1772.27V-251.141ZM1775.98 -251.141H1920.89V-106.145H1775.98V-251.141ZM2069.52 -251.141H1924.61V-106.145H2069.52V-251.141ZM2073.23 -251.141H2218.14V-106.145H2073.23V-251.141ZM1177.77 -102.427H1032.86V42.5697H1177.77V-102.427ZM1181.48 -102.427H1326.39V42.5697H1181.48V-102.427ZM1475.02 -102.427H1330.11V42.5697H1475.02V-102.427ZM1478.73 -102.427H1623.64V42.5697H1478.73V-102.427ZM1772.27 -102.427H1627.36V42.5697H1772.27V-102.427ZM1775.98 -102.427H1920.89V42.5697H1775.98V-102.427ZM2069.52 -102.427H1924.61V42.5697H2069.52V-102.427ZM2073.23 -102.427H2218.14V42.5697H2073.23V-102.427ZM1177.77 46.2875H1032.86V191.284H1177.77V46.2875ZM1181.48 46.2875H1326.39V191.284H1181.48V46.2875ZM1475.02 46.2875H1330.11V191.284H1475.02V46.2875ZM1478.73 46.2875H1623.64V191.284H1478.73V46.2875ZM1772.27 46.2875H1627.36V191.284H1772.27V46.2875ZM1775.98 46.2875H1920.89V191.284H1775.98V46.2875ZM2069.52 46.2875H1924.61V191.284H2069.52V46.2875ZM2073.23 46.2875H2218.14V191.284H2073.23V46.2875ZM1177.77 195.002H1032.86V339.998H1177.77V195.002ZM1181.48 195.002H1326.39V339.998H1181.48V195.002ZM1475.02 195.002H1330.11V339.998H1475.02V195.002ZM1478.73 195.002H1623.64V339.998H1478.73V195.002ZM1772.27 195.002H1627.36V339.998H1772.27V195.002ZM1775.98 195.002H1920.89V339.998H1775.98V195.002ZM2069.52 195.002H1924.61V339.998H2069.52V195.002ZM2073.23 195.002H2218.14V339.998H2073.23V195.002ZM1177.77 343.716H1032.86V488.713H1177.77V343.716ZM1181.48 343.716H1326.39V488.713H1181.48V343.716ZM1475.02 343.716H1330.11V488.713H1475.02V343.716ZM1478.73 343.716H1623.64V488.713H1478.73V343.716ZM1772.27 343.716H1627.36V488.713H1772.27V343.716ZM1775.98 343.716H1920.89V488.713H1775.98V343.716ZM2069.52 343.716H1924.61V488.713H2069.52V343.716ZM2073.23 343.716H2218.14V488.713H2073.23V343.716ZM1177.77 492.43H1032.86V637.427H1177.77V492.43ZM1181.48 492.43H1326.39V637.427H1181.48V492.43ZM1475.02 492.43H1330.11V637.427H1475.02V492.43ZM1478.73 492.43H1623.64V637.427H1478.73V492.43ZM1772.27 492.43H1627.36V637.427H1772.27V492.43ZM1775.98 492.43H1920.89V637.427H1775.98V492.43ZM2069.52 492.43H1924.61V637.427H2069.52V492.43ZM2073.23 492.43H2218.14V637.427H2073.23V492.43ZM1177.77 641.145H1032.86V786.141H1177.77V641.145ZM1181.48 641.145H1326.39V786.141H1181.48V641.145ZM1475.02 641.145H1330.11V786.141H1475.02V641.145ZM1478.73 641.145H1623.64V786.141H1478.73V641.145ZM1772.27 641.145H1627.36V786.141H1772.27V641.145ZM1775.98 641.145H1920.89V786.141H1775.98V641.145ZM2069.52 641.145H1924.61V786.141H2069.52V641.145ZM2073.23 641.145H2218.14V786.141H2073.23V641.145Z" fill="white"/>
<path fill-rule="evenodd" clip-rule="evenodd" d="M1031 -253H2220V788H1031V-253ZM1032.86 -251.141H1177.77V-106.145H1032.86V-251.141ZM1181.48 -251.141H1326.39V-106.145H1181.48V-251.141ZM1475.02 -251.141H1330.11V-106.145H1475.02V-251.141ZM1478.73 -251.141H1623.64V-106.145H1478.73V-251.141ZM1772.27 -251.141H1627.36V-106.145H1772.27V-251.141ZM1775.98 -251.141H1920.89V-106.145H1775.98V-251.141ZM2069.52 -251.141H1924.61V-106.145H2069.52V-251.141ZM2073.23 -251.141H2218.14V-106.145H2073.23V-251.141ZM1177.77 -102.427H1032.86V42.5697H1177.77V-102.427ZM1181.48 -102.427H1326.39V42.5697H1181.48V-102.427ZM1475.02 -102.427H1330.11V42.5697H1475.02V-102.427ZM1478.73 -102.427H1623.64V42.5697H1478.73V-102.427ZM1772.27 -102.427H1627.36V42.5697H1772.27V-102.427ZM1775.98 -102.427H1920.89V42.5697H1775.98V-102.427ZM2069.52 -102.427H1924.61V42.5697H2069.52V-102.427ZM2073.23 -102.427H2218.14V42.5697H2073.23V-102.427ZM1177.77 46.2875H1032.86V191.284H1177.77V46.2875ZM1181.48 46.2875H1326.39V191.284H1181.48V46.2875ZM1475.02 46.2875H1330.11V191.284H1475.02V46.2875ZM1478.73 46.2875H1623.64V191.284H1478.73V46.2875ZM1772.27 46.2875H1627.36V191.284H1772.27V46.2875ZM1775.98 46.2875H1920.89V191.284H1775.98V46.2875ZM2069.52 46.2875H1924.61V191.284H2069.52V46.2875ZM2073.23 46.2875H2218.14V191.284H2073.23V46.2875ZM1177.77 195.002H1032.86V339.998H1177.77V195.002ZM1181.48 195.002H1326.39V339.998H1181.48V195.002ZM1475.02 195.002H1330.11V339.998H1475.02V195.002ZM1478.73 195.002H1623.64V339.998H1478.73V195.002ZM1772.27 195.002H1627.36V339.998H1772.27V195.002ZM1775.98 195.002H1920.89V339.998H1775.98V195.002ZM2069.52 195.002H1924.61V339.998H2069.52V195.002ZM2073.23 195.002H2218.14V339.998H2073.23V195.002ZM1177.77 343.716H1032.86V488.713H1177.77V343.716ZM1181.48 343.716H1326.39V488.713H1181.48V343.716ZM1475.02 343.716H1330.11V488.713H1475.02V343.716ZM1478.73 343.716H1623.64V488.713H1478.73V343.716ZM1772.27 343.716H1627.36V488.713H1772.27V343.716ZM1775.98 343.716H1920.89V488.713H1775.98V343.716ZM2069.52 343.716H1924.61V488.713H2069.52V343.716ZM2073.23 343.716H2218.14V488.713H2073.23V343.716ZM1177.77 492.43H1032.86V637.427H1177.77V492.43ZM1181.48 492.43H1326.39V637.427H1181.48V492.43ZM1475.02 492.43H1330.11V637.427H1475.02V492.43ZM1478.73 492.43H1623.64V637.427H1478.73V492.43ZM1772.27 492.43H1627.36V637.427H1772.27V492.43ZM1775.98 492.43H1920.89V637.427H1775.98V492.43ZM2069.52 492.43H1924.61V637.427H2069.52V492.43ZM2073.23 492.43H2218.14V637.427H2073.23V492.43ZM1177.77 641.145H1032.86V786.141H1177.77V641.145ZM1181.48 641.145H1326.39V786.141H1181.48V641.145ZM1475.02 641.145H1330.11V786.141H1475.02V641.145ZM1478.73 641.145H1623.64V786.141H1478.73V641.145ZM1772.27 641.145H1627.36V786.141H1772.27V641.145ZM1775.98 641.145H1920.89V786.141H1775.98V641.145ZM2069.52 641.145H1924.61V786.141H2069.52V641.145ZM2073.23 641.145H2218.14V786.141H2073.23V641.145Z" stroke="white" stroke-width="2" mask="url(#path-1-outside-1_1414_43)"/>
<mask id="path-2-outside-2_1414_43" maskUnits="userSpaceOnUse" x="-159" y="-254" width="1191" height="1043" fill="black">
<rect fill="white" x="-159" y="-254" width="1191" height="1043"/>
<path fill-rule="evenodd" clip-rule="evenodd" d="M-158 -253H1031V788H-158V-253ZM-156.142 -251.141H-11.2328V-106.145H-156.142V-251.141ZM-7.5172 -251.141H137.392V-106.145H-7.5172V-251.141ZM286.017 -251.141H141.108V-106.145H286.017V-251.141ZM289.733 -251.141H434.642V-106.145H289.733V-251.141ZM583.267 -251.141H438.358V-106.145H583.267V-251.141ZM586.983 -251.141H731.892V-106.145H586.983V-251.141ZM880.517 -251.141H735.608V-106.145H880.517V-251.141ZM884.233 -251.141H1029.14V-106.145H884.233V-251.141ZM-11.2328 -102.427H-156.142V42.5697H-11.2328V-102.427ZM-7.5172 -102.427H137.392V42.5697H-7.5172V-102.427ZM286.017 -102.427H141.108V42.5697H286.017V-102.427ZM289.733 -102.427H434.642V42.5697H289.733V-102.427ZM583.267 -102.427H438.358V42.5697H583.267V-102.427ZM586.983 -102.427H731.892V42.5697H586.983V-102.427ZM880.517 -102.427H735.608V42.5697H880.517V-102.427ZM884.233 -102.427H1029.14V42.5697H884.233V-102.427ZM-11.2328 46.2875H-156.142V191.284H-11.2328V46.2875ZM-7.5172 46.2875H137.392V191.284H-7.5172V46.2875ZM286.017 46.2875H141.108V191.284H286.017V46.2875ZM289.733 46.2875H434.642V191.284H289.733V46.2875ZM583.267 46.2875H438.358V191.284H583.267V46.2875ZM586.983 46.2875H731.892V191.284H586.983V46.2875ZM880.517 46.2875H735.608V191.284H880.517V46.2875ZM884.233 46.2875H1029.14V191.284H884.233V46.2875ZM-11.2328 195.002H-156.142V339.998H-11.2328V195.002ZM-7.5172 195.002H137.392V339.998H-7.5172V195.002ZM286.017 195.002H141.108V339.998H286.017V195.002ZM289.733 195.002H434.642V339.998H289.733V195.002ZM583.267 195.002H438.358V339.998H583.267V195.002ZM586.983 195.002H731.892V339.998H586.983V195.002ZM880.517 195.002H735.608V339.998H880.517V195.002ZM884.233 195.002H1029.14V339.998H884.233V195.002ZM-11.2328 343.716H-156.142V488.713H-11.2328V343.716ZM-7.5172 343.716H137.392V488.713H-7.5172V343.716ZM286.017 343.716H141.108V488.713H286.017V343.716ZM289.733 343.716H434.642V488.713H289.733V343.716ZM583.267 343.716H438.358V488.713H583.267V343.716ZM586.983 343.716H731.892V488.713H586.983V343.716ZM880.517 343.716H735.608V488.713H880.517V343.716ZM884.233 343.716H1029.14V488.713H884.233V343.716ZM-11.2328 492.43H-156.142V637.427H-11.2328V492.43ZM-7.5172 492.43H137.392V637.427H-7.5172V492.43ZM286.017 492.43H141.108V637.427H286.017V492.43ZM289.733 492.43H434.642V637.427H289.733V492.43ZM583.267 492.43H438.358V637.427H583.267V492.43ZM586.983 492.43H731.892V637.427H586.983V492.43ZM880.517 492.43H735.608V637.427H880.517V492.43ZM884.233 492.43H1029.14V637.427H884.233V492.43ZM-11.2328 641.145H-156.142V786.141H-11.2328V641.145ZM-7.5172 641.145H137.392V786.141H-7.5172V641.145ZM286.017 641.145H141.108V786.141H286.017V641.145ZM289.733 641.145H434.642V786.141H289.733V641.145ZM583.267 641.145H438.358V786.141H583.267V641.145ZM586.983 641.145H731.892V786.141H586.983V641.145ZM880.517 641.145H735.608V786.141H880.517V641.145ZM884.233 641.145H1029.14V786.141H884.233V641.145Z"/>
</mask>
<path fill-rule="evenodd" clip-rule="evenodd" d="M-158 -253H1031V788H-158V-253ZM-156.142 -251.141H-11.2328V-106.145H-156.142V-251.141ZM-7.5172 -251.141H137.392V-106.145H-7.5172V-251.141ZM286.017 -251.141H141.108V-106.145H286.017V-251.141ZM289.733 -251.141H434.642V-106.145H289.733V-251.141ZM583.267 -251.141H438.358V-106.145H583.267V-251.141ZM586.983 -251.141H731.892V-106.145H586.983V-251.141ZM880.517 -251.141H735.608V-106.145H880.517V-251.141ZM884.233 -251.141H1029.14V-106.145H884.233V-251.141ZM-11.2328 -102.427H-156.142V42.5697H-11.2328V-102.427ZM-7.5172 -102.427H137.392V42.5697H-7.5172V-102.427ZM286.017 -102.427H141.108V42.5697H286.017V-102.427ZM289.733 -102.427H434.642V42.5697H289.733V-102.427ZM583.267 -102.427H438.358V42.5697H583.267V-102.427ZM586.983 -102.427H731.892V42.5697H586.983V-102.427ZM880.517 -102.427H735.608V42.5697H880.517V-102.427ZM884.233 -102.427H1029.14V42.5697H884.233V-102.427ZM-11.2328 46.2875H-156.142V191.284H-11.2328V46.2875ZM-7.5172 46.2875H137.392V191.284H-7.5172V46.2875ZM286.017 46.2875H141.108V191.284H286.017V46.2875ZM289.733 46.2875H434.642V191.284H289.733V46.2875ZM583.267 46.2875H438.358V191.284H583.267V46.2875ZM586.983 46.2875H731.892V191.284H586.983V46.2875ZM880.517 46.2875H735.608V191.284H880.517V46.2875ZM884.233 46.2875H1029.14V191.284H884.233V46.2875ZM-11.2328 195.002H-156.142V339.998H-11.2328V195.002ZM-7.5172 195.002H137.392V339.998H-7.5172V195.002ZM286.017 195.002H141.108V339.998H286.017V195.002ZM289.733 195.002H434.642V339.998H289.733V195.002ZM583.267 195.002H438.358V339.998H583.267V195.002ZM586.983 195.002H731.892V339.998H586.983V195.002ZM880.517 195.002H735.608V339.998H880.517V195.002ZM884.233 195.002H1029.14V339.998H884.233V195.002ZM-11.2328 343.716H-156.142V488.713H-11.2328V343.716ZM-7.5172 343.716H137.392V488.713H-7.5172V343.716ZM286.017 343.716H141.108V488.713H286.017V343.716ZM289.733 343.716H434.642V488.713H289.733V343.716ZM583.267 343.716H438.358V488.713H583.267V343.716ZM586.983 343.716H731.892V488.713H586.983V343.716ZM880.517 343.716H735.608V488.713H880.517V343.716ZM884.233 343.716H1029.14V488.713H884.233V343.716ZM-11.2328 492.43H-156.142V637.427H-11.2328V492.43ZM-7.5172 492.43H137.392V637.427H-7.5172V492.43ZM286.017 492.43H141.108V637.427H286.017V492.43ZM289.733 492.43H434.642V637.427H289.733V492.43ZM583.267 492.43H438.358V637.427H583.267V492.43ZM586.983 492.43H731.892V637.427H586.983V492.43ZM880.517 492.43H735.608V637.427H880.517V492.43ZM884.233 492.43H1029.14V637.427H884.233V492.43ZM-11.2328 641.145H-156.142V786.141H-11.2328V641.145ZM-7.5172 641.145H137.392V786.141H-7.5172V641.145ZM286.017 641.145H141.108V786.141H286.017V641.145ZM289.733 641.145H434.642V786.141H289.733V641.145ZM583.267 641.145H438.358V786.141H583.267V641.145ZM586.983 641.145H731.892V786.141H586.983V641.145ZM880.517 641.145H735.608V786.141H880.517V641.145ZM884.233 641.145H1029.14V786.141H884.233V641.145Z" fill="url(#paint0_linear_1414_43)"/>
<path fill-rule="evenodd" clip-rule="evenodd" d="M-158 -253H1031V788H-158V-253ZM-156.142 -251.141H-11.2328V-106.145H-156.142V-251.141ZM-7.5172 -251.141H137.392V-106.145H-7.5172V-251.141ZM286.017 -251.141H141.108V-106.145H286.017V-251.141ZM289.733 -251.141H434.642V-106.145H289.733V-251.141ZM583.267 -251.141H438.358V-106.145H583.267V-251.141ZM586.983 -251.141H731.892V-106.145H586.983V-251.141ZM880.517 -251.141H735.608V-106.145H880.517V-251.141ZM884.233 -251.141H1029.14V-106.145H884.233V-251.141ZM-11.2328 -102.427H-156.142V42.5697H-11.2328V-102.427ZM-7.5172 -102.427H137.392V42.5697H-7.5172V-102.427ZM286.017 -102.427H141.108V42.5697H286.017V-102.427ZM289.733 -102.427H434.642V42.5697H289.733V-102.427ZM583.267 -102.427H438.358V42.5697H583.267V-102.427ZM586.983 -102.427H731.892V42.5697H586.983V-102.427ZM880.517 -102.427H735.608V42.5697H880.517V-102.427ZM884.233 -102.427H1029.14V42.5697H884.233V-102.427ZM-11.2328 46.2875H-156.142V191.284H-11.2328V46.2875ZM-7.5172 46.2875H137.392V191.284H-7.5172V46.2875ZM286.017 46.2875H141.108V191.284H286.017V46.2875ZM289.733 46.2875H434.642V191.284H289.733V46.2875ZM583.267 46.2875H438.358V191.284H583.267V46.2875ZM586.983 46.2875H731.892V191.284H586.983V46.2875ZM880.517 46.2875H735.608V191.284H880.517V46.2875ZM884.233 46.2875H1029.14V191.284H884.233V46.2875ZM-11.2328 195.002H-156.142V339.998H-11.2328V195.002ZM-7.5172 195.002H137.392V339.998H-7.5172V195.002ZM286.017 195.002H141.108V339.998H286.017V195.002ZM289.733 195.002H434.642V339.998H289.733V195.002ZM583.267 195.002H438.358V339.998H583.267V195.002ZM586.983 195.002H731.892V339.998H586.983V195.002ZM880.517 195.002H735.608V339.998H880.517V195.002ZM884.233 195.002H1029.14V339.998H884.233V195.002ZM-11.2328 343.716H-156.142V488.713H-11.2328V343.716ZM-7.5172 343.716H137.392V488.713H-7.5172V343.716ZM286.017 343.716H141.108V488.713H286.017V343.716ZM289.733 343.716H434.642V488.713H289.733V343.716ZM583.267 343.716H438.358V488.713H583.267V343.716ZM586.983 343.716H731.892V488.713H586.983V343.716ZM880.517 343.716H735.608V488.713H880.517V343.716ZM884.233 343.716H1029.14V488.713H884.233V343.716ZM-11.2328 492.43H-156.142V637.427H-11.2328V492.43ZM-7.5172 492.43H137.392V637.427H-7.5172V492.43ZM286.017 492.43H141.108V637.427H286.017V492.43ZM289.733 492.43H434.642V637.427H289.733V492.43ZM583.267 492.43H438.358V637.427H583.267V492.43ZM586.983 492.43H731.892V637.427H586.983V492.43ZM880.517 492.43H735.608V637.427H880.517V492.43ZM884.233 492.43H1029.14V637.427H884.233V492.43ZM-11.2328 641.145H-156.142V786.141H-11.2328V641.145ZM-7.5172 641.145H137.392V786.141H-7.5172V641.145ZM286.017 641.145H141.108V786.141H286.017V641.145ZM289.733 641.145H434.642V786.141H289.733V641.145ZM583.267 641.145H438.358V786.141H583.267V641.145ZM586.983 641.145H731.892V786.141H586.983V641.145ZM880.517 641.145H735.608V786.141H880.517V641.145ZM884.233 641.145H1029.14V786.141H884.233V641.145Z" stroke="url(#paint1_linear_1414_43)" stroke-width="2" mask="url(#path-2-outside-2_1414_43)"/>
<circle cx="1707" cy="267" r="280" stroke="white" stroke-width="6"/>
<circle cx="1708" cy="267" r="348" stroke="white" stroke-width="6"/>
</g>
<defs>
<linearGradient id="paint0_linear_1414_43" x1="884" y1="245.5" x2="-7.49996" y2="233" gradientUnits="userSpaceOnUse">
<stop stop-color="white"/>
<stop offset="1" stop-color="white" stop-opacity="0"/>
</linearGradient>
<linearGradient id="paint1_linear_1414_43" x1="1587" y1="224.5" x2="-11.4999" y2="203.5" gradientUnits="userSpaceOnUse">
<stop stop-color="white"/>
<stop offset="1" stop-color="white" stop-opacity="0"/>
</linearGradient>
<clipPath id="clip0_1414_43">
<rect width="2162" height="534" fill="white"/>
</clipPath>
</defs>
</svg>
