<svg width="711" height="563" viewBox="0 0 711 563" fill="none" xmlns="http://www.w3.org/2000/svg">
<rect x="334.494" y="123.007" width="255.67" height="21.1252" transform="rotate(35 334.494 123.007)" fill="white"/>
<path d="M309.679 122.953L322.487 140.101L334.768 123.418L314.869 116.021C310.651 114.452 306.986 119.347 309.679 122.953Z" fill="white"/>
<path d="M606.433 301.788L649.64 489.819C650.055 491.625 649.017 493.447 647.252 494.011L535.397 529.754C533.128 530.479 530.801 528.818 530.749 526.437L527.336 368.763C527.323 368.163 527.159 367.577 526.86 367.058L513.646 344.168C513.371 343.691 512.99 343.285 512.531 342.981L447.66 299.903C447.501 299.797 447.351 299.713 447.178 299.631C444.278 298.262 416.286 284.496 413.616 262.138C412.558 253.285 409.332 232.7 409.11 231.286C409.101 231.231 409.092 231.182 409.081 231.128L403.578 204.367C403.014 201.624 405.688 199.332 408.312 200.309L424.348 206.281C425.332 206.647 426.104 207.429 426.459 208.417L437.632 239.552C437.719 239.794 437.826 240.018 437.967 240.234C439.818 243.074 453.922 263.949 466.645 261.094C480.916 257.892 484.356 241.782 482.687 227.252C480.261 206.127 443.553 193.64 443.449 193.605L443.444 193.604L423.562 186.793C420.162 185.628 420.429 180.732 423.937 179.945L424.942 179.719C431.633 178.217 438.482 177.545 445.337 177.718L453.882 177.934C454.575 177.951 455.266 178.018 455.95 178.133L492.339 184.265C494.788 184.678 496.898 182.52 496.431 180.08L487.986 136.028C487.942 135.798 487.876 135.573 487.787 135.356L462.062 72.1361C459.072 64.7876 460.405 56.3868 465.525 50.3259C468.451 46.8617 473.906 47.2655 476.29 51.1228L508.914 103.906C509.005 104.053 509.085 104.207 509.154 104.366L528.52 149.191C530.068 152.774 535.423 151.618 535.354 147.715L535.141 135.5C535.134 135.075 535.051 134.656 534.896 134.26L513.028 78.5194C510.058 70.9467 510.14 62.5171 513.257 55.0035C514.717 51.4839 518.652 49.695 522.264 50.9089L525.078 51.8545C525.644 52.0448 526.108 52.4575 526.364 52.9976L564.658 133.993C564.767 134.223 564.851 134.465 564.908 134.714L572.056 165.647C572.827 168.983 577.399 169.419 578.786 166.289L589.094 143.035C589.243 142.698 589.331 142.337 589.353 141.969L592.575 88.3451C592.965 81.8541 597.562 76.3853 603.889 74.885C608.203 73.8623 612.393 76.9862 612.644 81.4121L615.574 133.087C615.588 133.331 615.577 133.575 615.541 133.816L604.735 206.118C604.706 206.313 604.693 206.51 604.696 206.707L606.343 301.052C606.347 301.3 606.377 301.547 606.433 301.788Z" fill="#F68EFF"/>
<path d="M419.452 216.239C420.791 208.242 406.051 200.381 406.051 200.381L403.535 202.347L404.174 206.404L408.419 227.39C408.419 227.39 418.441 222.281 419.452 216.239Z" fill="white"/>
<path d="M434.185 186.594L424.724 183.239C423.606 182.842 423.779 181.209 424.955 181.056L437.962 179.362C438.936 179.235 439.596 180.326 439.032 181.129L435.486 186.179C435.195 186.594 434.663 186.764 434.185 186.594Z" fill="white"/>
<path d="M469.194 63.7423L472.608 55.468C473.678 52.876 477.254 52.6334 478.664 55.0572L483.949 64.144C484.848 65.6882 484.391 67.6646 482.907 68.6588L475.79 73.426C473.879 74.7057 471.276 73.7492 470.649 71.537L469.066 65.9572C468.859 65.2256 468.904 64.4453 469.194 63.7423Z" fill="white"/>
<path d="M518.661 60.4729L522.261 55.9352C523.776 54.0265 526.75 54.2944 527.899 56.443L532.232 64.5466C533.262 66.4737 532.224 68.8577 530.111 69.416L521.459 71.7022C519.144 72.3141 516.942 70.3938 517.234 68.0166L517.953 62.1646C518.029 61.5463 518.274 60.9609 518.661 60.4729Z" fill="white"/>
<path d="M600.745 86.9958L606.465 80.344C608.461 78.0219 612.27 79.3333 612.413 82.3924L612.982 94.5004C613.059 96.1391 611.95 97.5971 610.35 97.9605L603.193 99.5866C600.906 100.106 598.797 98.2 599.082 95.8727L599.952 88.7904C600.034 88.127 600.31 87.5026 600.745 86.9958Z" fill="white"/>
<rect x="334.5" y="123.004" width="255.67" height="21.1252" rx="10.5626" transform="rotate(35 334.5 123.004)" fill="white"/>
<rect width="187.779" height="15.5156" transform="matrix(-0.866026 0.5 0.5 0.866026 269.963 219.895)" fill="white"/>
<path d="M288.125 221.445L277.656 233.172L269.739 220.179L284.772 216.04C287.958 215.163 290.326 218.979 288.125 221.445Z" fill="white"/>
<path d="M59.5711 333.304L15.9215 468.114C15.5023 469.408 16.1452 470.808 17.4006 471.334L96.9532 504.646C98.5665 505.322 100.376 504.255 100.566 502.516L113.156 387.37C113.204 386.933 113.361 386.514 113.614 386.154L124.747 370.251C124.979 369.92 125.284 369.648 125.639 369.454L175.86 342.088C175.984 342.021 176.098 341.969 176.23 341.92C178.44 341.104 199.802 332.824 203.187 316.636C204.527 310.227 208.205 295.372 208.458 294.352C208.468 294.312 208.478 294.277 208.489 294.238L214.229 275.01C214.817 273.039 213.007 271.191 211.025 271.738L198.91 275.081C198.166 275.286 197.551 275.808 197.229 276.508L187.061 298.574C186.981 298.745 186.888 298.902 186.772 299.051C185.235 301.01 173.58 315.381 164.454 312.478C154.217 309.222 152.731 297.215 154.883 286.69C158.01 271.389 185.667 264.603 185.745 264.584L185.749 264.583L200.732 260.872C203.295 260.238 203.412 256.638 200.896 255.838L200.175 255.608C195.376 254.081 190.408 253.151 185.381 252.839L179.115 252.449C178.607 252.418 178.097 252.422 177.59 252.463L150.573 254.62C148.754 254.765 147.348 253.052 147.847 251.296L156.845 219.605C156.892 219.44 156.955 219.279 157.034 219.126L179.903 174.518C182.561 169.332 182.123 163.1 178.765 158.338C176.846 155.616 172.829 155.563 170.837 158.232L143.589 194.763C143.513 194.865 143.444 194.973 143.384 195.085L126.345 226.641C124.983 229.165 121.14 227.976 121.439 225.124L122.377 216.2C122.41 215.89 122.498 215.589 122.636 215.309L142.204 175.926C144.862 170.575 145.342 164.402 143.542 158.705C142.699 156.037 139.934 154.476 137.214 155.133L135.094 155.644C134.668 155.747 134.302 156.02 134.081 156.399L100.877 213.208C100.783 213.37 100.706 213.542 100.648 213.72L93.4378 235.896C92.6604 238.286 89.2873 238.313 88.4727 235.934L82.4199 218.26C82.3321 218.004 82.291 217.734 82.2983 217.463L83.3733 178.023C83.5035 173.248 80.4901 168.953 75.9567 167.45C72.8662 166.426 69.6006 168.443 69.1337 171.665L63.6817 209.287C63.656 209.464 63.6486 209.643 63.6595 209.822L66.9376 263.415C66.9464 263.559 66.9433 263.704 66.9282 263.848L59.684 332.772C59.665 332.953 59.6271 333.131 59.5711 333.304Z" fill="#615EFD"/>
<path d="M201.849 282.679C201.381 276.742 212.67 271.935 212.67 271.935L214.384 273.534L213.657 276.462L209.208 291.545C209.208 291.545 202.202 287.165 201.849 282.679Z" fill="white"/>
<path d="M192.971 260.046L200.108 258.197C200.952 257.978 200.93 256.772 200.078 256.585L190.67 254.513C189.966 254.358 189.413 255.114 189.775 255.738L192.045 259.659C192.232 259.981 192.61 260.14 192.971 260.046Z" fill="white"/>
<path d="M175.224 167.921L173.255 161.648C172.639 159.684 170.037 159.277 168.851 160.96L164.402 167.27C163.646 168.343 163.853 169.818 164.876 170.64L169.778 174.584C171.094 175.643 173.06 175.109 173.66 173.531L175.175 169.55C175.374 169.028 175.391 168.454 175.224 167.921Z" fill="white"/>
<path d="M139.232 162.361L136.889 158.811C135.903 157.317 133.709 157.323 132.731 158.821L129.042 164.473C128.165 165.817 128.772 167.628 130.282 168.171L136.466 170.398C138.121 170.994 139.855 169.73 139.793 167.972L139.642 163.644C139.626 163.187 139.484 162.743 139.232 162.361Z" fill="white"/>
<path d="M77.4786 176.512L73.7197 171.279C72.4075 169.452 69.5371 170.168 69.2362 172.397L68.0451 181.22C67.8839 182.414 68.6019 183.551 69.7491 183.92L74.882 185.568C76.5217 186.094 78.1871 184.834 78.127 183.113L77.9441 177.876C77.927 177.385 77.765 176.911 77.4786 176.512Z" fill="white"/>
<rect width="187.779" height="15.5156" rx="7.75779" transform="matrix(-0.866026 0.5 0.5 0.866026 269.973 219.895)" fill="white"/>
</svg>
