<svg width="1098" height="360" viewBox="0 0 1098 360" fill="none" xmlns="http://www.w3.org/2000/svg">
<g clip-path="url(#clip0_13_3)">
<path d="M160.167 187.976C159.536 187.976 158.95 187.886 158.364 187.661L38.5497 142.206C36.4754 141.439 35.1677 139.41 35.2128 137.201C35.303 134.991 36.746 133.097 38.8654 132.466L352.763 37.4533C355.153 36.7318 357.768 37.8592 358.851 40.1138C359.978 42.3685 359.301 45.1193 357.272 46.5623L163.189 187.029C162.287 187.661 161.25 187.976 160.167 187.976ZM56.3618 137.967L159.401 177.064L326.383 56.2574L56.3618 137.967Z" fill="#2D3B9B"/>
<path d="M160.167 190.231C159.266 190.231 158.364 190.051 157.552 189.735L37.783 144.326C34.8068 143.198 32.9129 140.312 33.0031 137.156C33.0933 133.999 35.2127 131.248 38.279 130.346L352.132 35.3339C355.604 34.2516 359.301 35.875 360.925 39.1218C362.548 42.3685 361.556 46.2917 358.625 48.4111L164.496 188.833C163.234 189.735 161.746 190.231 160.167 190.231ZM354.296 39.5276C354.026 39.5276 353.755 39.5727 353.439 39.6629L39.5417 134.63C38.3692 134.991 37.5125 136.073 37.4674 137.291C37.4223 138.554 38.1889 139.681 39.3162 140.087L159.085 185.496C159.987 185.857 161.024 185.676 161.791 185.135L355.919 44.7134C357.047 43.9017 357.453 42.3685 356.821 41.0608C356.37 40.1138 355.378 39.5276 354.296 39.5276ZM159.717 179.589L49.3721 137.697L338.603 50.1697L159.717 179.589ZM63.3512 138.193L159.085 174.493L314.208 62.2549L63.3512 138.193Z" fill="#2D3B9B"/>
<path d="M234.482 307.745C232.723 307.745 231.055 306.843 230.108 305.31L155.793 185.541C154.35 183.242 154.982 180.22 157.146 178.642L351.275 38.22C353.169 36.8221 355.739 36.9123 357.543 38.4004C359.347 39.8885 359.933 42.4137 358.941 44.5332L239.172 304.724C238.36 306.438 236.692 307.61 234.798 307.7C234.708 307.745 234.617 307.745 234.482 307.745ZM167.067 184.188L233.851 291.737L341.399 58.0613L167.067 184.188Z" fill="#2D3B9B"/>
<path d="M234.482 310C231.912 310 229.567 308.692 228.214 306.483L153.854 186.759C151.825 183.467 152.682 179.138 155.793 176.838L349.922 36.4162C352.628 34.4321 356.37 34.5674 358.941 36.6868C361.556 38.8062 362.368 42.4588 360.97 45.5251L241.201 305.716C240.074 308.196 237.684 309.865 234.933 310H234.482ZM354.251 39.5277C353.665 39.5277 353.079 39.7081 352.583 40.0688L158.454 180.491C157.236 181.393 156.876 183.061 157.687 184.369L232.047 304.138C232.588 304.995 233.49 305.491 234.482 305.491V307.745L234.617 305.491C235.745 305.4 236.646 304.769 237.097 303.822L356.866 43.6312C357.408 42.4588 357.092 41.0158 356.055 40.2041C355.559 39.7532 354.927 39.5277 354.251 39.5277ZM234.121 296.517L164.046 183.602L347.036 51.207L234.121 296.517ZM170.088 184.82L233.535 287.047L335.763 64.9606L170.088 184.82Z" fill="#2D3B9B"/>
<path d="M147.767 282.989C146.91 282.989 146.053 282.763 145.286 282.357C143.438 281.32 142.4 279.291 142.671 277.172L155.072 182.159C155.432 179.318 158.048 177.379 160.844 177.74C163.64 178.101 165.669 180.671 165.263 183.512L154.576 265.402L191.372 234.513C193.537 232.709 196.783 232.98 198.632 235.144C200.481 237.309 200.165 240.555 198.001 242.404L151.103 281.816C150.111 282.583 148.939 282.989 147.767 282.989Z" fill="#2D3B9B"/>
<path d="M147.767 285.243C146.504 285.243 145.287 284.928 144.204 284.342C141.499 282.853 140.011 279.922 140.416 276.901L152.817 181.934C153.358 177.92 157.056 175.034 161.114 175.53C163.099 175.801 164.812 176.793 166.03 178.371C167.247 179.95 167.743 181.889 167.518 183.828L157.597 259.946L189.929 232.799C193.086 230.184 197.731 230.59 200.346 233.701C202.961 236.813 202.556 241.503 199.444 244.118L152.547 283.53C151.194 284.612 149.525 285.243 147.767 285.243ZM160.167 179.95C158.724 179.95 157.462 181.032 157.281 182.475L144.881 277.442C144.745 278.615 145.332 279.787 146.369 280.373C147.361 280.914 148.714 280.824 149.616 280.058L196.513 240.646C197.731 239.609 197.911 237.805 196.874 236.587C195.837 235.37 194.033 235.189 192.815 236.227L151.6 270.813L163.053 183.196C163.144 182.43 162.963 181.663 162.467 181.077C162.016 180.446 161.295 180.085 160.573 179.995C160.393 179.95 160.303 179.95 160.167 179.95Z" fill="#2D3B9B"/>
<path d="M477.126 289.719H529.12L536.425 252.512H554.687V305.849H429V293.375L449.196 288.859V167.99L429 163.474V151H499.471V163.474L477.126 167.99V289.719ZM596.053 250.792C596.053 260.541 597.485 268.642 600.35 275.095C604.934 285.274 612.811 290.364 623.983 290.364C630.429 290.364 636.731 289.003 642.89 286.278C649.049 283.411 654.349 279.037 658.789 273.159L670.391 282.192C665.378 289.36 658.574 295.455 649.98 300.473C641.529 305.491 631.073 308 618.612 308C608.013 308 598.918 305.921 591.326 301.763C583.878 297.462 578.149 291.225 574.138 283.052C571.989 278.607 570.414 273.733 569.411 268.427C568.409 262.979 567.907 257.029 567.907 250.577C567.907 230.504 572.491 215.019 581.658 204.122C590.825 193.082 603.931 187.562 620.975 187.562C628.71 187.562 635.728 188.781 642.03 191.218C648.333 193.512 653.632 196.881 657.929 201.326C662.37 205.627 665.736 211.004 668.027 217.456C670.463 223.765 671.68 230.934 671.68 238.963C671.68 240.54 671.608 242.118 671.465 243.695C671.465 245.129 671.322 247.494 671.035 250.792H596.053ZM620.545 202.401C605.793 202.401 597.7 213.944 596.267 237.027H643.534V231.436C643.534 222.116 641.529 214.947 637.519 209.929C633.509 204.911 627.85 202.401 620.545 202.401ZM680.202 192.723L701.257 189.712L703.835 163.044L728.328 159.603V189.712H755.829V203.692H728.328V274.019C728.328 278.894 728.4 282.263 728.543 284.127C728.686 285.848 728.973 287.282 729.402 288.429C729.832 289.289 730.62 289.934 731.766 290.364C732.912 290.795 734.774 291.01 737.352 291.01H752.391V300.473C744.084 303.053 736.707 304.918 730.262 306.064C723.96 307.355 718.947 308 715.222 308C708.777 308 704.623 305.348 702.761 300.042C702.045 298.322 701.544 296.171 701.257 293.59C701.114 290.866 701.042 286.78 701.042 281.332V203.692H680.202V192.723ZM758.673 192.723L779.728 189.712L782.306 163.044L806.799 159.603V189.712H834.3V203.692H806.799V274.019C806.799 278.894 806.871 282.263 807.014 284.127C807.157 285.848 807.444 287.282 807.873 288.429C808.303 289.289 809.09 289.934 810.237 290.364C811.382 290.795 813.245 291.01 815.823 291.01H830.862V300.473C822.555 303.053 815.178 304.918 808.733 306.064C802.43 307.355 797.417 308 793.693 308C787.248 308 783.094 305.348 781.232 300.042C780.515 298.322 780.014 296.171 779.728 293.59C779.585 290.866 779.513 286.78 779.513 281.332V203.692H758.673V192.723ZM872.379 250.792C872.379 260.541 873.811 268.642 876.676 275.095C881.259 285.274 889.137 290.364 900.307 290.364C906.753 290.364 913.059 289.003 919.217 286.278C925.376 283.411 930.673 279.037 935.118 273.159L946.713 282.192C941.703 289.36 934.897 295.455 926.303 300.473C917.856 305.491 907.401 308 894.936 308C884.339 308 875.243 305.921 867.652 301.763C860.203 297.462 854.475 291.225 850.464 283.052C848.315 278.607 846.74 273.733 845.737 268.427C844.734 262.979 844.233 257.029 844.233 250.577C844.233 230.504 848.816 215.019 857.984 204.122C867.151 193.082 880.257 187.562 897.298 187.562C905.039 187.562 912.05 188.781 918.357 191.218C924.663 193.512 929.96 196.881 934.257 201.326C938.693 205.627 942.064 211.004 944.352 217.456C946.787 223.765 948.009 230.934 948.009 238.963C948.009 240.54 947.935 242.118 947.788 243.695C947.788 245.129 947.648 247.494 947.361 250.792H872.379ZM896.871 202.401C882.118 202.401 874.026 213.944 872.593 237.027H919.857V231.436C919.857 222.116 917.856 214.947 913.846 209.929C909.836 204.911 904.178 202.401 896.871 202.401ZM1026.36 205.412C1025.07 205.412 1023.71 205.986 1022.27 207.133C1020.84 208.28 1019.41 209.714 1017.97 211.434C1016.69 213.155 1015.47 215.019 1014.33 217.026C1013.32 218.89 1012.53 220.539 1011.96 221.973C1010.24 226.991 1008.73 232.081 1007.45 237.242C1006.16 242.26 1005.51 248.497 1005.51 255.953V289.719L1028.72 293.805V305.849H961.687V293.805L978.227 289.719V202.616L961.687 198.53V189.712H999.065L1003.8 218.101H1004.66C1007.95 208.208 1012.32 200.681 1017.76 195.519C1023.35 190.214 1029.58 187.562 1036.45 187.562C1042.03 187.562 1046.69 189.354 1050.42 192.938C1054.14 196.379 1056 201.04 1056 206.918C1056 211.219 1054.71 215.162 1052.14 218.747C1049.55 222.188 1045.91 223.908 1041.18 223.908C1035.3 223.908 1031.15 222.618 1028.72 220.037C1026.43 217.313 1025.28 214.374 1025.28 211.219C1025.28 210.215 1025.36 209.427 1025.49 208.853C1025.63 208.137 1025.92 206.989 1026.36 205.412Z" fill="#2D3B9B"/>
<path d="M478.841 61.9318C478.864 58.5 477.75 55.875 475.5 54.0568C473.273 52.2386 470.159 51.3295 466.159 51.3295C463.295 51.3295 460.739 51.7841 458.489 52.6932C456.261 53.5795 454.443 54.8068 453.034 56.375C451.648 57.9205 450.795 59.6818 450.477 61.6591C450.182 63.3182 450.33 64.75 450.92 65.9545C451.534 67.1591 452.409 68.1705 453.545 68.9886C454.705 69.7841 455.977 70.4545 457.364 71C458.75 71.5227 460.091 71.9545 461.386 72.2955L467.932 74.0682C470.045 74.6136 472.193 75.3523 474.375 76.2841C476.557 77.2159 478.523 78.4432 480.273 79.9659C482.023 81.4886 483.33 83.375 484.193 85.625C485.057 87.875 485.227 90.5682 484.705 93.7045C484.023 97.6591 482.42 101.17 479.898 104.239C477.375 107.307 474.045 109.727 469.909 111.5C465.773 113.273 460.977 114.159 455.523 114.159C450.295 114.159 445.898 113.33 442.33 111.67C438.784 110.011 436.182 107.659 434.523 104.614C432.864 101.545 432.273 97.9091 432.75 93.7045H443.352C443.102 96.2273 443.557 98.3295 444.716 100.011C445.898 101.67 447.557 102.909 449.693 103.727C451.83 104.523 454.25 104.92 456.955 104.92C459.955 104.92 462.693 104.455 465.17 103.523C467.648 102.568 469.693 101.25 471.307 99.5682C472.92 97.8636 473.909 95.875 474.273 93.6023C474.636 91.5341 474.341 89.8409 473.386 88.5227C472.455 87.2045 471.045 86.1136 469.159 85.25C467.295 84.3864 465.17 83.625 462.784 82.9659L454.909 80.7159C449.568 79.1932 445.523 76.9545 442.773 74C440.023 71.0455 439.034 67.1364 439.807 62.2727C440.489 58.25 442.17 54.7386 444.852 51.7386C447.534 48.7386 450.875 46.4091 454.875 44.75C458.875 43.0682 463.216 42.2273 467.898 42.2273C472.625 42.2273 476.648 43.0682 479.966 44.75C483.284 46.4318 485.739 48.75 487.33 51.7045C488.92 54.6591 489.477 58.0682 489 61.9318H478.841ZM530.054 91.2841L535.168 60.6364H545.395L536.668 113H526.645L528.179 103.932H527.634C525.997 106.727 523.679 109.057 520.679 110.92C517.702 112.761 514.247 113.682 510.315 113.682C506.952 113.682 504.099 112.943 501.759 111.466C499.44 109.966 497.793 107.75 496.815 104.818C495.838 101.886 495.702 98.2614 496.406 93.9432L501.997 60.6364H512.19L506.838 92.7159C506.27 96.2841 506.804 99.125 508.44 101.239C510.077 103.352 512.463 104.409 515.599 104.409C517.509 104.409 519.486 103.932 521.531 102.977C523.577 102.023 525.384 100.58 526.952 98.6477C528.543 96.7159 529.577 94.2614 530.054 91.2841ZM547.125 132.636L559.193 60.6364H569.148L567.75 69.125H568.602C569.375 68.0341 570.42 66.7727 571.739 65.3409C573.08 63.9091 574.841 62.6591 577.023 61.5909C579.205 60.5 581.92 59.9545 585.17 59.9545C589.398 59.9545 592.977 61.0227 595.909 63.1591C598.841 65.2955 600.932 68.375 602.182 72.3977C603.432 76.4205 603.591 81.2614 602.659 86.9205C601.727 92.5795 599.977 97.4318 597.409 101.477C594.841 105.5 591.727 108.602 588.068 110.784C584.432 112.943 580.489 114.023 576.239 114.023C573.057 114.023 570.545 113.489 568.705 112.42C566.886 111.352 565.534 110.102 564.648 108.67C563.761 107.239 563.091 105.966 562.636 104.852H562.023L557.386 132.636H547.125ZM564.818 86.8182C564.227 90.5 564.227 93.7273 564.818 96.5C565.409 99.2727 566.591 101.443 568.364 103.011C570.159 104.557 572.523 105.33 575.455 105.33C578.5 105.33 581.17 104.523 583.466 102.909C585.761 101.273 587.659 99.0568 589.159 96.2614C590.682 93.4659 591.739 90.3182 592.33 86.8182C592.898 83.3636 592.886 80.2614 592.295 77.5114C591.727 74.7614 590.557 72.5909 588.784 71C587.011 69.4091 584.591 68.6136 581.523 68.6136C578.545 68.6136 575.909 69.375 573.614 70.8977C571.341 72.4205 569.455 74.5455 567.955 77.2727C566.455 80 565.409 83.1818 564.818 86.8182ZM606.469 132.636L618.537 60.6364H628.491L627.094 69.125H627.946C628.719 68.0341 629.764 66.7727 631.082 65.3409C632.423 63.9091 634.185 62.6591 636.366 61.5909C638.548 60.5 641.264 59.9545 644.514 59.9545C648.741 59.9545 652.321 61.0227 655.253 63.1591C658.185 65.2955 660.276 68.375 661.526 72.3977C662.776 76.4205 662.935 81.2614 662.003 86.9205C661.071 92.5795 659.321 97.4318 656.753 101.477C654.185 105.5 651.071 108.602 647.412 110.784C643.776 112.943 639.832 114.023 635.582 114.023C632.401 114.023 629.889 113.489 628.048 112.42C626.23 111.352 624.878 110.102 623.991 108.67C623.105 107.239 622.435 105.966 621.98 104.852H621.366L616.73 132.636H606.469ZM624.162 86.8182C623.571 90.5 623.571 93.7273 624.162 96.5C624.753 99.2727 625.935 101.443 627.707 103.011C629.503 104.557 631.866 105.33 634.798 105.33C637.844 105.33 640.514 104.523 642.81 102.909C645.105 101.273 647.003 99.0568 648.503 96.2614C650.026 93.4659 651.082 90.3182 651.673 86.8182C652.241 83.3636 652.23 80.2614 651.639 77.5114C651.071 74.7614 649.901 72.5909 648.128 71C646.355 69.4091 643.935 68.6136 640.866 68.6136C637.889 68.6136 635.253 69.375 632.957 70.8977C630.685 72.4205 628.798 74.5455 627.298 77.2727C625.798 80 624.753 83.1818 624.162 86.8182ZM691.347 114.057C686.369 114.057 682.21 112.92 678.869 110.648C675.528 108.352 673.176 105.148 671.812 101.034C670.472 96.8977 670.244 92.0909 671.131 86.6136C671.994 81.25 673.733 76.5682 676.347 72.5682C678.983 68.5682 682.278 65.4659 686.233 63.2614C690.21 61.0568 694.631 59.9545 699.494 59.9545C704.472 59.9545 708.619 61.1023 711.938 63.3977C715.278 65.6932 717.631 68.9091 718.994 73.0455C720.358 77.1818 720.597 82 719.71 87.5C718.847 92.8182 717.085 97.4773 714.426 101.477C711.79 105.455 708.494 108.545 704.54 110.75C700.585 112.955 696.188 114.057 691.347 114.057ZM691.926 105.5C695.199 105.5 698.051 104.636 700.483 102.909C702.938 101.182 704.938 98.8864 706.483 96.0227C708.028 93.1591 709.085 90.0227 709.653 86.6136C710.176 83.3182 710.165 80.3068 709.619 77.5795C709.097 74.8295 707.96 72.625 706.21 70.9659C704.46 69.3068 702.028 68.4773 698.915 68.4773C695.642 68.4773 692.767 69.3523 690.29 71.1023C687.835 72.8295 685.835 75.1364 684.29 78.0227C682.767 80.9091 681.733 84.0568 681.188 87.4659C680.665 90.7386 680.665 93.75 681.188 96.5C681.71 99.2273 682.847 101.409 684.597 103.045C686.347 104.682 688.79 105.5 691.926 105.5ZM726.895 113L735.622 60.6364H745.474L744.077 68.9545H744.622C746.031 66.1364 748.088 63.9205 750.793 62.3068C753.497 60.6705 756.384 59.8523 759.452 59.8523C760.111 59.8523 760.861 59.875 761.702 59.9205C762.543 59.9432 763.224 60 763.747 60.0909L762.111 69.8409C761.724 69.7273 761.02 69.6023 759.997 69.4659C758.974 69.3068 757.918 69.2273 756.827 69.2273C754.44 69.2273 752.224 69.7386 750.179 70.7614C748.134 71.7614 746.418 73.1591 745.031 74.9545C743.645 76.7273 742.747 78.75 742.338 81.0227L737.088 113H726.895ZM800.19 60.6364L798.861 68.8182H770.259L771.588 60.6364H800.19ZM781.304 48.0909H791.497L783.247 97.625C782.929 99.6023 782.986 101.091 783.418 102.091C783.849 103.068 784.509 103.739 785.395 104.102C786.304 104.443 787.315 104.614 788.429 104.614C789.247 104.614 789.963 104.557 790.577 104.443C791.19 104.33 791.679 104.239 792.043 104.17L792.588 112.591C791.906 112.818 790.986 113.045 789.827 113.273C788.69 113.523 787.304 113.659 785.668 113.682C782.986 113.727 780.565 113.25 778.406 112.25C776.247 111.227 774.634 109.682 773.565 107.614C772.497 105.523 772.236 102.898 772.781 99.7386L781.304 48.0909ZM824.608 114.057C819.472 114.057 815.222 112.955 811.858 110.75C808.517 108.523 806.176 105.398 804.835 101.375C803.494 97.3295 803.278 92.5909 804.188 87.1591C805.074 81.7955 806.858 77.0682 809.54 72.9773C812.222 68.8864 815.562 65.6932 819.562 63.3977C823.585 61.1023 828.028 59.9545 832.892 59.9545C835.847 59.9545 838.631 60.4432 841.244 61.4205C843.881 62.3977 846.119 63.9318 847.96 66.0227C849.801 68.1136 851.074 70.8295 851.778 74.1705C852.506 77.4886 852.483 81.5227 851.71 86.2727L851.131 89.8864H809.472L810.665 82.25H842.301C842.778 79.5682 842.653 77.1932 841.926 75.125C841.199 73.0341 839.949 71.3864 838.176 70.1818C836.426 68.9773 834.222 68.375 831.562 68.375C828.835 68.375 826.29 69.0909 823.926 70.5227C821.563 71.9545 819.585 73.7841 817.994 76.0114C816.426 78.2159 815.438 80.4886 815.028 82.8295L813.835 89.8182C813.244 93.6364 813.347 96.7045 814.142 99.0227C814.96 101.341 816.392 103.023 818.438 104.068C820.483 105.114 823.04 105.636 826.108 105.636C828.085 105.636 829.915 105.364 831.597 104.818C833.301 104.25 834.813 103.42 836.131 102.33C837.449 101.216 838.551 99.8295 839.438 98.1705L848.778 99.9091C847.528 102.75 845.733 105.239 843.392 107.375C841.051 109.489 838.29 111.136 835.108 112.318C831.949 113.477 828.449 114.057 824.608 114.057ZM878.241 114.023C873.991 114.023 870.389 112.943 867.435 110.784C864.503 108.602 862.423 105.5 861.196 101.477C859.991 97.4318 859.855 92.5795 860.787 86.9205C861.741 81.2614 863.503 76.4205 866.071 72.3977C868.639 68.375 871.753 65.2955 875.412 63.1591C879.071 61.0227 883.014 59.9545 887.241 59.9545C890.491 59.9545 893.014 60.5 894.81 61.5909C896.628 62.6591 897.969 63.9091 898.832 65.3409C899.696 66.7727 900.344 68.0341 900.776 69.125H901.355L905.685 43.1818H915.878L904.287 113H894.332L895.73 104.852H894.878C894.082 105.966 892.98 107.239 891.571 108.67C890.185 110.102 888.412 111.352 886.253 112.42C884.094 113.489 881.423 114.023 878.241 114.023ZM881.685 105.33C884.616 105.33 887.241 104.557 889.56 103.011C891.901 101.443 893.844 99.2727 895.389 96.5C896.957 93.7273 898.048 90.5 898.662 86.8182C899.276 83.1818 899.264 80 898.628 77.2727C897.991 74.5455 896.764 72.4205 894.946 70.8977C893.128 69.375 890.73 68.6136 887.753 68.6136C884.685 68.6136 882.014 69.4091 879.741 71C877.469 72.5909 875.605 74.7614 874.151 77.5114C872.719 80.2614 871.719 83.3636 871.151 86.8182C870.56 90.3182 870.537 93.4659 871.082 96.2614C871.628 99.0568 872.776 101.273 874.526 102.909C876.276 104.523 878.662 105.33 881.685 105.33ZM945.026 113L956.616 43.1818H966.81L962.548 69.125H963.162C963.935 68.0341 964.991 66.7727 966.332 65.3409C967.696 63.9091 969.457 62.6591 971.616 61.5909C973.776 60.5 976.48 59.9545 979.73 59.9545C983.957 59.9545 987.548 61.0227 990.503 63.1591C993.457 65.2955 995.548 68.375 996.776 72.3977C998.003 76.4205 998.151 81.2614 997.219 86.9205C996.287 92.5795 994.537 97.4318 991.969 101.477C989.423 105.5 986.321 108.602 982.662 110.784C979.003 112.943 975.06 114.023 970.832 114.023C967.651 114.023 965.139 113.489 963.298 112.42C961.48 111.352 960.116 110.102 959.207 108.67C958.321 107.239 957.651 105.966 957.196 104.852H956.344L954.98 113H945.026ZM959.378 86.8182C958.787 90.5 958.787 93.7273 959.378 96.5C959.991 99.2727 961.185 101.443 962.957 103.011C964.753 104.557 967.105 105.33 970.014 105.33C973.06 105.33 975.741 104.523 978.06 102.909C980.378 101.273 982.287 99.0568 983.787 96.2614C985.287 93.4659 986.332 90.3182 986.923 86.8182C987.469 83.3636 987.457 80.2614 986.889 77.5114C986.321 74.7614 985.139 72.5909 983.344 71C981.571 69.4091 979.151 68.6136 976.082 68.6136C973.128 68.6136 970.503 69.375 968.207 70.8977C965.912 72.4205 964.014 74.5455 962.514 77.2727C961.014 80 959.969 83.1818 959.378 86.8182ZM1005.76 132.636C1004.21 132.636 1002.84 132.511 1001.63 132.261C1000.43 132.034 999.531 131.784 998.94 131.511L1002.83 123.159C1004.62 123.659 1006.22 123.852 1007.63 123.739C1009.07 123.625 1010.41 123.034 1011.66 121.966C1012.91 120.898 1014.18 119.216 1015.47 116.92L1017.38 113.477L1007.12 60.6364H1017.62L1024.1 101.375H1024.64L1044.69 60.6364H1056.04L1024.64 119.92C1023.17 122.739 1021.49 125.08 1019.6 126.943C1017.74 128.83 1015.64 130.25 1013.33 131.205C1011.03 132.159 1008.51 132.636 1005.76 132.636Z" fill="#2D3B9B"/>
</g>
<defs>
<clipPath id="clip0_13_3">
<rect width="1098" height="360" fill="white"/>
</clipPath>
</defs>
</svg>
