<svg width="232" height="51" viewBox="0 0 232 51" fill="none" xmlns="http://www.w3.org/2000/svg">
<path d="M0.515559 50.5958C0.230331 50.5958 0 50.3655 0 50.0803V18.445C0 8.28062 8.2394 0.0400314 18.405 0.0400314C18.689 0.0400314 18.9205 0.270363 18.9205 0.555591V32.1909C18.9193 42.3552 10.6799 50.5958 0.515559 50.5958Z" fill="#4064AC"/>
<path d="M25.953 37.6C25.5687 37.6 25.2584 37.2885 25.2584 36.9054V0.694573C25.2584 0.311484 25.5699 0 25.953 0C35.9527 0 44.0596 8.10692 44.0596 18.1066V19.4934C44.0596 29.4931 35.9527 37.6 25.953 37.6Z" fill="#61BEEC"/>
<path d="M67.8566 14.9018H59.0467L58.9703 37.6007L63.4791 37.6771V30.5691H67.8554C72.1493 30.5691 75.6305 27.0878 75.6305 22.7939V22.6769C75.6317 18.383 72.1505 14.9018 67.8566 14.9018ZM67.2825 26.9768H63.4803V18.6849C63.9075 18.6849 65.2036 18.6849 67.0498 18.6921C69.4307 18.7005 71.4285 20.45 71.4285 22.8309C71.4285 25.1211 69.5715 26.9768 67.2825 26.9768Z" fill="#353534"/>
<path d="M82.2018 22.3814V20.1031H77.6167V37.6811H82.2018V28.401C82.8331 26.7063 84.3858 24.0199 87.8575 24.23L87.9338 19.7212C87.9338 19.7212 84.7916 19.1341 82.2018 22.3814Z" fill="#353534"/>
<path d="M106.284 28.7579C106.284 33.6987 102.398 37.705 97.6053 37.705C92.8125 37.705 88.9268 33.6999 88.9268 28.7579C88.9268 23.8172 92.8125 19.8108 97.6053 19.8108C102.398 19.8108 106.284 23.8172 106.284 28.7579ZM97.6029 23.6704C95.0228 23.6704 92.9307 25.9593 92.9307 28.7818C92.9307 31.6042 95.0228 33.8932 97.6029 33.8932C100.183 33.8932 102.275 31.6042 102.275 28.7818C102.275 25.9593 100.183 23.6704 97.6029 23.6704Z" fill="#353534"/>
<path d="M232 28.7579C232 33.6987 228.099 37.705 223.287 37.705C218.475 37.705 214.575 33.6999 214.575 28.7579C214.575 23.8172 218.475 19.8108 223.287 19.8108C228.099 19.8108 232 23.8172 232 28.7579ZM223.286 23.6704C220.695 23.6704 218.596 25.9593 218.596 28.7818C218.596 31.6042 220.696 33.8932 223.286 33.8932C225.875 33.8932 227.976 31.6042 227.976 28.7818C227.976 25.9593 225.875 23.6704 223.286 23.6704Z" fill="#353534"/>
<path d="M136.546 28.7579C136.546 33.6987 132.66 37.705 127.867 37.705C123.075 37.705 119.189 33.6999 119.189 28.7579C119.189 23.8172 123.075 19.8108 127.867 19.8108C132.66 19.8108 136.546 23.8172 136.546 28.7579ZM127.866 23.6704C125.286 23.6704 123.194 25.9593 123.194 28.7818C123.194 31.6042 125.286 33.8932 127.866 33.8932C130.446 33.8932 132.538 31.6042 132.538 28.7818C132.537 25.9593 130.446 23.6704 127.866 23.6704Z" fill="#353534"/>
<path d="M115.445 33.9324C113.916 33.9324 113.84 32.48 113.84 32.48V23.8432H117.966V20.1759H113.84V15.5131L109.331 17.0419C109.331 17.0419 109.317 18.3225 109.306 20.1759H107.267V23.8444H109.293C109.289 27.8257 109.323 32.3082 109.484 33.5505C109.789 35.9195 111.012 37.3719 114.375 37.5247C117.739 37.6774 118.197 36.8372 118.197 36.8372V33.0923C118.197 33.0923 116.974 33.9324 115.445 33.9324Z" fill="#353534"/>
<path d="M145.708 33.9324C144.179 33.9324 144.103 32.48 144.103 32.48V23.8432H148.23V20.1759H144.103V15.5131L139.593 17.0419C139.593 17.0419 139.579 18.3225 139.568 20.1759H137.53V23.8444H139.555C139.551 27.8257 139.585 32.3082 139.746 33.5505C140.051 35.9195 141.274 37.3719 144.638 37.5247C148.001 37.6774 148.459 36.8372 148.459 36.8372V33.0923C148.46 33.0923 147.237 33.9324 145.708 33.9324Z" fill="#353534"/>
<path d="M164.664 20.1784L156.027 42.4954H151.442L153.811 37.0689L147.926 23.0056L148.232 20.1784H151.288L156.027 32.3298L160.154 20.1784H164.664Z" fill="#353534"/>
<path d="M184.117 28.8132C184.117 33.7324 180.529 37.7209 176.103 37.7209C173.914 37.7209 171.932 36.7447 170.486 35.1634V42.4504H166.194V20.1716H170.486V22.463C171.932 20.8817 173.914 19.9054 176.103 19.9054C180.529 19.9054 184.117 23.8927 184.117 28.8132ZM175.021 23.6373C172.466 23.6373 170.395 25.9227 170.395 28.7404C170.395 31.5592 172.467 33.8434 175.021 33.8434C177.576 33.8434 179.646 31.558 179.646 28.7404C179.646 25.9227 177.576 23.6373 175.021 23.6373Z" fill="#353534"/>
<path d="M191.017 22.4557V20.1548H186.489V37.6373H191.017V27.8405C191.475 26.801 192.209 25.6064 193.309 25.0276C195.487 23.8807 196.577 24.1671 196.577 24.1671V19.8111C196.577 19.8111 192.445 19.7288 191.017 22.4557Z" fill="#353534"/>
<path d="M203.001 34.9103C203.001 36.3818 201.808 37.5752 200.337 37.5752C198.865 37.5752 197.672 36.3818 197.672 34.9103C197.672 33.4388 198.865 32.2454 200.337 32.2454C201.808 32.2454 203.001 33.4376 203.001 34.9103Z" fill="#353534"/>
<path d="M211.615 14.7988C211.615 16.3061 210.393 17.527 208.886 17.527C207.379 17.527 206.158 16.3049 206.158 14.7988C206.158 13.2915 207.38 12.0706 208.886 12.0706C210.393 12.0706 211.615 13.2915 211.615 14.7988Z" fill="#353534"/>
<path d="M211.053 20.0801H206.755V37.6199H211.053V20.0801Z" fill="#353534"/>
</svg>
