<svg width="60" height="60" viewBox="0 0 60 60" fill="none" xmlns="http://www.w3.org/2000/svg">
<rect width="60" height="60" fill="white"/>
<path d="M8.51556 55.5958C8.23033 55.5958 8 55.3655 8 55.0803V23.445C8 13.2806 16.2394 5.04004 26.405 5.04004C26.689 5.04004 26.9205 5.27037 26.9205 5.5556V37.1909C26.9193 47.3553 18.6799 55.5958 8.51556 55.5958Z" fill="#4064AC"/>
<path d="M33.9529 42.6C33.5686 42.6 33.2583 42.2885 33.2583 41.9054V5.69457C33.2583 5.31148 33.5698 5 33.9529 5C43.9526 5 52.0595 13.1069 52.0595 23.1066V24.4934C52.0595 34.4931 43.9526 42.6 33.9529 42.6Z" fill="#61BEEC"/>
</svg>
