<svg width="232" height="51" viewBox="0 0 232 51" fill="none" xmlns="http://www.w3.org/2000/svg">
<path d="M0.515559 50.5958C0.230331 50.5958 0 50.3655 0 50.0803V18.445C0 8.28063 8.2394 0.0400391 18.405 0.0400391C18.689 0.0400391 18.9205 0.270371 18.9205 0.555599V32.1909C18.9193 42.3553 10.6799 50.5958 0.515559 50.5958Z" fill="#FFC400"/>
<path d="M25.9529 37.6C25.5686 37.6 25.2583 37.2885 25.2583 36.9054V0.694573C25.2583 0.311484 25.5698 0 25.9529 0C35.9526 0 44.0595 8.10692 44.0595 18.1066V19.4934C44.0595 29.4931 35.9526 37.6 25.9529 37.6Z" fill="#C60B1E"/>
<path d="M67.8564 14.9017H59.0466L58.9702 37.6007L63.479 37.677V30.569H67.8553C72.1492 30.569 75.6304 27.0878 75.6304 22.7938V22.6769C75.6316 18.383 72.1504 14.9017 67.8564 14.9017ZM67.2824 26.9768H63.4802V18.6849C63.9074 18.6849 65.2035 18.6849 67.0497 18.692C69.4306 18.7004 71.4284 20.45 71.4284 22.8308C71.4284 25.121 69.5714 26.9768 67.2824 26.9768Z" fill="#353534"/>
<path d="M82.2018 22.3814V20.1031H77.6167V37.681H82.2018V28.401C82.8331 26.7063 84.3858 24.0199 87.8575 24.23L87.9338 19.7212C87.9338 19.7212 84.7916 19.1341 82.2018 22.3814Z" fill="#353534"/>
<path d="M106.284 28.7579C106.284 33.6987 102.398 37.705 97.6053 37.705C92.8125 37.705 88.9268 33.6999 88.9268 28.7579C88.9268 23.8171 92.8125 19.8108 97.6053 19.8108C102.398 19.8108 106.284 23.8171 106.284 28.7579ZM97.6029 23.6703C95.0228 23.6703 92.9307 25.9593 92.9307 28.7818C92.9307 31.6042 95.0228 33.8932 97.6029 33.8932C100.183 33.8932 102.275 31.6042 102.275 28.7818C102.275 25.9593 100.183 23.6703 97.6029 23.6703Z" fill="#353534"/>
<path d="M232 28.7579C232 33.6987 228.099 37.705 223.287 37.705C218.475 37.705 214.575 33.6999 214.575 28.7579C214.575 23.8171 218.475 19.8108 223.287 19.8108C228.099 19.8108 232 23.8171 232 28.7579ZM223.286 23.6703C220.695 23.6703 218.595 25.9593 218.595 28.7818C218.595 31.6042 220.696 33.8932 223.286 33.8932C225.875 33.8932 227.976 31.6042 227.976 28.7818C227.976 25.9593 225.875 23.6703 223.286 23.6703Z" fill="#353534"/>
<path d="M136.546 28.7579C136.546 33.6987 132.66 37.705 127.868 37.705C123.075 37.705 119.189 33.6999 119.189 28.7579C119.189 23.8171 123.075 19.8108 127.868 19.8108C132.66 19.8108 136.546 23.8171 136.546 28.7579ZM127.866 23.6703C125.286 23.6703 123.194 25.9593 123.194 28.7818C123.194 31.6042 125.286 33.8932 127.866 33.8932C130.447 33.8932 132.539 31.6042 132.539 28.7818C132.537 25.9593 130.447 23.6703 127.866 23.6703Z" fill="#353534"/>
<path d="M115.445 33.9325C113.916 33.9325 113.84 32.4801 113.84 32.4801V23.8433H117.967V20.1759H113.84V15.5132L109.331 17.042C109.331 17.042 109.317 18.3225 109.306 20.1759H107.268V23.8445H109.293C109.289 27.8257 109.323 32.3082 109.484 33.5506C109.789 35.9195 111.013 37.3719 114.376 37.5247C117.739 37.6774 118.197 36.8373 118.197 36.8373V33.0923C118.197 33.0923 116.974 33.9325 115.445 33.9325Z" fill="#353534"/>
<path d="M145.708 33.9325C144.179 33.9325 144.103 32.4801 144.103 32.4801V23.8433H148.23V20.1759H144.103V15.5132L139.593 17.042C139.593 17.042 139.578 18.3225 139.568 20.1759H137.529V23.8445H139.555C139.551 27.8257 139.584 32.3082 139.745 33.5506C140.051 35.9195 141.274 37.3719 144.637 37.5247C148 37.6774 148.459 36.8373 148.459 36.8373V33.0923C148.46 33.0923 147.237 33.9325 145.708 33.9325Z" fill="#353534"/>
<path d="M164.664 20.1783L156.027 42.4954H151.442L153.811 37.0689L147.926 23.0056L148.232 20.1783H151.288L156.027 32.3298L160.154 20.1783H164.664Z" fill="#353534"/>
<path d="M184.117 28.8131C184.117 33.7324 180.53 37.7208 176.103 37.7208C173.915 37.7208 171.932 36.7446 170.486 35.1633V42.4504H166.194V20.1715H170.486V22.4629C171.932 20.8816 173.915 19.9054 176.103 19.9054C180.53 19.9054 184.117 23.8926 184.117 28.8131ZM175.021 23.6372C172.466 23.6372 170.395 25.9226 170.395 28.7403C170.395 31.5592 172.467 33.8434 175.021 33.8434C177.576 33.8434 179.647 31.558 179.647 28.7403C179.647 25.9226 177.576 23.6372 175.021 23.6372Z" fill="#353534"/>
<path d="M191.017 22.4557V20.1548H186.489V37.6372H191.017V27.8404C191.475 26.8009 192.209 25.6063 193.309 25.0275C195.487 23.8806 196.577 24.1671 196.577 24.1671V19.8111C196.577 19.8111 192.445 19.7287 191.017 22.4557Z" fill="#353534"/>
<path d="M203.002 34.9103C203.002 36.3818 201.808 37.5752 200.337 37.5752C198.865 37.5752 197.672 36.3818 197.672 34.9103C197.672 33.4388 198.865 32.2454 200.337 32.2454C201.808 32.2454 203.002 33.4376 203.002 34.9103Z" fill="#353534"/>
<path d="M211.615 14.7988C211.615 16.3061 210.393 17.527 208.886 17.527C207.379 17.527 206.158 16.3049 206.158 14.7988C206.158 13.2916 207.38 12.0707 208.886 12.0707C210.393 12.0707 211.615 13.2916 211.615 14.7988Z" fill="#353534"/>
<path d="M211.054 20.0801H206.755V37.6198H211.054V20.0801Z" fill="#353534"/>
</svg>
