<svg width="198" height="76" viewBox="0 0 198 76" fill="none" xmlns="http://www.w3.org/2000/svg">
<path d="M67.3701 45.2634C68.7701 51.6634 70.0701 57.7634 71.3701 63.8634C72.0701 67.1634 73.8701 68.2634 77.2701 68.5634C88.4701 69.6634 99.7701 71.0634 110.97 72.4634C112.67 72.6634 114.37 73.1634 116.17 73.5634C116.17 74.0634 116.17 74.6634 116.17 75.1634C113.27 75.3634 110.27 75.8634 107.37 75.5634C96.7701 74.6634 86.2701 73.3634 75.6701 72.4634C66.0701 71.6634 62.9701 65.6634 60.7701 57.1634C58.7701 49.6634 59.7701 41.6634 56.2701 34.2634C55.5701 32.7634 57.2701 29.4634 58.7701 27.8634C59.7701 26.8634 62.3701 27.1634 64.2701 27.3634C66.8701 27.6634 69.5701 28.8634 72.1701 28.6634C85.0701 27.8634 97.8701 26.7634 111.57 25.7634C106.57 30.6634 104.57 30.9634 99.6701 31.1634C88.4701 31.8634 77.3701 33.1634 65.8701 34.2634C66.1701 36.8634 66.3701 38.6634 66.3701 39.0634C76.8701 43.6634 86.5701 47.8634 96.2701 52.2634C99.1701 53.5634 101.37 52.9634 103.57 51.2634C110.07 46.3634 116.57 41.5634 123.37 36.4634C124.57 37.0634 126.07 37.6634 127.87 38.4634C127.57 34.6634 127.37 31.2634 127.07 27.7634C132.07 27.8634 135.37 31.9634 136.07 38.6634C136.27 40.7634 136.57 43.0634 136.27 45.1634C135.57 50.1634 136.77 54.8634 138.17 59.6634C139.47 63.9634 138.37 68.1634 133.97 72.5634C132.87 70.2634 131.57 68.5634 131.27 66.6634C130.07 59.1634 129.17 51.6634 128.17 43.9634C123.07 46.6634 118.57 49.0634 113.67 51.5634C113.07 53.1634 112.67 57.2634 111.17 57.7634C106.97 58.9634 101.87 59.9634 97.8701 58.7634C89.5701 56.1634 81.7701 51.9634 73.7701 48.4634C71.6701 47.5634 69.8701 46.5634 67.3701 45.2634Z" fill="#3EA7F3"/>
<path d="M34.1701 24.1635C33.4701 28.0635 32.4701 30.7634 32.4701 33.5634C32.4701 35.4634 33.4701 37.9635 34.8701 38.9635C35.7701 39.6635 38.3701 38.4634 39.9701 37.5634C45.7701 34.4634 48.8701 29.9635 47.3701 22.9635C47.1701 22.0635 48.3701 19.9635 49.0701 19.8635C50.2701 19.7635 51.9701 20.5635 52.6701 21.4635C56.6701 26.6635 54.1701 33.8635 48.5701 39.1635C44.3701 43.1635 38.7701 44.6635 32.7701 43.9635C27.3701 43.2635 25.2701 40.4635 25.8701 35.1635C26.5701 29.1635 25.9701 29.2635 19.8701 28.7635C14.5701 28.2635 9.07012 26.8635 4.17012 24.6635C-1.02988 22.3635 -1.12988 13.3635 3.67012 9.26345C10.7701 3.16345 19.2701 -0.536549 28.5701 0.0634513C33.7701 0.363451 38.9701 3.06345 43.8701 5.36345C46.4701 6.56345 47.7701 9.36345 46.2701 13.3635C44.6701 12.2635 43.1701 11.6635 42.2701 10.4635C34.6701 0.263452 12.7701 4.76345 6.57012 12.4635C4.47012 15.0635 4.47014 17.5635 6.87014 19.9635C12.7701 25.9635 20.1701 26.0635 27.7701 25.1635C29.7701 24.8635 31.5701 24.5635 34.1701 24.1635Z" fill="#3EA7F3"/>
<path d="M147.123 32.1635C152.123 36.6635 152.923 45.3635 160.923 45.6635C168.223 45.8635 176.023 46.2635 181.723 40.0635C181.823 31.7635 172.223 33.4635 169.823 27.5635C176.023 26.5635 182.223 25.4635 188.023 24.4635C191.923 16.2635 191.923 16.2635 184.223 8.76348C188.423 7.06348 191.523 9.36348 194.023 11.7635C199.223 16.8635 196.623 22.7635 194.623 28.6635C193.223 28.9635 191.523 29.0635 190.023 29.7635C187.223 30.9635 185.123 32.6635 187.423 36.1635C189.323 39.0635 189.023 41.1635 185.623 43.0635C183.223 44.3635 181.623 47.2635 179.123 48.2635C169.923 51.9635 160.623 51.5635 152.323 46.2635C148.523 43.8635 145.023 39.8635 145.623 34.2635C145.623 33.7635 145.923 33.3635 146.123 32.9635C146.223 32.5635 146.523 32.4635 147.123 32.1635Z" fill="#3EA7F3"/>
<path d="M143.523 26.2634C140.123 15.2634 171.923 1.56345 182.723 5.06345C183.523 8.06345 182.323 9.46344 179.223 9.36344C165.123 8.86344 153.723 14.0634 145.223 25.3634C144.823 25.7634 144.023 25.9634 143.523 26.2634Z" fill="#3EA7F3"/>
</svg>
