<svg width="1647" height="424" viewBox="0 0 1647 424" fill="none" xmlns="http://www.w3.org/2000/svg">
<path d="M4.32 423.94C1.93 423.94 0 422.01 0 419.62V154.54C0 69.37 69.04 0.320007 154.22 0.320007C156.6 0.320007 158.54 2.25001 158.54 4.64001V269.72C158.53 354.89 89.49 423.94 4.32 423.94Z" fill="#4064AC"/>
<path d="M217.51 315.06C214.29 315.06 211.69 312.45 211.69 309.24V5.82001C211.69 2.61001 214.3 0 217.51 0C301.3 0 369.23 67.93 369.23 151.72V163.34C369.23 247.13 301.3 315.06 217.51 315.06Z" fill="#61BEEC"/>
<path d="M568.57 124.86H494.75L494.11 315.06L531.89 315.7V256.14H568.56C604.54 256.14 633.71 226.97 633.71 190.99V190.01C633.72 154.03 604.55 124.86 568.57 124.86ZM563.76 226.04H531.9V156.56C535.48 156.56 546.34 156.56 561.81 156.62C581.76 156.69 598.5 171.35 598.5 191.3C598.5 210.49 582.94 226.04 563.76 226.04Z" fill="#353534"/>
<path d="M688.79 187.5V168.41H650.37V315.7H688.79V237.94C694.08 223.74 707.09 201.23 736.18 202.99L736.82 165.21C736.82 165.21 710.49 160.29 688.79 187.5Z" fill="#353534"/>
<path d="M890.57 240.91C890.57 282.31 858.01 315.88 817.85 315.88C777.69 315.88 745.13 282.32 745.13 240.91C745.13 199.51 777.69 165.94 817.85 165.94C858.01 165.94 890.57 199.51 890.57 240.91ZM817.83 198.28C796.21 198.28 778.68 217.46 778.68 241.11C778.68 264.76 796.21 283.94 817.83 283.94C839.45 283.94 856.98 264.76 856.98 241.11C856.98 217.46 839.45 198.28 817.83 198.28Z" fill="#353534"/>
<path d="M1144.17 240.91C1144.17 282.31 1111.61 315.88 1071.45 315.88C1031.29 315.88 998.73 282.32 998.73 240.91C998.73 199.51 1031.29 165.94 1071.45 165.94C1111.61 165.94 1144.17 199.51 1144.17 240.91ZM1071.44 198.28C1049.82 198.28 1032.29 217.46 1032.29 241.11C1032.29 264.76 1049.82 283.94 1071.44 283.94C1093.06 283.94 1110.59 264.76 1110.59 241.11C1110.58 217.46 1093.06 198.28 1071.44 198.28Z" fill="#353534"/>
<path d="M967.37 284.32C954.56 284.32 953.92 272.15 953.92 272.15V199.78H988.5V169.05H953.92V129.98L916.14 142.79C916.14 142.79 916.02 153.52 915.93 169.05H898.85V199.79H915.82C915.79 233.15 916.07 270.71 917.42 281.12C919.98 300.97 930.23 313.14 958.41 314.42C986.59 315.7 990.43 308.66 990.43 308.66V277.28C990.43 277.28 980.18 284.32 967.37 284.32Z" fill="#353534"/>
<path d="M1220.97 284.32C1208.16 284.32 1207.52 272.15 1207.52 272.15V199.78H1242.1V169.05H1207.52V129.98L1169.73 142.79C1169.73 142.79 1169.61 153.52 1169.52 169.05H1152.44V199.79H1169.41C1169.38 233.15 1169.66 270.71 1171.01 281.12C1173.57 300.97 1183.82 313.14 1212 314.42C1240.18 315.7 1244.02 308.66 1244.02 308.66V277.28C1244.03 277.28 1233.78 284.32 1220.97 284.32Z" fill="#353534"/>
<path d="M1379.8 169.05L1307.43 356.05H1269.01L1288.86 310.58L1239.55 192.74L1242.11 169.05H1267.72L1307.43 270.87L1342.01 169.05H1379.8Z" fill="#353534"/>
<path d="M1542.78 241.46C1542.78 282.68 1512.72 316.1 1475.63 316.1C1457.29 316.1 1440.68 307.92 1428.56 294.67V355.73H1392.6V169.05H1428.56V188.25C1440.68 175 1457.29 166.82 1475.63 166.82C1512.72 166.82 1542.78 200.23 1542.78 241.46ZM1466.56 198.09C1445.15 198.09 1427.8 217.24 1427.8 240.85C1427.8 264.47 1445.16 283.61 1466.56 283.61C1487.97 283.61 1505.32 264.46 1505.32 240.85C1505.32 217.24 1487.97 198.09 1466.56 198.09Z" fill="#353534"/>
<path d="M1600.42 188.01V168.73H1562.48V315.22H1600.42V233.13C1604.26 224.42 1610.41 214.41 1619.63 209.56C1637.88 199.95 1647.01 202.35 1647.01 202.35V165.85C1647.01 165.85 1612.39 165.16 1600.42 188.01Z" fill="#353534"/>
</svg>
