<svg width="235" height="80" viewBox="0 0 235 80" fill="none" xmlns="http://www.w3.org/2000/svg">
<path d="M49.2556 74.5572C32.5332 74.5572 18.977 61.001 18.977 44.2786C18.977 27.5562 32.5332 14 49.2556 14C65.978 14 79.5342 27.5562 79.5342 44.2786C79.5342 61.001 65.978 74.5572 49.2556 74.5572Z" fill="#85D7FF"/>
<path d="M7.74703 21.9368C8.04099 21.4371 1.04458 22.4365 1.04458 22.4365L0.192077 29.3742C-1.48353 30.1091 8.33496 30.0797 8.33496 30.0797C8.33496 30.0797 6.83573 23.3772 7.74703 21.9368Z" fill="#F2A4FF"/>
<path d="M50.4902 40.8977C50.4902 40.8977 58.8389 41.9854 60.7497 43.22C62.6605 44.4253 66.3057 49.5991 66.3057 49.5991C66.3057 49.5991 62.8369 53.1855 58.7213 53.7146L58.6625 57.2422C58.6625 57.2422 58.0158 69.2067 47.286 69.2361C45.2576 69.2361 36.3504 51.2159 36.321 49.4227C36.321 49.3345 36.2623 49.2757 36.2035 49.2463C35.1158 48.8348 27.0905 45.7775 27.1493 45.1308C27.2375 44.2783 30.7945 43.3964 30.0596 37.9286C30.0596 37.9286 28.7955 37.1055 40.0544 39.4572C42.6413 40.0158 50.4902 40.8977 50.4902 40.8977Z" fill="#009EEB"/>
<path d="M51.3419 51.6582L53.0763 57.5375L48.5492 58.5076V58.9192L51.6652 58.5076L52.018 59.3601C53.2821 58.8898 55.7514 60.8006 52.7235 62.0646L53.1645 63.4463L47.3733 64.5046L46.8148 62.9171C44.9334 63.1817 43.7281 61.7413 45.6977 60.4772L45.4037 59.3601L47.7555 58.9486L47.5497 58.7134L43.5811 59.2132L41.6998 54.5097L51.3419 51.6582Z" fill="#1FB6FF"/>
<path d="M48.6072 64.3275L49.9888 68.0902L50.9001 67.9138L49.5479 64.1511L51.1059 63.8571C51.1059 63.8571 52.5463 67.0025 52.6933 67.2671C52.8403 67.5317 53.2812 66.9732 53.2812 66.9732L52.076 63.6807L49.8418 62.7988L48.6072 64.3275Z" fill="#1FB6FF"/>
<path d="M49.9325 31.0503L52.2549 27.9342C52.2549 27.9342 50.5205 18.2039 48.9037 18.4391C47.2868 18.6743 47.7572 18.4391 47.7572 18.4391C47.7572 18.4391 46.0228 14.6175 42.701 14.3824C39.3791 14.1472 33.8232 15.3818 31.5008 20.9966C30.5307 23.3777 31.9712 21.7021 31.9712 21.7021C31.9712 21.7021 30.4131 27.3169 32.2651 30.7857C32.7355 31.6676 31.9712 21.7021 41.4075 22.4076C45.7288 22.6722 49.9325 31.0503 49.9325 31.0503Z" fill="black"/>
<path d="M50.6081 29.434C50.6081 29.434 52.3425 23.7605 55.3703 25.3773C57.9866 26.7883 55.6055 31.7564 53.195 31.9327C52.6952 31.9621 52.2543 32.4913 52.2837 32.9616C52.4895 35.4603 50.0495 39.5759 48.9912 40.5166L50.9902 41.81C50.9902 41.81 47.2274 47.66 44.5817 44.2794C44.1702 43.7796 43.5823 41.7218 43.5823 41.7218C43.5823 41.7218 35.0866 43.2211 32.5291 34.5197C32.5291 34.5197 30.4419 35.7837 29.1779 31.6094C28.2078 28.4639 29.3249 27.2881 32.5585 29.4928C32.5585 29.4928 33.117 26.3474 32.6467 21.1736C32.6467 21.1736 35.6746 20.0859 36.7034 20.2329C41.4069 20.9972 46.5513 19.5273 46.5513 19.5273C46.8453 24.4072 50.2553 29.7574 50.6081 29.434Z" fill="#B77E49"/>
<path d="M30.207 39.3995C30.207 39.3995 30.0894 43.3975 27.9435 44.3088C25.7975 45.2201 8.07133 31.0509 8.07133 31.0509C8.07133 31.0509 5.80779 30.1396 5.6314 29.1695C5.24925 26.9941 4.42614 26.2004 4.01459 24.7894C3.57364 23.3489 5.27865 23.9075 5.51382 24.2014C5.89598 24.6718 5.98417 25.7007 7.01305 26.171C8.04194 26.6414 7.13064 21.9967 7.13064 21.9967C10.0409 21.1736 9.2472 27.5821 10.9522 28.2582C15.7145 30.1396 30.207 39.3995 30.207 39.3995Z" fill="#B77E49"/>
<path d="M63.7477 51.6562L58.7209 53.6846C58.7209 53.6846 60.1613 66.678 46.0215 69.0591C43.3758 69.5 38.1726 68.236 37.0262 70.1174C36.2912 71.3226 38.6724 70.5877 38.6724 70.5877C38.6724 70.5877 36.1149 73.3216 37.2319 75.2324C37.8787 76.3201 38.2608 71.8812 39.6131 72.2045C39.6131 72.2045 36.6146 75.8203 38.9663 76.7022C39.4367 76.8786 40.0834 72.9982 40.9947 72.9395C40.9947 72.9395 38.9663 77.349 40.7595 76.9962C42.1118 76.7316 41.6708 73.6744 42.2588 74.2035C42.6997 74.6151 40.9947 77.4371 43.1995 77.4371C43.9344 77.4371 44.1402 73.5568 45.3748 73.5274C49.4022 73.4686 70.0386 68.4712 63.7477 51.6562Z" fill="#B77E49"/>
<path d="M64.4245 74.9393L59.3095 68.619L67.9521 68.0898L64.4245 74.9393Z" fill="white"/>
<path d="M89 54.5093L61.6317 54.0684L64.9241 74.5872L89 72.9704V54.5093Z" fill="white" stroke="#05A7F9" stroke-width="0.293967" stroke-miterlimit="10"/>
<path d="M74.0369 64.3299C74.0369 64.4769 74.0369 64.6239 74.0369 64.7709C74.0663 64.7709 74.0663 64.8003 74.0663 64.8003C74.0663 64.8591 74.0663 64.9473 74.0957 65.0061C74.1545 65.3 74.2427 65.5646 74.3897 65.7998C74.5367 66.035 74.7131 66.2701 74.9482 66.4465C75.154 66.5935 75.3598 66.7405 75.595 66.8287C75.8007 66.9169 76.0359 66.9756 76.2711 67.005C76.2711 67.005 76.3005 67.005 76.3005 67.0344C76.3299 67.0344 76.3593 67.0344 76.3887 67.0344C76.4769 67.0344 76.5651 67.0344 76.6826 67.0344C76.712 67.0344 76.7414 67.0344 76.7414 67.0344C76.7708 67.005 76.8002 67.005 76.8296 67.005C77.0648 66.9756 77.3 66.9169 77.5352 66.7993C77.8585 66.6523 78.1231 66.4465 78.3583 66.1819C78.4758 66.035 78.5934 65.8586 78.6816 65.6822C78.8286 65.3882 78.9168 65.0649 78.9462 64.7415C78.9462 64.7415 78.9462 64.7121 78.9756 64.7121C78.9756 64.5945 78.9756 64.4769 78.9756 64.3593C78.9462 64.3593 78.9462 64.3299 78.9462 64.3299C78.9462 64.2418 78.9168 64.1536 78.9168 64.0654C78.858 63.8008 78.7698 63.5362 78.6228 63.3011C78.4758 63.0659 78.3289 62.8601 78.1231 62.6837C77.9173 62.5073 77.7115 62.3604 77.4764 62.2722C77.2412 62.1546 76.9766 62.0958 76.712 62.0958C76.712 62.0958 76.6826 62.0958 76.6826 62.0664C76.5651 62.0664 76.4475 62.0664 76.3299 62.0664C76.3299 62.0958 76.3005 62.0958 76.3005 62.0958C76.2123 62.0958 76.1241 62.1252 76.0065 62.1252C75.7714 62.184 75.5068 62.2722 75.301 62.3898C75.1246 62.478 74.9776 62.5955 74.8307 62.7425C74.6543 62.9189 74.4779 63.1247 74.3603 63.3305C74.2133 63.595 74.0957 63.9184 74.0663 64.2124C74.0369 64.2712 74.0663 64.3005 74.0369 64.3299ZM76.4769 62.2722C77.7409 62.2722 78.7698 63.3011 78.7698 64.5063C78.7992 65.8292 77.7409 66.8581 76.4769 66.8581C75.2128 66.8581 74.1839 65.8292 74.1839 64.5651C74.1839 63.2717 75.2422 62.2428 76.4769 62.2722Z" fill="#D8D8D8"/>
<path d="M76.6533 62.0957C76.6533 62.1251 76.6827 62.1251 76.6827 62.1251C76.9473 62.1545 77.2119 62.2133 77.4471 62.3015C77.6822 62.3897 77.9174 62.5367 78.0938 62.713C78.2996 62.8894 78.4759 63.0952 78.5935 63.3304C78.7405 63.5655 78.8287 63.8301 78.8875 64.0947C78.9169 64.1829 78.9169 64.2711 78.9169 64.3593C78.9169 64.3593 78.9169 64.3886 78.9463 64.3886C78.9463 63.6243 78.9463 62.8894 78.9463 62.1251C78.9463 62.0957 78.9463 62.0957 78.9169 62.0957C78.182 62.0957 77.4177 62.0957 76.6533 62.0957Z" fill="#FEFEFE"/>
<path d="M74.0371 64.3299C74.0665 64.3005 74.0665 64.2711 74.0665 64.2417C74.0959 63.9183 74.2135 63.6243 74.3605 63.3598C74.4781 63.154 74.6251 62.9482 74.8309 62.7718C74.9778 62.6248 75.1248 62.5073 75.3012 62.4191C75.5364 62.3015 75.7715 62.2133 76.0067 62.1545C76.0949 62.1251 76.1831 62.1251 76.3007 62.1251C76.3007 62.1251 76.3301 62.1251 76.3301 62.0957C75.5658 62.0957 74.8308 62.0957 74.0665 62.0957C74.0371 62.0957 74.0371 62.0957 74.0371 62.1251C74.0371 62.86 74.0371 63.5949 74.0371 64.3299Z" fill="#FEFEFE"/>
<path d="M78.9756 64.7422C78.9462 64.7422 78.9462 64.7422 78.9756 64.7422C78.9462 65.0949 78.8286 65.4183 78.6816 65.7123C78.5934 65.8887 78.4758 66.0356 78.3583 66.212C78.1231 66.4766 77.8585 66.6824 77.5352 66.8294C77.3 66.9469 77.0648 67.0057 76.8296 67.0351C76.8002 67.0351 76.7708 67.0351 76.7414 67.0645C77.4764 67.0645 78.2113 67.0645 78.9462 67.0645C78.9756 67.0645 78.9756 67.0645 78.9756 67.0351C78.9756 66.2414 78.9756 65.4771 78.9756 64.7422Z" fill="#FEFEFE"/>
<path d="M76.2705 67.0349C76.2705 67.0055 76.2411 67.0055 76.2705 67.0349C76.0059 67.0055 75.7708 66.9467 75.565 66.8585C75.3298 66.7704 75.124 66.6234 74.9183 66.4764C74.6831 66.3 74.5067 66.0648 74.3597 65.8297C74.2127 65.5651 74.1245 65.3005 74.0658 65.036C74.0658 64.9772 74.0364 64.9184 74.0364 64.8302C74.0364 64.8302 74.0364 64.8008 74.007 64.8008C74.007 65.5357 74.007 66.2706 74.007 67.0055C74.007 67.0349 74.007 67.0349 74.0364 67.0349C74.8007 67.0349 75.5356 67.0349 76.2705 67.0349Z" fill="#FEFEFE"/>
<path d="M76.477 62.2721C75.2129 62.2721 74.184 63.301 74.184 64.565C74.184 65.8291 75.2129 66.858 76.477 66.858C77.741 66.858 78.7993 65.8291 78.7699 64.5062C78.7699 63.301 77.7704 62.2427 76.477 62.2721ZM77.4471 65.006C77.4471 65.2412 77.4471 65.4763 77.4471 65.7115C77.4471 65.7703 77.4471 65.7997 77.3589 65.7997C76.9179 65.7703 76.5946 65.3881 76.5946 64.9472C76.5946 64.6826 76.5946 64.418 76.5946 64.1535C76.5946 63.9477 76.5946 63.7419 76.5946 63.5655C76.5946 63.5067 76.624 63.5067 76.6533 63.5067C76.6827 63.5067 76.7121 63.5067 76.7121 63.5067C77.0943 63.5655 77.4177 63.9183 77.4471 64.3005C77.4471 64.5062 77.4471 64.7414 77.4471 65.006ZM76.3006 64.3299C76.3006 64.5356 76.3006 64.712 76.3006 64.9178C76.3006 65.006 76.3006 65.0648 76.3006 65.153C76.3006 65.2118 76.3006 65.2118 76.2418 65.2118C76.2124 65.2118 76.183 65.2118 76.1536 65.2118C75.6833 65.1236 75.3893 64.6826 75.4775 64.1829C75.5363 63.8301 75.889 63.5361 76.2418 63.5067C76.3006 63.5067 76.33 63.5067 76.33 63.5655C76.3006 63.8007 76.3006 64.0653 76.3006 64.3299Z" fill="#FEFEFE"/>
<path d="M77.4463 65.0051C77.4463 64.7699 77.4463 64.5347 77.4463 64.2996C77.4463 63.9174 77.1229 63.5353 76.7114 63.5059C76.682 63.5059 76.6526 63.5059 76.6526 63.5059C76.5938 63.5059 76.5938 63.5059 76.5938 63.5646C76.5938 63.7704 76.5938 63.9762 76.5938 64.1526C76.5938 64.4172 76.5938 64.6817 76.5938 64.9463C76.5938 65.3872 76.9465 65.74 77.3581 65.7988C77.4169 65.7988 77.4463 65.7988 77.4463 65.7106C77.4463 65.4754 77.4463 65.2403 77.4463 65.0051Z" fill="#4064AB"/>
<path d="M76.3008 64.3289C76.3008 64.0643 76.3008 63.7997 76.3008 63.5352C76.3008 63.4764 76.3008 63.447 76.2126 63.4764C75.8304 63.5058 75.5071 63.7997 75.4483 64.1525C75.3601 64.6228 75.6541 65.0638 76.1244 65.1814C76.1538 65.1814 76.1832 65.1814 76.2126 65.1814C76.2714 65.1814 76.2714 65.1814 76.2714 65.1226C76.2714 65.0344 76.2714 64.9756 76.2714 64.8874C76.3008 64.711 76.3008 64.5053 76.3008 64.3289Z" fill="#61BDEB"/>
<path d="M39.9074 29.6093C40.1426 29.7563 39.9662 29.9326 41.436 33.5778C41.877 34.6361 39.2901 35.812 38.7021 34.9595C37.8202 33.6072 39.6722 29.4623 39.9074 29.6093Z" fill="#009EEB"/>
<path d="M42.8772 31.8433C41.4809 31.8433 40.349 30.7115 40.349 29.3152C40.349 27.919 41.4809 26.7871 42.8772 26.7871C44.2734 26.7871 45.4053 27.919 45.4053 29.3152C45.4053 30.7115 44.2734 31.8433 42.8772 31.8433Z" fill="white"/>
<path d="M36.1447 32.6676C34.7485 32.6676 33.6166 31.5357 33.6166 30.1394C33.6166 28.7432 34.7485 27.6113 36.1447 27.6113C37.541 27.6113 38.6729 28.7432 38.6729 30.1394C38.6729 31.5357 37.541 32.6676 36.1447 32.6676Z" fill="white"/>
<path d="M42.1122 31.1975C41.3004 31.1975 40.6424 30.5394 40.6424 29.7276C40.6424 28.9159 41.3004 28.2578 42.1122 28.2578C42.924 28.2578 43.582 28.9159 43.582 29.7276C43.582 30.5394 42.924 31.1975 42.1122 31.1975Z" fill="#1D1D1B"/>
<path d="M35.4393 32.1076C34.6276 32.1076 33.9695 31.4496 33.9695 30.6378C33.9695 29.826 34.6276 29.168 35.4393 29.168C36.2511 29.168 36.9092 29.826 36.9092 30.6378C36.9092 31.4496 36.2511 32.1076 35.4393 32.1076Z" fill="#1D1D1B"/>
<path d="M46.9334 32.1387C47.6683 32.609 47.6683 36.1072 45.4048 36.4306C44.7287 36.5482 42.9943 35.1959 43.6998 35.2547C47.3744 35.6075 46.2279 31.6683 46.9334 32.1387Z" fill="black"/>
<path d="M70.5684 35.373V38.6655L60.9262 37.0193L70.5684 35.373Z" fill="white"/>
<path d="M67.953 28.0801L69.7168 31.1961L60.9272 34.4592L67.953 28.0801Z" fill="white"/>
<path d="M65.3643 26.0522L62.307 24.4941L59.5437 32.931L65.3643 26.0522Z" fill="white"/>
<path d="M80.7844 70.5707C95.8154 70.5707 108 58.3857 108 43.3547C108 28.3237 95.8154 16.1387 80.7844 16.1387C65.7534 16.1387 53.5684 28.3237 53.5684 43.3547C53.5684 58.3857 65.7534 70.5707 80.7844 70.5707Z" fill="#29EB7F"/>
<path d="M71.2225 43.7816C71.2225 43.7816 67.1628 46.96 66.7888 41.271C66.7888 41.271 63.1565 43.9419 61.3403 41.0841C59.4173 38.066 61.6341 36.7573 62.0347 36.4101C62.0614 36.3834 62.0614 36.33 62.008 36.33C61.367 36.3567 59.6577 36.1964 59.3104 33.5256C58.9365 30.8547 61.3136 30.3472 61.3136 30.3472C61.3136 30.3472 55.1973 28.7447 58.1353 23.216C60.272 19.1831 65.0795 21.9607 65.0795 21.9607C65.0795 21.9607 64.9994 17.9277 67.9373 17.26C72.3976 16.2451 73.6262 20.8123 73.6262 20.8123C73.6262 20.8123 72.638 14.1618 79.3686 14.0016C83.8823 13.8948 83.0277 19.2098 83.0277 19.2098C83.0277 19.2098 89.9719 15.6308 92.5359 20.839C94.5391 24.9254 89.6514 27.1689 89.6514 27.1689C89.6514 27.1689 97.8776 28.3174 96.6223 35.4753C95.9546 39.2679 92.6695 36.8908 92.6695 36.8908C92.6695 36.8908 93.9782 38.6002 92.6695 40.3629C91.6011 41.8052 89.8383 41.1642 89.8383 41.1642C89.8383 41.1642 90.693 47.1736 83.7221 43.6748C76.7511 40.176 82.1463 38.0927 82.1463 38.0927L80.9177 34.033L77.9797 31.6292L74.6412 31.5491L73.466 33.7926L68.605 33.9262C68.605 33.9262 68.151 36.9443 68.4715 37.8523C68.9789 39.4549 71.2225 43.7816 71.2225 43.7816Z" fill="black"/>
<path d="M41.469 37.3184L40 42.5532L46.3834 43.7551L46.8641 38.3333L41.469 37.3184Z" fill="#F8B706"/>
<path d="M74.187 48.8297L85.0039 48.3223C86.099 48.5894 90.9065 50.0583 91.5475 50.7527C95.0731 54.6255 97.3967 57.0293 97.3967 57.0293L91.868 59.9405L89.491 58.5249L91.7612 67.3121C87.6481 67.5257 84.3896 70.1432 81.3716 69.5823C75.7094 68.5139 71.7565 63.3592 70.4478 60.3678C70.0471 59.4597 70.4478 55.5603 70.4478 55.5603L66.3079 55.3733L64.6787 48.4024L74.187 48.8297Z" fill="#0F9F4F"/>
<path d="M72.7707 28.932C72.7707 28.932 70.1266 32.6712 67.4824 33.8731C67.4824 33.8731 67.7495 46.1858 75.9757 47.3609C76.4565 47.4411 76.5366 48.269 76.5366 48.269L74.1863 48.8299C72.931 49.8181 73.2782 50.9399 74.026 51.5542C75.308 52.6225 78.7534 54.9996 78.7534 54.9996C78.7534 54.9996 85.9915 49.8715 84.7896 48.2423L81.0771 47.9218L80.5963 46.8535C82.0653 46.2926 82.8398 44.4764 83.3473 43.5149C83.3473 43.5149 81.5845 42.2596 82.1187 40.8975C82.5995 39.6422 84.3088 39.108 84.3088 39.108C84.3088 39.108 87.6207 39.562 87.0064 36.0632C86.5256 33.2855 84.3622 33.2321 83.6945 36.0098L83.1604 35.8763C83.374 33.3389 83.1871 32.5911 83.2405 31.0687C83.2405 31.0687 82.5728 33.0451 80.6764 31.3091C78.5665 29.3861 79.9286 28.291 79.9286 28.291C79.9286 28.291 77.2845 31.7898 72.7707 28.932Z" fill="#835328"/>
<path d="M44.861 44.6357C51.912 52.5948 66.0676 53.8768 66.0676 53.8768L64.8924 49.2563C54.8767 48.1879 48.6536 42.1785 48.6536 42.1785C48.6536 42.1785 47.9057 38.3325 45.2349 39.5878C42.564 40.8431 46.6504 40.7362 46.6504 40.7362L46.4101 43.7276L43.8193 43.2468L44.861 44.6357Z" fill="#835328"/>
<path d="M67.6699 64.1594L78.9142 61.0879L83.2677 74.6826L71.6762 78.4485L67.6699 64.1594Z" fill="#85D7FF"/>
<path d="M92.1617 59.8065L95.9276 57.8301C95.9276 57.8301 105.409 71.772 82.3864 72.5198C82.2528 72.5198 82.1193 72.5198 82.0124 72.5198C80.0627 72.68 78.7006 72.3595 78.3 72.1459C78.1397 72.0657 78.0062 72.039 78.1931 71.8521C78.3801 71.6651 80.7571 72.1993 81.3714 71.8521C81.3714 71.8521 78.567 71.6117 77.6322 71.1577C77.4987 71.0775 77.5254 70.8372 77.7124 70.8372C79.0745 70.9974 81.7187 70.7837 81.1578 70.8104C78.754 70.8906 77.3919 70.4098 77.2049 70.1962C77.1248 70.0893 77.2316 69.9291 77.285 69.9291C79.582 69.9291 81.1845 69.6353 81.1845 69.6353C79.3416 69.8222 77.5521 69.3415 77.0713 69.1011C76.8577 68.9943 76.9378 68.7806 77.0713 68.7806C79.5285 68.7806 81.3447 68.5402 81.3447 68.5402L80.9975 67.2048C80.9975 67.2048 82.2528 67.6855 82.4665 68.5936C82.4932 68.6738 82.6267 68.647 82.7069 68.647C98.732 68.2731 92.1617 59.8065 92.1617 59.8065Z" fill="#835328"/>
<path d="M70.3672 38.0391C71.5915 38.0391 72.584 37.0466 72.584 35.8223C72.584 34.598 71.5915 33.6055 70.3672 33.6055C69.1429 33.6055 68.1504 34.598 68.1504 35.8223C68.1504 37.0466 69.1429 38.0391 70.3672 38.0391Z" fill="white"/>
<path d="M76.3233 37.7442C77.5476 37.7442 78.5401 36.7517 78.5401 35.5274C78.5401 34.303 77.5476 33.3105 76.3233 33.3105C75.0989 33.3105 74.1064 34.303 74.1064 35.5274C74.1064 36.7517 75.0989 37.7442 76.3233 37.7442Z" fill="white"/>
<path d="M69.9138 37.5582C70.6219 37.5582 71.1959 36.9842 71.1959 36.2762C71.1959 35.5681 70.6219 34.9941 69.9138 34.9941C69.2058 34.9941 68.6318 35.5681 68.6318 36.2762C68.6318 36.9842 69.2058 37.5582 69.9138 37.5582Z" fill="#1D1E1C"/>
<path d="M75.8162 37.3179C76.5242 37.3179 77.0982 36.744 77.0982 36.0359C77.0982 35.3279 76.5242 34.7539 75.8162 34.7539C75.1082 34.7539 74.5342 35.3279 74.5342 36.0359C74.5342 36.744 75.1082 37.3179 75.8162 37.3179Z" fill="#1D1E1C"/>
<path d="M73.0383 36.0631C73.4122 36.1166 73.252 36.0097 75.9495 38.6005C76.7508 39.375 72.5575 40.6837 71.5693 40.1229C70.0469 39.2682 72.6644 36.0097 73.0383 36.0631Z" fill="#2E98D4"/>
<path d="M78.38 43.2996C77.6322 43.9139 75.2551 45.276 74.8545 43.0058C74.6675 41.9108 76.7775 41.617 76.7775 41.617C77.098 40.0412 79.4217 40.148 79.4217 40.148C79.4217 40.148 80.2763 41.7238 78.38 43.2996Z" fill="#EE774D"/>
<path d="M78.7539 32.6982L82.0123 34.8616L83.9087 35.3156C86.259 32.5379 86.8466 36.0101 86.8466 36.0101C85.6714 35.743 89.6243 36.6778 90.3721 36.838C90.3721 36.838 92.5622 36.4641 91.1734 34.4609L82.6534 32.2441L78.7539 32.6982Z" fill="#F8B706"/>
<path d="M82.0123 34.8609C82.0123 34.8609 82.3863 34.7808 82.5732 34.2734C82.6801 33.8994 82.2527 33.7392 82.2527 33.7392C82.2527 33.7392 82.8403 33.7926 82.867 33.4721C82.8937 33.1249 82.413 32.9646 82.413 32.9646C82.413 32.9646 82.9472 32.9646 83.0273 32.6441C83.1074 32.3236 82.6801 32.2168 82.6801 32.2168L78.7539 32.6708L82.0123 34.8609Z" fill="#FFD460"/>
<path d="M78.7539 32.6967L79.6086 33.2843L79.7154 32.5898L78.7539 32.6967Z" fill="black"/>
<path d="M82.2266 33.7648L84.844 34.4592C84.844 34.4592 85.8856 33.9785 86.4198 34.8865L91.4677 36.222C91.4677 36.222 91.7615 35.9816 91.6547 35.5543C91.5479 35.1269 82.4135 32.9902 82.4135 32.9902C82.4135 32.9902 82.8943 33.3375 82.8676 33.4977C82.8141 33.658 82.2266 33.7648 82.2266 33.7648Z" fill="black"/>
<path d="M91.0675 34.4336L90.373 36.8641C90.373 36.8641 91.4147 37.2914 91.7619 36.0895C92.1892 34.5671 91.0675 34.4336 91.0675 34.4336Z" fill="#EE774D"/>
<path d="M123.398 72.3413C106.497 72.3413 92.7954 58.6402 92.7954 41.739C92.7954 24.8378 106.497 11.1367 123.398 11.1367C140.299 11.1367 154 24.8378 154 41.739C154 58.6402 140.299 72.3413 123.398 72.3413Z" fill="#FFD55F"/>
<path d="M122.562 44.0351C122.562 44.0351 139.964 43.0517 144.047 46.3295C148.129 49.6073 149.887 55.4178 150.334 60.1259L138.296 60.5132L138.802 63.2844C138.802 63.2844 127.837 80.8651 105.965 67.0091C104.475 66.0854 104.445 56.2522 105.31 55.3284C105.31 55.3284 96.7874 52.9446 96.698 50.0542C96.6086 46.8957 103.641 38.4629 103.641 38.4629C103.641 38.4629 106.829 42.0982 109.153 42.9624C112.521 44.2437 122.562 44.0351 122.562 44.0351Z" fill="#F8B700"/>
<path d="M112.402 66.9492H102.747C102.747 66.9492 101.585 76.5739 102.747 77.14C103.91 77.7062 109.69 78.6299 111.627 77.14C112.283 76.6633 112.283 77.4678 112.283 75.9779C112.283 75.5012 116.782 77.9446 116.782 72.4618C116.782 67.3962 112.551 69.0351 112.551 69.0351C112.581 67.3962 112.402 66.9492 112.402 66.9492Z" fill="#FFD55F"/>
<path d="M132.724 25.8582L133.529 31.6091C133.529 31.6091 135.138 29.0763 136.717 29.7319C138.326 30.3874 138.714 35.4829 136.717 35.8702C134.721 36.2576 133.112 35.8702 133.261 35.8702C133.41 35.8702 131.443 42.2171 129.298 42.7535C127.152 43.2899 115.352 46.8358 113.237 40.6975C111.359 35.2147 111.359 34.1718 111.359 34.1718C111.359 34.1718 108.439 34.9763 108.678 30.447C108.946 25.9178 111.479 28.4506 112.134 28.838C112.79 29.2253 113.475 22.9082 113.475 22.9082H131.473L132.724 25.8582Z" fill="#C4924D"/>
<path d="M148.875 59.9473L138.327 60.275C138.327 60.275 138.863 68.976 122.444 68.678C122.444 68.678 116.276 67.4861 114.965 67.5755C114.369 67.6053 112.552 69.0058 112.552 69.0058C112.552 69.0058 115.114 68.231 115.859 69.6017C116.842 71.4492 112.85 69.9593 112.85 69.9593C112.85 69.9593 111.747 73.5946 112.998 74.3098C118.809 77.5577 121.312 74.8461 121.312 74.8461C121.312 74.8461 147.236 82.9213 148.875 59.9473Z" fill="#C4924D"/>
<path d="M84.393 12.8655C85.6445 13.521 85.2869 20.8513 84.8102 21.626C84.4228 22.2518 84.8996 22.8775 84.8996 22.8775C84.8996 22.8775 98.0702 40.8754 103.017 39.3557L96.7591 49.0698C96.7591 49.0698 79.2082 37.4188 79.8041 23.3841C79.8041 23.3841 79.1486 22.7881 78.6122 22.222C75.7516 19.3316 77.3905 14.2958 78.2845 15.6665C78.7314 16.3518 79.0592 19.0336 79.3572 18.2887C79.3572 18.2887 78.8208 9.76653 80.4299 10.0049L84.393 12.8655Z" fill="#C4924D"/>
<path d="M126.467 42.8418L130.639 46.06C130.639 46.06 120.805 50.0827 118.422 47.4307C116.038 44.7786 119.792 42.8418 119.792 42.8418H126.467V42.8418Z" fill="#C4924D"/>
<path d="M129.745 45.0171C129.745 45.0171 131.086 44.1231 132.546 45.6428C134.006 47.1625 132.01 52.6155 129.03 53.4796C126.05 54.3735 124.054 51.6322 124.054 51.6322C124.054 51.6322 123.368 47.9372 129.745 45.0171Z" fill="#E95426"/>
<path d="M116.008 43.9741C116.008 43.9741 115.144 42.5736 113.088 43.3782C111.032 44.1827 110.585 50.2019 113.028 52.3175C115.471 54.4331 118.541 52.7347 118.541 52.7347C118.541 52.7347 121.193 49.5463 116.008 43.9741Z" fill="#E95426"/>
<path d="M131.175 40.4297C131.175 40.4297 137.015 41.2938 132.188 46.717C127.36 52.1402 128.493 46.717 128.493 46.717C128.493 46.717 134.691 44.3928 131.175 40.4297Z" fill="#E95426"/>
<path d="M127.546 51.8083C126.824 51.0869 127.202 49.5398 128.389 48.3529C129.576 47.1659 131.123 46.7886 131.844 47.5101C132.566 48.2315 132.188 49.7786 131.001 50.9655C129.814 52.1525 128.267 52.5298 127.546 51.8083Z" fill="#F39B7E"/>
<path d="M112.716 50.5982C111.877 49.1445 111.913 47.5525 112.796 47.0424C113.68 46.5322 115.077 47.2971 115.916 48.7507C116.755 50.2044 116.719 51.7964 115.836 52.3065C114.952 52.8167 113.555 52.0519 112.716 50.5982Z" fill="#F39B7E"/>
<path d="M131.354 44.8684C131.354 44.8684 126.736 46.8649 124.024 51.6623C124.024 51.6623 123.488 49.3381 126.11 46.8947C129.358 43.8851 131.354 44.8684 131.354 44.8684Z" fill="#EE774D"/>
<path d="M118.54 52.7355C118.54 52.7355 117.974 46.9547 114.011 43.1406C114.011 43.1406 116.276 43.2896 118.093 46.3886C120.447 50.3517 118.54 52.7355 118.54 52.7355Z" fill="#EE774D"/>
<path d="M126.467 34.4397C125.018 34.4397 123.844 33.2657 123.844 31.8175C123.844 30.3693 125.018 29.1953 126.467 29.1953C127.915 29.1953 129.089 30.3693 129.089 31.8175C129.089 33.2657 127.915 34.4397 126.467 34.4397Z" fill="white"/>
<path d="M117.171 34.1116C115.723 34.1116 114.549 32.9376 114.549 31.4894C114.549 30.0412 115.723 28.8672 117.171 28.8672C118.619 28.8672 119.793 30.0412 119.793 31.4894C119.793 32.9376 118.619 34.1116 117.171 34.1116Z" fill="white"/>
<path d="M125.573 33.5452C124.734 33.5452 124.053 32.8648 124.053 32.0255C124.053 31.1862 124.734 30.5059 125.573 30.5059C126.412 30.5059 127.093 31.1862 127.093 32.0255C127.093 32.8648 126.412 33.5452 125.573 33.5452Z" fill="#1D1E1C"/>
<path d="M116.336 33.307C115.496 33.307 114.816 32.6266 114.816 31.7873C114.816 30.948 115.496 30.2676 116.336 30.2676C117.175 30.2676 117.855 30.948 117.855 31.7873C117.855 32.6266 117.175 33.307 116.336 33.307Z" fill="#1D1E1C"/>
<path d="M121.402 31.2502C123.607 31.4289 121.491 31.6077 124.203 35.6006C125.007 36.7627 120.299 38.0738 119.256 37.1203C117.618 35.6304 120.955 31.2204 121.402 31.2502Z" fill="#2E98D4"/>
<path d="M132.128 30.1785L133.469 30.9533C133.469 30.9533 134.899 42.6638 130.28 44.2431C125.661 45.8224 116.454 46.9845 114.547 45.1072C112.67 43.23 109.988 31.2513 112.312 27.9437C113.623 26.0665 112.759 27.9437 112.759 27.9437C112.759 27.9437 113.415 39.833 115.62 38.5219C117.646 37.3002 122.771 38.4921 122.771 38.4921C125.066 36.7639 127.122 37.8366 127.271 37.8366C127.241 37.8068 130.697 37.4492 132.128 30.1785Z" fill="#1D1D1B"/>
<path d="M126.885 38.5215C126.885 38.5215 125.186 40.4285 122.713 39.1472C122.713 39.1472 122.356 40.5477 120.478 40.3987C120.478 40.3987 122.177 43.6765 125.693 41.68C127.928 40.4285 126.885 38.5215 126.885 38.5215Z" fill="#C4924D"/>
<path d="M124.858 26.334H119.197L121.849 22.8477L124.858 26.334Z" fill="#1D1D1B"/>
<path d="M133.529 31.6091C133.529 31.6091 123.606 27.7056 122.027 23.9511C122.027 23.9511 118.809 27.6758 112.074 28.8975C112.074 28.8975 109.393 23.8319 111.776 19.6602C116.067 12.2108 130.758 14.9224 133.648 20.4648C134.81 22.6996 135.198 28.0036 133.529 31.6091Z" fill="#F8B700"/>
<path d="M169.5 77.4336C186.897 77.4336 201 63.3306 201 45.9336C201 28.5366 186.897 14.4336 169.5 14.4336C152.103 14.4336 138 28.5366 138 45.9336C138 63.3306 152.103 77.4336 169.5 77.4336Z" fill="#FF9E7C"/>
<path d="M167.14 50.8659L174.523 50.3213L175.764 54.7694C175.764 54.7694 195.735 57.0994 190.5 29.2305H195.584C195.584 29.2305 201.848 53.5287 185.054 59.4293L186.99 72.108C186.99 72.108 176.46 81.1555 158.304 75.376L160.665 65.5417L161.966 60.67C161.966 60.67 135.67 55.7982 145.353 30.1988L151.405 31.2881C151.405 31.2881 143.568 48.8688 163.902 54.8904L166.837 55.0115L167.14 50.8659Z" fill="#FF5216"/>
<path d="M157.577 36.7641V40.607C157.577 40.607 155.792 39.2453 154.551 40.607C153.311 41.9687 154.461 47.5667 159.09 45.9326C159.09 45.9326 163.871 52.3779 170.498 52.3779C178.698 52.3779 181.512 45.0249 181.785 44.0868C181.785 44.0868 186.233 44.9341 184.811 39.6387C184.115 37.0667 181.391 39.3058 181.391 39.3058L178.396 31.2871L159.09 34.313L157.577 36.7641Z" fill="#F4D3BA"/>
<path d="M156.609 39.1249L157.577 39.0946V40.6379L158.001 39.0644L180.877 38.1263L181.391 39.3367L181.24 38.0961L181.633 38.0658C181.633 38.0658 181.966 25.1451 168.652 25.7805C155.278 26.3857 156.609 39.1249 156.609 39.1249Z" fill="white"/>
<path d="M165.083 43.3608C166.587 43.3608 167.806 42.1415 167.806 40.6374C167.806 39.1333 166.587 37.9141 165.083 37.9141C163.579 37.9141 162.359 39.1333 162.359 40.6374C162.359 42.1415 163.579 43.3608 165.083 43.3608Z" fill="white"/>
<path d="M174.372 42.7865C175.876 42.7865 177.095 41.5672 177.095 40.0632C177.095 38.5591 175.876 37.3398 174.372 37.3398C172.868 37.3398 171.648 38.5591 171.648 40.0632C171.648 41.5672 172.868 42.7865 174.372 42.7865Z" fill="white"/>
<path d="M164.779 41.395C165.648 41.395 166.352 40.6905 166.352 39.8215C166.352 38.9525 165.648 38.248 164.779 38.248C163.91 38.248 163.205 38.9525 163.205 39.8215C163.205 40.6905 163.91 41.395 164.779 41.395Z" fill="#1D1E1C"/>
<path d="M174.038 40.8794C174.907 40.8794 175.612 40.1749 175.612 39.3059C175.612 38.4369 174.907 37.7324 174.038 37.7324C173.169 37.7324 172.465 38.4369 172.465 39.3059C172.465 40.1749 173.169 40.8794 174.038 40.8794Z" fill="#1D1E1C"/>
<path d="M164.719 44.5411C166.958 44.5411 168.774 42.7258 168.774 40.4864C168.774 38.247 166.958 36.4316 164.719 36.4316C162.479 36.4316 160.664 38.247 160.664 40.4864C160.664 42.7258 162.479 44.5411 164.719 44.5411Z" stroke="#E95426" stroke-width="0.605187" stroke-miterlimit="0"/>
<path d="M174.523 44.1173C176.763 44.1173 178.578 42.3019 178.578 40.0626C178.578 37.8232 176.763 36.0078 174.523 36.0078C172.284 36.0078 170.469 37.8232 170.469 40.0626C170.469 42.3019 172.284 44.1173 174.523 44.1173Z" stroke="#E95426" stroke-width="0.605187" stroke-miterlimit="0"/>
<path d="M169.681 39.6705C170.014 39.731 170.619 41.0927 171.103 44.3001C171.255 45.2987 170.135 44.754 168.925 44.754C167.321 44.7238 169.348 39.6099 169.681 39.6705Z" fill="#2E98D4"/>
<path d="M168.773 40.4882L170.498 40.3672" stroke="#E95426" stroke-width="0.605187" stroke-miterlimit="0"/>
<path d="M173.585 46.9624C173.585 46.9624 173.07 46.1152 172.011 46.8414C171.376 47.2953 170.982 47.6886 170.982 47.6886C170.982 47.6886 173.312 49.595 174.916 48.5964C176.127 47.8399 175.673 46.0849 175.673 46.0849C175.673 46.0849 174.039 45.51 173.585 46.9624Z" fill="#E95426"/>
<path d="M171.013 47.6584C170.831 47.5374 174.16 48.1123 175.703 46.0547C175.703 46.0547 175.703 48.0518 173.918 48.4149C172.405 48.7175 171.013 47.6584 171.013 47.6584Z" fill="#1D1E1C"/>
<path d="M157.397 44.9961L156.58 49.8376L160.06 49.2929L157.397 44.9961Z" fill="#2E98D4"/>
<path d="M182.874 42.6348L181.604 47.325L184.539 46.8408L182.874 42.6348Z" fill="#2E98D4"/>
<path d="M146.23 30.3495L150.224 31.2875L150.769 29.9258C150.769 29.9258 154.037 29.4417 154.612 26.1434C154.824 24.9935 155.066 24.3581 154.945 24.2068C154.582 23.7529 152.342 26.8091 152.342 26.8091C152.342 26.8091 154.098 20.3033 153.432 19.9402C152.464 19.3956 150.981 24.691 150.981 24.691C150.981 24.691 152.1 18.7601 151.223 18.6088C150.527 18.4878 148.832 24.4791 148.832 24.4791C148.832 24.4791 149.831 18.6996 149.044 18.2457C148.348 17.8221 146.835 24.5699 146.835 24.5699C146.835 24.5699 147.047 21.1809 145.958 20.848C144.868 20.5152 145.746 26.9604 146.623 28.4129L146.23 30.3495Z" fill="#F4D3BA"/>
<path d="M194.978 29.2L191.437 29.2303L191.256 28.7461C191.256 28.7461 188.109 28.262 187.564 24.9637C187.383 23.8139 187.11 23.1784 187.231 23.0271C187.594 22.5732 189.743 25.6294 189.743 25.6294C189.743 25.6294 188.048 19.1237 188.684 18.7605C189.622 18.2159 191.044 23.5113 191.044 23.5113C191.044 23.5113 189.955 17.5804 190.802 17.4291C191.468 17.3081 193.102 23.2994 193.102 23.2994C193.102 23.2994 192.133 17.5199 192.89 17.066C193.555 16.6424 195.008 23.3902 195.008 23.3902C195.008 23.3902 194.796 20.0012 195.855 19.6683C196.914 19.3355 196.067 25.7807 195.22 27.2332L194.978 29.2Z" fill="#F4D3BA"/>
<path d="M178.911 9.10807C178.911 12.3458 177.247 15.4928 174.161 17.0663C173.737 17.2781 172.648 21.8775 172.799 21.4236L167.08 20.6369C166.626 20.9395 166.263 17.5202 165.779 17.2781C162.481 15.5533 160.695 14.1311 160.695 9.10807C160.695 4.08502 164.78 0 169.803 0C174.826 0 178.911 4.05476 178.911 9.10807Z" fill="#FFD460"/>
<path d="M167.653 20.8186C167.774 19.699 169.257 6.95982 165.989 6.80852C162.721 6.65722 168.985 20.1226 168.985 20.1226C168.985 20.1226 172.949 6.92956 169.227 6.80852C166.655 6.71774 170.528 20.2739 170.528 20.2739C170.528 20.2739 176.126 8.23071 172.949 6.80852C169.772 5.38633 171.89 21.333 171.89 21.333" stroke="#1D1D1B" stroke-width="0.151297" stroke-miterlimit="10"/>
<path d="M166.928 20.5469L167.321 23.7846L172.011 24.178L172.768 21.4244L166.928 20.5469Z" fill="#CECDCE"/>
<path d="M181.911 27.0888C183.023 25.1639 182.117 22.5604 179.888 21.2736C177.659 19.9868 174.952 20.504 173.84 22.4288C172.729 24.3537 173.635 26.9572 175.864 28.244C178.092 29.5308 180.8 29.0136 181.911 27.0888Z" fill="white"/>
<path d="M207.784 71.5707C222.815 71.5707 235 59.3857 235 44.3547C235 29.3237 222.815 17.1387 207.784 17.1387C192.753 17.1387 180.568 29.3237 180.568 44.3547C180.568 59.3857 192.753 71.5707 207.784 71.5707Z" fill="white"/>
<path d="M198.221 44.7816C198.221 44.7816 194.162 47.96 193.788 42.271C193.788 42.271 190.156 44.9419 188.339 42.0841C186.416 39.066 188.633 37.7573 189.034 37.4101C189.06 37.3834 189.06 37.33 189.007 37.33C188.366 37.3567 186.657 37.1964 186.309 34.5256C185.936 31.8547 188.313 31.3472 188.313 31.3472C188.313 31.3472 182.196 29.7447 185.134 24.216C187.271 20.1831 192.079 22.9607 192.079 22.9607C192.079 22.9607 191.998 18.9277 194.936 18.26C199.397 17.2451 200.625 21.8123 200.625 21.8123C200.625 21.8123 199.637 15.1618 206.368 15.0016C210.881 14.8948 210.027 20.2098 210.027 20.2098C210.027 20.2098 216.971 16.6308 219.535 21.839C221.538 25.9254 216.65 28.1689 216.65 28.1689C216.65 28.1689 224.877 29.3174 223.621 36.4753C222.954 40.2679 219.668 37.8908 219.668 37.8908C219.668 37.8908 220.977 39.6002 219.668 41.3629C218.6 42.8052 216.837 42.1642 216.837 42.1642C216.837 42.1642 217.692 48.1736 210.721 44.6748C203.75 41.176 209.145 39.0927 209.145 39.0927L207.917 35.033L204.979 32.6292L201.64 32.5491L200.465 34.7926L195.604 34.9262C195.604 34.9262 195.15 37.9443 195.471 38.8523C195.978 40.4549 198.221 44.7816 198.221 44.7816Z" fill="#FF4FD8"/>
<path d="M168.469 38.3184L167 43.5532L173.383 44.7551L173.864 39.3333L168.469 38.3184Z" fill="#F8B706"/>
<path d="M201.188 49.8297L212.005 49.3223C213.1 49.5894 217.907 51.0583 218.549 51.7527C222.074 55.6255 224.398 58.0293 224.398 58.0293L218.869 60.9405L216.492 59.5249L218.762 68.3121C214.649 68.5257 211.391 71.1432 208.373 70.5823C202.71 69.5139 198.757 64.3592 197.449 61.3678C197.048 60.4597 197.449 56.5603 197.449 56.5603L193.309 56.3733L191.68 49.4024L201.188 49.8297Z" fill="#230F9F"/>
<path d="M199.771 29.932C199.771 29.932 197.127 33.6712 194.482 34.8731C194.482 34.8731 194.75 47.1858 202.976 48.3609C203.456 48.4411 203.537 49.269 203.537 49.269L201.186 49.8299C199.931 50.8181 200.278 51.9399 201.026 52.5542C202.308 53.6225 205.753 55.9996 205.753 55.9996C205.753 55.9996 212.991 50.8715 211.79 49.2423L208.077 48.9218L207.596 47.8535C209.065 47.2926 209.84 45.4764 210.347 44.5149C210.347 44.5149 208.585 43.2596 209.119 41.8975C209.599 40.6422 211.309 40.108 211.309 40.108C211.309 40.108 214.621 40.562 214.006 37.0632C213.526 34.2855 211.362 34.2321 210.695 37.0098L210.16 36.8763C210.374 34.3389 210.187 33.5911 210.24 32.0687C210.24 32.0687 209.573 34.0451 207.676 32.3091C205.566 30.3861 206.929 29.291 206.929 29.291C206.929 29.291 204.284 32.7898 199.771 29.932Z" fill="#FED1A8"/>
<path d="M171.862 45.6357C178.913 53.5948 193.069 54.8768 193.069 54.8768L191.893 50.2563C181.878 49.1879 175.655 43.1785 175.655 43.1785C175.655 43.1785 174.907 39.3325 172.236 40.5878C169.565 41.8431 173.651 41.7362 173.651 41.7362L173.411 44.7276L170.82 44.2468L171.862 45.6357Z" fill="#FED1A8"/>
<path d="M194.67 65.1594L205.914 62.0879L210.268 75.6826L198.676 79.4485L194.67 65.1594Z" fill="#85D7FF"/>
<path d="M219.162 60.8065L222.928 58.8301C222.928 58.8301 232.409 72.772 209.386 73.5198C209.253 73.5198 209.119 73.5198 209.012 73.5198C207.063 73.68 205.701 73.3595 205.3 73.1459C205.14 73.0657 205.006 73.039 205.193 72.8521C205.38 72.6651 207.757 73.1993 208.371 72.8521C208.371 72.8521 205.567 72.6117 204.632 72.1577C204.499 72.0775 204.525 71.8372 204.712 71.8372C206.074 71.9974 208.719 71.7837 208.158 71.8104C205.754 71.8906 204.392 71.4098 204.205 71.1962C204.125 71.0893 204.232 70.9291 204.285 70.9291C206.582 70.9291 208.184 70.6353 208.184 70.6353C206.342 70.8222 204.552 70.3415 204.071 70.1011C203.858 69.9943 203.938 69.7806 204.071 69.7806C206.529 69.7806 208.345 69.5402 208.345 69.5402L207.998 68.2048C207.998 68.2048 209.253 68.6855 209.466 69.5936C209.493 69.6738 209.627 69.647 209.707 69.647C225.732 69.2731 219.162 60.8065 219.162 60.8065Z" fill="#FED1A8"/>
<path d="M197.367 39.0391C198.592 39.0391 199.584 38.0466 199.584 36.8223C199.584 35.598 198.592 34.6055 197.367 34.6055C196.143 34.6055 195.15 35.598 195.15 36.8223C195.15 38.0466 196.143 39.0391 197.367 39.0391Z" fill="white"/>
<path d="M203.324 38.7442C204.549 38.7442 205.541 37.7517 205.541 36.5274C205.541 35.303 204.549 34.3105 203.324 34.3105C202.1 34.3105 201.107 35.303 201.107 36.5274C201.107 37.7517 202.1 38.7442 203.324 38.7442Z" fill="white"/>
<path d="M196.913 38.5582C197.621 38.5582 198.195 37.9842 198.195 37.2762C198.195 36.5681 197.621 35.9941 196.913 35.9941C196.205 35.9941 195.631 36.5681 195.631 37.2762C195.631 37.9842 196.205 38.5582 196.913 38.5582Z" fill="#1D1E1C"/>
<path d="M202.815 38.3179C203.523 38.3179 204.097 37.744 204.097 37.0359C204.097 36.3279 203.523 35.7539 202.815 35.7539C202.107 35.7539 201.533 36.3279 201.533 37.0359C201.533 37.744 202.107 38.3179 202.815 38.3179Z" fill="#1D1E1C"/>
<path d="M200.038 37.0631C200.412 37.1166 200.252 37.0097 202.95 39.6005C203.751 40.375 199.558 41.6837 198.569 41.1229C197.047 40.2682 199.664 37.0097 200.038 37.0631Z" fill="#2E98D4"/>
<path d="M205.379 44.2996C204.631 44.9139 202.254 46.276 201.854 44.0058C201.667 42.9108 203.777 42.617 203.777 42.617C204.097 41.0412 206.421 41.148 206.421 41.148C206.421 41.148 207.275 42.7238 205.379 44.2996Z" fill="#EE774D"/>
<path d="M205.754 33.6982L209.012 35.8616L210.909 36.3156C213.259 33.5379 213.847 37.0101 213.847 37.0101C212.671 36.743 216.624 37.6778 217.372 37.838C217.372 37.838 219.562 37.4641 218.173 35.4609L209.653 33.2441L205.754 33.6982Z" fill="#F8B706"/>
<path d="M209.012 35.8609C209.012 35.8609 209.386 35.7808 209.573 35.2734C209.68 34.8994 209.253 34.7392 209.253 34.7392C209.253 34.7392 209.84 34.7926 209.867 34.4721C209.894 34.1249 209.413 33.9646 209.413 33.9646C209.413 33.9646 209.947 33.9646 210.027 33.6441C210.107 33.3236 209.68 33.2168 209.68 33.2168L205.754 33.6708L209.012 35.8609Z" fill="#FFD460"/>
<path d="M205.754 33.6967L206.609 34.2843L206.715 33.5898L205.754 33.6967Z" fill="#FF4FD8"/>
<path d="M209.227 34.7648L211.844 35.4592C211.844 35.4592 212.886 34.9785 213.42 35.8865L218.468 37.222C218.468 37.222 218.762 36.9816 218.655 36.5543C218.548 36.1269 209.414 33.9902 209.414 33.9902C209.414 33.9902 209.894 34.3375 209.868 34.4977C209.814 34.658 209.227 34.7648 209.227 34.7648Z" fill="#FF4FD8"/>
<path d="M218.067 35.4336L217.373 37.8641C217.373 37.8641 218.415 38.2914 218.762 37.0895C219.189 35.5671 218.067 35.4336 218.067 35.4336Z" fill="#EE774D"/>
</svg>
