<svg width="699" height="787" viewBox="0 0 699 787" fill="none" xmlns="http://www.w3.org/2000/svg">
<path d="M233.381 369.72C229.599 370.902 225.687 371.882 221.865 372.946C226.483 371.408 231.225 370.285 235.466 368.988C235.466 368.988 234.624 369.279 233.406 369.704C232.132 370.095 234.649 369.263 233.406 369.704L233.381 369.72Z" fill="#3EA7F3"/>
<path d="M169.367 383.834C168.802 383.948 167.739 384.061 165.767 384.082C166.896 383.962 168.148 383.87 169.367 383.834Z" fill="#3EA7F3"/>
<path d="M458.238 659.452L459.135 658.416C458.726 659.494 458.415 659.728 458.238 659.452Z" fill="#3EA7F3"/>
<path d="M253.327 359.002L252.717 359.322C249.958 360.663 251.003 360.136 253.327 359.002Z" fill="#3EA7F3"/>
<path d="M168.508 382.326C168.354 383.914 161.619 382.589 160.601 382.495C156.129 381.99 151.691 380.931 147.171 379.854C144.163 378.978 141.144 377.862 138.14 376.771C134.761 375.317 132.506 374.065 132.413 373.699C132.413 373.699 133.523 374.159 135.184 374.869C140.088 377.154 145.346 378.61 150.327 379.854C150.75 379.406 147.246 378.032 147.007 377.937C145.083 377.147 143.175 376.383 141.251 375.594C140.272 375.228 139.318 374.845 138.488 374.49C115.915 367.596 94.0813 352.885 78.9516 330.37C62.9501 306.604 58.1891 279.292 56.4995 253.454C56.0076 253.627 55.886 254.378 55.5481 254.737C54.7536 255.6 54.2197 251.721 54.1914 251.456C53.8899 247.109 53.5793 242.803 53.7315 238.556C53.8043 236.842 53.861 235.104 54.1884 233.511C54.5067 231.959 55.0793 231.912 56.1213 231.102C56.5059 216.42 58.1281 202.01 61.6041 188.611C63.323 182.048 65.4845 175.733 68.1857 169.818C69.8766 166.145 71.7165 164.755 76.0861 166.815C79.5842 168.512 83.0012 171.466 85.4989 174.867C86.5982 176.362 87.5608 178.087 87.976 179.843C88.5354 182.322 87.4384 183.876 86.5758 185.741C80.8638 198.195 77.7454 212.429 76.1766 227.089C76.4846 227.459 76.9291 226.714 77.5661 224.497C77.3055 226.969 77.0818 228.779 76.9666 230.095C76.9536 230.351 76.9618 233.077 76.5885 233.103C76.4396 233.092 75.9957 230.184 75.91 229.885C75.298 236.626 75.014 243.546 75.0459 250.407C75.4427 251.359 75.9502 252.594 76.1988 245.341C76.7048 257.537 76.0927 258.852 75.2832 260.08C75.8559 273.156 77.2446 286.453 80.7131 299.732C81.6741 302.45 82.7596 304.699 83.6165 306.314C85.0937 311.61 86.842 315.669 88.0316 319.021C89.1548 322.381 90.4376 324.716 91.1558 326.668C91.4186 327.244 91.6332 327.745 91.8477 328.246C95.8651 335.073 100.664 340.405 106.259 344.767C105.558 344.116 104.915 343.499 104.412 342.935C102.914 341.482 102.447 340.256 103.038 340.126C107.439 345.004 112.305 348.449 117.615 351.645C118.558 352.177 119.519 352.625 120.455 353.09L123.313 354.451C153.306 366.454 182.419 362.74 208.077 353.189C234.986 343.155 258.94 327.068 281.765 310.214C301.541 295.633 320.688 280.178 340.568 265.814C350.483 258.648 360.552 251.668 370.805 245.03C381.09 238.443 391.381 232.029 403.285 228.413C405.522 227.476 407.438 226.923 408.996 226.422C411.551 225.814 414.128 225.298 416.916 225.499C421.143 224.956 425.455 224.712 429.828 224.784C425.76 223.914 422.487 223.067 418.432 222.826C424.797 222.687 431.155 223.367 437.721 225.369C441.788 225.85 445.883 226.596 450.005 227.716C450.818 227.656 450.042 227.054 450.575 226.89C454.592 228.29 457.533 229.669 460.084 231.05C471.229 235.439 481.881 242.769 490.69 252.592C494.767 256.188 498.346 262.053 501.259 266.713C505.059 272.757 508.264 279.145 511.028 285.675C516.737 299.185 520.432 313.205 523.028 327.113C523.922 330.336 524.588 332.428 525.004 333.19C524.786 333.79 524.682 334.957 524.62 336.521C526.555 349.399 527.549 362.134 528.228 374.822C528.399 376.806 528.593 378.881 528.761 380.971C529.271 390.682 529.772 400.435 529.772 400.435C530.217 401.959 530.652 402.141 530.788 400.636C531.047 397.774 530.887 394.755 530.825 391.78C530.683 384.636 530.136 377.36 530.241 370.27C530.919 379.412 531.581 388.529 531.161 397.453C530.874 404.092 530.265 410.617 529.756 417.186C529.653 424.169 529.131 430.994 528.361 437.765C527.873 448.576 527.105 459.283 526.141 469.903C526.251 469.3 526.362 468.697 526.472 468.094C525.957 473.602 525.392 479.143 525.668 484.889C525.829 490.568 524.862 495.869 523.904 501.129C523.96 498.114 523.914 494.277 524.025 490.021C522.577 502.156 520.826 514.096 518.847 525.79C518.429 529.18 518.541 530.739 519.684 528.482C517.731 539.274 515.703 546.851 514.497 549.397C513.301 555.447 512.137 561.548 510.907 567.657C513.58 560.589 517.133 543.878 514.589 562.497L509.655 578.603C509.779 580.403 509.299 582.2 509.045 583.852C508.512 587.173 507.947 590.443 507.389 593.78C506.84 597.076 506.266 600.387 505.815 603.726C505.777 603.999 505.279 608.149 505.895 608.003C503.538 617.28 502.391 618.369 500.022 625.632C498.929 633.284 497.369 640.206 494.324 646.803C495.615 641.897 496.684 637.808 497.626 634.296C501.317 617.744 504.582 600.969 507.78 584.202C507.636 584.365 507.461 584.867 507.275 585.518C501.182 614.709 494.085 643.551 483.584 670.068C483.367 672.441 487.508 664.788 488.422 663.777C487.431 667.214 486.33 669.87 485.302 672.195C489.821 667.457 498.074 659.192 500.791 655.572C498.751 660.248 493.468 666.894 482.284 678.668C482.216 678.783 482.172 678.882 482.104 678.996C492.917 668.914 503.195 658.217 513.652 647.689C523.898 637.332 534.138 626.907 543.711 615.775C548.468 610.245 553.071 604.531 557.38 598.579C561.128 593.412 564.037 586.548 569.764 583.696C576.378 580.346 585.701 579.731 593.87 582.408C595.138 582.838 597.961 583.867 597.511 585.823C597.059 587.886 595.195 589.682 594.13 591.286C592.598 593.545 591.04 595.819 589.45 598.043C583.023 607.055 576.131 615.619 568.979 623.888C568.868 624.101 568.832 624.266 568.955 624.293C568.654 624.486 568.368 624.705 568.032 624.956C562.295 631.503 556.355 637.897 550.317 644.14C552.21 642.998 554.776 640.858 558.407 637.114C549.986 648.218 540.294 658.114 530.388 667.509C520.701 676.692 510.664 685.604 499.482 692.73C498.657 693.435 497.874 694.15 497.049 694.856C487.164 705.833 509.623 686.803 517.282 681.542C510.389 687.943 503.704 694.672 496.56 700.737C489.256 706.94 481.604 712.657 474.114 718.625C465.575 724.838 456.743 731.204 446.524 734.628C441.697 736.726 435.415 737.77 429.796 737.468L426.808 737.289L425.294 737.194L423.367 737.01C419.504 736.682 414.622 734.595 412.761 729.863L412.284 728.786L411.932 727.627C411.731 726.87 411.422 726.11 411.337 725.313C411.186 724.524 411.034 723.734 410.924 722.953C410.856 722.181 410.757 721.251 410.766 720.713C410.508 711.727 413.234 704.023 413.971 695.429L414.229 692.178C415.116 680.827 416.07 669.469 416.817 658.067C419.268 657.631 418.788 650.846 420.904 640.694L420.093 633.836C420.373 636.21 421.286 632.043 421.975 634.227C422.199 619.683 421.798 604.936 420.702 590.103C420.4 586.253 419.025 581.282 421.254 578.506C422.865 576.481 425.345 575.425 427.745 574.632C433.395 572.823 439.974 572.298 446.375 573.377C448.167 573.683 450.679 574.061 452.248 575.68C453.224 576.651 453.059 577.999 453.129 579.16C453.421 582.661 453.681 586.113 453.891 589.596C454.305 586.422 454.529 583.229 454.663 579.95C454.636 579.188 454.592 578.4 454.533 577.587C454.219 574.383 452.586 573.052 449.843 571.759C451.395 572.467 453.111 573.319 454.158 574.954C454.996 576.261 454.906 578.447 455.071 579.867C455.825 595.274 456.693 610.749 456.844 626.046C456.981 641.21 456.04 655.964 454.357 670.556C455.195 668.21 455.503 665.424 455.914 662.855C456.692 657.923 457.272 652.905 457.672 647.826C458.49 637.973 458.928 628.081 459.244 618.054C459.267 624.459 459.085 630.818 458.943 637.187C458.658 641.945 458.321 646.736 458.15 651.563C458.098 653.086 457.207 657.842 458.33 659.428L456.35 661.654C455.847 667.402 455.687 670.307 455.706 671.501C455.896 671.521 456.071 671.516 456.254 671.469C457.042 669.156 458.444 662.653 458.706 667.38C458.633 668.208 458.544 669.01 458.48 669.796C459.021 669.201 459.529 668.556 459.997 667.901C463.045 661.586 465.814 655.167 468.435 648.629C469.09 646.329 470.243 643.534 471.56 640.385C473.296 635.62 474.965 630.862 476.504 626.011C475.309 627.911 474.69 626.889 474.539 624.715C483.187 608.926 480.722 602.808 488.836 569.13C488.537 568.719 486.137 575.825 485.978 576.352C485.168 578.963 484.449 583.821 482.374 585.399C485.233 576.297 487.273 566.691 489.673 557.315C490.877 552.607 491.958 547.871 493.261 543.206C494.014 540.56 494.617 537.017 496.27 535.001C498.418 522.63 500.614 510.335 502.203 497.754C503.878 484.977 505.477 471.858 505.786 458.608C505.607 461.596 505.313 464.515 504.838 467.372C504.651 468.521 504.544 471.675 503.234 471.734C501.12 471.811 500.774 478.026 500.497 479.587C505.47 454.128 507.136 426.885 506.89 399.59C505.976 385.705 504.507 371.784 502.54 357.97C502.045 357.861 501.641 358.616 501.134 360.537C499.417 351.599 497.349 342.39 497.096 333.578C496.837 325.09 494.635 316.391 492.646 307.805C494.263 314.04 495.599 320.278 497.001 326.51C496.724 324.914 496.518 323.485 496.294 322.139C492.491 304.074 488.394 284.388 478.355 267.55C478.36 267.724 478.406 267.908 478.427 268.107C478.635 269.428 479.101 270.654 476.231 265.896C471.687 255.257 461.042 247.994 451.621 245.799C440.963 243.332 430.808 244.587 421.255 246.946C422.884 246.611 424.537 246.368 426.207 246.15C426.207 246.15 424.941 246.5 423.06 246.995C421.257 247.724 418.693 248.373 416.402 249.557C413.238 250.874 410.086 252.431 407.219 254.268C407.06 254.405 407.284 254.368 407.215 254.483C406.81 254.459 406.412 254.501 406.091 254.388C395.052 262.734 384.189 271.465 372.498 278.847C368.196 280.325 364.313 283.344 360.622 285.885C355.394 289.517 350.247 293.275 345.164 297.133C340.182 300.927 335.249 304.796 330.225 308.581C327.142 310.91 324.129 313.514 320.708 315.315C326.758 311.085 331.653 307.099 338.582 301.03L336.178 300.157C323.215 310.481 336.543 302.442 323.382 311.296C323.814 307.154 341.217 296.895 350.287 289.738C346.564 291.732 341.538 294.738 335.76 299.006C339.284 296.146 342.865 293.321 346.462 290.521C341.975 293.926 337.538 297.407 333.116 300.913C333.998 300.241 334.871 299.611 335.769 298.965C328.683 304.567 321.581 310.145 314.527 315.798C315.516 315.625 315.522 316.189 313.378 318.378C300.055 330.245 295.873 331.965 289.703 335.066C285.335 338.324 280.887 341.457 276.407 344.539C274.54 346.941 273.06 349.059 270.624 350.903C267.482 353.306 264.187 355.416 260.755 357.366C265.586 355.052 270.279 352.579 274.996 350.089C271.7 353.193 268.207 356.211 263.984 357.922C259.862 359.57 255.727 360.976 251.86 363.134C254.936 360.738 254.607 360.169 266.163 353.406C266.804 351.86 257.736 356.639 253.453 358.921C254.365 358.408 255.246 357.844 256.126 357.28C255.892 357.359 255.684 357.421 255.46 357.459C243.516 364.115 231.02 369.742 217.692 373.738C217.667 373.754 217.616 373.787 217.591 373.803C218.656 373.582 220.904 372.497 221.991 372.865C211.215 375.475 200.65 378.304 189.331 379.346L189.627 379.476C189.022 379.473 188.484 379.463 187.946 379.453C182.329 379.93 176.594 380.056 170.791 379.8C172.066 380.296 171.116 380.585 164.566 379.992C166.023 380.938 168.194 380.895 169.674 381.047C172.27 381.335 174.867 381.623 177.411 381.554C182.846 381.513 188.097 381.13 193.426 380.59C195.179 380.283 196.933 379.975 198.687 379.668C195.784 380.286 192.842 380.786 189.949 381.363C188.477 381.667 186.661 381.766 185.403 382.571C184.141 383.202 186.916 383.66 195.631 382.76C193.514 383.939 189.263 384.001 184.522 384.129C179.537 383.988 174.41 383.512 169.518 383.737C171.157 383.361 167.996 382.69 168.634 382.246C167.98 382.664 168.591 382.734 168.634 382.246L168.508 382.326ZM504.12 494.434C503.513 499.079 502.924 503.641 502.422 507.51C504.04 497.854 505.316 487.886 506.234 477.58C506.161 476.137 506.139 474.165 506.136 471.613C505.598 479.3 504.995 486.886 504.12 494.434C504.436 491.607 503.513 499.079 504.12 494.434ZM478.438 682.408C478.438 682.408 478.488 682.376 478.513 682.36L478.589 682.312C478.589 682.312 478.538 682.344 478.513 682.36C478.513 682.36 478.497 682.335 478.481 682.31C478.481 682.31 478.472 682.351 478.463 682.392C478.488 682.376 478.488 682.376 478.463 682.392L478.438 682.408ZM479.83 679.211C480.335 678.781 480.881 678.361 481.42 677.874C482.995 673.744 482.16 674.598 483.019 671.565C481.977 674.147 480.945 676.688 479.83 679.211C480.945 676.688 480.335 678.781 479.83 679.211ZM489.601 669.938C487.287 671.917 485.621 673.303 484.444 674.234C484.194 674.785 483.935 675.376 483.693 675.886C485.404 674.293 487.327 672.423 489.601 669.938C487.287 671.917 487.311 672.398 489.601 669.938ZM394.936 256.85C392.078 258.645 389.253 260.49 386.476 262.41C390.996 259.834 393.271 258.236 394.936 256.85ZM374.972 270.806C379.042 268.412 382.9 266.296 386.633 264.65C390.881 261.149 389.351 261.03 386.3 262.523C379.513 267.154 372.717 271.825 365.889 276.447C368.907 274.514 371.899 272.597 374.998 270.79C372.05 272.5 379.068 268.396 374.998 270.79L374.972 270.806Z" fill="#3EA7F3"/>
<path d="M244.876 367.678C247.587 365.764 249.784 364.322 251.718 363.189C250.416 364.201 248.61 365.535 244.876 367.678Z" fill="#3EA7F3"/>
<path d="M570.371 623.457C569.564 624.08 569.111 624.37 568.962 624.359C569.5 623.98 569.977 623.674 570.371 623.457Z" fill="#3EA7F3"/>
<path d="M407.124 254.507C407.704 254.526 408.368 254.455 409.132 254.32C407.48 254.953 406.741 255.072 407.124 254.507Z" fill="#3EA7F3"/>
<path d="M417.263 253.227C419.074 251.57 413.313 253.593 409.132 254.32C415.085 251.82 430.561 247.689 417.263 253.227Z" fill="#3EA7F3"/>
<path d="M591.203 577.413C589.644 577.028 588.125 576.76 586.654 576.567L584.422 576.294C583.611 576.246 583.075 576.128 581.978 576.298C580.379 576.294 578.888 576.291 577.329 576.403C578.803 575.991 580.208 575.694 581.809 575.591L584.774 575.182C589.915 576.287 603.543 578.518 601.635 587.721C601.404 588.578 601.103 589.161 600.882 589.48C600.789 589.611 600.488 590.193 600.231 590.18C600.169 589.972 600.214 589.766 600.374 589.628C600.545 589.341 600.716 589.054 600.846 588.759C603.497 582.378 595.987 578.57 591.212 577.372C589.653 576.987 592.812 577.766 591.212 577.372L591.203 577.413Z" fill="#3EA7F3"/>
<path d="M552.066 599.252C548.332 604.552 544.461 609.692 540.532 614.797C537.097 617.352 533.622 619.79 530.123 622.244C537.326 614.332 545.587 607.906 552.091 599.236L552.066 599.252Z" fill="#3EA7F3"/>
<path d="M517.266 640.764L520.777 638.161C517.754 640.807 517.025 641.274 517.266 640.764Z" fill="#3EA7F3"/>
<path d="M518.624 635.851C523.272 631.704 527.783 627.396 527.783 627.396L521.421 634.627C521.799 635.272 517.68 639.861 517.266 640.764L509.699 646.391C511.458 644.874 514.986 641.799 515.955 640.433L509.374 644.223C509.374 644.223 514.007 640.05 518.624 635.851C523.272 631.704 513.991 640.024 518.624 635.851Z" fill="#3EA7F3"/>
<path d="M500.823 655.621C501.074 655.071 501.484 654.382 501.609 653.912C501.897 653.976 501.562 654.616 500.823 655.621Z" fill="#3EA7F3"/>
<path d="M530.482 427.291C530.485 431.227 530.297 435.142 530.135 439.041L529.041 443.147C529.573 437.167 530.253 431.198 530.48 425.129C530.48 425.129 530.481 426.016 530.473 427.333L530.482 427.291Z" fill="#3EA7F3"/>
<path d="M525.544 332.702C525.535 333.629 525.343 333.717 525.046 333.198C525.168 332.836 525.346 332.615 525.544 332.702Z" fill="#3EA7F3"/>
<path d="M418.398 222.883C416.224 223.033 414.303 223.023 411.512 223.427C414.098 222.87 416.352 222.845 418.398 222.883Z" fill="#3EA7F3"/>
<path d="M527.082 338.704C526.794 335.874 526.49 333.018 526.161 330.179C526.696 332.177 527.248 334.2 527.757 336.215L527.098 338.73L527.082 338.704Z" fill="#3EA7F3"/>
<path d="M404.233 224.578C402.044 224.704 399.892 225.053 397.758 225.321L402.51 224.157C406.474 223.037 408.197 223.458 404.233 224.578Z" fill="#3EA7F3"/>
<path d="M386.386 232.426C386.386 232.426 385.874 232.789 385.127 233.339C382.933 235.063 380.772 236.837 378.7 238.696L372.976 240.944C377.387 237.977 381.742 234.975 386.411 232.41L386.386 232.426Z" fill="#3EA7F3"/>
<path d="M75.2877 329.135L73.4693 326.185C72.8572 325.229 72.2792 324.216 71.7767 323.154C70.7123 321.105 69.641 318.989 68.5444 316.889C70.7132 320.608 72.7917 324.739 75.5702 328.635C76.868 330.605 78.1475 332.659 79.5439 334.673L84.0367 340.414L86.2786 343.305C88.6753 345.885 91.0468 348.48 93.4435 351.06C95.038 352.663 96.6775 354.06 98.2417 355.506C99.7988 356.885 101.221 358.386 102.725 359.516C100.783 358.312 99.0562 356.722 97.2677 355.314C95.5224 353.807 93.6656 352.514 92.1234 350.77C88.9456 347.414 85.6813 344.255 83.0748 340.463L78.9584 334.977C77.7431 333.024 76.5693 331.08 75.3541 329.128L75.2877 329.135Z" fill="#3EA7F3"/>
<path d="M203.755 382.487C207.467 381.528 211.239 380.496 215.053 379.862C216.424 379.622 218.148 379.157 219.703 379.757C221.175 380.339 220.203 381.813 220.112 382.722C216.325 383.233 211.234 384.365 218.942 381.947C218.942 381.947 215.175 382.267 211.403 382.413C207.55 382.433 203.739 382.462 203.739 382.462L203.755 382.487Z" fill="#3EA7F3"/>
<path d="M325.828 319.377L309.656 330.728L317.635 324.305C312.916 326.405 309.818 328.212 303.255 331.919C315.248 323.457 326.774 315.65 325.837 319.336L325.828 319.377Z" fill="#3EA7F3"/>
<path d="M288.686 342.173C290.515 340.931 292.538 339.493 294.661 337.992C293.124 339.579 292.324 340.765 288.686 342.173Z" fill="#3EA7F3"/>
<path d="M300.969 333.277C301.881 332.764 302.476 332.419 303.246 331.961C300.334 334.003 297.413 336.087 294.636 338.007C295.776 336.852 297.31 335.372 300.944 333.293C297.31 335.372 301.856 332.78 300.944 333.293L300.969 333.277Z" fill="#3EA7F3"/>
<path d="M353.563 296.792C350.553 296.91 347.804 300.48 345.75 302.257C343.004 304.725 340.098 307.827 336.466 308.912C345.39 302.026 354.394 295.266 363.544 288.732C360.214 291.397 356.844 294.052 353.579 296.817L353.563 296.792Z" fill="#3EA7F3"/>
<path d="M482.288 287.093C482.992 288.026 483.712 288.984 483.712 288.984C487.94 301.066 489.861 313.314 491.893 325.455C493.833 337.123 495.009 348.926 498.076 360.581C497.751 359.796 497.715 362.231 497.688 362.355C497.672 363.216 498.101 366.489 497.504 366.942C497.53 366.925 496.609 362.443 496.59 362.136C496.222 360.066 495.719 357.232 495.068 353.392C494.572 342.041 492.247 330.549 490.121 319.035C488.04 307.812 485.261 296.22 480.881 285.228C480.881 285.228 481.635 286.128 482.339 287.061C481.619 286.103 483.042 287.994 482.339 287.061L482.288 287.093Z" fill="#3EA7F3"/>
<path d="M498.051 360.596C498.194 360.93 498.389 361.622 498.672 362.894C498.461 362.178 498.269 361.379 498.051 360.596Z" fill="#3EA7F3"/>
<path d="M502.353 386.748C502.211 385.917 501.339 379.24 502.083 379.295C502.505 379.344 503.639 385.712 503.77 386.302C504.661 395.556 504.521 405.471 503.546 400.349C504.538 395.919 503.112 391.476 502.378 386.732C502.087 385.004 502.628 388.452 502.378 386.732L502.353 386.748Z" fill="#3EA7F3"/>
<path d="M500.248 497.304C501.288 490.29 502.85 480.493 501.807 490.879C498.677 512.072 497.765 505.775 494.822 515.853C495.705 509.258 496.581 502.597 498.211 496.339C498.549 495.094 498.869 492.548 499.916 491.913C500.469 491.559 500.295 496.99 500.273 497.288C500.796 490.463 501.313 490.273 500.273 497.288L500.248 497.304Z" fill="#3EA7F3"/>
<path d="M466.188 650.104L459.704 660.357L461.601 654.957L466.188 650.104Z" fill="#3EA7F3"/>
<path d="M458.329 584.733L458.133 583.652C457.911 582.198 457.689 580.744 457.701 579.212L456.242 575.606C456.242 575.606 456.241 575.217 455.971 574.574C455.784 573.949 455.163 573.034 454.324 572.224C451.618 569.382 447.815 568.483 444.622 567.761C442.062 567.308 439.551 566.931 437.051 566.793C440.656 566.719 444.372 566.928 448.107 567.942C451.231 568.778 456.632 571.065 457.307 575.385C457.624 576.601 457.933 577.858 458.3 579.041L458.745 586.878L458.457 585.431L458.313 584.708L458.329 584.733Z" fill="#3EA7F3"/>
<path d="M416.437 586.876L416.121 584.667L415.976 583.554L415.887 582.972C415.827 582.656 415.824 582.374 415.887 582.086C415.188 575.9 418.823 571.941 423.65 570.729C425.561 570.392 427.498 570.038 429.361 569.625C424.895 570.57 419.831 572.076 417.337 576.156C416.272 577.76 415.935 579.891 416.093 582.131L416.371 586.883L416.437 586.876Z" fill="#3EA7F3"/>
<path d="M417.796 615.409C417.879 610.39 417.947 605.346 417.947 605.346C418.01 614.137 418.015 622.895 417.732 631.588C417.891 628.791 417.691 627.039 417.473 625.37C417.674 622.085 417.719 618.722 417.796 615.409C417.879 610.39 417.725 617.902 417.796 615.409Z" fill="#3EA7F3"/>
</svg>
