<svg width="1437" height="371" viewBox="0 0 1437 371" fill="none" xmlns="http://www.w3.org/2000/svg">
<path d="M-8.99951 320.952C24.6422 299.544 50.8092 260.509 75.4959 230.187C101.704 197.997 173.078 164.28 208.905 141.987C224.124 132.518 239.862 122.386 256.211 115.057C264.024 111.555 274.647 103.24 283.854 106.65C299.885 112.588 290.357 164.194 289.411 175.757C285.92 218.423 243.063 259.845 235.5 301.859C235.224 303.395 345.45 367.846 350 367.846C367.911 367.846 365.555 312.801 376 301.859C410.673 265.535 418.711 210.485 455 175.757C482.267 149.663 474.976 126.67 511.407 114.06C529.19 107.904 652.615 98.0018 666 115.057C683.405 137.234 585.644 185.248 585.644 211.521C585.644 248.063 580.799 284.363 580.799 320.952C580.799 333.536 648.484 368.819 666 367.846C698.932 366.016 690.059 340.256 713.5 320.952C840.475 267.662 850.2 173.669 909 141.987C957.32 115.953 979.76 139.845 999.5 218.076C1009.08 256.05 1011.07 310.063 1057.85 328.646C1079.37 337.198 1095.92 324.287 1111.14 310.835C1140.77 284.65 1102.79 218.735 1135 195.846C1158.77 178.959 1182.67 112.351 1207 96.3458C1218.75 88.6182 1303.63 87.1937 1317.5 83.8461C1350.68 75.8377 1351.5 84.3588 1351.5 114.059C1351.5 140.699 1269.3 260.82 1260 285.615C1255.94 296.454 1317.5 356.296 1317.5 367.846C1317.5 381.636 1405.23 332.464 1422.5 320.952C1438.06 310.582 1400.14 169.32 1411.5 154.846C1419.14 145.111 1498.38 178.911 1511 175.757" stroke="white" stroke-opacity="0.33" stroke-width="5" stroke-linecap="round" stroke-dasharray="1 200"/>
<path d="M-53 227.952C-19.3583 206.544 6.8087 167.509 31.4954 137.188C57.7032 104.998 48.6726 71.2801 84.5 48.9875C99.7184 39.5183 195.862 29.3862 212.211 22.0573C220.024 18.5551 230.647 10.2406 239.854 13.6505C255.884 19.5878 246.357 71.1942 245.411 82.7572C241.92 125.424 199.062 166.845 191.5 208.859C191.223 210.396 301.449 274.846 306 274.846C323.911 274.846 321.555 219.801 332 208.859C366.672 172.535 361.711 207.727 398 172.999C425.267 146.905 344.069 34.668 380.5 22.0573C398.282 15.9019 501.115 31.9322 514.5 48.9875C531.905 71.1646 541.643 92.2488 541.643 118.522C541.643 155.063 536.798 191.363 536.798 227.952C536.798 240.536 604.484 275.819 622 274.846C654.932 273.016 646.059 247.257 669.5 227.952C796.474 174.662 806.199 80.6688 865 48.9875C913.32 22.9529 935.759 46.8456 955.5 125.076C965.082 163.05 967.068 217.063 1013.85 235.647C1035.37 244.198 1051.92 231.287 1067.14 217.836C1096.77 191.65 1058.78 125.736 1091 102.846C1114.77 85.9594 1138.67 19.3514 1163 3.34607C1174.75 -4.38156 1202.13 62.3476 1216 59C1249.18 50.9916 1307.5 -8.64092 1307.5 21.0592C1307.5 47.699 1225.3 167.82 1216 192.615C1211.93 203.455 1289 224.097 1289 235.647C1289 249.438 1376.73 200.265 1394 188.753C1409.56 178.383 1333.64 97.2317 1345 82.7572C1352.64 73.0226 1454.38 85.9113 1467 82.7572" stroke="white" stroke-opacity="0.33" stroke-width="5" stroke-linecap="round" stroke-dasharray="1 200"/>
</svg>
