<svg width="1219" height="54" viewBox="0 0 1219 54" fill="none" xmlns="http://www.w3.org/2000/svg">
<path d="M657.132 1.10572C666.635 -0.0700314 675.933 -0.688877 685.643 1.22945C690.705 2.21956 697.11 3.08599 701.862 2.09588C716.428 -0.874431 730.477 1.91027 744.63 2.59097C782.542 4.38553 788.844 5.74693 823.037 2.59097C827.583 2.1578 832.644 2.65273 837.19 3.39531C845.764 4.69482 854.132 6.55133 862.706 8.09836C881.817 11.6256 881.817 11.6256 904.854 8.34583C901.135 7.7889 897.932 7.29384 894.627 6.79879C900.618 4.94234 903.407 4.44732 906.093 4.81861C914.771 6.05624 922.828 6.36568 932.126 5.31369C941.423 4.26171 952.063 7.04635 962.084 8.2221C964.77 8.53151 967.662 10.0786 969.728 9.6454C987.29 6.24192 1005.26 12.3682 1022.83 8.59345C1026.55 7.78899 1032.43 9.02665 1036.36 10.3262C1042.56 12.3683 1048.55 13.9152 1055.88 13.2964C1058.36 13.1107 1062.19 13.2964 1063.53 14.2246C1068.8 18.0612 1075.61 17.3187 1082.43 17.2569C1089.87 17.195 1097.2 17.2569 1104.85 17.8757C1113.94 18.6183 1123.86 17.195 1133.15 16.0192C1144.41 14.596 1154.95 15.2147 1165.18 18.2469C1159.39 16.3904 1153.4 16.5142 1147.41 17.3187C1145.14 17.6281 1141.73 17.8756 1143.9 20.9078C1150.82 19.9796 1157.84 18.9896 1164.87 18.0614C1170.34 20.4129 1176.34 21.9598 1183.05 22.6405C1186.25 22.9499 1189.25 24.002 1192.35 24.6827C1189.97 24.9302 1185.94 24.002 1186.36 26.4154C1186.67 28.4575 1189.45 29.9426 1194.1 28.8287C1193.28 27.2817 1192.55 25.7965 1191.73 24.3113C1205.05 24.6207 1211.36 30.8707 1219 36.0688C1218.17 38.4203 1217.24 40.7719 1216.62 43.1234C1214.45 50.7348 1208.36 53.3338 1197.1 51.106C1186.77 49.064 1176.85 46.403 1168.79 41.205C1161.56 43.7421 1154.95 44.6704 1147.62 41.5763C1141.21 38.8536 1133.26 39.596 1125.92 40.5242C1116.83 41.6381 1108.26 41.1431 1099.89 38.9154C1096.79 38.111 1093.38 36.7496 1090.28 36.9352C1073.03 37.9872 1056.61 33.7173 1039.25 34.398C1031.19 34.7074 1022.93 33.346 1014.77 33.0985C1001.13 32.6653 987.497 32.6654 973.964 32.2941C964.357 31.9847 954.853 30.9945 945.245 30.9326C925.514 30.8707 905.784 30.9326 886.053 29.5712C884.71 29.5094 883.057 30.1283 882.024 29.8189C863.222 24.0639 843.388 29.3237 823.967 27.9005C802.376 26.3534 780.166 26.2296 758.266 27.096C757.542 27.096 756.923 27.1579 756.2 27.096C726.861 23.8162 697.317 27.0341 667.978 26.6628C660.437 26.5391 652.896 25.9203 645.355 25.7346C626.864 25.3633 608.475 24.0638 589.881 25.8583C579.964 26.7866 569.53 25.9203 559.406 26.044C549.282 26.1059 539.159 26.3534 529.035 26.6009C518.808 26.8484 508.478 27.2816 498.25 27.5291C481.825 27.9623 465.193 29.0762 448.871 28.4573C428.83 27.7148 409.306 30.252 389.575 30.0663C351.043 29.695 312.717 31.6752 274.805 34.5218C236.582 37.3683 198.05 38.0491 160.137 42.0095C132.452 44.856 104.767 47.6407 77.0814 50.2398C62.1024 51.663 47.02 52.4675 32.0409 53.767C24.913 54.3858 18.4049 53.7669 12.0001 51.9723C1.04993 49.002 -1.22287 46.7125 0.533293 39.5342C1.25642 36.6877 2.18616 33.841 3.11589 30.6232C21.8139 28.7049 40.5119 26.7867 59.2098 24.8683C65.3048 24.2495 71.3997 23.6925 77.288 22.888C87.3084 21.4647 97.1223 19.5465 107.763 20.4747C111.688 20.846 116.027 20.3509 120.056 19.7321C141.336 16.3905 163.133 15.4622 185.034 14.7197C195.881 14.3484 206.624 12.6157 217.471 11.6875C230.281 10.5737 243.194 9.45982 256.107 8.77912C268.916 8.16031 281.829 8.28407 294.742 7.8509C304.969 7.54149 315.196 6.737 325.527 6.42759C332.345 6.24195 339.163 6.55129 345.981 6.67506C349.39 6.73694 353.109 7.54149 356.105 6.92268C376.146 2.71473 397.116 5.8706 417.364 3.89039C422.116 3.45722 427.074 3.89039 431.62 3.27157C439.574 2.1577 446.599 3.3954 453.52 5.49937L453.003 5.18996C456.309 5.56125 459.822 6.61324 462.714 6.11818C468.499 5.18996 473.767 3.39534 479.346 2.03394C481.722 1.47701 484.408 0.672547 486.784 0.79631C498.87 1.72453 510.957 2.77655 523.043 4.07606C537.299 5.56122 545.357 5.25178 560.646 2.34335C563.745 1.72453 567.567 0.734459 570.15 1.29139C577.071 2.83843 583.579 2.15767 590.397 1.53886C593.083 1.29133 596.286 0.672517 598.455 1.22945C612.814 4.94234 628.413 1.97209 642.876 4.38547C648.764 5.37558 653.413 3.45725 657.751 1.29139L657.132 1.10572ZM903.717 13.4202C906.816 15.8336 910.019 15.1528 913.221 13.482C910.019 11.9969 906.92 10.8831 903.717 13.4202ZM956.092 13.1726C956.402 13.4201 956.609 13.7915 957.022 13.8534C957.539 13.9771 958.262 13.8534 958.882 13.8534C958.468 13.4821 958.262 12.987 957.642 12.7395C957.538 12.6776 956.712 13.0489 956.092 13.1726ZM1119.93 24.7444L1120.76 24.0019L1119.52 23.8782L1119.93 24.7444ZM1200.3 37.6778C1199.79 37.7397 1199.27 37.8015 1198.65 37.9252C1199.37 38.1109 1199.99 38.2966 1200.72 38.4823C1200.61 38.1729 1200.41 37.9253 1200.3 37.6778Z" fill="#3EA7F3"/>
</svg>
