<!-- <svg width="950" height="314" viewBox="0 0 950 314" fill="none" xmlns="http://www.w3.org/2000/svg">
<path d="M446.203 26.2129C437.499 17.6 425.745 12.7727 413.5 12.7813H413.006C402.019 12.8887 391.421 16.8652 383.075 24.0119C374.729 31.1586 369.17 41.0182 367.373 51.8579C365.576 62.6977 367.657 73.8239 373.251 83.2812C378.844 92.7384 387.592 99.9217 397.957 103.568C400.125 104.329 402.443 104.56 404.718 104.24C406.993 103.921 409.158 103.061 411.032 101.732C412.906 100.403 414.435 98.645 415.49 96.6041C416.544 94.5632 417.094 92.2993 417.094 90.002V88.25C417.094 86.3438 417.851 84.5156 419.199 83.1677C420.547 81.8198 422.375 81.0625 424.281 81.0625H445.035C448.3 81.087 451.473 79.9892 454.025 77.9529C456.576 75.9166 458.351 73.0655 459.051 69.877C459.868 66.3425 460.26 62.7231 460.219 59.0957C460.182 52.9587 458.924 46.8904 456.518 41.2447C454.112 35.5991 450.605 30.4891 446.203 26.2129ZM395.981 75.8516C395.057 76.3837 393.996 76.6301 392.933 76.5596C391.869 76.4891 390.85 76.1049 390.005 75.4555C389.16 74.8061 388.526 73.9207 388.184 72.9112C387.842 71.9017 387.807 70.8134 388.083 69.7839C388.359 68.7544 388.934 67.8299 389.736 67.1273C390.537 66.4246 391.529 65.9753 392.586 65.8363C393.643 65.6972 394.717 65.8745 395.673 66.3459C396.629 66.8172 397.424 67.5614 397.957 68.4844C398.311 69.0978 398.541 69.7751 398.634 70.4774C398.726 71.1798 398.679 71.8934 398.496 72.5777C398.312 73.2619 397.996 73.9032 397.564 74.465C397.132 75.0267 396.594 75.4979 395.981 75.8516ZM397.957 50.5156C397.424 51.4386 396.629 52.1828 395.673 52.6542C394.717 53.1255 393.643 53.3028 392.586 53.1638C391.529 53.0247 390.537 52.5754 389.736 51.8728C388.934 51.1701 388.359 50.2456 388.083 49.2161C387.807 48.1866 387.842 47.0983 388.184 46.0888C388.526 45.0793 389.16 44.1939 390.005 43.5445C390.85 42.8951 391.869 42.5109 392.933 42.4404C393.996 42.3699 395.057 42.6163 395.981 43.1484C397.211 43.8711 398.108 45.0487 398.478 46.4271C398.848 47.8055 398.661 49.274 397.957 50.5156ZM413.5 41.5313C412.434 41.5313 411.392 41.2151 410.505 40.6228C409.619 40.0304 408.928 39.1885 408.52 38.2035C408.112 37.2185 408.005 36.1347 408.213 35.089C408.421 34.0433 408.934 33.0828 409.688 32.3289C410.442 31.575 411.403 31.0616 412.448 30.8536C413.494 30.6456 414.578 30.7523 415.563 31.1603C416.548 31.5684 417.39 32.2593 417.982 33.1458C418.575 34.0323 418.891 35.0745 418.891 36.1406C418.891 37.5703 418.323 38.9414 417.312 39.9524C416.301 40.9633 414.93 41.5313 413.5 41.5313ZM436.41 52.4922C435.487 53.0243 434.426 53.2707 433.362 53.2002C432.299 53.1297 431.28 52.7455 430.435 52.0961C429.59 51.4467 428.956 50.5613 428.614 49.5518C428.271 48.5423 428.236 47.4541 428.512 46.4246C428.789 45.3951 429.364 44.4705 430.165 43.7679C430.967 43.0652 431.959 42.616 433.016 42.4769C434.072 42.3378 435.147 42.5151 436.103 42.9865C437.059 43.4578 437.854 44.202 438.387 45.125C439.09 46.3666 439.278 47.8351 438.908 49.2135C438.538 50.5919 437.641 51.7696 436.41 52.4922Z" fill="#5068EA" fill-opacity="0.2"/>
<path d="M679.015 241.711L643.906 221.899C642.9 221.323 641.762 221.021 640.604 221.021C639.445 221.021 638.307 221.323 637.302 221.899L602.192 241.711C601.165 242.304 600.311 243.157 599.717 244.184C599.123 245.211 598.809 246.376 598.807 247.562V287.102C598.809 288.289 599.123 289.454 599.717 290.481C600.311 291.508 601.165 292.36 602.192 292.954L637.302 312.765C638.307 313.341 639.445 313.644 640.604 313.644C641.762 313.644 642.9 313.341 643.906 312.765L679.015 292.954C680.043 292.36 680.896 291.508 681.49 290.481C682.085 289.454 682.398 288.289 682.401 287.102V247.562C682.398 246.376 682.085 245.211 681.49 244.184C680.896 243.157 680.043 242.304 679.015 241.711ZM640.604 282.379C637.628 282.379 634.719 281.497 632.244 279.843C629.77 278.19 627.841 275.84 626.702 273.09C625.563 270.341 625.265 267.316 625.846 264.397C626.427 261.478 627.86 258.797 629.964 256.692C632.068 254.588 634.749 253.155 637.668 252.574C640.587 251.994 643.612 252.292 646.362 253.431C649.111 254.57 651.461 256.498 653.115 258.973C654.768 261.447 655.651 264.356 655.651 267.332C655.651 271.323 654.065 275.15 651.244 277.972C648.422 280.794 644.594 282.379 640.604 282.379Z" fill="#5068EA" fill-opacity="0.2"/>
<path d="M217.25 169.297C215.859 167.885 215.079 165.982 215.079 164C215.079 162.018 215.859 160.115 217.25 158.703L230.703 145.25C231.396 144.55 232.221 143.994 233.13 143.615C234.039 143.235 235.015 143.04 236 143.04C236.985 143.04 237.96 143.235 238.87 143.615C239.779 143.994 240.604 144.55 241.297 145.25L254.75 158.703C256.141 160.115 256.921 162.018 256.921 164C256.921 165.982 256.141 167.885 254.75 169.297L241.297 182.75C240.604 183.45 239.779 184.006 238.87 184.385C237.96 184.764 236.985 184.96 236 184.96C235.015 184.96 234.039 184.764 233.13 184.385C232.221 184.006 231.396 183.45 230.703 182.75L217.25 169.297ZM284.75 188.703L271.297 175.25C270.604 174.55 269.779 173.994 268.87 173.615C267.96 173.235 266.985 173.04 266 173.04C265.015 173.04 264.039 173.235 263.13 173.615C262.221 173.994 261.396 174.55 260.703 175.25L247.25 188.703C245.859 190.115 245.079 192.018 245.079 194C245.079 195.982 245.859 197.885 247.25 199.297L260.703 212.75C261.396 213.45 262.221 214.006 263.13 214.385C264.039 214.764 265.015 214.96 266 214.96C266.985 214.96 267.96 214.764 268.87 214.385C269.779 214.006 270.604 213.45 271.297 212.75L284.75 199.297C286.141 197.885 286.921 195.982 286.921 194C286.921 192.018 286.141 190.115 284.75 188.703ZM224.75 188.703L211.297 175.25C210.604 174.55 209.779 173.994 208.87 173.615C207.96 173.235 206.985 173.04 206 173.04C205.015 173.04 204.039 173.235 203.13 173.615C202.221 173.994 201.396 174.55 200.703 175.25L187.25 188.703C185.859 190.115 185.079 192.018 185.079 194C185.079 195.982 185.859 197.885 187.25 199.297L200.703 212.75C201.396 213.45 202.221 214.006 203.13 214.385C204.039 214.764 205.015 214.96 206 214.96C206.985 214.96 207.96 214.764 208.87 214.385C209.779 214.006 210.604 213.45 211.297 212.75L224.75 199.297C226.141 197.885 226.921 195.982 226.921 194C226.921 192.018 226.141 190.115 224.75 188.703ZM241.297 205.25C240.604 204.55 239.779 203.994 238.87 203.615C237.96 203.235 236.985 203.04 236 203.04C235.015 203.04 234.039 203.235 233.13 203.615C232.221 203.994 231.396 204.55 230.703 205.25L217.25 218.703C215.859 220.115 215.079 222.018 215.079 224C215.079 225.982 215.859 227.885 217.25 229.297L230.703 242.75C231.396 243.45 232.221 244.006 233.13 244.385C234.039 244.764 235.015 244.96 236 244.96C236.985 244.96 237.96 244.764 238.87 244.385C239.779 244.006 240.604 243.45 241.297 242.75L254.75 229.297C256.141 227.885 256.921 225.982 256.921 224C256.921 222.018 256.141 220.115 254.75 218.703L241.297 205.25Z" fill="#5068EA" fill-opacity="0.2"/>
<path d="M655.977 102.477L640.352 118.102C639.754 118.679 638.956 119.002 638.125 119.002C637.294 119.002 636.496 118.679 635.898 118.102C635.312 117.509 634.982 116.709 634.982 115.875C634.982 115.041 635.312 114.241 635.898 113.648L646.211 103.375H628.75C624.606 103.375 620.632 105.021 617.701 107.951C614.771 110.882 613.125 114.856 613.125 119C613.125 124.802 610.82 130.366 606.718 134.468C602.616 138.57 597.052 140.875 591.25 140.875H590.898C590.13 144.246 588.147 147.216 585.328 149.217C582.509 151.218 579.051 152.111 575.615 151.724C572.18 151.338 569.007 149.699 566.703 147.121C564.399 144.544 563.125 141.207 563.125 137.75C563.125 134.293 564.399 130.956 566.703 128.379C569.007 125.801 572.18 124.162 575.615 123.776C579.051 123.389 582.509 124.282 585.328 126.283C588.147 128.284 590.13 131.254 590.898 134.625H591.25C595.394 134.625 599.368 132.979 602.299 130.049C605.229 127.118 606.875 123.144 606.875 119C606.875 113.198 609.18 107.634 613.282 103.532C617.384 99.4297 622.948 97.125 628.75 97.125H646.211L635.898 86.8515C635.4 86.2444 635.145 85.4735 635.184 84.689C635.223 83.9045 635.551 83.1623 636.107 82.6069C636.662 82.0515 637.404 81.7225 638.189 81.684C638.974 81.6454 639.744 81.9001 640.352 82.3984L655.977 98.0234C656.563 98.6159 656.893 99.4161 656.893 100.25C656.893 101.084 656.563 101.884 655.977 102.477Z" fill="#5068EA" fill-opacity="0.2"/>
<path d="M473.722 248.651L467.5 198.969C467.353 197.775 466.894 196.641 466.169 195.682C465.444 194.722 464.479 193.97 463.371 193.502C462.263 193.034 461.052 192.866 459.858 193.015C458.664 193.165 457.531 193.626 456.573 194.353L416.616 224.525C415.651 225.243 414.894 226.204 414.421 227.31C413.948 228.416 413.776 229.627 413.923 230.821C414.069 232.015 414.529 233.148 415.255 234.107C415.982 235.065 416.949 235.815 418.058 236.279L464.289 255.81C465.396 256.282 466.607 256.453 467.8 256.306C468.994 256.158 470.127 255.697 471.085 254.97C472.043 254.243 472.792 253.276 473.255 252.166C473.718 251.056 473.879 249.843 473.722 248.651Z" fill="#5068EA" fill-opacity="0.2"/>
</svg> -->

<svg width="950" height="314" viewBox="0 0 950 314" fill="none" xmlns="http://www.w3.org/2000/svg">
<g clip-path="url(#clip0_4_254)">
<rect x="109.675" y="60.9499" width="118.085" height="111.432" rx="16" transform="rotate(-32 109.675 60.9499)" fill="#5068EA" fill-opacity="0.2"/>
<rect x="514.354" y="205.686" width="142" height="134" rx="16" transform="rotate(-32 514.354 205.686)" fill="#5068EA" fill-opacity="0.2"/>
</g>
<defs>
<clipPath id="clip0_4_254">
<rect width="950" height="314" fill="white"/>
</clipPath>
</defs>
</svg>
