<svg width="1070" height="700" viewBox="0 0 1070 700" fill="none" xmlns="http://www.w3.org/2000/svg">
<g clip-path="url(#clip0_1012_6987)">
<line y1="-0.361718" x2="1119.16" y2="-0.361718" transform="matrix(0.999994 -0.00350909 0.00293125 0.999996 -28.4922 41.5078)" stroke="#608CFF" stroke-opacity="0.1" stroke-width="0.723435"/>
<line y1="-0.361718" x2="1119.16" y2="-0.361718" transform="matrix(0.999994 -0.00350909 0.00293125 0.999996 -28.4922 88.9961)" stroke="#608CFF" stroke-opacity="0.1" stroke-width="0.723435"/>
<line y1="-0.361718" x2="1119.16" y2="-0.361718" transform="matrix(0.999994 -0.00350909 0.00293125 0.999996 -28.4922 136.49)" stroke="#608CFF" stroke-opacity="0.1" stroke-width="0.723435"/>
<line y1="-0.361718" x2="1119.16" y2="-0.361718" transform="matrix(0.999994 -0.00350909 0.00293125 0.999996 -28.4922 183.982)" stroke="#608CFF" stroke-opacity="0.1" stroke-width="0.723435"/>
<line y1="-0.361718" x2="1119.16" y2="-0.361718" transform="matrix(0.999994 -0.00350909 0.00293125 0.999996 -28.4922 231.473)" stroke="#608CFF" stroke-opacity="0.1" stroke-width="0.723435"/>
<line y1="-0.361718" x2="1119.16" y2="-0.361718" transform="matrix(0.999994 -0.00350909 0.00293125 0.999996 -28.4922 278.967)" stroke="#608CFF" stroke-opacity="0.1" stroke-width="0.723435"/>
<line y1="-0.361718" x2="1119.16" y2="-0.361718" transform="matrix(0.999994 -0.00350909 0.00293125 0.999996 -28.4922 326.461)" stroke="#608CFF" stroke-opacity="0.1" stroke-width="0.723435"/>
<line y1="-0.361718" x2="1119.16" y2="-0.361718" transform="matrix(0.999994 -0.00350909 0.00293125 0.999996 -28.4922 373.951)" stroke="#608CFF" stroke-opacity="0.1" stroke-width="0.723435"/>
<line y1="-0.361718" x2="1119.16" y2="-0.361718" transform="matrix(0.999994 -0.00350909 0.00293125 0.999996 -28.4922 421.445)" stroke="#608CFF" stroke-opacity="0.1" stroke-width="0.723435"/>
<line y1="-0.361718" x2="1119.16" y2="-0.361718" transform="matrix(0.999994 -0.00350909 0.00293125 0.999996 -28.4922 468.936)" stroke="#608CFF" stroke-opacity="0.1" stroke-width="0.723435"/>
<line y1="-0.361718" x2="1119.16" y2="-0.361718" transform="matrix(0.999994 -0.00350909 0.00293125 0.999996 -28.4922 516.426)" stroke="#608CFF" stroke-opacity="0.1" stroke-width="0.723435"/>
<line y1="-0.361718" x2="1119.16" y2="-0.361718" transform="matrix(0.999994 -0.00350909 0.00293125 0.999996 -28.4922 563.918)" stroke="#608CFF" stroke-opacity="0.1" stroke-width="0.723435"/>
<line y1="-0.361718" x2="1119.16" y2="-0.361718" transform="matrix(0.999994 -0.00350909 0.00293125 0.999996 -28.4922 611.41)" stroke="#608CFF" stroke-opacity="0.1" stroke-width="0.723435"/>
<line y1="-0.361718" x2="1119.16" y2="-0.361718" transform="matrix(0.999994 -0.00350909 0.00293125 0.999996 -28.4922 658.904)" stroke="#608CFF" stroke-opacity="0.1" stroke-width="0.723435"/>
<line x1="30.4672" y1="-43.9492" x2="30.4671" y2="746.796" stroke="#608CFF" stroke-opacity="0.1" stroke-width="0.723435"/>
<line x1="78.2172" y1="-43.9492" x2="78.2171" y2="746.796" stroke="#608CFF" stroke-opacity="0.1" stroke-width="0.723435"/>
<line x1="125.959" y1="-43.9492" x2="125.959" y2="746.796" stroke="#608CFF" stroke-opacity="0.1" stroke-width="0.723435"/>
<line x1="173.709" y1="-43.9492" x2="173.709" y2="746.796" stroke="#608CFF" stroke-opacity="0.1" stroke-width="0.723435"/>
<line x1="221.455" y1="-43.9492" x2="221.455" y2="746.796" stroke="#608CFF" stroke-opacity="0.1" stroke-width="0.723435"/>
<line x1="269.202" y1="-43.9492" x2="269.202" y2="746.796" stroke="#608CFF" stroke-opacity="0.1" stroke-width="0.723435"/>
<line x1="316.948" y1="-43.9492" x2="316.948" y2="746.796" stroke="#608CFF" stroke-opacity="0.1" stroke-width="0.723435"/>
<line x1="364.694" y1="-43.9492" x2="364.694" y2="746.796" stroke="#608CFF" stroke-opacity="0.1" stroke-width="0.723435"/>
<line x1="412.44" y1="-43.9492" x2="412.44" y2="746.796" stroke="#608CFF" stroke-opacity="0.1" stroke-width="0.723435"/>
<line x1="460.186" y1="-43.9492" x2="460.186" y2="746.796" stroke="#608CFF" stroke-opacity="0.1" stroke-width="0.723435"/>
<line x1="507.932" y1="-43.9492" x2="507.932" y2="746.796" stroke="#608CFF" stroke-opacity="0.1" stroke-width="0.723435"/>
<line x1="555.682" y1="-43.9492" x2="555.682" y2="746.796" stroke="#608CFF" stroke-opacity="0.1" stroke-width="0.723435"/>
<line x1="603.432" y1="-43.9492" x2="603.432" y2="746.796" stroke="#608CFF" stroke-opacity="0.1" stroke-width="0.723435"/>
<line x1="651.174" y1="-43.9492" x2="651.174" y2="746.796" stroke="#608CFF" stroke-opacity="0.1" stroke-width="0.723435"/>
<line x1="698.924" y1="-43.9492" x2="698.924" y2="746.796" stroke="#608CFF" stroke-opacity="0.1" stroke-width="0.723435"/>
<line x1="746.666" y1="-43.9492" x2="746.666" y2="746.796" stroke="#608CFF" stroke-opacity="0.1" stroke-width="0.723435"/>
<line x1="794.416" y1="-43.9492" x2="794.416" y2="746.796" stroke="#608CFF" stroke-opacity="0.1" stroke-width="0.723435"/>
<line x1="842.159" y1="-43.9492" x2="842.159" y2="746.796" stroke="#608CFF" stroke-opacity="0.1" stroke-width="0.723435"/>
<line x1="889.912" y1="-43.9492" x2="889.912" y2="746.796" stroke="#608CFF" stroke-opacity="0.1" stroke-width="0.723435"/>
<line x1="937.659" y1="-43.9492" x2="937.659" y2="746.796" stroke="#608CFF" stroke-opacity="0.1" stroke-width="0.723435"/>
<line x1="985.405" y1="-43.9492" x2="985.405" y2="746.796" stroke="#608CFF" stroke-opacity="0.1" stroke-width="0.723435"/>
<line x1="1033.15" y1="-43.9492" x2="1033.15" y2="746.796" stroke="#608CFF" stroke-opacity="0.1" stroke-width="0.723435"/>
</g>
<defs>
<clipPath id="clip0_1012_6987">
<rect width="1070" height="699.561" fill="white" transform="translate(0 0.220703)"/>
</clipPath>
</defs>
</svg>
