<svg width="1134" height="449" viewBox="0 0 1134 449" fill="none" xmlns="http://www.w3.org/2000/svg">
<g clip-path="url(#clip0_1403_18)">
<path opacity="0.3" d="M774 500C774 443.667 819.667 398 876 398C932.333 398 978 443.667 978 500" stroke="white" stroke-width="20"/>
<g opacity="0.8">
<path d="M455.34 424.363L455.68 424.55L455.682 424.549L455.69 424.546L455.721 424.531C455.749 424.518 455.791 424.498 455.847 424.472C455.957 424.421 456.122 424.345 456.334 424.249C456.76 424.056 457.38 423.78 458.155 423.449C459.707 422.786 461.876 421.902 464.353 421.019C466.83 420.135 469.606 419.256 472.368 418.598C475.138 417.938 477.855 417.511 480.227 417.511C484.951 417.511 488.549 419.202 492.33 420.997L492.404 421.032C496.089 422.781 499.961 424.619 505.113 424.619C510.266 424.619 514.138 422.781 517.822 421.032L517.897 420.997C521.678 419.202 525.276 417.511 530 417.511C534.724 417.511 538.322 419.202 542.103 420.997L542.178 421.032C545.862 422.781 549.734 424.619 554.887 424.619C560.039 424.619 563.911 422.781 567.596 421.032L567.67 420.997C571.451 419.202 575.049 417.511 579.773 417.511C582.145 417.511 584.862 417.938 587.632 418.598C590.395 419.256 593.17 420.135 595.647 421.019C598.124 421.902 600.293 422.786 601.845 423.449C602.62 423.78 603.24 424.056 603.666 424.249C603.878 424.345 604.043 424.421 604.153 424.472C604.209 424.498 604.251 424.518 604.279 424.531L604.31 424.546L604.319 424.55L604.66 424.363L604.968 424.193C605 424.176 605 424.176 605 424.176L604.997 424.174L604.988 424.17L604.955 424.155C604.926 424.141 604.882 424.121 604.826 424.094C604.712 424.041 604.545 423.964 604.329 423.867C603.897 423.671 603.27 423.391 602.486 423.057C600.92 422.387 598.726 421.494 596.22 420.6C593.715 419.706 590.887 418.809 588.054 418.134C585.229 417.461 582.357 417 579.773 417C574.621 417 570.749 418.838 567.064 420.587L566.99 420.622C563.209 422.417 559.611 424.108 554.887 424.108C550.163 424.108 546.564 422.417 542.784 420.622L542.709 420.587C539.025 418.838 535.152 417 530 417C524.848 417 520.975 418.838 517.291 420.587L517.216 420.622C513.436 422.417 509.837 424.108 505.113 424.108C500.389 424.108 496.791 422.417 493.01 420.622L492.936 420.587C489.251 418.838 485.379 417 480.227 417C477.643 417 474.771 417.461 471.946 418.134C469.113 418.809 466.285 419.706 463.78 420.6C461.274 421.494 459.08 422.387 457.514 423.057C456.73 423.391 456.103 423.671 455.671 423.867C455.455 423.964 455.288 424.041 455.174 424.094C455.118 424.121 455.074 424.141 455.045 424.155L455.012 424.17L455.001 424.175C455.001 424.175 455 424.176 455.34 424.363Z" fill="white"/>
<path d="M455.34 437.157L455.68 437.344L455.682 437.343L455.69 437.34L455.721 437.325C455.749 437.312 455.791 437.292 455.847 437.266C455.957 437.215 456.122 437.139 456.334 437.043C456.76 436.85 457.38 436.574 458.155 436.243C459.707 435.58 461.876 434.696 464.353 433.813C466.83 432.929 469.606 432.05 472.368 431.392C475.138 430.732 477.855 430.305 480.227 430.305C484.951 430.305 488.549 431.996 492.33 433.791L492.404 433.826C496.089 435.575 499.961 437.413 505.113 437.413C510.266 437.413 514.138 435.575 517.822 433.826L517.897 433.791C521.678 431.996 525.276 430.305 530 430.305C534.724 430.305 538.322 431.996 542.103 433.791L542.178 433.826C545.862 435.575 549.734 437.413 554.887 437.413C560.039 437.413 563.911 435.575 567.596 433.826L567.67 433.791C571.451 431.996 575.049 430.305 579.773 430.305C582.145 430.305 584.862 430.732 587.632 431.392C590.395 432.05 593.17 432.929 595.647 433.813C598.124 434.696 600.293 435.58 601.845 436.243C602.62 436.574 603.24 436.85 603.666 437.043C603.878 437.139 604.043 437.215 604.153 437.266C604.209 437.292 604.251 437.312 604.279 437.325L604.31 437.34L604.319 437.344L604.66 437.157C605 436.97 605 436.97 605 436.97L604.997 436.968L604.988 436.964L604.955 436.949C604.926 436.935 604.882 436.914 604.826 436.888C604.712 436.835 604.545 436.758 604.329 436.66C603.897 436.465 603.27 436.185 602.486 435.85C600.92 435.181 598.726 434.288 596.22 433.394C593.715 432.5 590.887 431.603 588.054 430.928C585.229 430.255 582.357 429.794 579.773 429.794C574.621 429.794 570.749 431.632 567.064 433.381L566.99 433.416C563.209 435.21 559.611 436.902 554.887 436.902C550.163 436.902 546.564 435.21 542.784 433.416L542.709 433.381C539.025 431.632 535.152 429.794 530 429.794C524.848 429.794 520.975 431.632 517.291 433.381L517.216 433.416C513.436 435.21 509.837 436.902 505.113 436.902C500.389 436.902 496.791 435.21 493.01 433.416L492.936 433.381C489.251 431.632 485.379 429.794 480.227 429.794C477.643 429.794 474.771 430.255 471.946 430.928C469.113 431.603 466.285 432.5 463.78 433.394C461.274 434.288 459.08 435.181 457.514 435.85C456.73 436.185 456.103 436.465 455.671 436.66C455.455 436.758 455.288 436.835 455.174 436.888C455.118 436.914 455.074 436.935 455.045 436.949L455.012 436.964L455.003 436.968L455.001 436.969C455.001 436.969 455 436.97 455.34 437.157Z" fill="white"/>
<path d="M455.68 450.138L455.34 449.951C455 449.764 455 449.764 455 449.764L455.003 449.762L455.012 449.758L455.045 449.742C455.074 449.729 455.118 449.708 455.174 449.682C455.288 449.629 455.455 449.552 455.671 449.454C456.103 449.259 456.73 448.979 457.514 448.644C459.08 447.975 461.274 447.081 463.78 446.188C466.285 445.294 469.113 444.397 471.946 443.722C474.771 443.049 477.643 442.588 480.227 442.588C485.379 442.588 489.251 444.426 492.936 446.175L493.01 446.21C496.791 448.004 500.389 449.695 505.113 449.695C509.837 449.695 513.436 448.004 517.216 446.21L517.291 446.175C520.975 444.426 524.848 442.588 530 442.588C535.152 442.588 539.025 444.426 542.709 446.175L542.784 446.21C546.564 448.004 550.163 449.695 554.887 449.695C559.611 449.695 563.209 448.004 566.99 446.21L567.064 446.175C570.749 444.426 574.621 442.588 579.773 442.588C582.357 442.588 585.229 443.049 588.054 443.722C590.887 444.397 593.715 445.294 596.22 446.188C598.726 447.081 600.92 447.975 602.486 448.644C603.27 448.979 603.897 449.259 604.329 449.454C604.545 449.552 604.712 449.629 604.826 449.682C604.882 449.708 604.926 449.729 604.955 449.742L604.988 449.758L604.999 449.763C604.999 449.763 605 449.764 604.66 449.951L604.32 450.138L604.318 450.137L604.31 450.133L604.279 450.119L604.258 450.109L604.217 450.09C604.199 450.081 604.177 450.071 604.153 450.06C604.043 450.009 603.878 449.933 603.666 449.837C603.24 449.644 602.62 449.368 601.845 449.036C600.293 448.373 598.124 447.49 595.647 446.607C593.17 445.723 590.395 444.843 587.632 444.186C584.862 443.526 582.145 443.099 579.773 443.099C575.049 443.099 571.451 444.79 567.67 446.584L567.596 446.62C563.911 448.369 560.039 450.206 554.887 450.206C549.734 450.206 545.862 448.369 542.178 446.62L542.103 446.584C538.322 444.79 534.724 443.099 530 443.099C525.276 443.099 521.678 444.79 517.897 446.584L517.822 446.62C514.138 448.369 510.266 450.206 505.113 450.206C499.961 450.206 496.089 448.369 492.404 446.62L492.33 446.584C488.549 444.79 484.951 443.099 480.227 443.099C477.855 443.099 475.138 443.526 472.368 444.186C469.606 444.843 466.83 445.723 464.353 446.607C461.876 447.49 459.707 448.373 458.155 449.036C457.38 449.368 456.76 449.644 456.334 449.837C456.122 449.933 455.957 450.009 455.847 450.06C455.791 450.086 455.749 450.106 455.721 450.119L455.69 450.133L455.68 450.138Z" fill="white"/>
<path d="M455.34 462.744L455.68 462.932L455.69 462.927L455.721 462.912C455.749 462.899 455.791 462.879 455.847 462.854C455.957 462.802 456.122 462.727 456.334 462.63C456.76 462.437 457.38 462.161 458.155 461.83C459.707 461.167 461.876 460.283 464.353 459.4C466.83 458.517 469.606 457.637 472.368 456.979C475.138 456.319 477.855 455.892 480.227 455.892C484.951 455.892 488.549 457.583 492.33 459.378L492.404 459.413C496.089 461.162 499.961 463 505.113 463C510.266 463 514.138 461.162 517.822 459.413L517.897 459.378C521.678 457.583 525.276 455.892 530 455.892C534.724 455.892 538.322 457.583 542.103 459.378L542.178 459.413C545.862 461.162 549.734 463 554.887 463C560.039 463 563.911 461.162 567.596 459.413L567.67 459.378C571.451 457.583 575.049 455.892 579.773 455.892C582.145 455.892 584.862 456.319 587.632 456.979C590.395 457.637 593.17 458.517 595.647 459.4C598.124 460.283 600.293 461.167 601.845 461.83C602.62 462.161 603.24 462.437 603.666 462.63C603.878 462.727 604.043 462.802 604.153 462.854C604.209 462.879 604.251 462.899 604.279 462.912L604.31 462.927L604.318 462.931L604.319 462.931L604.66 462.744C605 462.557 605 462.557 605 462.557L604.997 462.556L604.988 462.552L604.955 462.536C604.926 462.522 604.882 462.502 604.826 462.475C604.712 462.423 604.545 462.346 604.329 462.248C603.897 462.052 603.27 461.773 602.486 461.438C600.92 460.768 598.726 459.875 596.22 458.981C593.715 458.088 590.887 457.191 588.054 456.516C585.229 455.843 582.357 455.381 579.773 455.381C574.621 455.381 570.749 457.219 567.064 458.968L566.99 459.003C563.209 460.798 559.611 462.489 554.887 462.489C550.163 462.489 546.564 460.798 542.784 459.003L542.709 458.968C539.025 457.219 535.152 455.381 530 455.381C524.848 455.381 520.975 457.219 517.291 458.968L517.216 459.003C513.436 460.798 509.837 462.489 505.113 462.489C500.389 462.489 496.791 460.798 493.01 459.003L492.936 458.968C489.251 457.219 485.379 455.381 480.227 455.381C477.643 455.381 474.771 455.843 471.946 456.516C469.113 457.191 466.285 458.088 463.78 458.981C461.274 459.875 459.08 460.768 457.514 461.438C456.73 461.773 456.103 462.052 455.671 462.248C455.455 462.346 455.288 462.423 455.174 462.475C455.118 462.502 455.074 462.522 455.045 462.536L455.012 462.552L455.003 462.556L455.001 462.557C455.001 462.557 455 462.557 455.34 462.744Z" fill="white"/>
<path d="M455.34 424.363L455.68 424.55L455.682 424.549L455.69 424.546L455.721 424.531C455.749 424.518 455.791 424.498 455.847 424.472C455.957 424.421 456.122 424.345 456.334 424.249C456.76 424.056 457.38 423.78 458.155 423.449C459.707 422.786 461.876 421.902 464.353 421.019C466.83 420.135 469.606 419.256 472.368 418.598C475.138 417.938 477.855 417.511 480.227 417.511C484.951 417.511 488.549 419.202 492.33 420.997L492.404 421.032C496.089 422.781 499.961 424.619 505.113 424.619C510.266 424.619 514.138 422.781 517.822 421.032L517.897 420.997C521.678 419.202 525.276 417.511 530 417.511C534.724 417.511 538.322 419.202 542.103 420.997L542.178 421.032C545.862 422.781 549.734 424.619 554.887 424.619C560.039 424.619 563.911 422.781 567.596 421.032L567.67 420.997C571.451 419.202 575.049 417.511 579.773 417.511C582.145 417.511 584.862 417.938 587.632 418.598C590.395 419.256 593.17 420.135 595.647 421.019C598.124 421.902 600.293 422.786 601.845 423.449C602.62 423.78 603.24 424.056 603.666 424.249C603.878 424.345 604.043 424.421 604.153 424.472C604.209 424.498 604.251 424.518 604.279 424.531L604.31 424.546L604.319 424.55L604.66 424.363L604.968 424.193C605 424.176 605 424.176 605 424.176L604.997 424.174L604.988 424.17L604.955 424.155C604.926 424.141 604.882 424.121 604.826 424.094C604.712 424.041 604.545 423.964 604.329 423.867C603.897 423.671 603.27 423.391 602.486 423.057C600.92 422.387 598.726 421.494 596.22 420.6C593.715 419.706 590.887 418.809 588.054 418.134C585.229 417.461 582.357 417 579.773 417C574.621 417 570.749 418.838 567.064 420.587L566.99 420.622C563.209 422.417 559.611 424.108 554.887 424.108C550.163 424.108 546.564 422.417 542.784 420.622L542.709 420.587C539.025 418.838 535.152 417 530 417C524.848 417 520.975 418.838 517.291 420.587L517.216 420.622C513.436 422.417 509.837 424.108 505.113 424.108C500.389 424.108 496.791 422.417 493.01 420.622L492.936 420.587C489.251 418.838 485.379 417 480.227 417C477.643 417 474.771 417.461 471.946 418.134C469.113 418.809 466.285 419.706 463.78 420.6C461.274 421.494 459.08 422.387 457.514 423.057C456.73 423.391 456.103 423.671 455.671 423.867C455.455 423.964 455.288 424.041 455.174 424.094C455.118 424.121 455.074 424.141 455.045 424.155L455.012 424.17L455.001 424.175C455.001 424.175 455 424.176 455.34 424.363Z" stroke="white" stroke-width="3"/>
<path d="M455.34 437.157L455.68 437.344L455.682 437.343L455.69 437.34L455.721 437.325C455.749 437.312 455.791 437.292 455.847 437.266C455.957 437.215 456.122 437.139 456.334 437.043C456.76 436.85 457.38 436.574 458.155 436.243C459.707 435.58 461.876 434.696 464.353 433.813C466.83 432.929 469.606 432.05 472.368 431.392C475.138 430.732 477.855 430.305 480.227 430.305C484.951 430.305 488.549 431.996 492.33 433.791L492.404 433.826C496.089 435.575 499.961 437.413 505.113 437.413C510.266 437.413 514.138 435.575 517.822 433.826L517.897 433.791C521.678 431.996 525.276 430.305 530 430.305C534.724 430.305 538.322 431.996 542.103 433.791L542.178 433.826C545.862 435.575 549.734 437.413 554.887 437.413C560.039 437.413 563.911 435.575 567.596 433.826L567.67 433.791C571.451 431.996 575.049 430.305 579.773 430.305C582.145 430.305 584.862 430.732 587.632 431.392C590.395 432.05 593.17 432.929 595.647 433.813C598.124 434.696 600.293 435.58 601.845 436.243C602.62 436.574 603.24 436.85 603.666 437.043C603.878 437.139 604.043 437.215 604.153 437.266C604.209 437.292 604.251 437.312 604.279 437.325L604.31 437.34L604.319 437.344L604.66 437.157C605 436.97 605 436.97 605 436.97L604.997 436.968L604.988 436.964L604.955 436.949C604.926 436.935 604.882 436.914 604.826 436.888C604.712 436.835 604.545 436.758 604.329 436.66C603.897 436.465 603.27 436.185 602.486 435.85C600.92 435.181 598.726 434.288 596.22 433.394C593.715 432.5 590.887 431.603 588.054 430.928C585.229 430.255 582.357 429.794 579.773 429.794C574.621 429.794 570.749 431.632 567.064 433.381L566.99 433.416C563.209 435.21 559.611 436.902 554.887 436.902C550.163 436.902 546.564 435.21 542.784 433.416L542.709 433.381C539.025 431.632 535.152 429.794 530 429.794C524.848 429.794 520.975 431.632 517.291 433.381L517.216 433.416C513.436 435.21 509.837 436.902 505.113 436.902C500.389 436.902 496.791 435.21 493.01 433.416L492.936 433.381C489.251 431.632 485.379 429.794 480.227 429.794C477.643 429.794 474.771 430.255 471.946 430.928C469.113 431.603 466.285 432.5 463.78 433.394C461.274 434.288 459.08 435.181 457.514 435.85C456.73 436.185 456.103 436.465 455.671 436.66C455.455 436.758 455.288 436.835 455.174 436.888C455.118 436.914 455.074 436.935 455.045 436.949L455.012 436.964L455.003 436.968L455.001 436.969C455.001 436.969 455 436.97 455.34 437.157Z" stroke="white" stroke-width="3"/>
<path d="M455.68 450.138L455.34 449.951C455 449.764 455 449.764 455 449.764L455.003 449.762L455.012 449.758L455.045 449.742C455.074 449.729 455.118 449.708 455.174 449.682C455.288 449.629 455.455 449.552 455.671 449.454C456.103 449.259 456.73 448.979 457.514 448.644C459.08 447.975 461.274 447.081 463.78 446.188C466.285 445.294 469.113 444.397 471.946 443.722C474.771 443.049 477.643 442.588 480.227 442.588C485.379 442.588 489.251 444.426 492.936 446.175L493.01 446.21C496.791 448.004 500.389 449.695 505.113 449.695C509.837 449.695 513.436 448.004 517.216 446.21L517.291 446.175C520.975 444.426 524.848 442.588 530 442.588C535.152 442.588 539.025 444.426 542.709 446.175L542.784 446.21C546.564 448.004 550.163 449.695 554.887 449.695C559.611 449.695 563.209 448.004 566.99 446.21L567.064 446.175C570.749 444.426 574.621 442.588 579.773 442.588C582.357 442.588 585.229 443.049 588.054 443.722C590.887 444.397 593.715 445.294 596.22 446.188C598.726 447.081 600.92 447.975 602.486 448.644C603.27 448.979 603.897 449.259 604.329 449.454C604.545 449.552 604.712 449.629 604.826 449.682C604.882 449.708 604.926 449.729 604.955 449.742L604.988 449.758L604.999 449.763C604.999 449.763 605 449.764 604.66 449.951L604.32 450.138L604.318 450.137L604.31 450.133L604.279 450.119L604.258 450.109L604.217 450.09C604.199 450.081 604.177 450.071 604.153 450.06C604.043 450.009 603.878 449.933 603.666 449.837C603.24 449.644 602.62 449.368 601.845 449.036C600.293 448.373 598.124 447.49 595.647 446.607C593.17 445.723 590.395 444.843 587.632 444.186C584.862 443.526 582.145 443.099 579.773 443.099C575.049 443.099 571.451 444.79 567.67 446.584L567.596 446.62C563.911 448.369 560.039 450.206 554.887 450.206C549.734 450.206 545.862 448.369 542.178 446.62L542.103 446.584C538.322 444.79 534.724 443.099 530 443.099C525.276 443.099 521.678 444.79 517.897 446.584L517.822 446.62C514.138 448.369 510.266 450.206 505.113 450.206C499.961 450.206 496.089 448.369 492.404 446.62L492.33 446.584C488.549 444.79 484.951 443.099 480.227 443.099C477.855 443.099 475.138 443.526 472.368 444.186C469.606 444.843 466.83 445.723 464.353 446.607C461.876 447.49 459.707 448.373 458.155 449.036C457.38 449.368 456.76 449.644 456.334 449.837C456.122 449.933 455.957 450.009 455.847 450.06C455.791 450.086 455.749 450.106 455.721 450.119L455.69 450.133L455.68 450.138Z" stroke="white" stroke-width="3"/>
<path d="M455.34 462.744L455.68 462.932L455.69 462.927L455.721 462.912C455.749 462.899 455.791 462.879 455.847 462.854C455.957 462.802 456.122 462.727 456.334 462.63C456.76 462.437 457.38 462.161 458.155 461.83C459.707 461.167 461.876 460.283 464.353 459.4C466.83 458.517 469.606 457.637 472.368 456.979C475.138 456.319 477.855 455.892 480.227 455.892C484.951 455.892 488.549 457.583 492.33 459.378L492.404 459.413C496.089 461.162 499.961 463 505.113 463C510.266 463 514.138 461.162 517.822 459.413L517.897 459.378C521.678 457.583 525.276 455.892 530 455.892C534.724 455.892 538.322 457.583 542.103 459.378L542.178 459.413C545.862 461.162 549.734 463 554.887 463C560.039 463 563.911 461.162 567.596 459.413L567.67 459.378C571.451 457.583 575.049 455.892 579.773 455.892C582.145 455.892 584.862 456.319 587.632 456.979C590.395 457.637 593.17 458.517 595.647 459.4C598.124 460.283 600.293 461.167 601.845 461.83C602.62 462.161 603.24 462.437 603.666 462.63C603.878 462.727 604.043 462.802 604.153 462.854C604.209 462.879 604.251 462.899 604.279 462.912L604.31 462.927L604.318 462.931L604.319 462.931L604.66 462.744C605 462.557 605 462.557 605 462.557L604.997 462.556L604.988 462.552L604.955 462.536C604.926 462.522 604.882 462.502 604.826 462.475C604.712 462.423 604.545 462.346 604.329 462.248C603.897 462.052 603.27 461.773 602.486 461.438C600.92 460.768 598.726 459.875 596.22 458.981C593.715 458.088 590.887 457.191 588.054 456.516C585.229 455.843 582.357 455.381 579.773 455.381C574.621 455.381 570.749 457.219 567.064 458.968L566.99 459.003C563.209 460.798 559.611 462.489 554.887 462.489C550.163 462.489 546.564 460.798 542.784 459.003L542.709 458.968C539.025 457.219 535.152 455.381 530 455.381C524.848 455.381 520.975 457.219 517.291 458.968L517.216 459.003C513.436 460.798 509.837 462.489 505.113 462.489C500.389 462.489 496.791 460.798 493.01 459.003L492.936 458.968C489.251 457.219 485.379 455.381 480.227 455.381C477.643 455.381 474.771 455.843 471.946 456.516C469.113 457.191 466.285 458.088 463.78 458.981C461.274 459.875 459.08 460.768 457.514 461.438C456.73 461.773 456.103 462.052 455.671 462.248C455.455 462.346 455.288 462.423 455.174 462.475C455.118 462.502 455.074 462.522 455.045 462.536L455.012 462.552L455.003 462.556L455.001 462.557C455.001 462.557 455 462.557 455.34 462.744Z" stroke="white" stroke-width="3"/>
</g>
<circle cx="1134" cy="89" r="18" stroke="white" stroke-width="4" stroke-dasharray="8 8"/>
<path opacity="0.1" fill-rule="evenodd" clip-rule="evenodd" d="M13 -181H1134V800H13V-181ZM14.7516 -179.248H151.373V-42.6089H14.7516V-179.248ZM154.877 -179.248H291.498V-42.6089H154.877V-179.248ZM431.623 -179.248H295.002V-42.6089H431.623V-179.248ZM435.127 -179.248H571.748V-42.6089H435.127V-179.248ZM711.873 -179.248H575.252V-42.6089H711.873V-179.248ZM715.377 -179.248H851.998V-42.6089H715.377V-179.248ZM992.123 -179.248H855.502V-42.6089H992.123V-179.248ZM995.627 -179.248H1132.25V-42.6089H995.627V-179.248ZM151.373 -39.1053H14.7516V97.5339H151.373V-39.1053ZM154.877 -39.1053H291.498V97.5339H154.877V-39.1053ZM431.623 -39.1053H295.002V97.5339H431.623V-39.1053ZM435.127 -39.1053H571.748V97.5339H435.127V-39.1053ZM711.873 -39.1053H575.252V97.5339H711.873V-39.1053ZM715.377 -39.1053H851.998V97.5339H715.377V-39.1053ZM992.123 -39.1053H855.502V97.5339H992.123V-39.1053ZM995.627 -39.1053H1132.25V97.5339H995.627V-39.1053ZM151.373 101.038H14.7516V237.677H151.373V101.038ZM154.877 101.038H291.498V237.677H154.877V101.038ZM431.623 101.038H295.002V237.677H431.623V101.038ZM435.127 101.038H571.748V237.677H435.127V101.038ZM711.873 101.038H575.252V237.677H711.873V101.038ZM715.377 101.038H851.998V237.677H715.377V101.038ZM992.123 101.038H855.502V237.677H992.123V101.038ZM995.627 101.038H1132.25V237.677H995.627V101.038ZM151.373 241.18H14.7516V377.82H151.373V241.18ZM154.877 241.18H291.498V377.82H154.877V241.18ZM431.623 241.18H295.002V377.82H431.623V241.18ZM435.127 241.18H571.748V377.82H435.127V241.18ZM711.873 241.18H575.252V377.82H711.873V241.18ZM715.377 241.18H851.998V377.82H715.377V241.18ZM992.123 241.18H855.502V377.82H992.123V241.18ZM995.627 241.18H1132.25V377.82H995.627V241.18ZM151.373 381.323H14.7516V517.963H151.373V381.323ZM154.877 381.323H291.498V517.963H154.877V381.323ZM431.623 381.323H295.002V517.963H431.623V381.323ZM435.127 381.323H571.748V517.963H435.127V381.323ZM711.873 381.323H575.252V517.963H711.873V381.323ZM715.377 381.323H851.998V517.963H715.377V381.323ZM992.123 381.323H855.502V517.963H992.123V381.323ZM995.627 381.323H1132.25V517.963H995.627V381.323ZM151.373 521.466H14.7516V658.105H151.373V521.466ZM154.877 521.466H291.498V658.105H154.877V521.466ZM431.623 521.466H295.002V658.105H431.623V521.466ZM435.127 521.466H571.748V658.105H435.127V521.466ZM711.873 521.466H575.252V658.105H711.873V521.466ZM715.377 521.466H851.998V658.105H715.377V521.466ZM992.123 521.466H855.502V658.105H992.123V521.466ZM995.627 521.466H1132.25V658.105H995.627V521.466ZM151.373 661.609H14.7516V798.248H151.373V661.609ZM154.877 661.609H291.498V798.248H154.877V661.609ZM431.623 661.609H295.002V798.248H431.623V661.609ZM435.127 661.609H571.748V798.248H435.127V661.609ZM711.873 661.609H575.252V798.248H711.873V661.609ZM715.377 661.609H851.998V798.248H715.377V661.609ZM992.123 661.609H855.502V798.248H992.123V661.609ZM995.627 661.609H1132.25V798.248H995.627V661.609Z" fill="white"/>
<path d="M507.312 14.5625H542.031" stroke="white" stroke-opacity="0.68" stroke-width="4" stroke-linecap="round" stroke-linejoin="round"/>
<path d="M560.969 14.5625H595.688" stroke="white" stroke-opacity="0.68" stroke-width="4" stroke-linecap="round" stroke-linejoin="round"/>
<path d="M551.5 24.0312C556.729 24.0312 560.969 19.7919 560.969 14.5625C560.969 9.33305 556.729 5.09375 551.5 5.09375C546.271 5.09375 542.031 9.33305 542.031 14.5625C542.031 19.7919 546.271 24.0312 551.5 24.0312Z" stroke="white" stroke-opacity="0.68" stroke-width="4" stroke-linecap="round" stroke-linejoin="round"/>
<path d="M516.781 61.9062C522.011 61.9062 526.25 57.6669 526.25 52.4375C526.25 47.2081 522.011 42.9688 516.781 42.9688C511.552 42.9688 507.312 47.2081 507.312 52.4375C507.312 57.6669 511.552 61.9062 516.781 61.9062Z" stroke="white" stroke-opacity="0.68" stroke-width="4" stroke-linecap="round" stroke-linejoin="round"/>
<path d="M586.219 61.9062C591.448 61.9062 595.688 57.6669 595.688 52.4375C595.688 47.2081 591.448 42.9688 586.219 42.9688C580.989 42.9688 576.75 47.2081 576.75 52.4375C576.75 57.6669 580.989 61.9062 586.219 61.9062Z" stroke="white" stroke-opacity="0.68" stroke-width="4" stroke-linecap="round" stroke-linejoin="round"/>
<path d="M560.89 15.8644C567.138 17.6186 572.771 21.0872 577.15 25.8774C581.529 30.6677 584.479 36.5882 585.666 42.9687" stroke="white" stroke-opacity="0.68" stroke-width="4" stroke-linecap="round" stroke-linejoin="round"/>
<path d="M517.334 42.9687C518.521 36.5882 521.472 30.6677 525.85 25.8774C530.229 21.0872 535.862 17.6186 542.11 15.8644" stroke="white" stroke-opacity="0.68" stroke-width="4" stroke-linecap="round" stroke-linejoin="round"/>
<path opacity="0.2" d="M823.047 112.672C829.39 112.672 834.531 107.53 834.531 101.188C834.531 94.8449 829.39 89.7031 823.047 89.7031C816.704 89.7031 811.562 94.8449 811.562 101.188C811.562 107.53 816.704 112.672 823.047 112.672Z" fill="white"/>
<path d="M823.047 112.672C829.39 112.672 834.531 107.53 834.531 101.188C834.531 94.8449 829.39 89.7031 823.047 89.7031C816.704 89.7031 811.562 94.8449 811.562 101.188C811.562 107.53 816.704 112.672 823.047 112.672Z" stroke="white" stroke-opacity="0.8" stroke-width="4" stroke-linecap="round" stroke-linejoin="round"/>
<path d="M887.031 45.4062L903.438 61.8125L887.031 78.2188" stroke="white" stroke-opacity="0.8" stroke-width="4" stroke-linecap="round" stroke-linejoin="round"/>
<path d="M834.531 101.188H837.812C843.034 101.188 848.042 99.1133 851.734 95.4212C855.426 91.729 857.5 86.7214 857.5 81.5C857.5 76.2786 859.574 71.271 863.266 67.5788C866.958 63.8867 871.966 61.8125 877.188 61.8125H903.438" stroke="white" stroke-opacity="0.8" stroke-width="4" stroke-linecap="round" stroke-linejoin="round"/>
<path opacity="0.2" d="M1015.51 121.985L1002.95 134.545C1001.58 135.912 1001.58 138.128 1002.95 139.495L1015.5 152.045C1016.87 153.412 1019.08 153.412 1020.45 152.045L1033.01 139.485C1034.38 138.118 1034.38 135.902 1033.01 134.535L1020.46 121.985C1019.09 120.618 1016.88 120.618 1015.51 121.985Z" fill="white"/>
<path opacity="0.2" d="M1043.51 149.985L1030.95 162.545C1029.59 163.912 1029.59 166.128 1030.95 167.495L1043.51 180.045C1044.87 181.412 1047.09 181.412 1048.45 180.045L1061.01 167.485C1062.38 166.118 1062.38 163.902 1061.01 162.535L1048.46 149.985C1047.1 148.618 1044.88 148.618 1043.51 149.985Z" fill="white"/>
<path opacity="0.2" d="M987.509 149.945L974.949 162.505C973.582 163.872 973.582 166.088 974.949 167.455L987.5 180.006C988.867 181.373 991.083 181.373 992.45 180.006L1005.01 167.446C1006.38 166.079 1006.38 163.863 1005.01 162.496L992.459 149.945C991.092 148.579 988.876 148.579 987.509 149.945Z" fill="white"/>
<path opacity="0.2" d="M1015.51 177.945L1002.95 190.505C1001.59 191.872 1001.59 194.088 1002.95 195.455L1015.51 208.006C1016.87 209.373 1019.09 209.373 1020.45 208.006L1033.01 195.446C1034.38 194.079 1034.38 191.863 1033.01 190.496L1020.46 177.945C1019.1 176.579 1016.88 176.579 1015.51 177.945Z" fill="white"/>
<path d="M1015.51 121.985L1002.95 134.545C1001.58 135.912 1001.58 138.128 1002.95 139.495L1015.5 152.045C1016.87 153.412 1019.08 153.412 1020.45 152.045L1033.01 139.485C1034.38 138.118 1034.38 135.902 1033.01 134.535L1020.46 121.985C1019.09 120.618 1016.88 120.618 1015.51 121.985Z" stroke="white" stroke-opacity="0.8" stroke-width="4" stroke-linecap="round" stroke-linejoin="round"/>
<path d="M1043.51 149.985L1030.95 162.545C1029.59 163.912 1029.59 166.128 1030.95 167.495L1043.51 180.045C1044.87 181.412 1047.09 181.412 1048.45 180.045L1061.01 167.485C1062.38 166.118 1062.38 163.902 1061.01 162.535L1048.46 149.985C1047.1 148.618 1044.88 148.618 1043.51 149.985Z" stroke="white" stroke-opacity="0.8" stroke-width="4" stroke-linecap="round" stroke-linejoin="round"/>
<path d="M987.509 149.945L974.949 162.505C973.582 163.872 973.582 166.088 974.949 167.455L987.5 180.006C988.867 181.373 991.083 181.373 992.45 180.006L1005.01 167.446C1006.38 166.079 1006.38 163.863 1005.01 162.496L992.459 149.945C991.092 148.579 988.876 148.579 987.509 149.945Z" stroke="white" stroke-opacity="0.8" stroke-width="4" stroke-linecap="round" stroke-linejoin="round"/>
<path d="M1015.51 177.945L1002.95 190.505C1001.59 191.872 1001.59 194.088 1002.95 195.455L1015.51 208.006C1016.87 209.373 1019.09 209.373 1020.45 208.006L1033.01 195.446C1034.38 194.079 1034.38 191.863 1033.01 190.496L1020.46 177.945C1019.1 176.579 1016.88 176.579 1015.51 177.945Z" stroke="white" stroke-opacity="0.8" stroke-width="4" stroke-linecap="round" stroke-linejoin="round"/>
<path d="M1088 371C1091.31 371 1094 368.314 1094 365C1094 361.686 1091.31 359 1088 359C1084.69 359 1082 361.686 1082 365C1082 368.314 1084.69 371 1088 371Z" fill="white" fill-opacity="0.8"/>
<path d="M1122 371C1125.31 371 1128 368.314 1128 365C1128 361.686 1125.31 359 1122 359C1118.69 359 1116 361.686 1116 365C1116 368.314 1118.69 371 1122 371Z" fill="white" fill-opacity="0.8"/>
<path d="M1088 405C1091.31 405 1094 402.314 1094 399C1094 395.686 1091.31 393 1088 393C1084.69 393 1082 395.686 1082 399C1082 402.314 1084.69 405 1088 405Z" fill="white" fill-opacity="0.8"/>
<path d="M1122 405C1125.31 405 1128 402.314 1128 399C1128 395.686 1125.31 393 1122 393C1118.69 393 1116 395.686 1116 399C1116 402.314 1118.69 405 1122 405Z" fill="white" fill-opacity="0.8"/>
<path d="M1088 440C1091.31 440 1094 437.314 1094 434C1094 430.686 1091.31 428 1088 428C1084.69 428 1082 430.686 1082 434C1082 437.314 1084.69 440 1088 440Z" fill="white" fill-opacity="0.8"/>
<path d="M1122 440C1125.31 440 1128 437.314 1128 434C1128 430.686 1125.31 428 1122 428C1118.69 428 1116 430.686 1116 434C1116 437.314 1118.69 440 1122 440Z" fill="white" fill-opacity="0.8"/>
<path opacity="0.2" d="M540.969 149.031H474.031C472.565 149.025 471.111 149.31 469.755 149.868C468.398 150.427 467.166 151.248 466.129 152.285C465.092 153.322 464.27 154.555 463.712 155.911C463.153 157.267 462.869 158.721 462.875 160.188V212.25C462.869 213.717 463.153 215.17 463.712 216.527C464.27 217.883 465.092 219.115 466.129 220.152C467.166 221.19 468.398 222.011 469.755 222.57C471.111 223.128 472.565 223.412 474.031 223.406H540.969C542.436 223.412 543.889 223.128 545.245 222.57C546.602 222.011 547.834 221.19 548.871 220.152C549.908 219.115 550.73 217.883 551.288 216.527C551.847 215.17 552.131 213.717 552.125 212.25V160.188C552.131 158.721 551.847 157.267 551.288 155.911C550.73 154.555 549.908 153.322 548.871 152.285C547.834 151.248 546.602 150.427 545.245 149.868C543.889 149.31 542.436 149.025 540.969 149.031ZM524.234 208.531H490.766C488.3 208.531 485.935 207.552 484.192 205.808C482.448 204.065 481.469 201.7 481.469 199.234C481.469 196.769 482.448 194.404 484.192 192.661C485.935 190.917 488.3 189.938 490.766 189.938H524.234C526.7 189.938 529.065 190.917 530.808 192.661C532.552 194.404 533.531 196.769 533.531 199.234C533.531 201.7 532.552 204.065 530.808 205.808C529.065 207.552 526.7 208.531 524.234 208.531Z" fill="white"/>
<path d="M540.969 149.031H474.031C467.87 149.031 462.875 154.026 462.875 160.188V212.25C462.875 218.411 467.87 223.406 474.031 223.406H540.969C547.13 223.406 552.125 218.411 552.125 212.25V160.188C552.125 154.026 547.13 149.031 540.969 149.031Z" stroke="white" stroke-opacity="0.8" stroke-width="4" stroke-linecap="round" stroke-linejoin="round"/>
<path d="M524.234 189.938H490.766C485.631 189.938 481.469 194.1 481.469 199.234C481.469 204.369 485.631 208.531 490.766 208.531H524.234C529.369 208.531 533.531 204.369 533.531 199.234C533.531 194.1 529.369 189.938 524.234 189.938Z" stroke="white" stroke-opacity="0.8" stroke-width="4" stroke-linecap="round" stroke-linejoin="round"/>
<path d="M516.797 189.938V208.531" stroke="white" stroke-opacity="0.8" stroke-width="4" stroke-linecap="round" stroke-linejoin="round"/>
<path d="M498.203 189.938V208.531" stroke="white" stroke-opacity="0.8" stroke-width="4" stroke-linecap="round" stroke-linejoin="round"/>
<path d="M507.5 149.031V130.438" stroke="white" stroke-opacity="0.8" stroke-width="4" stroke-linecap="round" stroke-linejoin="round"/>
<path d="M487.047 178.781C490.128 178.781 492.625 176.284 492.625 173.203C492.625 170.122 490.128 167.625 487.047 167.625C483.966 167.625 481.469 170.122 481.469 173.203C481.469 176.284 483.966 178.781 487.047 178.781Z" fill="white" fill-opacity="0.8"/>
<path d="M527.953 178.781C531.034 178.781 533.531 176.284 533.531 173.203C533.531 170.122 531.034 167.625 527.953 167.625C524.872 167.625 522.375 170.122 522.375 173.203C522.375 176.284 524.872 178.781 527.953 178.781Z" fill="white" fill-opacity="0.8"/>
<path opacity="0.2" d="M844.486 283.715L855.357 222.127C855.433 221.662 855.601 221.217 855.851 220.818C856.1 220.418 856.427 220.073 856.812 219.801C857.197 219.529 857.631 219.337 858.091 219.235C858.551 219.133 859.027 219.123 859.49 219.207L884.287 223.564C885.224 223.74 886.055 224.275 886.601 225.057C887.147 225.838 887.364 226.802 887.207 227.742L876.291 289.689C875.543 293.861 873.193 297.574 869.742 300.034C866.291 302.493 862.015 303.505 857.828 302.852C848.889 301.414 842.914 292.654 844.486 283.715Z" fill="white"/>
<path d="M844.486 283.715L855.357 222.127C855.433 221.662 855.601 221.217 855.851 220.818C856.1 220.418 856.427 220.073 856.812 219.801C857.197 219.529 857.631 219.337 858.091 219.235C858.551 219.133 859.027 219.123 859.49 219.207L884.287 223.564C885.224 223.74 886.055 224.275 886.601 225.057C887.147 225.838 887.364 226.802 887.207 227.742L876.291 289.689C875.543 293.861 873.193 297.574 869.742 300.034C866.291 302.493 862.015 303.505 857.828 302.852C848.889 301.414 842.914 292.654 844.486 283.715Z" stroke="white" stroke-opacity="0.8" stroke-width="4" stroke-linecap="round" stroke-linejoin="round"/>
<path d="M881.143 262.062L913.891 250.158C914.336 249.994 914.809 249.919 915.283 249.939C915.758 249.958 916.223 250.072 916.653 250.272C917.084 250.472 917.47 250.756 917.79 251.107C918.11 251.457 918.357 251.868 918.518 252.314L927.143 275.943C927.461 276.837 927.413 277.82 927.009 278.679C926.605 279.537 925.878 280.201 924.986 280.525L865.869 302.043" stroke="white" stroke-opacity="0.8" stroke-width="4" stroke-linecap="round" stroke-linejoin="round"/>
<path d="M926.828 278.998V299.438C926.828 300.391 926.45 301.305 925.776 301.979C925.102 302.653 924.187 303.031 923.234 303.031H860.344" stroke="white" stroke-opacity="0.8" stroke-width="4" stroke-linecap="round" stroke-linejoin="round"/>
<path d="M860.344 292.25C863.321 292.25 865.734 289.837 865.734 286.859C865.734 283.882 863.321 281.469 860.344 281.469C857.367 281.469 854.953 283.882 854.953 286.859C854.953 289.837 857.367 292.25 860.344 292.25Z" fill="white" fill-opacity="0.8"/>
<path opacity="0.2" d="M699.706 308.675H676.361L655.892 335.355L676.361 385.381L723.051 335.355L699.706 308.675Z" fill="white"/>
<path d="M653.015 308.675H699.706L723.051 335.355L676.36 385.381L629.67 335.355L653.015 308.675Z" stroke="white" stroke-opacity="0.8" stroke-width="4" stroke-linecap="round" stroke-linejoin="round"/>
<path d="M696.829 335.355L676.361 385.381L655.892 335.355L676.361 308.675L696.829 335.355Z" stroke="white" stroke-opacity="0.8" stroke-width="4" stroke-linecap="round" stroke-linejoin="round"/>
<path d="M629.67 335.355H723.051" stroke="white" stroke-opacity="0.8" stroke-width="4" stroke-linecap="round" stroke-linejoin="round"/>
<path opacity="0.2" d="M729.5 142.281C694.812 142.281 680.938 173.5 680.938 173.5C680.938 173.5 694.812 204.719 729.5 204.719C764.188 204.719 778.062 173.5 778.062 173.5C778.062 173.5 764.188 142.281 729.5 142.281ZM729.5 190.844C726.07 190.844 722.716 189.827 719.864 187.921C717.012 186.015 714.789 183.306 713.476 180.137C712.164 176.968 711.82 173.481 712.49 170.116C713.159 166.752 714.811 163.662 717.236 161.236C719.662 158.811 722.752 157.159 726.116 156.49C729.481 155.82 732.968 156.164 736.137 157.476C739.306 158.789 742.015 161.012 743.921 163.864C745.827 166.716 746.844 170.07 746.844 173.5C746.844 178.1 745.016 182.511 741.764 185.764C738.511 189.016 734.1 190.844 729.5 190.844Z" fill="white"/>
<path d="M729.5 142.281C694.812 142.281 680.938 173.5 680.938 173.5C680.938 173.5 694.812 204.719 729.5 204.719C764.188 204.719 778.062 173.5 778.062 173.5C778.062 173.5 764.188 142.281 729.5 142.281Z" stroke="white" stroke-opacity="0.8" stroke-width="4" stroke-linecap="round" stroke-linejoin="round"/>
<path d="M729.5 190.844C739.079 190.844 746.844 183.079 746.844 173.5C746.844 163.921 739.079 156.156 729.5 156.156C719.921 156.156 712.156 163.921 712.156 173.5C712.156 183.079 719.921 190.844 729.5 190.844Z" stroke="white" stroke-opacity="0.8" stroke-width="4" stroke-linecap="round" stroke-linejoin="round"/>
</g>
<defs>
<clipPath id="clip0_1403_18">
<rect width="1134" height="449" fill="white"/>
</clipPath>
</defs>
</svg>
