<svg width="505" height="355" viewBox="0 0 505 355" fill="none" xmlns="http://www.w3.org/2000/svg">
<mask id="mask0_420_1739" style="mask-type:alpha" maskUnits="userSpaceOnUse" x="0" y="0" width="505" height="355">
<rect width="505" height="355" fill="#E7E7B9"/>
</mask>
<g mask="url(#mask0_420_1739)">
<rect width="505" height="355" fill="#F5A0FC"/>
<rect x="171.551" y="55" width="219.276" height="280.531" rx="12.4286" fill="#131313"/>
<rect x="168.444" y="55.4439" width="218.388" height="279.643" rx="11.9847" fill="white" stroke="black" stroke-width="0.887755"/>
<rect x="185.756" y="78.9692" width="178.439" height="2.66327" rx="1.33163" fill="#1F737E" fill-opacity="0.22"/>
<rect x="185.756" y="86.959" width="178.439" height="2.66327" rx="1.33163" fill="#1F737E" fill-opacity="0.22"/>
<rect x="185.756" y="94.9487" width="178.439" height="2.66327" rx="1.33163" fill="#1F737E" fill-opacity="0.22"/>
<rect x="185.756" y="102.938" width="178.439" height="2.66327" rx="1.33163" fill="#1F737E" fill-opacity="0.22"/>
<rect x="185.756" y="110.928" width="178.439" height="2.66327" rx="1.33163" fill="#1F737E" fill-opacity="0.22"/>
<rect x="185.756" y="118.918" width="178.439" height="2.66327" rx="1.33163" fill="#1F737E" fill-opacity="0.22"/>
<rect x="187.531" y="223.673" width="178.439" height="2.66327" rx="1.33163" fill="#1F737E" fill-opacity="0.22"/>
<rect x="187.531" y="231.663" width="178.439" height="2.66327" rx="1.33163" fill="#1F737E" fill-opacity="0.22"/>
<rect x="187.531" y="239.653" width="178.439" height="2.66327" rx="1.33163" fill="#1F737E" fill-opacity="0.22"/>
<rect x="187.531" y="247.643" width="178.439" height="2.66327" rx="1.33163" fill="#1F737E" fill-opacity="0.22"/>
<rect x="187.531" y="255.632" width="178.439" height="2.66327" rx="1.33163" fill="#1F737E" fill-opacity="0.22"/>
<rect x="187.531" y="263.622" width="178.439" height="2.66327" rx="1.33163" fill="#1F737E" fill-opacity="0.22"/>
<rect x="188.42" y="134.01" width="173.112" height="80.7857" rx="7.9898" fill="#EAEAEA"/>
<path d="M168 58.551C168 56.5899 169.59 55 171.551 55H387.276C389.237 55 390.827 56.5898 390.827 58.551V67.4286H168V58.551Z" fill="#131313"/>
<path d="M168 58.551C168 56.5899 169.59 55 171.551 55H383.724C385.686 55 387.276 56.5898 387.276 58.551V67.4286H168V58.551Z" fill="#414141"/>
<circle cx="175.99" cy="62.1022" r="1.77551" fill="#D9D9D9"/>
<circle cx="182.205" cy="62.1022" r="1.77551" fill="#ABABAB"/>
<circle cx="188.418" cy="62.1022" r="1.77551" fill="#D9D9D9"/>
<rect x="91.5508" y="106" width="219.276" height="280.531" rx="12.4286" fill="#131313"/>
<rect x="88.4439" y="106.444" width="218.388" height="279.643" rx="11.9847" fill="white" stroke="black" stroke-width="0.887755"/>
<rect x="105.756" y="129.969" width="178.439" height="2.66327" rx="1.33163" fill="#C4D6D8" fill-opacity="0.24"/>
<rect x="105.756" y="137.959" width="178.439" height="2.66327" rx="1.33163" fill="#C4D6D8" fill-opacity="0.24"/>
<rect x="105.756" y="145.949" width="178.439" height="2.66327" rx="1.33163" fill="#C4D6D8" fill-opacity="0.24"/>
<rect x="105.756" y="153.939" width="178.439" height="2.66327" rx="1.33163" fill="#C4D6D8" fill-opacity="0.24"/>
<rect x="105.756" y="161.929" width="178.439" height="2.66327" rx="1.33163" fill="#C4D6D8" fill-opacity="0.24"/>
<rect x="105.756" y="169.918" width="178.439" height="2.66327" rx="1.33163" fill="#C4D6D8" fill-opacity="0.24"/>
<rect x="107.531" y="274.673" width="178.439" height="2.66327" rx="1.33163" fill="#C4D6D8" fill-opacity="0.24"/>
<rect x="107.531" y="282.663" width="178.439" height="2.66327" rx="1.33163" fill="#C4D6D8" fill-opacity="0.24"/>
<rect x="107.531" y="290.653" width="178.439" height="2.66327" rx="1.33163" fill="#C4D6D8" fill-opacity="0.24"/>
<rect x="107.531" y="298.643" width="178.439" height="2.66327" rx="1.33163" fill="#C4D6D8" fill-opacity="0.24"/>
<rect x="107.531" y="306.632" width="178.439" height="2.66327" rx="1.33163" fill="#C4D6D8" fill-opacity="0.24"/>
<rect x="107.531" y="314.623" width="178.439" height="2.66327" rx="1.33163" fill="#C4D6D8" fill-opacity="0.24"/>
<rect x="108.42" y="185.01" width="173.112" height="80.7857" rx="7.9898" fill="#EAEAEA"/>
<path d="M88 109.551C88 107.59 89.5898 106 91.551 106H307.276C309.237 106 310.827 107.59 310.827 109.551V118.429H88V109.551Z" fill="#131313"/>
<path d="M88 109.551C88 107.59 89.5898 106 91.551 106H303.724C305.686 106 307.276 107.59 307.276 109.551V118.429H88V109.551Z" fill="#414141"/>
<circle cx="95.9904" cy="113.102" r="1.77551" fill="#D9D9D9"/>
<circle cx="102.205" cy="113.102" r="1.77551" fill="#ABABAB"/>
<circle cx="108.418" cy="113.102" r="1.77551" fill="#D9D9D9"/>
<rect x="196.551" y="150" width="219.276" height="280.531" rx="12.4286" fill="#131313"/>
<rect x="193.444" y="150.444" width="218.388" height="279.643" rx="11.9847" fill="white" stroke="black" stroke-width="0.887755"/>
<rect x="210.756" y="173.97" width="178.439" height="2.66327" rx="1.33163" fill="#AFB1B2" fill-opacity="0.19"/>
<rect x="210.756" y="181.959" width="178.439" height="2.66327" rx="1.33163" fill="#AFB1B2" fill-opacity="0.19"/>
<rect x="210.756" y="189.949" width="178.439" height="2.66327" rx="1.33163" fill="#AFB1B2" fill-opacity="0.19"/>
<rect x="210.756" y="197.939" width="178.439" height="2.66327" rx="1.33163" fill="#AFB1B2" fill-opacity="0.19"/>
<rect x="210.756" y="205.929" width="178.439" height="2.66327" rx="1.33163" fill="#AFB1B2" fill-opacity="0.19"/>
<rect x="210.756" y="213.919" width="178.439" height="2.66327" rx="1.33163" fill="#AFB1B2" fill-opacity="0.19"/>
<rect x="212.531" y="318.674" width="178.439" height="2.66327" rx="1.33163" fill="#AFB1B2" fill-opacity="0.19"/>
<rect x="212.531" y="326.664" width="178.439" height="2.66327" rx="1.33163" fill="#AFB1B2" fill-opacity="0.19"/>
<rect x="212.531" y="334.653" width="178.439" height="2.66327" rx="1.33163" fill="#AFB1B2" fill-opacity="0.19"/>
<rect x="212.531" y="342.643" width="178.439" height="2.66327" rx="1.33163" fill="#AFB1B2" fill-opacity="0.19"/>
<rect x="212.531" y="350.633" width="178.439" height="2.66327" rx="1.33163" fill="#AFB1B2" fill-opacity="0.19"/>
<rect x="213.42" y="229.011" width="173.112" height="80.7857" rx="7.9898" fill="#EAEAEA"/>
<path d="M193 153.551C193 151.59 194.59 150 196.551 150H412.276C414.237 150 415.827 151.59 415.827 153.551V162.429H193V153.551Z" fill="#131313"/>
<path d="M193 153.551C193 151.59 194.59 150 196.551 150H408.724C410.686 150 412.276 151.59 412.276 153.551V162.429H193V153.551Z" fill="#414141"/>
<circle cx="200.99" cy="157.102" r="1.77551" fill="#D9D9D9"/>
<circle cx="207.205" cy="157.102" r="1.77551" fill="#ABABAB"/>
<circle cx="213.418" cy="157.102" r="1.77551" fill="#D9D9D9"/>
<rect x="44.5586" y="210" width="110.29" height="28" rx="6" fill="#272727"/>
<rect x="350.525" y="208" width="110.29" height="28" rx="6" fill="#272727"/>
<rect x="44.5586" y="274" width="110.29" height="28" rx="6" fill="#272727"/>
<rect x="44.5586" y="242" width="75.8985" height="28" rx="6" fill="#272727"/>
<rect x="386.102" y="241" width="75.8985" height="28" rx="6" fill="#272727"/>
<rect x="126.387" y="242" width="75.8985" height="28" rx="6" fill="#272727"/>
<rect x="304.273" y="241" width="75.8985" height="28" rx="6" fill="#272727"/>
<rect x="161.965" y="274" width="75.8985" height="28" rx="6" fill="#272727"/>
<rect x="44.5586" y="306" width="75.8985" height="28" rx="6" fill="#272727"/>
<rect x="44.5586" y="338" width="75.8985" height="28" rx="6" fill="#272727"/>
<rect x="126.387" y="306" width="75.8985" height="28" rx="6" fill="#272727"/>
<rect x="126.387" y="338" width="59.2957" height="28" rx="6" fill="#272727"/>
<rect x="208.215" y="306" width="75.8985" height="28" rx="6" fill="#272727"/>
<rect x="191.611" y="338" width="92.5013" height="28" rx="6" fill="#272727"/>
<rect x="307.832" y="274" width="75.8985" height="28" rx="6" fill="#272727"/>
<rect x="322.062" y="306" width="75.8985" height="28" rx="6" fill="#272727"/>
<rect x="293.602" y="339" width="75.8985" height="28" rx="6" fill="#272727"/>
<rect x="403.891" y="306" width="58.1098" height="28" rx="6" fill="#272727"/>
<rect x="375.43" y="339" width="85.3858" height="28" rx="6" fill="#272727"/>
<rect x="386.102" y="273" width="75.8985" height="28" rx="6" fill="#272727"/>
<rect x="41" y="210" width="110.29" height="28" rx="6" fill="#345FF8"/>
<rect x="346.967" y="208" width="110.29" height="28" rx="6" fill="#345FF8"/>
<rect x="41" y="274" width="110.29" height="28" rx="6" fill="#345FF8"/>
<rect x="41" y="242" width="75.8985" height="28" rx="6" fill="#345FF8"/>
<rect x="382.543" y="241" width="75.8985" height="28" rx="6" fill="#345FF8"/>
<rect x="122.828" y="242" width="75.8985" height="28" rx="6" fill="#345FF8"/>
<rect x="300.715" y="241" width="75.8985" height="28" rx="6" fill="#345FF8"/>
<rect x="158.406" y="274" width="75.8985" height="28" rx="6" fill="#345FF8"/>
<rect x="41" y="306" width="75.8985" height="28" rx="6" fill="#345FF8"/>
<rect x="41" y="338" width="75.8985" height="28" rx="6" fill="#345FF8"/>
<rect x="122.828" y="306" width="75.8985" height="28" rx="6" fill="#345FF8"/>
<rect x="122.828" y="338" width="59.2957" height="28" rx="6" fill="#345FF8"/>
<rect x="204.656" y="306" width="75.8985" height="28" rx="6" fill="#345FF8"/>
<rect x="188.053" y="338" width="92.5013" height="28" rx="6" fill="#345FF8"/>
<rect x="304.273" y="274" width="75.8985" height="28" rx="6" fill="#345FF8"/>
<rect x="318.504" y="306" width="75.8985" height="28" rx="6" fill="#345FF8"/>
<rect x="290.043" y="339" width="75.8985" height="28" rx="6" fill="#345FF8"/>
<rect x="400.332" y="306" width="58.1098" height="28" rx="6" fill="#345FF8"/>
<rect x="371.871" y="339" width="85.3858" height="28" rx="6" fill="#345FF8"/>
<rect x="382.543" y="273" width="75.8985" height="28" rx="6" fill="#345FF8"/>
</g>
</svg>
