<svg width="823" height="558" viewBox="0 0 823 558" fill="none" xmlns="http://www.w3.org/2000/svg">
<rect x="20.1758" width="805.477" height="231.5" rx="115.75" transform="rotate(5 20.1758 0)" fill="#FF93F4"/>
<rect x="20.6303" y="0.541675" width="804.477" height="230.5" rx="115.25" transform="rotate(5 20.6303 0.541675)" stroke="white" stroke-opacity="0.2"/>
<path d="M169.5 128.5L647.5 175" stroke="white" stroke-opacity="0.33" stroke-width="8" stroke-dasharray="2 30"/>
<ellipse cx="279.667" cy="135.349" rx="16.3448" ry="20.4374" transform="rotate(-33 279.667 135.349)" fill="#1A5D4C"/>
<ellipse cx="281.075" cy="134.434" rx="16.3448" ry="20.4374" transform="rotate(-33 281.075 134.434)" fill="#FA8F12"/>
<ellipse cx="282.485" cy="133.519" rx="16.3448" ry="20.4374" transform="rotate(-33 282.485 133.519)" fill="#FAE312"/>
<g filter="url(#filter0_i_410_1227)">
<ellipse cx="282.501" cy="133.567" rx="15.0543" ry="18.8238" transform="rotate(-33 282.501 133.567)" fill="#FAE312"/>
<ellipse cx="282.501" cy="133.567" rx="15.0543" ry="18.8238" transform="rotate(-33 282.501 133.567)" fill="url(#paint0_linear_410_1227)"/>
</g>
<g filter="url(#filter1_i_410_1227)">
<path d="M288.093 142.214L277.025 125.725L278.159 125.147L289.227 141.637L288.093 142.214ZM283.835 129.334C283.393 128.804 282.827 128.505 282.138 128.436C281.453 128.364 280.73 128.522 279.97 128.909C279.435 129.182 279.027 129.49 278.746 129.836C278.464 130.181 278.308 130.534 278.278 130.895C278.249 131.256 278.342 131.603 278.56 131.936C278.744 132.211 278.971 132.415 279.24 132.549C279.514 132.68 279.816 132.757 280.146 132.779C280.473 132.796 280.811 132.78 281.16 132.729C281.509 132.677 281.851 132.61 282.184 132.527L283.719 132.16C284.331 132.003 284.95 131.898 285.576 131.844C286.206 131.788 286.818 131.811 287.412 131.912C288.01 132.011 288.567 132.214 289.082 132.521C289.598 132.829 290.048 133.269 290.431 133.84C290.95 134.613 291.195 135.401 291.166 136.206C291.134 137.006 290.828 137.775 290.248 138.514C289.67 139.247 288.814 139.902 287.68 140.48C286.579 141.041 285.516 141.369 284.492 141.465C283.472 141.558 282.529 141.416 281.664 141.038C280.803 140.659 280.06 140.04 279.435 139.183L281.958 137.897C282.304 138.338 282.712 138.643 283.184 138.811C283.656 138.98 284.157 139.031 284.686 138.962C285.22 138.892 285.754 138.721 286.289 138.448C286.847 138.164 287.283 137.838 287.599 137.47C287.916 137.095 288.101 136.707 288.153 136.306C288.202 135.9 288.103 135.507 287.854 135.127C287.618 134.786 287.32 134.558 286.958 134.442C286.593 134.323 286.169 134.285 285.686 134.33C285.204 134.368 284.67 134.456 284.082 134.594L282.212 135.028C280.859 135.343 279.653 135.389 278.596 135.168C277.539 134.939 276.694 134.353 276.06 133.408C275.538 132.631 275.307 131.835 275.367 131.021C275.431 130.205 275.747 129.436 276.314 128.715C276.878 127.989 277.656 127.374 278.647 126.869C279.651 126.357 280.641 126.072 281.616 126.013C282.592 125.948 283.49 126.093 284.31 126.447C285.126 126.798 285.791 127.341 286.303 128.077L283.835 129.334Z" fill="#FFCD1E"/>
</g>
<ellipse cx="403.771" cy="152.081" rx="16.3448" ry="20.4374" transform="rotate(-33 403.771 152.081)" fill="#1A5D4C"/>
<ellipse cx="405.179" cy="151.166" rx="16.3448" ry="20.4374" transform="rotate(-33 405.179 151.166)" fill="#FA8F12"/>
<ellipse cx="406.589" cy="150.252" rx="16.3448" ry="20.4374" transform="rotate(-33 406.589 150.252)" fill="#FAE312"/>
<g filter="url(#filter2_i_410_1227)">
<ellipse cx="406.604" cy="150.3" rx="15.0543" ry="18.8238" transform="rotate(-33 406.604 150.3)" fill="#FAE312"/>
<ellipse cx="406.604" cy="150.3" rx="15.0543" ry="18.8238" transform="rotate(-33 406.604 150.3)" fill="url(#paint1_linear_410_1227)"/>
</g>
<g filter="url(#filter3_i_410_1227)">
<path d="M412.197 158.947L401.129 142.457L402.262 141.879L413.33 158.369L412.197 158.947ZM407.939 146.067C407.497 145.537 406.931 145.237 406.241 145.168C405.556 145.096 404.834 145.254 404.073 145.642C403.539 145.914 403.131 146.223 402.849 146.568C402.567 146.913 402.412 147.266 402.382 147.627C402.352 147.988 402.446 148.335 402.663 148.668C402.848 148.943 403.074 149.147 403.344 149.281C403.617 149.412 403.919 149.489 404.249 149.511C404.577 149.529 404.915 149.512 405.264 149.461C405.613 149.41 405.954 149.343 406.288 149.259L407.823 148.892C408.435 148.736 409.054 148.631 409.68 148.577C410.31 148.521 410.922 148.543 411.515 148.644C412.113 148.743 412.67 148.946 413.186 149.254C413.702 149.562 414.151 150.001 414.534 150.572C415.053 151.345 415.298 152.134 415.269 152.938C415.237 153.738 414.931 154.508 414.351 155.247C413.773 155.979 412.917 156.634 411.784 157.212C410.682 157.773 409.62 158.101 408.595 158.197C407.576 158.29 406.633 158.148 405.767 157.771C404.907 157.391 404.164 156.773 403.539 155.915L406.062 154.63C406.407 155.071 406.816 155.375 407.288 155.544C407.759 155.713 408.26 155.763 408.79 155.695C409.324 155.624 409.858 155.453 410.392 155.181C410.95 154.897 411.387 154.57 411.702 154.202C412.019 153.827 412.204 153.439 412.257 153.038C412.306 152.633 412.206 152.24 411.957 151.859C411.722 151.518 411.423 151.29 411.062 151.175C410.697 151.055 410.273 151.018 409.789 151.062C409.308 151.1 408.773 151.188 408.186 151.326L406.316 151.76C404.962 152.075 403.757 152.122 402.699 151.9C401.643 151.672 400.798 151.085 400.164 150.141C399.642 149.363 399.411 148.568 399.471 147.754C399.535 146.937 399.85 146.168 400.418 145.447C400.982 144.722 401.76 144.106 402.75 143.602C403.755 143.09 404.745 142.804 405.719 142.746C406.696 142.68 407.594 142.825 408.413 143.18C409.23 143.53 409.894 144.073 410.407 144.809L407.939 146.067Z" fill="#FFCD1E"/>
</g>
<ellipse cx="527.874" cy="168.813" rx="16.3448" ry="20.4374" transform="rotate(-33 527.874 168.813)" fill="#1A5D4C"/>
<ellipse cx="529.282" cy="167.898" rx="16.3448" ry="20.4374" transform="rotate(-33 529.282 167.898)" fill="#FA8F12"/>
<ellipse cx="530.692" cy="166.984" rx="16.3448" ry="20.4374" transform="rotate(-33 530.692 166.984)" fill="#FAE312"/>
<g filter="url(#filter4_i_410_1227)">
<ellipse cx="530.708" cy="167.032" rx="15.0543" ry="18.8238" transform="rotate(-33 530.708 167.032)" fill="#FAE312"/>
<ellipse cx="530.708" cy="167.032" rx="15.0543" ry="18.8238" transform="rotate(-33 530.708 167.032)" fill="url(#paint2_linear_410_1227)"/>
</g>
<g filter="url(#filter5_i_410_1227)">
<path d="M536.3 175.679L525.232 159.189L526.366 158.612L537.434 175.101L536.3 175.679ZM532.042 162.799C531.6 162.269 531.035 161.97 530.345 161.901C529.66 161.829 528.937 161.987 528.177 162.374C527.642 162.647 527.234 162.955 526.953 163.301C526.671 163.646 526.515 163.999 526.485 164.36C526.456 164.721 526.549 165.068 526.767 165.401C526.951 165.675 527.178 165.88 527.447 166.013C527.721 166.145 528.023 166.222 528.353 166.243C528.68 166.261 529.018 166.244 529.367 166.193C529.717 166.142 530.058 166.075 530.391 165.991L531.926 165.624C532.538 165.468 533.157 165.363 533.783 165.309C534.413 165.253 535.025 165.276 535.619 165.377C536.217 165.475 536.774 165.679 537.289 165.986C537.805 166.294 538.255 166.733 538.638 167.305C539.157 168.077 539.402 168.866 539.373 169.67C539.341 170.47 539.035 171.24 538.455 171.979C537.877 172.712 537.021 173.367 535.887 173.944C534.786 174.506 533.723 174.834 532.699 174.929C531.679 175.023 530.736 174.88 529.871 174.503C529.01 174.123 528.267 173.505 527.642 172.648L530.165 171.362C530.511 171.803 530.919 172.108 531.391 172.276C531.863 172.445 532.364 172.495 532.893 172.427C533.427 172.357 533.961 172.186 534.496 171.913C535.054 171.629 535.49 171.303 535.806 170.935C536.123 170.56 536.308 170.172 536.36 169.77C536.409 169.365 536.31 168.972 536.061 168.592C535.825 168.251 535.527 168.022 535.165 167.907C534.8 167.788 534.376 167.75 533.893 167.795C533.411 167.833 532.877 167.921 532.289 168.059L530.419 168.493C529.066 168.808 527.86 168.854 526.803 168.633C525.746 168.404 524.901 167.818 524.267 166.873C523.746 166.096 523.514 165.3 523.574 164.486C523.638 163.67 523.954 162.901 524.521 162.18C525.086 161.454 525.863 160.839 526.854 160.334C527.858 159.822 528.848 159.537 529.823 159.478C530.799 159.413 531.697 159.558 532.517 159.912C533.333 160.263 533.998 160.806 534.51 161.542L532.042 162.799Z" fill="#FFCD1E"/>
</g>
<path d="M122.174 198.331C165.031 202.081 202.813 170.378 206.563 127.521C210.312 84.6635 178.609 46.8814 135.752 43.1319C92.8949 39.3824 55.1128 71.0853 51.3633 113.942C47.6137 156.8 79.3167 194.582 122.174 198.331Z" fill="#8A30FE"/>
<path d="M130.566 126.734C130.566 126.734 86.6575 120.38 75.5787 127.786C64.4999 135.192 58.7528 149.536 56.5749 161.375L87.0151 165.028L85.1158 171.943C85.1158 171.943 109.021 218.956 167.556 188.673C171.539 186.661 173.796 161.733 171.81 159.199C171.81 159.199 193.949 155.045 194.817 147.735C195.744 139.746 179.783 116.802 179.783 116.802C179.783 116.802 170.891 125.313 164.806 126.989C155.984 129.491 130.566 126.734 130.566 126.734Z" fill="#F8B700"/>
<path d="M151.252 187.093L175.733 189.235C175.733 189.235 176.545 213.898 173.472 215.076C170.4 216.254 155.536 217.314 150.956 213.106C149.399 211.752 149.221 213.792 149.551 210.014C149.657 208.805 137.705 214.003 138.922 200.1C140.045 187.254 150.411 192.349 150.411 192.349C150.699 188.187 151.252 187.093 151.252 187.093Z" fill="#FFD55F"/>
<path d="M108.837 78.3907L105.521 92.7952C105.521 92.7952 102.002 86.0157 97.8523 87.3276C93.6266 88.6329 91.5139 101.468 96.4905 102.893C101.467 104.318 105.633 103.693 105.255 103.66C104.878 103.627 108.456 120.157 113.778 121.993C119.099 123.829 148.234 135.439 154.961 120.343C160.937 106.856 161.168 104.212 161.168 104.212C161.168 104.212 168.395 106.9 168.795 95.3616C169.12 83.8171 162.135 89.6777 160.387 90.5146C158.639 91.3514 158.303 75.1807 158.303 75.1807L112.665 71.1879L108.837 78.3907Z" fill="#C4924D"/>
<path d="M60.3184 161.247L86.9938 164.418C86.9938 164.418 83.7034 186.363 125.403 189.25C125.403 189.25 141.308 187.596 144.613 188.113C146.117 188.321 150.416 192.276 150.416 192.276C150.416 192.276 144.09 189.742 141.897 193.053C138.993 197.519 149.449 194.627 149.449 194.627C149.449 194.627 151.438 204.09 148.106 205.626C132.651 212.573 126.906 205.142 126.906 205.142C126.906 205.142 59.3774 219.867 60.3184 161.247Z" fill="#C4924D"/>
<path d="M234.277 56.1673C230.958 57.552 230.238 76.219 231.275 78.2893C232.119 79.962 230.771 81.443 230.771 81.443C230.771 81.443 193.381 124.159 181.175 119.208L194.887 145.229C194.887 145.229 241.977 119.579 243.579 83.8579C243.579 83.8579 245.374 82.4921 246.859 81.1755C254.754 74.4808 251.716 61.3477 249.145 64.6251C247.859 66.2638 246.433 72.9915 245.843 71.0364C245.843 71.0364 249.094 49.5453 244.961 49.7928L234.277 56.1673Z" fill="#C4924D"/>
<path d="M120.934 122.845L109.642 130.08C109.642 130.08 133.684 142.462 140.317 136.266C146.95 130.07 137.859 124.326 137.859 124.326L120.934 122.845V122.845Z" fill="#C4924D"/>
<path d="M112.142 127.634C112.142 127.634 108.94 125.07 104.901 128.6C100.861 132.129 104.714 146.4 112.078 149.252C119.436 152.18 125.106 145.671 125.106 145.671C125.106 145.671 127.664 136.454 112.142 127.634Z" fill="#E95426"/>
<path d="M147.205 128.037C147.205 128.037 149.707 124.678 154.742 127.174C159.777 129.67 159.575 145.032 152.91 149.855C146.244 154.678 138.839 149.69 138.839 149.69C138.839 149.69 132.821 141.017 147.205 128.037Z" fill="#E95426"/>
<path d="M109.534 115.681C109.534 115.681 94.5325 116.576 105.57 131.399C116.608 146.222 114.939 132.219 114.939 132.219C114.939 132.219 99.7387 124.95 109.534 115.681Z" fill="#E95426"/>
<path d="M116.206 145.341C118.196 143.672 117.582 139.665 114.836 136.392C112.089 133.119 108.25 131.819 106.261 133.488C104.271 135.157 104.885 139.164 107.631 142.437C110.378 145.71 114.217 147.01 116.206 145.341Z" fill="#F39B7E"/>
<path d="M154.081 145.563C156.532 142.063 156.794 138.018 154.666 136.529C152.539 135.039 148.828 136.669 146.377 140.169C143.926 143.669 143.664 147.713 145.791 149.203C147.919 150.693 151.63 149.063 154.081 145.563Z" fill="#F39B7E"/>
<path d="M108.095 126.899C108.095 126.899 119.364 132.986 125.175 145.753C125.175 145.753 127.051 139.978 120.944 133.201C113.375 124.849 108.095 126.899 108.095 126.899Z" fill="#EE774D"/>
<path d="M138.838 149.69C138.838 149.69 141.556 135.157 152.451 126.365C152.451 126.365 146.676 126.24 141.379 133.695C134.531 143.222 138.838 149.69 138.838 149.69Z" fill="#EE774D"/>
<path d="M122.798 101.536C126.471 101.857 129.708 99.1403 130.029 95.468C130.351 91.7957 127.634 88.5583 123.962 88.237C120.289 87.9157 117.052 90.6323 116.731 94.3045C116.409 97.9768 119.126 101.214 122.798 101.536Z" fill="white"/>
<path d="M146.447 102.768C150.119 103.089 153.356 100.373 153.678 96.7004C153.999 93.0281 151.282 89.7907 147.61 89.4694C143.938 89.1481 140.7 91.8647 140.379 95.5369C140.058 99.2092 142.774 102.447 146.447 102.768Z" fill="white"/>
<path d="M125.265 99.47C127.393 99.6562 129.27 98.0819 129.456 95.9536C129.642 93.8254 128.068 91.9491 125.939 91.7629C123.811 91.5767 121.935 93.1511 121.749 95.2793C121.563 97.4076 123.137 99.2838 125.265 99.47Z" fill="#1D1E1C"/>
<path d="M148.74 100.915C150.868 101.102 152.744 99.5272 152.93 97.3989C153.117 95.2707 151.542 93.3944 149.414 93.2082C147.286 93.022 145.41 94.5964 145.223 96.7246C145.037 98.8529 146.612 100.729 148.74 100.915Z" fill="#1D1E1C"/>
<path d="M136.351 94.5768C130.72 94.5409 136.045 95.4636 128.284 104.987C125.986 107.755 137.633 112.125 140.489 109.938C144.976 106.524 137.491 94.6004 136.351 94.5768Z" fill="#2E98D4"/>
<path d="M109.389 89.4791L105.816 91.1461C105.816 91.1461 99.5916 120.524 110.953 125.553C122.314 130.582 145.404 135.572 150.657 131.235C155.833 126.891 165.291 97.1109 160.131 88.2082C157.223 83.157 158.998 88.109 158.998 88.109C158.998 88.109 154.698 118.112 149.398 114.298C144.531 110.751 131.27 112.636 131.27 112.636C125.835 107.744 120.384 110.008 120.006 109.975C120.088 109.906 111.402 108.233 109.389 89.4791Z" fill="#1D1D1B"/>
<path d="M120.837 111.799C120.837 111.799 124.721 117.012 131.277 114.311C131.277 114.311 131.873 117.942 136.666 117.981C136.666 117.981 131.632 125.915 123.159 120.073C117.769 116.403 120.837 111.799 120.837 111.799Z" fill="#C4924D"/>
<path d="M128.68 81.3444L143.036 82.6004L137.085 73.1716L128.68 81.3444Z" fill="#1D1D1B"/>
<path d="M105.519 92.7948C105.519 92.7948 131.547 85.0978 136.384 75.9276C136.384 75.9276 143.718 86.0865 160.524 90.6785C160.524 90.6785 168.448 78.4283 163.329 67.3211C154.101 47.4793 116.248 51.0962 107.689 64.509C104.247 69.9182 102.088 83.2819 105.519 92.7948Z" fill="#F8B700"/>
<path d="M658.956 238.163C616.982 234.49 585.932 197.487 589.604 155.512C593.276 113.538 630.28 82.488 672.255 86.1603C714.229 89.8326 745.279 126.836 741.607 168.811C737.934 210.785 700.93 241.835 658.956 238.163Z" fill="#FF85F3"/>
<path d="M566.322 96.9692C567.169 95.7794 549.388 96.7517 549.388 96.7517L545.725 113.978C541.358 115.455 566.009 117.537 566.009 117.537C566.009 117.537 563.718 100.385 566.322 96.9692Z" fill="#13CE66"/>
<path d="M669.45 153.947C669.45 153.947 690.167 158.51 694.692 162.029C699.223 165.474 707.237 179.261 707.237 179.261C707.237 179.261 697.742 187.501 687.296 187.926L686.373 196.767C686.373 196.767 682.123 226.657 655.184 224.375C650.092 223.929 631.692 176.741 632.012 172.234C632.031 172.012 631.897 171.852 631.756 171.765C629.116 170.493 609.643 161.057 609.933 159.447C610.341 157.326 619.463 155.894 618.819 142.008C618.819 142.008 615.827 139.664 643.571 148.04C649.942 150.01 669.45 153.947 669.45 153.947Z" fill="#472A08"/>
<path d="M670.208 129.107L676.721 121.795C676.721 121.795 674.505 96.9909 670.395 97.2261C666.285 97.4614 667.517 96.9744 667.517 96.9744C667.517 96.9744 664.003 87.0011 655.716 85.6813C647.43 84.3616 633.213 86.2405 626.151 99.824C623.193 105.588 627.176 101.698 627.176 101.698C627.176 101.698 622.033 115.449 625.919 124.563C626.906 126.88 627.176 101.698 650.707 105.541C661.496 107.154 670.208 129.107 670.208 129.107Z" fill="black"/>
<path d="M672.26 125.197C672.26 125.197 677.86 111.337 685.105 116.06C691.362 120.177 684.294 132.124 678.205 132.037C676.944 132.001 675.721 133.233 675.692 134.42C675.659 140.737 668.631 150.531 665.768 152.66L670.502 156.346C670.502 156.346 659.772 170.203 653.874 161.136C652.951 159.792 651.927 154.497 651.927 154.497C651.927 154.497 630.273 156.395 625.764 133.992C625.764 133.992 620.248 136.707 617.991 125.951C616.247 117.843 619.309 115.137 626.942 121.381C626.942 121.381 629.035 113.608 628.99 100.518C628.99 100.518 636.829 98.4532 639.379 99.0481C651.018 101.999 664.253 99.4398 664.253 99.4398C663.919 111.753 671.304 125.931 672.26 125.197Z" fill="#F4DECA"/>
<path d="M618.863 145.73C618.863 145.73 617.69 155.74 612.104 157.556C606.517 159.372 565.135 119.914 565.135 119.914C565.135 119.914 559.653 117.129 559.424 114.655C558.942 109.111 557.05 106.938 556.327 103.306C555.537 99.5936 559.694 101.37 560.219 102.159C561.075 103.424 561.071 106.026 563.55 107.433C566.029 108.839 564.762 96.9805 564.762 96.9805C572.248 95.5535 568.848 111.465 572.979 113.536C584.52 119.305 618.863 145.73 618.863 145.73Z" fill="#F4DECA"/>
<path d="M700.362 183.866L687.299 187.853C687.299 187.853 688.061 220.784 652.047 223.656C645.309 224.181 632.526 219.866 629.235 224.336C627.126 227.2 633.264 225.879 633.264 225.879C633.264 225.879 626.244 232.179 628.629 237.221C630.013 240.093 631.947 229.035 635.27 230.143C635.27 230.143 626.95 238.561 632.659 241.291C633.801 241.837 636.277 232.239 638.577 232.292C638.577 232.292 632.517 242.914 637.096 242.423C640.548 242.056 640.113 234.285 641.472 235.742C642.489 236.872 637.589 243.581 643.123 244.065C644.968 244.227 646.337 234.532 649.442 234.729C659.564 235.466 712.46 227.454 700.362 183.866Z" fill="#F4DECA"/>
<path d="M696.948 242.454L685.497 225.466L707.307 226.036L696.948 242.454Z" fill="white"/>
<path d="M763.12 196.57L694.521 189.453L698.279 241.68L759.066 242.908L763.12 196.57Z" fill="white" stroke="#05A7F9" stroke-width="0.740695" stroke-miterlimit="10"/>
<path d="M723.407 217.927C723.375 218.296 723.343 218.665 723.311 219.034C723.384 219.04 723.378 219.114 723.378 219.114C723.365 219.262 723.346 219.483 723.406 219.637C723.49 220.388 723.653 221.071 723.97 221.694C724.287 222.317 724.678 222.946 725.23 223.44C725.714 223.854 726.198 224.268 726.769 224.541C727.267 224.808 727.844 225.007 728.428 225.132C728.428 225.132 728.502 225.139 728.495 225.213C728.569 225.219 728.643 225.226 728.716 225.232C728.938 225.251 729.159 225.271 729.454 225.297C729.528 225.303 729.602 225.31 729.602 225.31C729.682 225.242 729.756 225.249 729.83 225.255C730.427 225.233 731.03 225.137 731.646 224.894C732.49 224.596 733.199 224.137 733.847 223.525C734.175 223.182 734.509 222.765 734.769 222.341C735.202 221.636 735.495 220.843 735.64 220.038C735.64 220.038 735.646 219.965 735.72 219.971C735.746 219.676 735.771 219.381 735.797 219.086C735.723 219.079 735.73 219.005 735.73 219.005C735.749 218.784 735.695 218.556 735.714 218.335C735.625 217.658 735.461 216.974 735.144 216.352C734.827 215.729 734.503 215.18 734.025 214.692C733.548 214.204 733.063 213.79 732.492 213.517C731.928 213.171 731.277 212.965 730.613 212.907C730.613 212.907 730.539 212.9 730.545 212.827C730.25 212.801 729.955 212.775 729.66 212.749C729.653 212.823 729.58 212.816 729.58 212.816C729.358 212.797 729.13 212.851 728.835 212.826C728.232 212.922 727.549 213.085 727.006 213.335C726.544 213.517 726.149 213.78 725.748 214.117C725.267 214.521 724.779 214.999 724.439 215.489C724.012 216.121 723.645 216.907 723.507 217.638C723.42 217.78 723.488 217.86 723.407 217.927ZM729.984 213.298C733.157 213.575 735.513 216.384 735.248 219.409C735.032 222.736 732.149 225.086 728.977 224.809C725.804 224.531 723.447 221.723 723.725 218.55C724.009 215.303 726.891 212.953 729.984 213.298Z" fill="#D8D8D8"/>
<path d="M730.461 212.893C730.455 212.967 730.529 212.973 730.529 212.973C731.186 213.105 731.838 213.311 732.408 213.584C732.979 213.857 733.537 214.277 733.941 214.759C734.419 215.247 734.817 215.802 735.06 216.418C735.378 217.041 735.541 217.724 735.63 218.401C735.685 218.629 735.665 218.85 735.646 219.072C735.646 219.072 735.639 219.145 735.713 219.152C735.881 217.233 736.042 215.389 736.21 213.47C736.217 213.396 736.217 213.396 736.143 213.39C734.298 213.229 732.38 213.061 730.461 212.893Z" fill="#FEFEFE"/>
<path d="M723.406 217.926C723.487 217.858 723.493 217.785 723.499 217.711C723.644 216.906 724.004 216.193 724.431 215.562C724.771 215.071 725.185 214.587 725.741 214.189C726.142 213.853 726.537 213.59 726.999 213.407C727.615 213.164 728.225 212.994 728.828 212.898C729.056 212.843 729.277 212.863 729.572 212.889C729.572 212.889 729.646 212.895 729.652 212.821C727.734 212.653 725.889 212.492 723.971 212.324C723.897 212.318 723.897 212.318 723.89 212.392C723.729 214.236 723.568 216.081 723.406 217.926Z" fill="#FEFEFE"/>
<path d="M735.711 220.044C735.637 220.037 735.637 220.037 735.711 220.044C735.56 220.923 735.194 221.709 734.76 222.414C734.5 222.838 734.173 223.181 733.839 223.598C733.19 224.21 732.481 224.669 731.637 224.967C731.021 225.21 730.418 225.306 729.821 225.328C729.747 225.322 729.673 225.315 729.593 225.383C731.438 225.544 733.282 225.705 735.127 225.867C735.201 225.873 735.201 225.873 735.207 225.799C735.382 223.807 735.55 221.889 735.711 220.044Z" fill="#FEFEFE"/>
<path d="M728.42 225.206C728.426 225.133 728.352 225.126 728.42 225.206C727.762 225.075 727.185 224.875 726.687 224.609C726.116 224.336 725.632 223.922 725.148 223.508C724.596 223.013 724.205 222.384 723.888 221.762C723.577 221.065 723.414 220.382 723.324 219.705C723.337 219.557 723.276 219.403 723.296 219.182C723.296 219.182 723.302 219.108 723.229 219.102C723.067 220.946 722.906 222.791 722.744 224.636C722.738 224.709 722.738 224.709 722.812 224.716C724.73 224.884 726.575 225.045 728.42 225.206Z" fill="#FEFEFE"/>
<path d="M729.985 213.299C726.812 213.021 724.004 215.378 723.726 218.551C723.449 221.723 725.805 224.532 728.978 224.809C732.151 225.087 735.033 222.737 735.25 219.41C735.515 216.385 733.238 213.509 729.985 213.299ZM731.82 220.374C731.768 220.964 731.716 221.555 731.665 222.145C731.652 222.292 731.645 222.366 731.424 222.347C730.324 222.176 729.596 221.146 729.693 220.039C729.751 219.375 729.809 218.711 729.867 218.047C729.912 217.53 729.957 217.014 729.996 216.571C730.009 216.424 730.083 216.43 730.157 216.436C730.231 216.443 730.304 216.449 730.304 216.449C731.251 216.681 731.985 217.637 731.975 218.603C731.929 219.12 731.878 219.71 731.82 220.374ZM729.091 218.425C729.045 218.942 729.007 219.384 728.961 219.901C728.942 220.122 728.929 220.27 728.91 220.491C728.897 220.639 728.897 220.639 728.749 220.626C728.675 220.619 728.602 220.613 728.528 220.606C727.367 220.282 726.726 219.11 727.057 217.875C727.282 217.003 728.232 216.342 729.124 216.346C729.271 216.359 729.345 216.365 729.332 216.513C729.207 217.097 729.149 217.761 729.091 218.425Z" fill="#FEFEFE"/>
<path d="M731.817 220.372C731.869 219.781 731.921 219.191 731.972 218.601C732.056 217.641 731.328 216.611 730.302 216.447C730.228 216.441 730.154 216.434 730.154 216.434C730.007 216.421 730.007 216.421 729.994 216.569C729.949 217.085 729.903 217.602 729.865 218.045C729.807 218.709 729.748 219.373 729.69 220.037C729.593 221.144 730.401 222.107 731.422 222.344C731.569 222.357 731.643 222.364 731.662 222.142C731.714 221.552 731.766 220.962 731.817 220.372Z" fill="#4064AB"/>
<path d="M729.086 218.425C729.144 217.761 729.202 217.096 729.26 216.432C729.273 216.285 729.279 216.211 729.051 216.265C728.086 216.255 727.21 216.922 726.985 217.795C726.66 218.956 727.301 220.127 728.456 220.526C728.529 220.532 728.603 220.539 728.677 220.545C728.825 220.558 728.825 220.558 728.838 220.41C728.857 220.189 728.87 220.042 728.889 219.82C729.002 219.384 729.047 218.867 729.086 218.425Z" fill="#61BDEB"/>
<path d="M645.362 123.29C645.92 123.71 645.439 124.114 648.328 133.587C649.202 136.34 642.45 138.723 641.162 136.454C639.245 132.867 644.804 122.869 645.362 123.29Z" fill="#472A08"/>
<path d="M652.321 129.55C648.817 129.244 646.224 126.154 646.531 122.649C646.837 119.145 649.927 116.552 653.432 116.859C656.936 117.166 659.529 120.255 659.222 123.76C658.916 127.264 655.826 129.857 652.321 129.55Z" fill="white"/>
<path d="M635.245 130.137C631.74 129.831 629.148 126.741 629.455 123.236C629.761 119.732 632.851 117.139 636.355 117.446C639.86 117.752 642.453 120.842 642.146 124.347C641.839 127.851 638.75 130.444 635.245 130.137Z" fill="white"/>
<path d="M650.546 127.76C648.508 127.582 647.001 125.786 647.179 123.748C647.358 121.71 649.154 120.203 651.191 120.381C653.229 120.56 654.736 122.356 654.558 124.393C654.38 126.431 652.584 127.938 650.546 127.76Z" fill="#1D1D1B"/>
<path d="M633.597 128.58C631.559 128.402 630.052 126.606 630.23 124.568C630.408 122.531 632.205 121.023 634.242 121.202C636.28 121.38 637.787 123.176 637.609 125.214C637.431 127.251 635.634 128.759 633.597 128.58Z" fill="#1D1D1B"/>
<path d="M662.44 131.178C664.182 132.52 663.413 141.301 657.661 141.615C655.938 141.762 651.881 137.987 653.639 138.289C662.785 139.982 660.773 129.842 662.44 131.178Z" fill="black"/>
<path d="M721.055 144.486L720.332 152.751L696.491 146.501L721.055 144.486Z" fill="white"/>
<path d="M716.092 125.612L719.835 133.821L697.056 140.081L716.092 125.612Z" fill="white"/>
<path d="M710.043 119.952L702.711 115.37L693.922 135.94L710.043 119.952Z" fill="white"/>
<rect x="119" y="329.061" width="661.365" height="231.5" rx="115.75" transform="rotate(-9.5 119 329.061)" fill="#F57D39"/>
<rect x="119.576" y="329.471" width="660.365" height="230.5" rx="115.25" transform="rotate(-9.5 119.576 329.471)" stroke="white" stroke-opacity="0.2"/>
<path d="M257.5 439.5L692 340.5" stroke="white" stroke-opacity="0.31" stroke-width="8" stroke-dasharray="5 30"/>
<ellipse cx="375.963" cy="412.36" rx="12.6478" ry="15.8147" transform="rotate(-54 375.963 412.36)" fill="#1A5D4C"/>
<ellipse cx="376.727" cy="411.309" rx="12.6478" ry="15.8147" transform="rotate(-54 376.727 411.309)" fill="#FA8F12"/>
<ellipse cx="377.492" cy="410.258" rx="12.6478" ry="15.8147" transform="rotate(-54 377.492 410.258)" fill="#FAE312"/>
<g filter="url(#filter6_i_410_1227)">
<ellipse cx="377.516" cy="410.288" rx="11.6492" ry="14.5661" transform="rotate(-54 377.516 410.288)" fill="#FAE312"/>
<ellipse cx="377.516" cy="410.288" rx="11.6492" ry="14.5661" transform="rotate(-54 377.516 410.288)" fill="url(#paint3_linear_410_1227)"/>
</g>
<g filter="url(#filter7_i_410_1227)">
<path d="M383.954 414.984L371.386 406.141L372.044 405.409L384.613 414.252L383.954 414.984ZM377.306 406.86C376.84 406.6 376.348 406.54 375.831 406.682C375.316 406.82 374.838 407.134 374.396 407.625C374.085 407.97 373.876 408.306 373.768 408.634C373.661 408.961 373.646 409.259 373.725 409.528C373.803 409.797 373.967 410.022 374.217 410.202C374.426 410.35 374.647 410.435 374.878 410.457C375.112 410.476 375.352 410.447 375.596 410.372C375.837 410.294 376.077 410.188 376.315 410.054C376.553 409.92 376.781 409.777 376.999 409.624L378.006 408.933C378.405 408.651 378.823 408.403 379.26 408.191C379.7 407.975 380.148 407.822 380.605 407.73C381.064 407.636 381.523 407.628 381.981 407.708C382.439 407.787 382.885 407.98 383.321 408.286C383.91 408.7 384.305 409.202 384.507 409.791C384.706 410.378 384.699 411.019 384.485 411.714C384.27 412.403 383.833 413.114 383.175 413.845C382.535 414.556 381.858 415.088 381.144 415.441C380.434 415.791 379.713 415.95 378.983 415.917C378.256 415.882 377.548 415.641 376.859 415.195L378.325 413.567C378.697 413.789 379.076 413.896 379.464 413.887C379.852 413.878 380.227 413.776 380.591 413.58C380.957 413.381 381.296 413.109 381.606 412.764C381.93 412.404 382.155 412.047 382.281 411.694C382.406 411.335 382.432 411.003 382.359 410.699C382.282 410.392 382.101 410.136 381.816 409.931C381.551 409.749 381.272 409.667 380.979 409.684C380.682 409.699 380.365 409.79 380.029 409.956C379.691 410.117 379.329 410.329 378.943 410.591L377.713 411.423C376.822 412.026 375.964 412.394 375.139 412.527C374.312 412.655 373.539 412.466 372.819 411.959C372.227 411.542 371.839 411.032 371.657 410.427C371.477 409.819 371.491 409.176 371.701 408.498C371.908 407.818 372.299 407.158 372.874 406.518C373.458 405.87 374.094 405.389 374.782 405.077C375.469 404.759 376.158 404.614 376.848 404.643C377.535 404.67 378.166 404.878 378.74 405.267L377.306 406.86Z" fill="#FFCD1E"/>
</g>
<ellipse cx="470.258" cy="390.033" rx="12.6478" ry="15.8147" transform="rotate(-54 470.258 390.033)" fill="#1A5D4C"/>
<ellipse cx="471.022" cy="388.981" rx="12.6478" ry="15.8147" transform="rotate(-54 471.022 388.981)" fill="#FA8F12"/>
<ellipse cx="471.787" cy="387.931" rx="12.6478" ry="15.8147" transform="rotate(-54 471.787 387.931)" fill="#FAE312"/>
<g filter="url(#filter8_i_410_1227)">
<ellipse cx="471.811" cy="387.961" rx="11.6492" ry="14.5661" transform="rotate(-54 471.811 387.961)" fill="#FAE312"/>
<ellipse cx="471.811" cy="387.961" rx="11.6492" ry="14.5661" transform="rotate(-54 471.811 387.961)" fill="url(#paint4_linear_410_1227)"/>
</g>
<g filter="url(#filter9_i_410_1227)">
<path d="M478.249 392.657L465.68 383.814L466.339 383.082L478.908 391.925L478.249 392.657ZM471.601 384.533C471.135 384.273 470.643 384.213 470.126 384.355C469.611 384.493 469.133 384.807 468.691 385.298C468.38 385.643 468.171 385.979 468.063 386.307C467.956 386.634 467.941 386.932 468.02 387.201C468.098 387.47 468.262 387.695 468.512 387.875C468.721 388.023 468.941 388.107 469.173 388.129C469.407 388.148 469.647 388.12 469.891 388.044C470.132 387.966 470.372 387.861 470.61 387.727C470.848 387.593 471.076 387.45 471.294 387.297L472.301 386.606C472.7 386.323 473.118 386.076 473.555 385.864C473.995 385.648 474.443 385.495 474.9 385.403C475.359 385.309 475.818 385.301 476.276 385.38C476.734 385.46 477.18 385.652 477.615 385.959C478.205 386.373 478.6 386.875 478.802 387.464C479.001 388.051 478.993 388.692 478.78 389.387C478.565 390.076 478.128 390.787 477.47 391.518C476.83 392.229 476.153 392.761 475.439 393.114C474.728 393.464 474.008 393.623 473.278 393.59C472.551 393.555 471.843 393.314 471.154 392.868L472.62 391.24C472.992 391.462 473.371 391.569 473.759 391.56C474.147 391.551 474.522 391.449 474.886 391.253C475.252 391.054 475.591 390.782 475.901 390.437C476.225 390.077 476.45 389.72 476.576 389.367C476.701 389.008 476.727 388.676 476.654 388.372C476.577 388.065 476.396 387.809 476.111 387.603C475.846 387.422 475.567 387.34 475.274 387.357C474.977 387.372 474.66 387.462 474.323 387.629C473.986 387.79 473.624 388.001 473.238 388.264L472.008 389.096C471.117 389.699 470.259 390.067 469.434 390.2C468.607 390.328 467.834 390.139 467.114 389.632C466.522 389.215 466.134 388.705 465.951 388.1C465.771 387.492 465.786 386.849 465.996 386.171C466.203 385.49 466.594 384.83 467.169 384.191C467.753 383.543 468.389 383.062 469.077 382.749C469.764 382.431 470.453 382.287 471.143 382.316C471.83 382.343 472.461 382.551 473.035 382.94L471.601 384.533Z" fill="#FFCD1E"/>
</g>
<ellipse cx="564.553" cy="367.706" rx="12.6478" ry="15.8147" transform="rotate(-54 564.553 367.706)" fill="#1A5D4C"/>
<ellipse cx="565.316" cy="366.654" rx="12.6478" ry="15.8147" transform="rotate(-54 565.316 366.654)" fill="#FA8F12"/>
<ellipse cx="566.082" cy="365.603" rx="12.6478" ry="15.8147" transform="rotate(-54 566.082 365.603)" fill="#FAE312"/>
<g filter="url(#filter10_i_410_1227)">
<ellipse cx="566.106" cy="365.633" rx="11.6492" ry="14.5661" transform="rotate(-54 566.106 365.633)" fill="#FAE312"/>
<ellipse cx="566.106" cy="365.633" rx="11.6492" ry="14.5661" transform="rotate(-54 566.106 365.633)" fill="url(#paint5_linear_410_1227)"/>
</g>
<g filter="url(#filter11_i_410_1227)">
<path d="M572.544 370.33L559.975 361.487L560.634 360.755L573.203 369.598L572.544 370.33ZM565.896 362.206C565.43 361.946 564.938 361.886 564.421 362.027C563.906 362.166 563.428 362.48 562.986 362.971C562.675 363.316 562.466 363.652 562.358 363.979C562.251 364.307 562.236 364.605 562.315 364.874C562.393 365.143 562.557 365.368 562.806 365.548C563.016 365.696 563.236 365.78 563.468 365.802C563.702 365.821 563.941 365.793 564.186 365.717C564.427 365.639 564.667 365.533 564.905 365.4C565.143 365.266 565.371 365.123 565.589 364.97L566.596 364.279C566.995 363.996 567.413 363.749 567.85 363.536C568.29 363.321 568.738 363.168 569.195 363.076C569.654 362.982 570.113 362.974 570.571 363.053C571.028 363.132 571.475 363.325 571.91 363.632C572.5 364.046 572.895 364.548 573.097 365.137C573.296 365.724 573.288 366.365 573.074 367.059C572.86 367.749 572.423 368.46 571.765 369.191C571.125 369.902 570.448 370.434 569.734 370.787C569.023 371.137 568.303 371.296 567.573 371.263C566.846 371.228 566.138 370.987 565.449 370.541L566.915 368.912C567.286 369.135 567.666 369.242 568.054 369.233C568.442 369.224 568.817 369.121 569.181 368.925C569.547 368.726 569.886 368.455 570.196 368.11C570.52 367.75 570.745 367.393 570.871 367.039C570.996 366.681 571.022 366.349 570.949 366.045C570.872 365.738 570.691 365.482 570.405 365.276C570.141 365.095 569.862 365.013 569.569 365.03C569.272 365.045 568.955 365.135 568.618 365.301C568.281 365.462 567.919 365.674 567.533 365.937L566.302 366.769C565.412 367.372 564.554 367.74 563.729 367.873C562.902 368.001 562.129 367.812 561.409 367.305C560.817 366.888 560.429 366.377 560.246 365.773C560.066 365.165 560.081 364.522 560.291 363.844C560.497 363.163 560.889 362.503 561.464 361.864C562.048 361.215 562.684 360.735 563.372 360.422C564.059 360.104 564.748 359.96 565.438 359.989C566.125 360.015 566.756 360.224 567.33 360.613L565.896 362.206Z" fill="#FFCD1E"/>
</g>
<path d="M270.052 491.587C311.911 484.583 340.166 444.971 333.161 403.113C326.156 361.254 286.545 333 244.686 340.004C202.828 347.009 174.573 386.621 181.578 428.479C188.582 470.338 228.194 498.592 270.052 491.587Z" fill="#4429EB"/>
<path d="M230.942 421.441C230.942 421.441 221.118 432.184 217.425 416.516C217.425 416.516 208.554 425.646 202.165 418.534C195.403 411.025 200.967 406.348 201.921 405.194C201.982 405.107 201.958 404.959 201.809 404.984C200.036 405.357 195.201 405.707 192.99 398.431C190.704 391.167 197.087 388.646 197.087 388.646C197.087 388.646 179.307 387.034 184.913 370.269C188.983 358.042 203.666 363.537 203.666 363.537C203.666 363.537 201.563 352.343 209.434 349.114C221.382 344.209 226.932 356.355 226.932 356.355C226.932 356.355 221.081 338.296 239.749 334.713C252.27 332.312 252.366 347.511 252.366 347.511C252.366 347.511 270.037 334.309 279.604 347.618C287.087 358.064 274.521 366.589 274.521 366.589C274.521 366.589 297.965 365.954 297.805 386.473C297.713 397.345 287.457 392.257 287.457 392.257C287.457 392.257 291.898 396.407 289.075 401.926C286.772 406.44 281.564 405.477 281.564 405.477C281.564 405.477 286.745 421.813 265.701 415.318C244.658 408.823 258.712 400.508 258.712 400.508L253.398 389.775L244.096 384.45L234.762 385.783L232.535 392.578L219.06 395.215C219.06 395.215 219.202 403.831 220.518 406.211C222.678 410.437 230.942 421.441 230.942 421.441Z" fill="black"/>
<path d="M145.071 417.308L143.42 432.57L161.757 432.943L160.569 417.62L145.071 417.308Z" fill="#F8B706"/>
<path d="M241.551 434.116L271.438 427.662C274.612 427.895 288.685 429.746 290.793 431.381C302.416 440.523 310.007 446.134 310.007 446.134L295.967 456.818L288.688 453.983L299.105 477.396C287.75 479.908 279.896 488.715 271.23 488.56C254.964 488.223 241.554 475.71 236.515 467.99C234.976 465.648 234.275 454.602 234.275 454.602L222.659 456.01L214.873 437.357L241.551 434.116Z" fill="#0F9F4F"/>
<path d="M228.336 379.366C228.336 379.366 222.715 391.011 215.912 395.59C215.912 395.59 222.394 429.754 245.85 429.193C247.226 429.192 247.835 431.461 247.835 431.461L241.551 434.118C238.516 437.455 240.005 440.417 242.374 441.779C246.442 444.157 257.145 449.171 257.145 449.171C257.145 449.171 274.912 431.517 270.805 427.54L260.317 428.378L258.481 425.627C262.31 423.38 263.621 417.961 264.586 415.047C264.586 415.047 259.092 412.373 259.945 408.331C260.699 404.611 265.21 402.327 265.21 402.327C265.21 402.327 274.644 402.048 271.303 392.591C268.67 385.079 262.62 385.939 262.055 393.985L260.506 393.862C259.918 386.697 259.049 384.701 258.488 380.437C258.488 380.437 257.55 386.252 251.46 382.301C244.688 377.929 247.971 374.245 247.971 374.245C247.971 374.245 242.238 385.221 228.336 379.366Z" fill="#CDBF8D"/>
<path d="M157.927 436.107C181.272 454.986 221.29 451.96 221.29 451.96L215.864 439.64C187.474 441.332 167.344 427.497 167.344 427.497C167.344 427.497 163.469 417.135 156.616 421.876C149.763 426.616 161.093 424.414 161.093 424.414L161.818 432.857L154.379 432.725L157.927 436.107Z" fill="#CDBF8D"/>
<path d="M230.545 479.847L260.427 466.054L278.886 501.884L248.36 517.773L230.545 479.847Z" fill="#85D7FF"/>
<path d="M296.722 456.31L306.289 449.051C306.289 449.051 339.19 483.458 275.424 496.269C275.053 496.331 274.681 496.394 274.383 496.443C269.028 497.798 265.086 497.541 263.87 497.132C263.387 496.984 263.002 496.972 263.436 496.364C263.869 495.756 270.738 496.136 272.287 494.883C272.287 494.883 264.365 495.52 261.55 494.691C261.141 494.53 261.103 493.849 261.624 493.762C265.492 493.573 272.756 491.746 271.206 492.082C264.55 493.425 260.532 492.721 259.912 492.213C259.639 491.953 259.862 491.457 260.011 491.432C266.407 490.361 270.733 488.796 270.733 488.796C265.688 490.176 260.481 489.671 259.03 489.226C258.385 489.028 258.509 488.395 258.881 488.333C265.723 487.188 270.669 485.672 270.669 485.672L269.08 482.115C269.08 482.115 272.8 482.869 273.818 485.298C273.93 485.509 274.289 485.372 274.512 485.335C318.965 476.826 296.722 456.31 296.722 456.31Z" fill="#CDBF8D"/>
<path d="M225.884 405.848C229.294 405.277 231.595 402.051 231.024 398.641C230.454 395.232 227.227 392.931 223.818 393.501C220.408 394.072 218.107 397.298 218.678 400.708C219.248 404.117 222.475 406.418 225.884 405.848Z" fill="white"/>
<path d="M242.337 402.255C245.747 401.685 248.048 398.458 247.478 395.049C246.907 391.639 243.681 389.338 240.271 389.908C236.862 390.479 234.56 393.705 235.131 397.115C235.701 400.524 238.928 402.826 242.337 402.255Z" fill="white"/>
<path d="M224.396 404.721C226.368 404.391 227.699 402.525 227.369 400.553C227.039 398.581 225.173 397.25 223.201 397.58C221.229 397.91 219.898 399.776 220.228 401.748C220.558 403.72 222.424 405.051 224.396 404.721Z" fill="#1D1E1C"/>
<path d="M240.722 401.303C242.694 400.973 244.025 399.107 243.695 397.135C243.365 395.163 241.499 393.832 239.527 394.162C237.555 394.492 236.225 396.358 236.554 398.33C236.884 400.302 238.75 401.633 240.722 401.303Z" fill="#1D1E1C"/>
<path d="M232.403 399.1C233.469 399.075 232.973 398.852 241.692 404.81C244.285 406.593 233.217 412.192 230.204 411.09C225.566 409.42 231.336 399.126 232.403 399.1Z" fill="#2E98D4"/>
<path d="M250.65 416.769C248.854 418.828 242.869 423.729 240.695 417.594C239.664 414.632 245.403 412.83 245.403 412.83C245.561 408.292 252.082 407.507 252.082 407.507C252.082 407.507 255.197 411.497 250.65 416.769Z" fill="#EE774D"/>
<path d="M246.749 387.063L256.831 391.569L262.323 391.95C267.574 383.119 270.829 392.515 270.829 392.515C267.432 392.319 278.875 393.08 281.033 393.178C281.033 393.178 286.957 391.116 282.156 386.185L257.396 383.982L246.749 387.063Z" fill="#F8B706"/>
<path d="M256.832 391.572C256.832 391.572 257.836 391.174 258.12 389.674C258.243 388.583 256.978 388.336 256.978 388.336C256.978 388.336 258.64 388.211 258.565 387.306C258.477 386.326 257.064 386.104 257.064 386.104C257.064 386.104 258.551 385.855 258.625 384.925C258.699 383.995 257.459 383.897 257.459 383.897L246.737 386.991L256.832 391.572Z" fill="#FFD460"/>
<path d="M246.749 387.065L249.403 388.303L249.377 386.32L246.749 387.065Z" fill="black"/>
<path d="M256.92 388.419L264.532 389.133C264.532 389.133 267.209 387.309 269.12 389.588L283.8 390.955C283.8 390.955 284.506 390.149 284.009 389.008C283.512 387.868 257.079 386.175 257.079 386.175C257.079 386.175 258.58 386.917 258.58 387.376C258.506 387.847 256.92 388.419 256.92 388.419Z" fill="black"/>
<path d="M281.85 386.162L281.049 393.254C281.049 393.254 284.149 393.958 284.555 390.45C285.036 386.011 281.85 386.162 281.85 386.162Z" fill="#EE774D"/>
<path d="M671.51 413.48C704.738 407.919 727.166 376.476 721.606 343.248C716.045 310.021 684.602 287.592 651.374 293.153C618.147 298.713 595.718 330.157 601.279 363.384C606.839 396.611 638.283 419.04 671.51 413.48Z" fill="#90FA6B"/>
<path d="M658.509 363.49L672.437 360.09L676.228 368.189C676.228 368.189 715.117 366.256 696.211 314.701L705.92 313.077C705.92 313.077 725.65 357.483 695.46 374.12L703.211 397.717C703.211 397.717 685.991 418.363 649.467 413.127L650.832 393.59L651.76 383.869C651.76 383.869 599.98 382.969 610.292 330.98L622.199 331.127C622.199 331.127 612.849 367.21 653.611 372.212L659.256 371.505L658.509 363.49Z" fill="#FF5216"/>
<path d="M635.741 339.615L636.969 346.955C636.969 346.955 633.124 344.925 631.19 347.922C629.256 350.92 633.241 361.244 641.561 356.643C641.561 356.643 652.753 367.425 665.409 365.307C681.072 362.686 684.096 347.743 684.317 345.864C684.317 345.864 693.083 346.061 688.674 336.402C686.523 331.711 682.037 336.859 682.037 336.859L673.753 322.501L637.847 334.45L635.741 339.615Z" fill="#F4D3BA"/>
<path d="M634.645 344.432L636.485 344.065L636.978 347.012L637.284 343.871L680.677 334.768L682.046 336.916L681.361 334.594L682.102 334.411C682.102 334.411 678.608 309.626 653.382 315.095C628.031 320.526 634.645 344.432 634.645 344.432Z" fill="white"/>
<path d="M652.181 349.816C655.053 349.335 656.992 346.616 656.512 343.744C656.031 340.871 653.312 338.932 650.44 339.413C647.567 339.894 645.628 342.612 646.109 345.485C646.589 348.357 649.308 350.296 652.181 349.816Z" fill="white"/>
<path d="M669.741 345.748C672.614 345.268 674.553 342.549 674.072 339.676C673.591 336.804 670.873 334.865 668 335.345C665.128 335.826 663.189 338.545 663.669 341.417C664.15 344.29 666.868 346.229 669.741 345.748Z" fill="white"/>
<path d="M650.976 346.155C652.636 345.877 653.756 344.307 653.478 342.647C653.201 340.987 651.63 339.867 649.97 340.145C648.31 340.422 647.19 341.993 647.468 343.653C647.746 345.313 649.316 346.433 650.976 346.155Z" fill="#1D1E1C"/>
<path d="M668.495 342.213C670.155 341.935 671.276 340.364 670.998 338.705C670.72 337.045 669.149 335.924 667.49 336.202C665.83 336.48 664.71 338.051 664.987 339.71C665.265 341.37 666.836 342.49 668.495 342.213Z" fill="#1D1E1C"/>
<path d="M651.866 352.185C656.143 351.469 659.03 347.422 658.314 343.145C657.598 338.868 653.551 335.98 649.274 336.696C644.997 337.412 642.11 341.459 642.825 345.737C643.541 350.014 647.589 352.901 651.866 352.185Z" stroke="#E95426" stroke-width="1.17195" stroke-miterlimit="0"/>
<path d="M670.457 348.243C674.734 347.527 677.622 343.479 676.906 339.202C676.19 334.925 672.143 332.038 667.865 332.754C663.588 333.47 660.701 337.517 661.417 341.794C662.133 346.071 666.18 348.958 670.457 348.243Z" stroke="#E95426" stroke-width="1.17195" stroke-miterlimit="0"/>
<path d="M659.788 341.294C660.443 341.303 662.034 343.71 663.984 349.682C664.592 351.54 662.28 350.858 659.968 351.245C656.895 351.7 659.133 341.285 659.788 341.294Z" fill="#2E98D4"/>
<path d="M658.314 343.145L661.57 342.363" stroke="#E95426" stroke-width="1.17195" stroke-miterlimit="0"/>
<path d="M669.574 353.975C669.574 353.975 668.32 352.521 666.53 354.246C665.461 355.316 664.836 356.193 664.836 356.193C664.836 356.193 669.895 359.09 672.639 356.67C674.709 354.838 673.281 351.631 673.281 351.631C673.281 351.631 669.976 351.056 669.574 353.975Z" fill="#E95426"/>
<path d="M664.884 356.126C664.498 355.953 671.039 355.987 673.329 351.564C673.329 351.564 673.967 355.378 670.674 356.643C667.881 357.704 664.884 356.126 664.884 356.126Z" fill="#1D1E1C"/>
<path d="M638.025 355.392L638.012 364.9L644.484 362.748L638.025 355.392Z" fill="#2E98D4"/>
<path d="M685.933 342.741L685.005 352.106L690.456 350.243L685.933 342.741Z" fill="#2E98D4"/>
<path d="M612.017 330.989L619.945 331.504L620.55 328.729C620.55 328.729 626.637 326.76 626.681 320.277C626.718 318.013 626.978 316.722 626.698 316.472C625.859 315.721 622.559 322.274 622.559 322.274C622.559 322.274 623.832 309.287 622.445 308.806C620.421 308.075 619.282 318.663 619.282 318.663C619.282 318.663 619.525 306.978 617.8 306.969C616.432 306.961 615.111 318.945 615.111 318.945C615.111 318.945 615.171 307.588 613.523 306.972C612.058 306.385 611.325 319.757 611.325 319.757C611.325 319.757 610.647 313.216 608.46 312.929C606.273 312.641 610.009 324.671 612.149 327.165L612.017 330.989Z" fill="#F4D3BA"/>
<path d="M704.756 313.212L698.004 314.401L697.503 313.534C697.503 313.534 691.337 313.616 689.243 307.49C688.529 305.352 687.805 304.225 687.988 303.898C688.537 302.915 693.617 308.065 693.617 308.065C693.617 308.065 688.301 296.181 689.399 295.285C691.016 293.944 695.425 303.604 695.425 303.604C695.425 303.604 691.449 292.624 693.019 292.065C694.251 291.621 699.287 302.542 699.287 302.542C699.287 302.542 695.591 291.812 696.89 290.704C698.027 289.682 702.957 302.106 702.957 302.106C702.957 302.106 701.47 295.7 703.386 294.726C705.302 293.752 705.744 306.333 704.59 309.378L704.756 313.212Z" fill="#F4D3BA"/>
<path d="M667.646 279.972C668.681 286.156 666.508 292.699 661.116 296.69C660.375 297.23 659.764 306.363 659.908 305.448L648.734 305.773C647.964 306.496 646.177 300.082 645.175 299.774C638.324 297.534 634.46 295.388 632.854 285.794C631.249 276.201 637.746 267.093 647.339 265.487C656.933 263.882 666.031 270.321 667.646 279.972Z" fill="#FFD460"/>
<path d="M649.889 305.936C649.762 303.759 648.523 278.954 642.233 279.709C635.942 280.465 652.21 304.181 652.21 304.181C652.21 304.181 655.564 277.716 648.416 278.675C643.475 279.323 655.205 303.977 655.205 303.977C655.205 303.977 662.048 279.186 655.525 277.485C649.002 275.784 658.145 305.565 658.145 305.565" stroke="#1D1D1B" stroke-width="0.292988" stroke-miterlimit="10"/>
<path d="M648.416 305.648L650.202 311.707L659.286 310.959L659.851 305.458L648.416 305.648Z" fill="#CECDCE"/>
<path d="M679.124 313.358C680.632 309.326 678.069 304.643 673.401 302.898C668.733 301.152 663.727 303.006 662.22 307.037C660.712 311.069 663.274 315.752 667.943 317.497C672.611 319.243 677.617 317.389 679.124 313.358Z" fill="white"/>
<defs>
<filter id="filter0_i_410_1227" x="266.236" y="115.774" width="32.5293" height="35.7115" filterUnits="userSpaceOnUse" color-interpolation-filters="sRGB">
<feFlood flood-opacity="0" result="BackgroundImageFix"/>
<feBlend mode="normal" in="SourceGraphic" in2="BackgroundImageFix" result="shape"/>
<feColorMatrix in="SourceAlpha" type="matrix" values="0 0 0 0 0 0 0 0 0 0 0 0 0 0 0 0 0 0 127 0" result="hardAlpha"/>
<feOffset dy="0.125575"/>
<feGaussianBlur stdDeviation="0.0627877"/>
<feComposite in2="hardAlpha" operator="arithmetic" k2="-1" k3="1"/>
<feColorMatrix type="matrix" values="0 0 0 0 0 0 0 0 0 0 0 0 0 0 0 0 0 0 0.25 0"/>
<feBlend mode="normal" in2="shape" result="effect1_innerShadow_410_1227"/>
</filter>
<filter id="filter1_i_410_1227" x="275.357" y="125.147" width="15.9989" height="17.2548" filterUnits="userSpaceOnUse" color-interpolation-filters="sRGB">
<feFlood flood-opacity="0" result="BackgroundImageFix"/>
<feBlend mode="normal" in="SourceGraphic" in2="BackgroundImageFix" result="shape"/>
<feColorMatrix in="SourceAlpha" type="matrix" values="0 0 0 0 0 0 0 0 0 0 0 0 0 0 0 0 0 0 127 0" result="hardAlpha"/>
<feOffset dx="0.188363" dy="0.188363"/>
<feGaussianBlur stdDeviation="0.172666"/>
<feComposite in2="hardAlpha" operator="arithmetic" k2="-1" k3="1"/>
<feColorMatrix type="matrix" values="0 0 0 0 0 0 0 0 0 0 0 0 0 0 0 0 0 0 0.25 0"/>
<feBlend mode="normal" in2="shape" result="effect1_innerShadow_410_1227"/>
</filter>
<filter id="filter2_i_410_1227" x="390.34" y="132.507" width="32.5293" height="35.7115" filterUnits="userSpaceOnUse" color-interpolation-filters="sRGB">
<feFlood flood-opacity="0" result="BackgroundImageFix"/>
<feBlend mode="normal" in="SourceGraphic" in2="BackgroundImageFix" result="shape"/>
<feColorMatrix in="SourceAlpha" type="matrix" values="0 0 0 0 0 0 0 0 0 0 0 0 0 0 0 0 0 0 127 0" result="hardAlpha"/>
<feOffset dy="0.125575"/>
<feGaussianBlur stdDeviation="0.0627877"/>
<feComposite in2="hardAlpha" operator="arithmetic" k2="-1" k3="1"/>
<feColorMatrix type="matrix" values="0 0 0 0 0 0 0 0 0 0 0 0 0 0 0 0 0 0 0.25 0"/>
<feBlend mode="normal" in2="shape" result="effect1_innerShadow_410_1227"/>
</filter>
<filter id="filter3_i_410_1227" x="399.461" y="141.88" width="15.9989" height="17.2548" filterUnits="userSpaceOnUse" color-interpolation-filters="sRGB">
<feFlood flood-opacity="0" result="BackgroundImageFix"/>
<feBlend mode="normal" in="SourceGraphic" in2="BackgroundImageFix" result="shape"/>
<feColorMatrix in="SourceAlpha" type="matrix" values="0 0 0 0 0 0 0 0 0 0 0 0 0 0 0 0 0 0 127 0" result="hardAlpha"/>
<feOffset dx="0.188363" dy="0.188363"/>
<feGaussianBlur stdDeviation="0.172666"/>
<feComposite in2="hardAlpha" operator="arithmetic" k2="-1" k3="1"/>
<feColorMatrix type="matrix" values="0 0 0 0 0 0 0 0 0 0 0 0 0 0 0 0 0 0 0.25 0"/>
<feBlend mode="normal" in2="shape" result="effect1_innerShadow_410_1227"/>
</filter>
<filter id="filter4_i_410_1227" x="514.443" y="149.239" width="32.5293" height="35.7115" filterUnits="userSpaceOnUse" color-interpolation-filters="sRGB">
<feFlood flood-opacity="0" result="BackgroundImageFix"/>
<feBlend mode="normal" in="SourceGraphic" in2="BackgroundImageFix" result="shape"/>
<feColorMatrix in="SourceAlpha" type="matrix" values="0 0 0 0 0 0 0 0 0 0 0 0 0 0 0 0 0 0 127 0" result="hardAlpha"/>
<feOffset dy="0.125575"/>
<feGaussianBlur stdDeviation="0.0627877"/>
<feComposite in2="hardAlpha" operator="arithmetic" k2="-1" k3="1"/>
<feColorMatrix type="matrix" values="0 0 0 0 0 0 0 0 0 0 0 0 0 0 0 0 0 0 0.25 0"/>
<feBlend mode="normal" in2="shape" result="effect1_innerShadow_410_1227"/>
</filter>
<filter id="filter5_i_410_1227" x="523.564" y="158.612" width="15.9989" height="17.2548" filterUnits="userSpaceOnUse" color-interpolation-filters="sRGB">
<feFlood flood-opacity="0" result="BackgroundImageFix"/>
<feBlend mode="normal" in="SourceGraphic" in2="BackgroundImageFix" result="shape"/>
<feColorMatrix in="SourceAlpha" type="matrix" values="0 0 0 0 0 0 0 0 0 0 0 0 0 0 0 0 0 0 127 0" result="hardAlpha"/>
<feOffset dx="0.188363" dy="0.188363"/>
<feGaussianBlur stdDeviation="0.172666"/>
<feComposite in2="hardAlpha" operator="arithmetic" k2="-1" k3="1"/>
<feColorMatrix type="matrix" values="0 0 0 0 0 0 0 0 0 0 0 0 0 0 0 0 0 0 0.25 0"/>
<feBlend mode="normal" in2="shape" result="effect1_innerShadow_410_1227"/>
</filter>
<filter id="filter6_i_410_1227" x="363.885" y="397.555" width="27.2637" height="25.563" filterUnits="userSpaceOnUse" color-interpolation-filters="sRGB">
<feFlood flood-opacity="0" result="BackgroundImageFix"/>
<feBlend mode="normal" in="SourceGraphic" in2="BackgroundImageFix" result="shape"/>
<feColorMatrix in="SourceAlpha" type="matrix" values="0 0 0 0 0 0 0 0 0 0 0 0 0 0 0 0 0 0 127 0" result="hardAlpha"/>
<feOffset dy="0.0971718"/>
<feGaussianBlur stdDeviation="0.0485859"/>
<feComposite in2="hardAlpha" operator="arithmetic" k2="-1" k3="1"/>
<feColorMatrix type="matrix" values="0 0 0 0 0 0 0 0 0 0 0 0 0 0 0 0 0 0 0.25 0"/>
<feBlend mode="normal" in2="shape" result="effect1_innerShadow_410_1227"/>
</filter>
<filter id="filter7_i_410_1227" x="371.385" y="404.64" width="13.4114" height="11.428" filterUnits="userSpaceOnUse" color-interpolation-filters="sRGB">
<feFlood flood-opacity="0" result="BackgroundImageFix"/>
<feBlend mode="normal" in="SourceGraphic" in2="BackgroundImageFix" result="shape"/>
<feColorMatrix in="SourceAlpha" type="matrix" values="0 0 0 0 0 0 0 0 0 0 0 0 0 0 0 0 0 0 127 0" result="hardAlpha"/>
<feOffset dx="0.145758" dy="0.145758"/>
<feGaussianBlur stdDeviation="0.133611"/>
<feComposite in2="hardAlpha" operator="arithmetic" k2="-1" k3="1"/>
<feColorMatrix type="matrix" values="0 0 0 0 0 0 0 0 0 0 0 0 0 0 0 0 0 0 0.25 0"/>
<feBlend mode="normal" in2="shape" result="effect1_innerShadow_410_1227"/>
</filter>
<filter id="filter8_i_410_1227" x="458.18" y="375.228" width="27.2637" height="25.563" filterUnits="userSpaceOnUse" color-interpolation-filters="sRGB">
<feFlood flood-opacity="0" result="BackgroundImageFix"/>
<feBlend mode="normal" in="SourceGraphic" in2="BackgroundImageFix" result="shape"/>
<feColorMatrix in="SourceAlpha" type="matrix" values="0 0 0 0 0 0 0 0 0 0 0 0 0 0 0 0 0 0 127 0" result="hardAlpha"/>
<feOffset dy="0.0971718"/>
<feGaussianBlur stdDeviation="0.0485859"/>
<feComposite in2="hardAlpha" operator="arithmetic" k2="-1" k3="1"/>
<feColorMatrix type="matrix" values="0 0 0 0 0 0 0 0 0 0 0 0 0 0 0 0 0 0 0.25 0"/>
<feBlend mode="normal" in2="shape" result="effect1_innerShadow_410_1227"/>
</filter>
<filter id="filter9_i_410_1227" x="465.68" y="382.312" width="13.4114" height="11.428" filterUnits="userSpaceOnUse" color-interpolation-filters="sRGB">
<feFlood flood-opacity="0" result="BackgroundImageFix"/>
<feBlend mode="normal" in="SourceGraphic" in2="BackgroundImageFix" result="shape"/>
<feColorMatrix in="SourceAlpha" type="matrix" values="0 0 0 0 0 0 0 0 0 0 0 0 0 0 0 0 0 0 127 0" result="hardAlpha"/>
<feOffset dx="0.145758" dy="0.145758"/>
<feGaussianBlur stdDeviation="0.133611"/>
<feComposite in2="hardAlpha" operator="arithmetic" k2="-1" k3="1"/>
<feColorMatrix type="matrix" values="0 0 0 0 0 0 0 0 0 0 0 0 0 0 0 0 0 0 0.25 0"/>
<feBlend mode="normal" in2="shape" result="effect1_innerShadow_410_1227"/>
</filter>
<filter id="filter10_i_410_1227" x="552.475" y="352.9" width="27.2637" height="25.563" filterUnits="userSpaceOnUse" color-interpolation-filters="sRGB">
<feFlood flood-opacity="0" result="BackgroundImageFix"/>
<feBlend mode="normal" in="SourceGraphic" in2="BackgroundImageFix" result="shape"/>
<feColorMatrix in="SourceAlpha" type="matrix" values="0 0 0 0 0 0 0 0 0 0 0 0 0 0 0 0 0 0 127 0" result="hardAlpha"/>
<feOffset dy="0.0971718"/>
<feGaussianBlur stdDeviation="0.0485859"/>
<feComposite in2="hardAlpha" operator="arithmetic" k2="-1" k3="1"/>
<feColorMatrix type="matrix" values="0 0 0 0 0 0 0 0 0 0 0 0 0 0 0 0 0 0 0.25 0"/>
<feBlend mode="normal" in2="shape" result="effect1_innerShadow_410_1227"/>
</filter>
<filter id="filter11_i_410_1227" x="559.975" y="359.985" width="13.4114" height="11.428" filterUnits="userSpaceOnUse" color-interpolation-filters="sRGB">
<feFlood flood-opacity="0" result="BackgroundImageFix"/>
<feBlend mode="normal" in="SourceGraphic" in2="BackgroundImageFix" result="shape"/>
<feColorMatrix in="SourceAlpha" type="matrix" values="0 0 0 0 0 0 0 0 0 0 0 0 0 0 0 0 0 0 127 0" result="hardAlpha"/>
<feOffset dx="0.145758" dy="0.145758"/>
<feGaussianBlur stdDeviation="0.133611"/>
<feComposite in2="hardAlpha" operator="arithmetic" k2="-1" k3="1"/>
<feColorMatrix type="matrix" values="0 0 0 0 0 0 0 0 0 0 0 0 0 0 0 0 0 0 0.25 0"/>
<feBlend mode="normal" in2="shape" result="effect1_innerShadow_410_1227"/>
</filter>
<linearGradient id="paint0_linear_410_1227" x1="282.501" y1="114.743" x2="282.501" y2="152.391" gradientUnits="userSpaceOnUse">
<stop stop-color="#FFE924"/>
<stop offset="1" stop-color="#F0D805"/>
</linearGradient>
<linearGradient id="paint1_linear_410_1227" x1="406.604" y1="131.476" x2="406.604" y2="169.123" gradientUnits="userSpaceOnUse">
<stop stop-color="#FFE924"/>
<stop offset="1" stop-color="#F0D805"/>
</linearGradient>
<linearGradient id="paint2_linear_410_1227" x1="530.707" y1="148.208" x2="530.707" y2="185.856" gradientUnits="userSpaceOnUse">
<stop stop-color="#FFE924"/>
<stop offset="1" stop-color="#F0D805"/>
</linearGradient>
<linearGradient id="paint3_linear_410_1227" x1="377.516" y1="395.721" x2="377.516" y2="424.853" gradientUnits="userSpaceOnUse">
<stop stop-color="#FFE924"/>
<stop offset="1" stop-color="#F0D805"/>
</linearGradient>
<linearGradient id="paint4_linear_410_1227" x1="471.811" y1="373.394" x2="471.811" y2="402.526" gradientUnits="userSpaceOnUse">
<stop stop-color="#FFE924"/>
<stop offset="1" stop-color="#F0D805"/>
</linearGradient>
<linearGradient id="paint5_linear_410_1227" x1="566.105" y1="351.067" x2="566.105" y2="380.199" gradientUnits="userSpaceOnUse">
<stop stop-color="#FFE924"/>
<stop offset="1" stop-color="#F0D805"/>
</linearGradient>
</defs>
</svg>
