<svg width="863" height="683" viewBox="0 0 863 683" fill="none" xmlns="http://www.w3.org/2000/svg">
<rect x="51.1758" y="91" width="805.477" height="231.5" rx="115.75" transform="rotate(5 51.1758 91)" fill="#FF93F4"/>
<rect x="51.6303" y="91.5417" width="804.477" height="230.5" rx="115.25" transform="rotate(5 51.6303 91.5417)" stroke="white" stroke-opacity="0.2"/>
<path d="M200.5 219.5L678.5 266" stroke="white" stroke-opacity="0.4" stroke-width="8"/>
<ellipse cx="310.667" cy="226.349" rx="16.3448" ry="20.4374" transform="rotate(-33 310.667 226.349)" fill="#1A5D4C"/>
<ellipse cx="312.075" cy="225.434" rx="16.3448" ry="20.4374" transform="rotate(-33 312.075 225.434)" fill="#FA8F12"/>
<ellipse cx="313.485" cy="224.519" rx="16.3448" ry="20.4374" transform="rotate(-33 313.485 224.519)" fill="#FAE312"/>
<g filter="url(#filter0_i_431_2743)">
<ellipse cx="313.501" cy="224.567" rx="15.0543" ry="18.8238" transform="rotate(-33 313.501 224.567)" fill="#FAE312"/>
<ellipse cx="313.501" cy="224.567" rx="15.0543" ry="18.8238" transform="rotate(-33 313.501 224.567)" fill="url(#paint0_linear_431_2743)"/>
</g>
<g filter="url(#filter1_i_431_2743)">
<path d="M319.093 233.214L308.025 216.725L309.159 216.147L320.227 232.637L319.093 233.214ZM314.835 220.334C314.393 219.804 313.827 219.505 313.138 219.436C312.453 219.364 311.73 219.522 310.97 219.909C310.435 220.182 310.027 220.49 309.746 220.836C309.464 221.181 309.308 221.534 309.278 221.895C309.249 222.256 309.342 222.603 309.56 222.936C309.744 223.211 309.971 223.415 310.24 223.549C310.514 223.68 310.816 223.757 311.146 223.779C311.473 223.796 311.811 223.78 312.16 223.729C312.509 223.677 312.851 223.61 313.184 223.527L314.719 223.16C315.331 223.003 315.95 222.898 316.576 222.844C317.206 222.788 317.818 222.811 318.412 222.912C319.01 223.011 319.567 223.214 320.082 223.521C320.598 223.829 321.048 224.269 321.431 224.84C321.95 225.613 322.195 226.401 322.166 227.206C322.134 228.006 321.828 228.775 321.248 229.514C320.67 230.247 319.814 230.902 318.68 231.48C317.579 232.041 316.516 232.369 315.492 232.465C314.472 232.558 313.529 232.416 312.664 232.038C311.803 231.659 311.06 231.04 310.435 230.183L312.958 228.897C313.304 229.338 313.712 229.643 314.184 229.811C314.656 229.98 315.157 230.031 315.686 229.962C316.22 229.892 316.754 229.721 317.289 229.448C317.847 229.164 318.283 228.838 318.599 228.47C318.916 228.095 319.101 227.707 319.153 227.306C319.202 226.9 319.103 226.507 318.854 226.127C318.618 225.786 318.32 225.558 317.958 225.442C317.593 225.323 317.169 225.285 316.686 225.33C316.204 225.368 315.67 225.456 315.082 225.594L313.212 226.028C311.859 226.343 310.653 226.389 309.596 226.168C308.539 225.939 307.694 225.353 307.06 224.408C306.538 223.631 306.307 222.835 306.367 222.021C306.431 221.205 306.747 220.436 307.314 219.715C307.878 218.989 308.656 218.374 309.647 217.869C310.651 217.357 311.641 217.072 312.616 217.013C313.592 216.948 314.49 217.093 315.31 217.447C316.126 217.798 316.791 218.341 317.303 219.077L314.835 220.334Z" fill="#FFCD1E"/>
</g>
<ellipse cx="434.771" cy="243.081" rx="16.3448" ry="20.4374" transform="rotate(-33 434.771 243.081)" fill="#1A5D4C"/>
<ellipse cx="436.179" cy="242.166" rx="16.3448" ry="20.4374" transform="rotate(-33 436.179 242.166)" fill="#FA8F12"/>
<ellipse cx="437.589" cy="241.252" rx="16.3448" ry="20.4374" transform="rotate(-33 437.589 241.252)" fill="#FAE312"/>
<g filter="url(#filter2_i_431_2743)">
<ellipse cx="437.604" cy="241.3" rx="15.0543" ry="18.8238" transform="rotate(-33 437.604 241.3)" fill="#FAE312"/>
<ellipse cx="437.604" cy="241.3" rx="15.0543" ry="18.8238" transform="rotate(-33 437.604 241.3)" fill="url(#paint1_linear_431_2743)"/>
</g>
<g filter="url(#filter3_i_431_2743)">
<path d="M443.197 249.947L432.129 233.457L433.262 232.879L444.33 249.369L443.197 249.947ZM438.939 237.067C438.497 236.537 437.931 236.237 437.241 236.168C436.556 236.096 435.834 236.254 435.073 236.642C434.539 236.914 434.131 237.223 433.849 237.568C433.567 237.913 433.412 238.266 433.382 238.627C433.352 238.988 433.446 239.335 433.663 239.668C433.848 239.943 434.074 240.147 434.344 240.281C434.617 240.412 434.919 240.489 435.249 240.511C435.577 240.529 435.915 240.512 436.264 240.461C436.613 240.41 436.954 240.343 437.288 240.259L438.823 239.892C439.435 239.736 440.054 239.631 440.68 239.577C441.31 239.521 441.922 239.543 442.515 239.644C443.113 239.743 443.67 239.946 444.186 240.254C444.702 240.562 445.151 241.001 445.534 241.572C446.053 242.345 446.298 243.134 446.269 243.938C446.237 244.738 445.931 245.508 445.351 246.247C444.773 246.979 443.917 247.634 442.784 248.212C441.682 248.773 440.62 249.101 439.595 249.197C438.576 249.29 437.633 249.148 436.767 248.771C435.907 248.391 435.164 247.773 434.539 246.915L437.062 245.63C437.407 246.071 437.816 246.375 438.288 246.544C438.759 246.713 439.26 246.763 439.79 246.695C440.324 246.624 440.858 246.453 441.392 246.181C441.95 245.897 442.387 245.57 442.702 245.202C443.019 244.827 443.204 244.439 443.257 244.038C443.306 243.633 443.206 243.24 442.957 242.859C442.722 242.518 442.423 242.29 442.062 242.175C441.697 242.055 441.273 242.018 440.789 242.062C440.308 242.1 439.773 242.188 439.186 242.326L437.316 242.76C435.962 243.075 434.757 243.122 433.699 242.9C432.643 242.672 431.798 242.085 431.164 241.141C430.642 240.363 430.411 239.568 430.471 238.754C430.535 237.937 430.85 237.168 431.418 236.447C431.982 235.722 432.76 235.106 433.75 234.602C434.755 234.09 435.745 233.804 436.719 233.746C437.696 233.68 438.594 233.825 439.413 234.18C440.23 234.53 440.894 235.073 441.407 235.809L438.939 237.067Z" fill="#FFCD1E"/>
</g>
<ellipse cx="558.874" cy="259.813" rx="16.3448" ry="20.4374" transform="rotate(-33 558.874 259.813)" fill="#1A5D4C"/>
<ellipse cx="560.282" cy="258.898" rx="16.3448" ry="20.4374" transform="rotate(-33 560.282 258.898)" fill="#FA8F12"/>
<ellipse cx="561.692" cy="257.984" rx="16.3448" ry="20.4374" transform="rotate(-33 561.692 257.984)" fill="#FAE312"/>
<g filter="url(#filter4_i_431_2743)">
<ellipse cx="561.708" cy="258.032" rx="15.0543" ry="18.8238" transform="rotate(-33 561.708 258.032)" fill="#FAE312"/>
<ellipse cx="561.708" cy="258.032" rx="15.0543" ry="18.8238" transform="rotate(-33 561.708 258.032)" fill="url(#paint2_linear_431_2743)"/>
</g>
<g filter="url(#filter5_i_431_2743)">
<path d="M567.3 266.679L556.232 250.189L557.366 249.612L568.434 266.101L567.3 266.679ZM563.042 253.799C562.6 253.269 562.035 252.97 561.345 252.901C560.66 252.829 559.937 252.987 559.177 253.374C558.642 253.647 558.234 253.955 557.953 254.301C557.671 254.646 557.515 254.999 557.485 255.36C557.456 255.721 557.549 256.068 557.767 256.401C557.951 256.675 558.178 256.88 558.447 257.013C558.721 257.145 559.023 257.222 559.353 257.243C559.68 257.261 560.018 257.244 560.367 257.193C560.717 257.142 561.058 257.075 561.391 256.991L562.926 256.624C563.538 256.468 564.157 256.363 564.783 256.309C565.413 256.253 566.025 256.276 566.619 256.377C567.217 256.475 567.774 256.679 568.289 256.986C568.805 257.294 569.255 257.733 569.638 258.305C570.157 259.077 570.402 259.866 570.373 260.67C570.341 261.47 570.035 262.24 569.455 262.979C568.877 263.712 568.021 264.367 566.887 264.944C565.786 265.506 564.723 265.834 563.699 265.929C562.679 266.023 561.736 265.88 560.871 265.503C560.01 265.123 559.267 264.505 558.642 263.648L561.165 262.362C561.511 262.803 561.919 263.108 562.391 263.276C562.863 263.445 563.364 263.495 563.893 263.427C564.427 263.357 564.961 263.186 565.496 262.913C566.054 262.629 566.49 262.303 566.806 261.935C567.123 261.56 567.308 261.172 567.36 260.77C567.409 260.365 567.31 259.972 567.061 259.592C566.825 259.251 566.527 259.022 566.165 258.907C565.8 258.788 565.376 258.75 564.893 258.795C564.411 258.833 563.877 258.921 563.289 259.059L561.419 259.493C560.066 259.808 558.86 259.854 557.803 259.633C556.746 259.404 555.901 258.818 555.267 257.873C554.746 257.096 554.514 256.3 554.574 255.486C554.638 254.67 554.954 253.901 555.521 253.18C556.086 252.454 556.863 251.839 557.854 251.334C558.858 250.822 559.848 250.537 560.823 250.478C561.799 250.413 562.697 250.558 563.517 250.912C564.333 251.263 564.998 251.806 565.51 252.542L563.042 253.799Z" fill="#FFCD1E"/>
</g>
<path d="M153.174 289.331C196.031 293.081 233.813 261.378 237.563 218.521C241.312 175.664 209.609 137.881 166.752 134.132C123.895 130.382 86.1128 162.085 82.3633 204.942C78.6137 247.8 110.317 285.582 153.174 289.331Z" fill="#8A30FE"/>
<path d="M161.566 217.734C161.566 217.734 117.658 211.38 106.579 218.786C95.4999 226.192 89.7528 240.536 87.5749 252.375L118.015 256.028L116.116 262.943C116.116 262.943 140.021 309.956 198.556 279.673C202.539 277.661 204.796 252.733 202.81 250.199C202.81 250.199 224.949 246.045 225.817 238.735C226.744 230.746 210.783 207.802 210.783 207.802C210.783 207.802 201.891 216.313 195.806 217.989C186.984 220.491 161.566 217.734 161.566 217.734Z" fill="#F8B700"/>
<path d="M182.252 278.093L206.733 280.235C206.733 280.235 207.545 304.898 204.472 306.076C201.4 307.254 186.536 308.314 181.956 304.106C180.399 302.752 180.221 304.792 180.551 301.014C180.657 299.805 168.705 305.003 169.922 291.1C171.045 278.254 181.411 283.349 181.411 283.349C181.699 279.187 182.252 278.093 182.252 278.093Z" fill="#FFD55F"/>
<path d="M139.837 169.391L136.521 183.795C136.521 183.795 133.002 177.016 128.852 178.328C124.627 179.633 122.514 192.468 127.49 193.893C132.467 195.318 136.633 194.693 136.255 194.66C135.878 194.627 139.456 211.157 144.778 212.993C150.099 214.829 179.234 226.439 185.961 211.343C191.937 197.856 192.168 195.212 192.168 195.212C192.168 195.212 199.395 197.9 199.795 186.362C200.12 174.817 193.135 180.678 191.387 181.515C189.639 182.351 189.303 166.181 189.303 166.181L143.665 162.188L139.837 169.391Z" fill="#C4924D"/>
<path d="M91.3184 252.247L117.994 255.418C117.994 255.418 114.703 277.363 156.403 280.25C156.403 280.25 172.308 278.596 175.613 279.113C177.117 279.321 181.416 283.276 181.416 283.276C181.416 283.276 175.09 280.742 172.897 284.053C169.993 288.519 180.449 285.627 180.449 285.627C180.449 285.627 182.438 295.09 179.106 296.626C163.651 303.573 157.906 296.142 157.906 296.142C157.906 296.142 90.3774 310.867 91.3184 252.247Z" fill="#C4924D"/>
<path d="M265.277 147.167C261.958 148.552 261.238 167.219 262.275 169.289C263.119 170.962 261.771 172.443 261.771 172.443C261.771 172.443 224.381 215.159 212.175 210.208L225.887 236.229C225.887 236.229 272.977 210.579 274.579 174.858C274.579 174.858 276.374 173.492 277.859 172.175C285.754 165.481 282.716 152.348 280.145 155.625C278.859 157.264 277.433 163.991 276.843 162.036C276.843 162.036 280.094 140.545 275.961 140.793L265.277 147.167Z" fill="#C4924D"/>
<path d="M151.934 213.845L140.642 221.08C140.642 221.08 164.684 233.462 171.317 227.266C177.95 221.07 168.859 215.326 168.859 215.326L151.934 213.845V213.845Z" fill="#C4924D"/>
<path d="M143.142 218.634C143.142 218.634 139.94 216.07 135.901 219.6C131.861 223.129 135.714 237.4 143.078 240.252C150.436 243.18 156.106 236.671 156.106 236.671C156.106 236.671 158.664 227.454 143.142 218.634Z" fill="#E95426"/>
<path d="M178.205 219.037C178.205 219.037 180.707 215.678 185.742 218.174C190.777 220.67 190.575 236.032 183.91 240.855C177.244 245.678 169.839 240.69 169.839 240.69C169.839 240.69 163.821 232.017 178.205 219.037Z" fill="#E95426"/>
<path d="M140.534 206.681C140.534 206.681 125.533 207.576 136.57 222.399C147.608 237.222 145.939 223.219 145.939 223.219C145.939 223.219 130.739 215.95 140.534 206.681Z" fill="#E95426"/>
<path d="M147.206 236.341C149.196 234.672 148.582 230.665 145.836 227.392C143.089 224.119 139.25 222.819 137.261 224.488C135.271 226.157 135.885 230.164 138.631 233.437C141.378 236.71 145.217 238.01 147.206 236.341Z" fill="#F39B7E"/>
<path d="M185.081 236.563C187.532 233.063 187.794 229.018 185.666 227.529C183.539 226.039 179.828 227.669 177.377 231.169C174.926 234.669 174.664 238.713 176.791 240.203C178.919 241.693 182.63 240.063 185.081 236.563Z" fill="#F39B7E"/>
<path d="M139.095 217.899C139.095 217.899 150.364 223.986 156.175 236.753C156.175 236.753 158.051 230.978 151.944 224.201C144.375 215.849 139.095 217.899 139.095 217.899Z" fill="#EE774D"/>
<path d="M169.838 240.69C169.838 240.69 172.556 226.157 183.451 217.365C183.451 217.365 177.676 217.24 172.379 224.695C165.531 234.222 169.838 240.69 169.838 240.69Z" fill="#EE774D"/>
<path d="M153.798 192.536C157.471 192.857 160.708 190.14 161.029 186.468C161.351 182.796 158.634 179.558 154.962 179.237C151.289 178.916 148.052 181.632 147.731 185.305C147.409 188.977 150.126 192.214 153.798 192.536Z" fill="white"/>
<path d="M177.447 193.768C181.119 194.089 184.356 191.373 184.678 187.7C184.999 184.028 182.282 180.791 178.61 180.469C174.938 180.148 171.7 182.865 171.379 186.537C171.058 190.209 173.774 193.447 177.447 193.768Z" fill="white"/>
<path d="M156.265 190.47C158.393 190.656 160.27 189.082 160.456 186.954C160.642 184.825 159.068 182.949 156.939 182.763C154.811 182.577 152.935 184.151 152.749 186.279C152.563 188.408 154.137 190.284 156.265 190.47Z" fill="#1D1E1C"/>
<path d="M179.74 191.915C181.868 192.102 183.744 190.527 183.93 188.399C184.117 186.271 182.542 184.394 180.414 184.208C178.286 184.022 176.41 185.596 176.223 187.725C176.037 189.853 177.612 191.729 179.74 191.915Z" fill="#1D1E1C"/>
<path d="M167.351 185.577C161.72 185.541 167.045 186.464 159.284 195.987C156.986 198.755 168.633 203.125 171.489 200.938C175.976 197.524 168.491 185.6 167.351 185.577Z" fill="#2E98D4"/>
<path d="M140.389 180.479L136.816 182.146C136.816 182.146 130.592 211.524 141.953 216.553C153.314 221.582 176.404 226.572 181.657 222.235C186.833 217.891 196.291 188.111 191.131 179.208C188.223 174.157 189.998 179.109 189.998 179.109C189.998 179.109 185.698 209.112 180.398 205.298C175.531 201.751 162.27 203.636 162.27 203.636C156.835 198.744 151.384 201.008 151.006 200.975C151.088 200.906 142.402 199.233 140.389 180.479Z" fill="#1D1D1B"/>
<path d="M151.837 202.799C151.837 202.799 155.721 208.012 162.277 205.311C162.277 205.311 162.873 208.942 167.666 208.981C167.666 208.981 162.632 216.915 154.159 211.073C148.769 207.403 151.837 202.799 151.837 202.799Z" fill="#C4924D"/>
<path d="M159.68 172.344L174.036 173.6L168.085 164.172L159.68 172.344Z" fill="#1D1D1B"/>
<path d="M136.519 183.795C136.519 183.795 162.547 176.098 167.384 166.928C167.384 166.928 174.718 177.087 191.524 181.678C191.524 181.678 199.448 169.428 194.329 158.321C185.101 138.479 147.248 142.096 138.689 155.509C135.247 160.918 133.088 174.282 136.519 183.795Z" fill="#F8B700"/>
<path d="M689.956 329.163C647.982 325.49 616.932 288.487 620.604 246.512C624.276 204.538 661.28 173.488 703.255 177.16C745.229 180.833 776.279 217.836 772.607 259.811C768.934 301.785 731.93 332.835 689.956 329.163Z" fill="#FF85F3"/>
<path d="M597.322 187.969C598.169 186.779 580.388 187.752 580.388 187.752L576.725 204.978C572.358 206.455 597.009 208.537 597.009 208.537C597.009 208.537 594.718 191.385 597.322 187.969Z" fill="#13CE66"/>
<path d="M700.45 244.947C700.45 244.947 721.167 249.51 725.692 253.029C730.223 256.474 738.237 270.261 738.237 270.261C738.237 270.261 728.742 278.501 718.296 278.926L717.373 287.767C717.373 287.767 713.123 317.657 686.184 315.375C681.092 314.929 662.692 267.741 663.012 263.234C663.031 263.012 662.897 262.852 662.756 262.765C660.116 261.493 640.643 252.057 640.933 250.447C641.341 248.326 650.463 246.894 649.819 233.008C649.819 233.008 646.827 230.664 674.571 239.04C680.942 241.01 700.45 244.947 700.45 244.947Z" fill="#472A08"/>
<path d="M701.208 220.107L707.721 212.795C707.721 212.795 705.505 187.991 701.395 188.226C697.285 188.461 698.517 187.974 698.517 187.974C698.517 187.974 695.003 178.001 686.716 176.681C678.43 175.362 664.213 177.241 657.151 190.824C654.193 196.588 658.176 192.698 658.176 192.698C658.176 192.698 653.033 206.449 656.919 215.563C657.906 217.88 658.176 192.698 681.707 196.541C692.496 198.154 701.208 220.107 701.208 220.107Z" fill="black"/>
<path d="M703.26 216.197C703.26 216.197 708.86 202.337 716.105 207.06C722.362 211.177 715.294 223.124 709.205 223.037C707.944 223.001 706.721 224.233 706.692 225.42C706.659 231.737 699.631 241.531 696.768 243.66L701.502 247.346C701.502 247.346 690.772 261.203 684.874 252.136C683.951 250.792 682.927 245.497 682.927 245.497C682.927 245.497 661.273 247.395 656.764 224.992C656.764 224.992 651.248 227.707 648.991 216.951C647.247 208.843 650.309 206.137 657.942 212.381C657.942 212.381 660.035 204.608 659.99 191.518C659.99 191.518 667.829 189.453 670.379 190.048C682.018 192.999 695.253 190.44 695.253 190.44C694.919 202.753 702.304 216.931 703.26 216.197Z" fill="#F4DECA"/>
<path d="M649.863 236.73C649.863 236.73 648.69 246.74 643.104 248.556C637.517 250.372 596.135 210.914 596.135 210.914C596.135 210.914 590.653 208.129 590.424 205.655C589.942 200.111 588.05 197.938 587.327 194.306C586.537 190.594 590.694 192.37 591.219 193.159C592.075 194.424 592.071 197.026 594.55 198.433C597.029 199.839 595.762 187.98 595.762 187.98C603.248 186.554 599.848 202.465 603.979 204.536C615.52 210.305 649.863 236.73 649.863 236.73Z" fill="#F4DECA"/>
<path d="M731.362 274.866L718.299 278.853C718.299 278.853 719.061 311.784 683.047 314.656C676.309 315.181 663.526 310.866 660.235 315.336C658.126 318.2 664.264 316.879 664.264 316.879C664.264 316.879 657.244 323.179 659.629 328.221C661.013 331.093 662.947 320.035 666.27 321.143C666.27 321.143 657.95 329.561 663.659 332.291C664.801 332.837 667.277 323.239 669.577 323.292C669.577 323.292 663.517 333.914 668.096 333.423C671.548 333.056 671.113 325.285 672.472 326.742C673.489 327.872 668.589 334.581 674.123 335.065C675.968 335.227 677.337 325.532 680.442 325.729C690.564 326.466 743.46 318.454 731.362 274.866Z" fill="#F4DECA"/>
<path d="M727.948 333.454L716.497 316.466L738.307 317.036L727.948 333.454Z" fill="white"/>
<path d="M794.12 287.57L725.521 280.453L729.279 332.68L790.066 333.908L794.12 287.57Z" fill="white" stroke="#05A7F9" stroke-width="0.740695" stroke-miterlimit="10"/>
<path d="M754.407 308.927C754.375 309.296 754.343 309.665 754.311 310.034C754.384 310.04 754.378 310.114 754.378 310.114C754.365 310.262 754.346 310.483 754.406 310.637C754.49 311.388 754.653 312.071 754.97 312.694C755.287 313.317 755.678 313.946 756.23 314.44C756.714 314.854 757.198 315.268 757.769 315.541C758.267 315.808 758.844 316.007 759.428 316.132C759.428 316.132 759.502 316.139 759.495 316.213C759.569 316.219 759.643 316.226 759.716 316.232C759.938 316.251 760.159 316.271 760.454 316.297C760.528 316.303 760.602 316.31 760.602 316.31C760.682 316.242 760.756 316.249 760.83 316.255C761.427 316.233 762.03 316.137 762.646 315.894C763.49 315.596 764.199 315.137 764.847 314.525C765.175 314.182 765.509 313.765 765.769 313.341C766.202 312.636 766.495 311.843 766.64 311.038C766.64 311.038 766.646 310.965 766.72 310.971C766.746 310.676 766.771 310.381 766.797 310.086C766.723 310.079 766.73 310.005 766.73 310.005C766.749 309.784 766.695 309.556 766.714 309.335C766.625 308.658 766.461 307.974 766.144 307.352C765.827 306.729 765.503 306.18 765.025 305.692C764.548 305.204 764.063 304.79 763.492 304.517C762.928 304.171 762.277 303.965 761.613 303.907C761.613 303.907 761.539 303.9 761.545 303.827C761.25 303.801 760.955 303.775 760.66 303.749C760.653 303.823 760.58 303.816 760.58 303.816C760.358 303.797 760.13 303.851 759.835 303.826C759.232 303.922 758.549 304.085 758.006 304.335C757.544 304.517 757.149 304.78 756.748 305.117C756.267 305.521 755.779 305.999 755.439 306.489C755.012 307.121 754.645 307.907 754.507 308.638C754.42 308.78 754.488 308.86 754.407 308.927ZM760.984 304.298C764.157 304.575 766.513 307.384 766.248 310.409C766.032 313.736 763.149 316.086 759.977 315.809C756.804 315.531 754.447 312.723 754.725 309.55C755.009 306.303 757.891 303.953 760.984 304.298Z" fill="#D8D8D8"/>
<path d="M761.461 303.893C761.455 303.967 761.529 303.973 761.529 303.973C762.186 304.105 762.838 304.311 763.408 304.584C763.979 304.857 764.537 305.277 764.941 305.759C765.419 306.247 765.817 306.802 766.06 307.418C766.378 308.041 766.541 308.724 766.63 309.401C766.685 309.629 766.665 309.85 766.646 310.072C766.646 310.072 766.639 310.145 766.713 310.152C766.881 308.233 767.042 306.389 767.21 304.47C767.217 304.396 767.217 304.396 767.143 304.39C765.298 304.229 763.38 304.061 761.461 303.893Z" fill="#FEFEFE"/>
<path d="M754.406 308.926C754.487 308.858 754.493 308.785 754.499 308.711C754.644 307.906 755.004 307.193 755.431 306.562C755.771 306.071 756.185 305.587 756.741 305.189C757.142 304.853 757.537 304.59 757.999 304.407C758.615 304.164 759.225 303.994 759.828 303.898C760.056 303.843 760.277 303.863 760.572 303.889C760.572 303.889 760.646 303.895 760.652 303.821C758.734 303.653 756.889 303.492 754.971 303.324C754.897 303.318 754.897 303.318 754.89 303.392C754.729 305.236 754.568 307.081 754.406 308.926Z" fill="#FEFEFE"/>
<path d="M766.711 311.044C766.637 311.037 766.637 311.037 766.711 311.044C766.56 311.923 766.194 312.709 765.76 313.414C765.5 313.838 765.173 314.181 764.839 314.598C764.19 315.21 763.481 315.669 762.637 315.967C762.021 316.21 761.418 316.306 760.821 316.328C760.747 316.322 760.673 316.315 760.593 316.383C762.438 316.544 764.282 316.705 766.127 316.867C766.201 316.873 766.201 316.873 766.207 316.799C766.382 314.807 766.55 312.889 766.711 311.044Z" fill="#FEFEFE"/>
<path d="M759.42 316.206C759.426 316.133 759.352 316.126 759.42 316.206C758.762 316.075 758.185 315.875 757.687 315.609C757.116 315.336 756.632 314.922 756.148 314.508C755.596 314.013 755.205 313.384 754.888 312.762C754.577 312.065 754.414 311.382 754.324 310.705C754.337 310.557 754.276 310.403 754.296 310.182C754.296 310.182 754.302 310.108 754.229 310.102C754.067 311.946 753.906 313.791 753.744 315.636C753.738 315.709 753.738 315.709 753.812 315.716C755.73 315.884 757.575 316.045 759.42 316.206Z" fill="#FEFEFE"/>
<path d="M760.985 304.299C757.812 304.021 755.004 306.378 754.726 309.551C754.449 312.723 756.805 315.532 759.978 315.809C763.151 316.087 766.033 313.737 766.25 310.41C766.515 307.385 764.238 304.509 760.985 304.299ZM762.82 311.374C762.768 311.964 762.716 312.555 762.665 313.145C762.652 313.292 762.645 313.366 762.424 313.347C761.324 313.176 760.596 312.146 760.693 311.039C760.751 310.375 760.809 309.711 760.867 309.047C760.912 308.53 760.957 308.014 760.996 307.571C761.009 307.424 761.083 307.43 761.157 307.436C761.231 307.443 761.304 307.449 761.304 307.449C762.251 307.681 762.985 308.637 762.975 309.603C762.929 310.12 762.878 310.71 762.82 311.374ZM760.091 309.425C760.045 309.942 760.007 310.384 759.961 310.901C759.942 311.122 759.929 311.27 759.91 311.491C759.897 311.639 759.897 311.639 759.749 311.626C759.675 311.619 759.602 311.613 759.528 311.606C758.367 311.282 757.726 310.11 758.057 308.875C758.282 308.003 759.232 307.342 760.124 307.346C760.271 307.359 760.345 307.365 760.332 307.513C760.207 308.097 760.149 308.761 760.091 309.425Z" fill="#FEFEFE"/>
<path d="M762.817 311.372C762.869 310.781 762.921 310.191 762.972 309.601C763.056 308.641 762.328 307.611 761.302 307.447C761.228 307.441 761.154 307.434 761.154 307.434C761.007 307.421 761.007 307.421 760.994 307.569C760.949 308.085 760.903 308.602 760.865 309.045C760.807 309.709 760.748 310.373 760.69 311.037C760.593 312.144 761.401 313.107 762.422 313.344C762.569 313.357 762.643 313.364 762.662 313.142C762.714 312.552 762.766 311.962 762.817 311.372Z" fill="#4064AB"/>
<path d="M760.086 309.425C760.144 308.761 760.202 308.096 760.26 307.432C760.273 307.285 760.279 307.211 760.051 307.265C759.086 307.255 758.21 307.922 757.985 308.795C757.66 309.956 758.301 311.127 759.456 311.526C759.529 311.532 759.603 311.539 759.677 311.545C759.825 311.558 759.825 311.558 759.838 311.41C759.857 311.189 759.87 311.042 759.889 310.82C760.002 310.384 760.047 309.867 760.086 309.425Z" fill="#61BDEB"/>
<path d="M676.362 214.29C676.92 214.71 676.439 215.114 679.328 224.587C680.202 227.34 673.45 229.723 672.162 227.454C670.245 223.867 675.804 213.869 676.362 214.29Z" fill="#472A08"/>
<path d="M683.321 220.55C679.817 220.244 677.224 217.154 677.531 213.649C677.837 210.145 680.927 207.552 684.432 207.859C687.936 208.166 690.529 211.255 690.222 214.76C689.916 218.264 686.826 220.857 683.321 220.55Z" fill="white"/>
<path d="M666.245 221.137C662.74 220.831 660.148 217.741 660.455 214.236C660.761 210.732 663.851 208.139 667.355 208.446C670.86 208.752 673.453 211.842 673.146 215.347C672.839 218.851 669.75 221.444 666.245 221.137Z" fill="white"/>
<path d="M681.546 218.76C679.508 218.582 678.001 216.786 678.179 214.748C678.358 212.71 680.154 211.203 682.191 211.381C684.229 211.56 685.736 213.356 685.558 215.393C685.38 217.431 683.584 218.938 681.546 218.76Z" fill="#1D1D1B"/>
<path d="M664.597 219.58C662.559 219.402 661.052 217.606 661.23 215.568C661.408 213.531 663.205 212.023 665.242 212.202C667.28 212.38 668.787 214.176 668.609 216.214C668.431 218.251 666.634 219.759 664.597 219.58Z" fill="#1D1D1B"/>
<path d="M693.44 222.178C695.182 223.52 694.413 232.301 688.661 232.615C686.938 232.762 682.881 228.987 684.639 229.289C693.785 230.982 691.773 220.842 693.44 222.178Z" fill="black"/>
<path d="M752.055 235.486L751.332 243.751L727.491 237.501L752.055 235.486Z" fill="white"/>
<path d="M747.092 216.612L750.835 224.821L728.056 231.081L747.092 216.612Z" fill="white"/>
<path d="M741.043 210.952L733.711 206.37L724.922 226.94L741.043 210.952Z" fill="white"/>
<rect x="150" y="420.061" width="661.365" height="231.5" rx="115.75" transform="rotate(-9.5 150 420.061)" fill="#F57D39"/>
<rect x="150.576" y="420.471" width="660.365" height="230.5" rx="115.25" transform="rotate(-9.5 150.576 420.471)" stroke="white" stroke-opacity="0.2"/>
<path d="M288.5 530.5L723 431.5" stroke="white" stroke-opacity="0.4" stroke-width="8"/>
<ellipse cx="406.963" cy="503.36" rx="12.6478" ry="15.8147" transform="rotate(-54 406.963 503.36)" fill="#1A5D4C"/>
<ellipse cx="407.727" cy="502.309" rx="12.6478" ry="15.8147" transform="rotate(-54 407.727 502.309)" fill="#FA8F12"/>
<ellipse cx="408.492" cy="501.258" rx="12.6478" ry="15.8147" transform="rotate(-54 408.492 501.258)" fill="#FAE312"/>
<g filter="url(#filter6_i_431_2743)">
<ellipse cx="408.516" cy="501.288" rx="11.6492" ry="14.5661" transform="rotate(-54 408.516 501.288)" fill="#FAE312"/>
<ellipse cx="408.516" cy="501.288" rx="11.6492" ry="14.5661" transform="rotate(-54 408.516 501.288)" fill="url(#paint3_linear_431_2743)"/>
</g>
<g filter="url(#filter7_i_431_2743)">
<path d="M414.954 505.984L402.386 497.141L403.044 496.409L415.613 505.252L414.954 505.984ZM408.306 497.86C407.84 497.6 407.348 497.54 406.831 497.682C406.316 497.82 405.838 498.134 405.396 498.625C405.085 498.97 404.876 499.306 404.768 499.634C404.661 499.961 404.646 500.259 404.725 500.528C404.803 500.797 404.967 501.022 405.217 501.202C405.426 501.35 405.647 501.435 405.878 501.457C406.112 501.476 406.352 501.447 406.596 501.372C406.837 501.294 407.077 501.188 407.315 501.054C407.553 500.92 407.781 500.777 407.999 500.624L409.006 499.933C409.405 499.651 409.823 499.403 410.26 499.191C410.7 498.975 411.148 498.822 411.605 498.73C412.064 498.636 412.523 498.628 412.981 498.708C413.439 498.787 413.885 498.98 414.321 499.286C414.91 499.7 415.305 500.202 415.507 500.791C415.706 501.378 415.699 502.019 415.485 502.714C415.27 503.403 414.833 504.114 414.175 504.845C413.535 505.556 412.858 506.088 412.144 506.441C411.434 506.791 410.713 506.95 409.983 506.917C409.256 506.882 408.548 506.641 407.859 506.195L409.325 504.567C409.697 504.789 410.076 504.896 410.464 504.887C410.852 504.878 411.227 504.776 411.591 504.58C411.957 504.381 412.296 504.109 412.606 503.764C412.93 503.404 413.155 503.047 413.281 502.694C413.406 502.335 413.432 502.003 413.359 501.699C413.282 501.392 413.101 501.136 412.816 500.931C412.551 500.749 412.272 500.667 411.979 500.684C411.682 500.699 411.365 500.79 411.029 500.956C410.691 501.117 410.329 501.329 409.943 501.591L408.713 502.423C407.822 503.026 406.964 503.394 406.139 503.527C405.312 503.655 404.539 503.466 403.819 502.959C403.227 502.542 402.839 502.032 402.657 501.427C402.477 500.819 402.491 500.176 402.701 499.498C402.908 498.818 403.299 498.158 403.874 497.518C404.458 496.87 405.094 496.389 405.782 496.077C406.469 495.759 407.158 495.614 407.848 495.643C408.535 495.67 409.166 495.878 409.74 496.267L408.306 497.86Z" fill="#FFCD1E"/>
</g>
<ellipse cx="501.258" cy="481.033" rx="12.6478" ry="15.8147" transform="rotate(-54 501.258 481.033)" fill="#1A5D4C"/>
<ellipse cx="502.022" cy="479.981" rx="12.6478" ry="15.8147" transform="rotate(-54 502.022 479.981)" fill="#FA8F12"/>
<ellipse cx="502.787" cy="478.931" rx="12.6478" ry="15.8147" transform="rotate(-54 502.787 478.931)" fill="#FAE312"/>
<g filter="url(#filter8_i_431_2743)">
<ellipse cx="502.811" cy="478.961" rx="11.6492" ry="14.5661" transform="rotate(-54 502.811 478.961)" fill="#FAE312"/>
<ellipse cx="502.811" cy="478.961" rx="11.6492" ry="14.5661" transform="rotate(-54 502.811 478.961)" fill="url(#paint4_linear_431_2743)"/>
</g>
<g filter="url(#filter9_i_431_2743)">
<path d="M509.249 483.657L496.68 474.814L497.339 474.082L509.908 482.925L509.249 483.657ZM502.601 475.533C502.135 475.273 501.643 475.213 501.126 475.355C500.611 475.493 500.133 475.807 499.691 476.298C499.38 476.643 499.171 476.979 499.063 477.307C498.956 477.634 498.941 477.932 499.02 478.201C499.098 478.47 499.262 478.695 499.512 478.875C499.721 479.023 499.941 479.107 500.173 479.129C500.407 479.148 500.647 479.12 500.891 479.044C501.132 478.966 501.372 478.861 501.61 478.727C501.848 478.593 502.076 478.45 502.294 478.297L503.301 477.606C503.7 477.323 504.118 477.076 504.555 476.864C504.995 476.648 505.443 476.495 505.9 476.403C506.359 476.309 506.818 476.301 507.276 476.38C507.734 476.46 508.18 476.652 508.615 476.959C509.205 477.373 509.6 477.875 509.802 478.464C510.001 479.051 509.993 479.692 509.78 480.387C509.565 481.076 509.128 481.787 508.47 482.518C507.83 483.229 507.153 483.761 506.439 484.114C505.728 484.464 505.008 484.623 504.278 484.59C503.551 484.555 502.843 484.314 502.154 483.868L503.62 482.24C503.992 482.462 504.371 482.569 504.759 482.56C505.147 482.551 505.522 482.449 505.886 482.253C506.252 482.054 506.591 481.782 506.901 481.437C507.225 481.077 507.45 480.72 507.576 480.367C507.701 480.008 507.727 479.676 507.654 479.372C507.577 479.065 507.396 478.809 507.111 478.603C506.846 478.422 506.567 478.34 506.274 478.357C505.977 478.372 505.66 478.462 505.323 478.629C504.986 478.79 504.624 479.001 504.238 479.264L503.008 480.096C502.117 480.699 501.259 481.067 500.434 481.2C499.607 481.328 498.834 481.139 498.114 480.632C497.522 480.215 497.134 479.705 496.951 479.1C496.771 478.492 496.786 477.849 496.996 477.171C497.203 476.49 497.594 475.83 498.169 475.191C498.753 474.543 499.389 474.062 500.077 473.749C500.764 473.431 501.453 473.287 502.143 473.316C502.83 473.343 503.461 473.551 504.035 473.94L502.601 475.533Z" fill="#FFCD1E"/>
</g>
<ellipse cx="595.553" cy="458.706" rx="12.6478" ry="15.8147" transform="rotate(-54 595.553 458.706)" fill="#1A5D4C"/>
<ellipse cx="596.316" cy="457.654" rx="12.6478" ry="15.8147" transform="rotate(-54 596.316 457.654)" fill="#FA8F12"/>
<ellipse cx="597.082" cy="456.603" rx="12.6478" ry="15.8147" transform="rotate(-54 597.082 456.603)" fill="#FAE312"/>
<g filter="url(#filter10_i_431_2743)">
<ellipse cx="597.106" cy="456.633" rx="11.6492" ry="14.5661" transform="rotate(-54 597.106 456.633)" fill="#FAE312"/>
<ellipse cx="597.106" cy="456.633" rx="11.6492" ry="14.5661" transform="rotate(-54 597.106 456.633)" fill="url(#paint5_linear_431_2743)"/>
</g>
<g filter="url(#filter11_i_431_2743)">
<path d="M603.544 461.33L590.975 452.487L591.634 451.755L604.203 460.598L603.544 461.33ZM596.896 453.206C596.43 452.946 595.938 452.886 595.421 453.027C594.906 453.166 594.428 453.48 593.986 453.971C593.675 454.316 593.466 454.652 593.358 454.979C593.251 455.307 593.236 455.605 593.315 455.874C593.393 456.143 593.557 456.368 593.806 456.548C594.016 456.696 594.236 456.78 594.468 456.802C594.702 456.821 594.941 456.793 595.186 456.717C595.427 456.639 595.667 456.533 595.905 456.4C596.143 456.266 596.371 456.123 596.589 455.97L597.596 455.279C597.995 454.996 598.413 454.749 598.85 454.536C599.29 454.321 599.738 454.168 600.195 454.076C600.654 453.982 601.113 453.974 601.571 454.053C602.028 454.132 602.475 454.325 602.91 454.632C603.5 455.046 603.895 455.548 604.097 456.137C604.296 456.724 604.288 457.365 604.074 458.059C603.86 458.749 603.423 459.46 602.765 460.191C602.125 460.902 601.448 461.434 600.734 461.787C600.023 462.137 599.303 462.296 598.573 462.263C597.846 462.228 597.138 461.987 596.449 461.541L597.915 459.912C598.286 460.135 598.666 460.242 599.054 460.233C599.442 460.224 599.817 460.121 600.181 459.925C600.547 459.726 600.886 459.455 601.196 459.11C601.52 458.75 601.745 458.393 601.871 458.039C601.996 457.681 602.022 457.349 601.949 457.045C601.872 456.738 601.691 456.482 601.405 456.276C601.141 456.095 600.862 456.013 600.569 456.03C600.272 456.045 599.955 456.135 599.618 456.301C599.281 456.462 598.919 456.674 598.533 456.937L597.302 457.769C596.412 458.372 595.554 458.74 594.729 458.873C593.902 459.001 593.129 458.812 592.409 458.305C591.817 457.888 591.429 457.377 591.246 456.773C591.066 456.165 591.081 455.522 591.291 454.844C591.497 454.163 591.889 453.503 592.464 452.864C593.048 452.215 593.684 451.735 594.372 451.422C595.059 451.104 595.748 450.96 596.438 450.989C597.125 451.015 597.756 451.224 598.33 451.613L596.896 453.206Z" fill="#FFCD1E"/>
</g>
<path d="M301.052 582.587C342.911 575.583 371.166 535.971 364.161 494.113C357.156 452.254 317.545 424 275.686 431.004C233.828 438.009 205.573 477.621 212.578 519.479C219.582 561.338 259.194 589.592 301.052 582.587Z" fill="#4429EB"/>
<path d="M261.942 512.441C261.942 512.441 252.118 523.184 248.425 507.516C248.425 507.516 239.554 516.646 233.165 509.534C226.403 502.025 231.967 497.348 232.921 496.194C232.982 496.107 232.958 495.959 232.809 495.984C231.036 496.357 226.201 496.707 223.99 489.431C221.704 482.167 228.087 479.646 228.087 479.646C228.087 479.646 210.307 478.034 215.913 461.269C219.983 449.042 234.666 454.537 234.666 454.537C234.666 454.537 232.563 443.343 240.434 440.114C252.382 435.209 257.932 447.355 257.932 447.355C257.932 447.355 252.081 429.296 270.749 425.713C283.27 423.312 283.366 438.511 283.366 438.511C283.366 438.511 301.037 425.309 310.604 438.618C318.087 449.064 305.521 457.589 305.521 457.589C305.521 457.589 328.965 456.954 328.805 477.473C328.713 488.345 318.457 483.257 318.457 483.257C318.457 483.257 322.898 487.407 320.075 492.926C317.772 497.44 312.564 496.477 312.564 496.477C312.564 496.477 317.745 512.813 296.701 506.318C275.658 499.823 289.712 491.508 289.712 491.508L284.398 480.775L275.096 475.45L265.762 476.783L263.535 483.578L250.06 486.215C250.06 486.215 250.202 494.831 251.518 497.211C253.678 501.437 261.942 512.441 261.942 512.441Z" fill="black"/>
<path d="M176.071 508.308L174.42 523.57L192.757 523.943L191.569 508.62L176.071 508.308Z" fill="#F8B706"/>
<path d="M272.551 525.116L302.438 518.662C305.612 518.895 319.685 520.746 321.793 522.381C333.416 531.523 341.007 537.134 341.007 537.134L326.967 547.818L319.688 544.983L330.105 568.396C318.75 570.908 310.896 579.715 302.23 579.56C285.964 579.223 272.554 566.71 267.515 558.99C265.976 556.648 265.275 545.602 265.275 545.602L253.659 547.01L245.873 528.357L272.551 525.116Z" fill="#0F9F4F"/>
<path d="M259.336 470.366C259.336 470.366 253.715 482.011 246.912 486.59C246.912 486.59 253.394 520.754 276.85 520.193C278.226 520.192 278.835 522.461 278.835 522.461L272.551 525.118C269.516 528.455 271.005 531.417 273.374 532.779C277.442 535.157 288.145 540.171 288.145 540.171C288.145 540.171 305.912 522.517 301.805 518.54L291.317 519.378L289.481 516.627C293.31 514.38 294.621 508.961 295.586 506.047C295.586 506.047 290.092 503.373 290.945 499.331C291.699 495.611 296.21 493.327 296.21 493.327C296.21 493.327 305.644 493.048 302.303 483.591C299.67 476.079 293.62 476.939 293.055 484.985L291.506 484.862C290.918 477.697 290.049 475.701 289.488 471.437C289.488 471.437 288.55 477.252 282.46 473.301C275.688 468.929 278.971 465.245 278.971 465.245C278.971 465.245 273.238 476.221 259.336 470.366Z" fill="#CDBF8D"/>
<path d="M188.927 527.107C212.272 545.986 252.29 542.96 252.29 542.96L246.864 530.64C218.474 532.332 198.344 518.497 198.344 518.497C198.344 518.497 194.469 508.135 187.616 512.876C180.763 517.616 192.093 515.414 192.093 515.414L192.818 523.857L185.379 523.725L188.927 527.107Z" fill="#CDBF8D"/>
<path d="M261.545 570.847L291.427 557.054L309.886 592.884L279.36 608.773L261.545 570.847Z" fill="#85D7FF"/>
<path d="M327.722 547.31L337.289 540.051C337.289 540.051 370.19 574.458 306.424 587.269C306.053 587.331 305.681 587.394 305.383 587.443C300.028 588.798 296.086 588.541 294.87 588.132C294.387 587.984 294.002 587.972 294.436 587.364C294.869 586.756 301.738 587.136 303.287 585.883C303.287 585.883 295.365 586.52 292.55 585.691C292.141 585.53 292.103 584.849 292.624 584.762C296.492 584.573 303.756 582.746 302.206 583.082C295.55 584.425 291.532 583.721 290.912 583.213C290.639 582.953 290.862 582.457 291.011 582.432C297.407 581.361 301.733 579.796 301.733 579.796C296.688 581.176 291.481 580.671 290.03 580.226C289.385 580.028 289.509 579.395 289.881 579.333C296.723 578.188 301.669 576.672 301.669 576.672L300.08 573.115C300.08 573.115 303.8 573.869 304.818 576.298C304.93 576.509 305.289 576.372 305.512 576.335C349.965 567.826 327.722 547.31 327.722 547.31Z" fill="#CDBF8D"/>
<path d="M256.884 496.848C260.294 496.277 262.595 493.051 262.024 489.641C261.454 486.232 258.227 483.931 254.818 484.501C251.408 485.072 249.107 488.298 249.678 491.708C250.248 495.117 253.475 497.418 256.884 496.848Z" fill="white"/>
<path d="M273.337 493.255C276.747 492.685 279.048 489.458 278.478 486.049C277.907 482.639 274.681 480.338 271.271 480.908C267.862 481.479 265.56 484.705 266.131 488.115C266.701 491.524 269.928 493.826 273.337 493.255Z" fill="white"/>
<path d="M255.396 495.721C257.368 495.391 258.699 493.525 258.369 491.553C258.039 489.581 256.173 488.25 254.201 488.58C252.229 488.91 250.898 490.776 251.228 492.748C251.558 494.72 253.424 496.051 255.396 495.721Z" fill="#1D1E1C"/>
<path d="M271.722 492.303C273.694 491.973 275.025 490.107 274.695 488.135C274.365 486.163 272.499 484.832 270.527 485.162C268.555 485.492 267.225 487.358 267.554 489.33C267.884 491.302 269.75 492.633 271.722 492.303Z" fill="#1D1E1C"/>
<path d="M263.403 490.1C264.469 490.075 263.973 489.852 272.692 495.81C275.285 497.593 264.217 503.192 261.204 502.09C256.566 500.42 262.336 490.126 263.403 490.1Z" fill="#2E98D4"/>
<path d="M281.65 507.769C279.854 509.828 273.869 514.729 271.695 508.594C270.664 505.632 276.403 503.83 276.403 503.83C276.561 499.292 283.082 498.507 283.082 498.507C283.082 498.507 286.197 502.497 281.65 507.769Z" fill="#EE774D"/>
<path d="M277.749 478.063L287.831 482.569L293.323 482.95C298.574 474.119 301.829 483.515 301.829 483.515C298.432 483.319 309.875 484.08 312.033 484.178C312.033 484.178 317.957 482.116 313.156 477.185L288.396 474.982L277.749 478.063Z" fill="#F8B706"/>
<path d="M287.832 482.572C287.832 482.572 288.836 482.174 289.12 480.674C289.243 479.583 287.978 479.336 287.978 479.336C287.978 479.336 289.64 479.211 289.565 478.306C289.477 477.326 288.064 477.104 288.064 477.104C288.064 477.104 289.551 476.855 289.625 475.925C289.699 474.995 288.459 474.897 288.459 474.897L277.737 477.991L287.832 482.572Z" fill="#FFD460"/>
<path d="M277.749 478.065L280.403 479.303L280.377 477.32L277.749 478.065Z" fill="black"/>
<path d="M287.92 479.419L295.532 480.133C295.532 480.133 298.209 478.309 300.12 480.588L314.8 481.955C314.8 481.955 315.506 481.149 315.009 480.008C314.512 478.868 288.079 477.175 288.079 477.175C288.079 477.175 289.58 477.917 289.58 478.376C289.506 478.847 287.92 479.419 287.92 479.419Z" fill="black"/>
<path d="M312.85 477.162L312.049 484.254C312.049 484.254 315.149 484.958 315.555 481.45C316.036 477.011 312.85 477.162 312.85 477.162Z" fill="#EE774D"/>
<path d="M702.51 504.48C735.738 498.919 758.166 467.476 752.606 434.248C747.045 401.021 715.602 378.592 682.374 384.153C649.147 389.713 626.718 421.157 632.279 454.384C637.839 487.611 669.283 510.04 702.51 504.48Z" fill="#90FA6B"/>
<path d="M689.509 454.49L703.437 451.09L707.228 459.189C707.228 459.189 746.117 457.256 727.211 405.701L736.92 404.077C736.92 404.077 756.65 448.483 726.46 465.12L734.211 488.717C734.211 488.717 716.991 509.363 680.467 504.127L681.832 484.59L682.76 474.869C682.76 474.869 630.98 473.969 641.292 421.98L653.199 422.127C653.199 422.127 643.849 458.21 684.611 463.212L690.256 462.505L689.509 454.49Z" fill="#FF5216"/>
<path d="M666.741 430.615L667.969 437.955C667.969 437.955 664.124 435.925 662.19 438.922C660.256 441.92 664.241 452.244 672.561 447.643C672.561 447.643 683.753 458.425 696.409 456.307C712.072 453.686 715.096 438.743 715.317 436.864C715.317 436.864 724.083 437.061 719.674 427.402C717.523 422.711 713.037 427.859 713.037 427.859L704.753 413.501L668.847 425.45L666.741 430.615Z" fill="#F4D3BA"/>
<path d="M665.645 435.432L667.485 435.065L667.978 438.012L668.284 434.871L711.677 425.768L713.046 427.916L712.361 425.594L713.102 425.411C713.102 425.411 709.608 400.626 684.382 406.095C659.031 411.526 665.645 435.432 665.645 435.432Z" fill="white"/>
<path d="M683.181 440.816C686.053 440.335 687.992 437.616 687.512 434.744C687.031 431.871 684.312 429.932 681.44 430.413C678.567 430.894 676.628 433.612 677.109 436.485C677.589 439.357 680.308 441.296 683.181 440.816Z" fill="white"/>
<path d="M700.741 436.748C703.614 436.268 705.553 433.549 705.072 430.676C704.591 427.804 701.873 425.865 699 426.345C696.128 426.826 694.189 429.545 694.669 432.417C695.15 435.29 697.868 437.229 700.741 436.748Z" fill="white"/>
<path d="M681.976 437.155C683.636 436.877 684.756 435.307 684.478 433.647C684.201 431.987 682.63 430.867 680.97 431.145C679.31 431.422 678.19 432.993 678.468 434.653C678.746 436.313 680.316 437.433 681.976 437.155Z" fill="#1D1E1C"/>
<path d="M699.495 433.213C701.155 432.935 702.276 431.364 701.998 429.705C701.72 428.045 700.149 426.924 698.49 427.202C696.83 427.48 695.71 429.051 695.987 430.71C696.265 432.37 697.836 433.49 699.495 433.213Z" fill="#1D1E1C"/>
<path d="M682.866 443.185C687.143 442.469 690.03 438.422 689.314 434.145C688.598 429.868 684.551 426.98 680.274 427.696C675.997 428.412 673.11 432.459 673.825 436.737C674.541 441.014 678.589 443.901 682.866 443.185Z" stroke="#E95426" stroke-width="1.17195" stroke-miterlimit="0"/>
<path d="M701.457 439.243C705.734 438.527 708.622 434.479 707.906 430.202C707.19 425.925 703.143 423.038 698.865 423.754C694.588 424.47 691.701 428.517 692.417 432.794C693.133 437.071 697.18 439.958 701.457 439.243Z" stroke="#E95426" stroke-width="1.17195" stroke-miterlimit="0"/>
<path d="M690.788 432.294C691.443 432.303 693.034 434.71 694.984 440.682C695.592 442.54 693.28 441.858 690.968 442.245C687.895 442.7 690.133 432.285 690.788 432.294Z" fill="#2E98D4"/>
<path d="M689.314 434.145L692.57 433.363" stroke="#E95426" stroke-width="1.17195" stroke-miterlimit="0"/>
<path d="M700.574 444.975C700.574 444.975 699.32 443.521 697.53 445.246C696.461 446.316 695.836 447.193 695.836 447.193C695.836 447.193 700.895 450.09 703.639 447.67C705.709 445.838 704.281 442.631 704.281 442.631C704.281 442.631 700.976 442.056 700.574 444.975Z" fill="#E95426"/>
<path d="M695.884 447.126C695.498 446.953 702.039 446.987 704.329 442.564C704.329 442.564 704.967 446.378 701.674 447.643C698.881 448.704 695.884 447.126 695.884 447.126Z" fill="#1D1E1C"/>
<path d="M669.025 446.392L669.012 455.9L675.484 453.748L669.025 446.392Z" fill="#2E98D4"/>
<path d="M716.933 433.741L716.005 443.106L721.456 441.243L716.933 433.741Z" fill="#2E98D4"/>
<path d="M643.017 421.989L650.945 422.504L651.55 419.729C651.55 419.729 657.637 417.76 657.681 411.277C657.718 409.013 657.978 407.722 657.698 407.472C656.859 406.721 653.559 413.274 653.559 413.274C653.559 413.274 654.832 400.287 653.445 399.806C651.421 399.075 650.282 409.663 650.282 409.663C650.282 409.663 650.525 397.978 648.8 397.969C647.432 397.961 646.111 409.945 646.111 409.945C646.111 409.945 646.171 398.588 644.523 397.972C643.058 397.385 642.325 410.757 642.325 410.757C642.325 410.757 641.647 404.216 639.46 403.929C637.273 403.641 641.009 415.671 643.149 418.165L643.017 421.989Z" fill="#F4D3BA"/>
<path d="M735.756 404.212L729.004 405.401L728.503 404.534C728.503 404.534 722.337 404.616 720.243 398.49C719.529 396.352 718.805 395.225 718.988 394.898C719.537 393.915 724.617 399.065 724.617 399.065C724.617 399.065 719.301 387.181 720.399 386.285C722.016 384.944 726.425 394.604 726.425 394.604C726.425 394.604 722.449 383.624 724.019 383.065C725.251 382.621 730.287 393.542 730.287 393.542C730.287 393.542 726.591 382.812 727.89 381.704C729.027 380.682 733.957 393.106 733.957 393.106C733.957 393.106 732.47 386.7 734.386 385.726C736.302 384.752 736.744 397.333 735.59 400.378L735.756 404.212Z" fill="#F4D3BA"/>
<path d="M698.646 370.972C699.681 377.156 697.508 383.699 692.116 387.69C691.375 388.23 690.764 397.363 690.908 396.448L679.734 396.773C678.964 397.496 677.177 391.082 676.175 390.774C669.324 388.534 665.46 386.388 663.854 376.794C662.249 367.201 668.746 358.093 678.339 356.487C687.933 354.882 697.031 361.321 698.646 370.972Z" fill="#FFD460"/>
<path d="M680.889 396.936C680.762 394.759 679.523 369.954 673.233 370.709C666.942 371.465 683.21 395.181 683.21 395.181C683.21 395.181 686.564 368.716 679.416 369.675C674.475 370.323 686.205 394.977 686.205 394.977C686.205 394.977 693.048 370.186 686.525 368.485C680.002 366.784 689.145 396.565 689.145 396.565" stroke="#1D1D1B" stroke-width="0.292988" stroke-miterlimit="10"/>
<path d="M679.416 396.648L681.202 402.707L690.286 401.959L690.851 396.458L679.416 396.648Z" fill="#CECDCE"/>
<path d="M710.124 404.358C711.632 400.326 709.069 395.643 704.401 393.898C699.733 392.152 694.727 394.006 693.22 398.037C691.712 402.069 694.274 406.752 698.943 408.497C703.611 410.243 708.617 408.389 710.124 404.358Z" fill="white"/>
<path d="M15.3519 295.047L23.1756 306.314L36.7511 304.352L25.4847 312.176L27.4464 325.751L19.6227 314.485L6.04727 316.447L17.3137 308.623L15.3519 295.047Z" fill="white"/>
<path d="M384.003 62.667L380.646 72.5724L388.006 80.0035L378.101 76.6464L370.669 84.006L374.027 74.1006L366.667 66.6695L376.572 70.0266L384.003 62.667Z" fill="white"/>
<path d="M852.003 373.667L848.646 383.572L856.006 391.004L846.101 387.646L838.669 395.006L842.027 385.101L834.667 377.669L844.572 381.027L852.003 373.667Z" fill="white"/>
<path d="M107.003 513.667L103.646 523.572L111.006 531.004L101.101 527.646L93.6694 535.006L97.0266 525.101L89.667 517.669L99.5723 521.027L107.003 513.667Z" fill="white"/>
<path d="M384.003 654.667L380.646 664.572L388.006 672.004L378.101 668.646L370.669 676.006L374.027 666.101L366.667 658.669L376.572 662.027L384.003 654.667Z" fill="white"/>
<path d="M801.003 113.667L797.646 123.572L805.006 131.004L795.101 127.646L787.669 135.006L791.027 125.101L783.667 117.669L793.572 121.027L801.003 113.667Z" fill="white"/>
<path d="M133.275 463.889C129.856 455.752 121.332 447.875 113.379 444.305C108.479 442.105 96.2345 441.039 95.1626 448.807C94.5774 453.049 99.6986 465.304 105.788 462.57C109.062 461.1 107.263 455.261 106.501 452.965C102.791 441.786 93.9328 433.499 83.7977 427.955C76.345 423.878 55.6633 417.276 50.1611 432.242C48.1255 437.778 49.2147 444.542 52.0094 449.755C53.3754 453.313 61.0078 456.237 62.056 455.834C62.7754 455.558 58.5625 447.551 58.4156 447.296C53.8847 439.421 47.3274 432.798 39.7805 427.783C32.683 423.067 23.6672 419.11 15.0004 418.777" stroke="#FF93F4" stroke-width="3" stroke-linecap="round"/>
<path d="M188.173 83.2879C186.294 74.6636 179.348 65.3658 172.179 60.4056C167.762 57.3497 155.917 54.0698 153.447 61.5131C152.099 65.5772 154.901 78.5606 161.387 76.9818C164.874 76.1332 164.169 70.0636 163.838 67.6671C162.227 55.9992 155.027 46.2371 146.072 38.9386C139.488 33.5718 120.355 23.3115 112.218 37.024C109.207 42.0971 109.046 48.9458 110.844 54.5807C111.538 58.3287 118.51 62.594 119.614 62.3894C120.372 62.249 117.689 53.6081 117.591 53.3302C114.571 44.7616 109.33 37.055 102.824 30.7486C96.7045 24.8176 88.5607 19.2838 80.0997 17.3772" stroke="#F57D39" stroke-width="3" stroke-linecap="round"/>
<path d="M665.999 127.087C667.878 118.462 674.824 109.165 681.993 104.204C686.41 101.149 698.255 97.8687 700.725 105.312C702.073 109.376 699.271 122.359 692.785 120.781C689.298 119.932 690.003 113.862 690.334 111.466C691.945 99.7981 699.144 90.0359 708.099 82.7374C714.684 77.3706 733.817 67.1103 741.954 80.8229C744.964 85.8959 745.126 92.7446 743.328 98.3796C742.633 102.128 735.662 106.393 734.558 106.188C733.8 106.048 736.483 97.4069 736.581 97.129C739.601 88.5604 744.842 80.8538 751.348 74.5474C757.467 68.6165 765.611 63.0826 774.072 61.1761" stroke="#39D3F5" stroke-width="3" stroke-linecap="round"/>
<defs>
<filter id="filter0_i_431_2743" x="297.236" y="206.774" width="32.5293" height="35.7115" filterUnits="userSpaceOnUse" color-interpolation-filters="sRGB">
<feFlood flood-opacity="0" result="BackgroundImageFix"/>
<feBlend mode="normal" in="SourceGraphic" in2="BackgroundImageFix" result="shape"/>
<feColorMatrix in="SourceAlpha" type="matrix" values="0 0 0 0 0 0 0 0 0 0 0 0 0 0 0 0 0 0 127 0" result="hardAlpha"/>
<feOffset dy="0.125575"/>
<feGaussianBlur stdDeviation="0.0627877"/>
<feComposite in2="hardAlpha" operator="arithmetic" k2="-1" k3="1"/>
<feColorMatrix type="matrix" values="0 0 0 0 0 0 0 0 0 0 0 0 0 0 0 0 0 0 0.25 0"/>
<feBlend mode="normal" in2="shape" result="effect1_innerShadow_431_2743"/>
</filter>
<filter id="filter1_i_431_2743" x="306.357" y="216.147" width="15.9989" height="17.2548" filterUnits="userSpaceOnUse" color-interpolation-filters="sRGB">
<feFlood flood-opacity="0" result="BackgroundImageFix"/>
<feBlend mode="normal" in="SourceGraphic" in2="BackgroundImageFix" result="shape"/>
<feColorMatrix in="SourceAlpha" type="matrix" values="0 0 0 0 0 0 0 0 0 0 0 0 0 0 0 0 0 0 127 0" result="hardAlpha"/>
<feOffset dx="0.188363" dy="0.188363"/>
<feGaussianBlur stdDeviation="0.172666"/>
<feComposite in2="hardAlpha" operator="arithmetic" k2="-1" k3="1"/>
<feColorMatrix type="matrix" values="0 0 0 0 0 0 0 0 0 0 0 0 0 0 0 0 0 0 0.25 0"/>
<feBlend mode="normal" in2="shape" result="effect1_innerShadow_431_2743"/>
</filter>
<filter id="filter2_i_431_2743" x="421.34" y="223.507" width="32.5293" height="35.7115" filterUnits="userSpaceOnUse" color-interpolation-filters="sRGB">
<feFlood flood-opacity="0" result="BackgroundImageFix"/>
<feBlend mode="normal" in="SourceGraphic" in2="BackgroundImageFix" result="shape"/>
<feColorMatrix in="SourceAlpha" type="matrix" values="0 0 0 0 0 0 0 0 0 0 0 0 0 0 0 0 0 0 127 0" result="hardAlpha"/>
<feOffset dy="0.125575"/>
<feGaussianBlur stdDeviation="0.0627877"/>
<feComposite in2="hardAlpha" operator="arithmetic" k2="-1" k3="1"/>
<feColorMatrix type="matrix" values="0 0 0 0 0 0 0 0 0 0 0 0 0 0 0 0 0 0 0.25 0"/>
<feBlend mode="normal" in2="shape" result="effect1_innerShadow_431_2743"/>
</filter>
<filter id="filter3_i_431_2743" x="430.461" y="232.88" width="15.9989" height="17.2548" filterUnits="userSpaceOnUse" color-interpolation-filters="sRGB">
<feFlood flood-opacity="0" result="BackgroundImageFix"/>
<feBlend mode="normal" in="SourceGraphic" in2="BackgroundImageFix" result="shape"/>
<feColorMatrix in="SourceAlpha" type="matrix" values="0 0 0 0 0 0 0 0 0 0 0 0 0 0 0 0 0 0 127 0" result="hardAlpha"/>
<feOffset dx="0.188363" dy="0.188363"/>
<feGaussianBlur stdDeviation="0.172666"/>
<feComposite in2="hardAlpha" operator="arithmetic" k2="-1" k3="1"/>
<feColorMatrix type="matrix" values="0 0 0 0 0 0 0 0 0 0 0 0 0 0 0 0 0 0 0.25 0"/>
<feBlend mode="normal" in2="shape" result="effect1_innerShadow_431_2743"/>
</filter>
<filter id="filter4_i_431_2743" x="545.443" y="240.239" width="32.5293" height="35.7115" filterUnits="userSpaceOnUse" color-interpolation-filters="sRGB">
<feFlood flood-opacity="0" result="BackgroundImageFix"/>
<feBlend mode="normal" in="SourceGraphic" in2="BackgroundImageFix" result="shape"/>
<feColorMatrix in="SourceAlpha" type="matrix" values="0 0 0 0 0 0 0 0 0 0 0 0 0 0 0 0 0 0 127 0" result="hardAlpha"/>
<feOffset dy="0.125575"/>
<feGaussianBlur stdDeviation="0.0627877"/>
<feComposite in2="hardAlpha" operator="arithmetic" k2="-1" k3="1"/>
<feColorMatrix type="matrix" values="0 0 0 0 0 0 0 0 0 0 0 0 0 0 0 0 0 0 0.25 0"/>
<feBlend mode="normal" in2="shape" result="effect1_innerShadow_431_2743"/>
</filter>
<filter id="filter5_i_431_2743" x="554.564" y="249.612" width="15.9989" height="17.2548" filterUnits="userSpaceOnUse" color-interpolation-filters="sRGB">
<feFlood flood-opacity="0" result="BackgroundImageFix"/>
<feBlend mode="normal" in="SourceGraphic" in2="BackgroundImageFix" result="shape"/>
<feColorMatrix in="SourceAlpha" type="matrix" values="0 0 0 0 0 0 0 0 0 0 0 0 0 0 0 0 0 0 127 0" result="hardAlpha"/>
<feOffset dx="0.188363" dy="0.188363"/>
<feGaussianBlur stdDeviation="0.172666"/>
<feComposite in2="hardAlpha" operator="arithmetic" k2="-1" k3="1"/>
<feColorMatrix type="matrix" values="0 0 0 0 0 0 0 0 0 0 0 0 0 0 0 0 0 0 0.25 0"/>
<feBlend mode="normal" in2="shape" result="effect1_innerShadow_431_2743"/>
</filter>
<filter id="filter6_i_431_2743" x="394.885" y="488.555" width="27.2637" height="25.563" filterUnits="userSpaceOnUse" color-interpolation-filters="sRGB">
<feFlood flood-opacity="0" result="BackgroundImageFix"/>
<feBlend mode="normal" in="SourceGraphic" in2="BackgroundImageFix" result="shape"/>
<feColorMatrix in="SourceAlpha" type="matrix" values="0 0 0 0 0 0 0 0 0 0 0 0 0 0 0 0 0 0 127 0" result="hardAlpha"/>
<feOffset dy="0.0971718"/>
<feGaussianBlur stdDeviation="0.0485859"/>
<feComposite in2="hardAlpha" operator="arithmetic" k2="-1" k3="1"/>
<feColorMatrix type="matrix" values="0 0 0 0 0 0 0 0 0 0 0 0 0 0 0 0 0 0 0.25 0"/>
<feBlend mode="normal" in2="shape" result="effect1_innerShadow_431_2743"/>
</filter>
<filter id="filter7_i_431_2743" x="402.385" y="495.64" width="13.4114" height="11.428" filterUnits="userSpaceOnUse" color-interpolation-filters="sRGB">
<feFlood flood-opacity="0" result="BackgroundImageFix"/>
<feBlend mode="normal" in="SourceGraphic" in2="BackgroundImageFix" result="shape"/>
<feColorMatrix in="SourceAlpha" type="matrix" values="0 0 0 0 0 0 0 0 0 0 0 0 0 0 0 0 0 0 127 0" result="hardAlpha"/>
<feOffset dx="0.145758" dy="0.145758"/>
<feGaussianBlur stdDeviation="0.133611"/>
<feComposite in2="hardAlpha" operator="arithmetic" k2="-1" k3="1"/>
<feColorMatrix type="matrix" values="0 0 0 0 0 0 0 0 0 0 0 0 0 0 0 0 0 0 0.25 0"/>
<feBlend mode="normal" in2="shape" result="effect1_innerShadow_431_2743"/>
</filter>
<filter id="filter8_i_431_2743" x="489.18" y="466.228" width="27.2637" height="25.563" filterUnits="userSpaceOnUse" color-interpolation-filters="sRGB">
<feFlood flood-opacity="0" result="BackgroundImageFix"/>
<feBlend mode="normal" in="SourceGraphic" in2="BackgroundImageFix" result="shape"/>
<feColorMatrix in="SourceAlpha" type="matrix" values="0 0 0 0 0 0 0 0 0 0 0 0 0 0 0 0 0 0 127 0" result="hardAlpha"/>
<feOffset dy="0.0971718"/>
<feGaussianBlur stdDeviation="0.0485859"/>
<feComposite in2="hardAlpha" operator="arithmetic" k2="-1" k3="1"/>
<feColorMatrix type="matrix" values="0 0 0 0 0 0 0 0 0 0 0 0 0 0 0 0 0 0 0.25 0"/>
<feBlend mode="normal" in2="shape" result="effect1_innerShadow_431_2743"/>
</filter>
<filter id="filter9_i_431_2743" x="496.68" y="473.312" width="13.4114" height="11.428" filterUnits="userSpaceOnUse" color-interpolation-filters="sRGB">
<feFlood flood-opacity="0" result="BackgroundImageFix"/>
<feBlend mode="normal" in="SourceGraphic" in2="BackgroundImageFix" result="shape"/>
<feColorMatrix in="SourceAlpha" type="matrix" values="0 0 0 0 0 0 0 0 0 0 0 0 0 0 0 0 0 0 127 0" result="hardAlpha"/>
<feOffset dx="0.145758" dy="0.145758"/>
<feGaussianBlur stdDeviation="0.133611"/>
<feComposite in2="hardAlpha" operator="arithmetic" k2="-1" k3="1"/>
<feColorMatrix type="matrix" values="0 0 0 0 0 0 0 0 0 0 0 0 0 0 0 0 0 0 0.25 0"/>
<feBlend mode="normal" in2="shape" result="effect1_innerShadow_431_2743"/>
</filter>
<filter id="filter10_i_431_2743" x="583.475" y="443.9" width="27.2637" height="25.563" filterUnits="userSpaceOnUse" color-interpolation-filters="sRGB">
<feFlood flood-opacity="0" result="BackgroundImageFix"/>
<feBlend mode="normal" in="SourceGraphic" in2="BackgroundImageFix" result="shape"/>
<feColorMatrix in="SourceAlpha" type="matrix" values="0 0 0 0 0 0 0 0 0 0 0 0 0 0 0 0 0 0 127 0" result="hardAlpha"/>
<feOffset dy="0.0971718"/>
<feGaussianBlur stdDeviation="0.0485859"/>
<feComposite in2="hardAlpha" operator="arithmetic" k2="-1" k3="1"/>
<feColorMatrix type="matrix" values="0 0 0 0 0 0 0 0 0 0 0 0 0 0 0 0 0 0 0.25 0"/>
<feBlend mode="normal" in2="shape" result="effect1_innerShadow_431_2743"/>
</filter>
<filter id="filter11_i_431_2743" x="590.975" y="450.985" width="13.4114" height="11.428" filterUnits="userSpaceOnUse" color-interpolation-filters="sRGB">
<feFlood flood-opacity="0" result="BackgroundImageFix"/>
<feBlend mode="normal" in="SourceGraphic" in2="BackgroundImageFix" result="shape"/>
<feColorMatrix in="SourceAlpha" type="matrix" values="0 0 0 0 0 0 0 0 0 0 0 0 0 0 0 0 0 0 127 0" result="hardAlpha"/>
<feOffset dx="0.145758" dy="0.145758"/>
<feGaussianBlur stdDeviation="0.133611"/>
<feComposite in2="hardAlpha" operator="arithmetic" k2="-1" k3="1"/>
<feColorMatrix type="matrix" values="0 0 0 0 0 0 0 0 0 0 0 0 0 0 0 0 0 0 0.25 0"/>
<feBlend mode="normal" in2="shape" result="effect1_innerShadow_431_2743"/>
</filter>
<linearGradient id="paint0_linear_431_2743" x1="313.501" y1="205.743" x2="313.501" y2="243.391" gradientUnits="userSpaceOnUse">
<stop stop-color="#FFE924"/>
<stop offset="1" stop-color="#F0D805"/>
</linearGradient>
<linearGradient id="paint1_linear_431_2743" x1="437.604" y1="222.476" x2="437.604" y2="260.123" gradientUnits="userSpaceOnUse">
<stop stop-color="#FFE924"/>
<stop offset="1" stop-color="#F0D805"/>
</linearGradient>
<linearGradient id="paint2_linear_431_2743" x1="561.707" y1="239.208" x2="561.707" y2="276.856" gradientUnits="userSpaceOnUse">
<stop stop-color="#FFE924"/>
<stop offset="1" stop-color="#F0D805"/>
</linearGradient>
<linearGradient id="paint3_linear_431_2743" x1="408.516" y1="486.721" x2="408.516" y2="515.853" gradientUnits="userSpaceOnUse">
<stop stop-color="#FFE924"/>
<stop offset="1" stop-color="#F0D805"/>
</linearGradient>
<linearGradient id="paint4_linear_431_2743" x1="502.811" y1="464.394" x2="502.811" y2="493.526" gradientUnits="userSpaceOnUse">
<stop stop-color="#FFE924"/>
<stop offset="1" stop-color="#F0D805"/>
</linearGradient>
<linearGradient id="paint5_linear_431_2743" x1="597.105" y1="442.067" x2="597.105" y2="471.199" gradientUnits="userSpaceOnUse">
<stop stop-color="#FFE924"/>
<stop offset="1" stop-color="#F0D805"/>
</linearGradient>
</defs>
</svg>
