<svg width="1254" height="1067" viewBox="0 0 1254 1067" fill="none" xmlns="http://www.w3.org/2000/svg">
<rect x="171" y="220" width="198" height="843" rx="19" fill="#237658"/>
<rect x="171" y="220" width="198" height="25" rx="12.5" fill="#298B68"/>
<rect x="760" y="253" width="155" height="813" fill="#298B68"/>
<path d="M567 144.167L668.5 51L765 188.361V997H567V144.167Z" fill="#237457"/>
<path d="M567 144.167L642 75.5L765 188.361V997H567V144.167Z" fill="#121413" fill-opacity="0.1"/>
<path d="M567 217.68L642 153L765 259.309V1021H567V217.68Z" fill="#121413" fill-opacity="0.1"/>
<path d="M369 300C369 247.533 411.533 205 464 205H473C525.467 205 568 247.533 568 300V1063H378C373.029 1063 369 1058.97 369 1054V300Z" fill="#1F6B50"/>
<path d="M369 358C369 305.533 411.533 263 464 263H473C525.467 263 568 305.533 568 358V1063H378C373.029 1063 369 1058.97 369 1054V358Z" fill="white" fill-opacity="0.03"/>
<path d="M369 447C369 394.533 411.533 352 464 352H473C525.467 352 568 394.533 568 447V796H378C373.029 796 369 791.971 369 787V447Z" fill="white" fill-opacity="0.03"/>
<path d="M369 490C369 437.533 411.533 395 464 395H473C525.467 395 568 437.533 568 490V1010H378C373.029 1010 369 1005.97 369 1001V490Z" fill="white" fill-opacity="0.03"/>
<path d="M369 539C369 486.533 411.533 444 464 444H473C525.467 444 568 486.533 568 539V1021H378C373.029 1021 369 1016.97 369 1012V539Z" fill="white" fill-opacity="0.03"/>
<rect x="524.092" y="397.999" width="432.059" height="129.618" rx="22.8737" fill="#12543C"/>
<rect x="552.049" y="422.144" width="116.91" height="21.6029" rx="10.8015" fill="#124130"/>
<rect x="682.938" y="422.144" width="116.91" height="21.6029" rx="10.8015" fill="#124130"/>
<rect x="813.826" y="422.144" width="116.91" height="21.6029" rx="10.8015" fill="#124130"/>
<rect x="353.809" y="606.403" width="773.894" height="414.268" fill="#12543C"/>
<rect x="922" y="739" width="135.971" height="270.672" rx="7.62457" fill="#1A6449"/>
<rect x="938.521" y="758.062" width="102.932" height="72.1484" fill="black" fill-opacity="0.13"/>
<rect x="938.521" y="839.391" width="102.932" height="72.1484" fill="black" fill-opacity="0.13"/>
<rect x="938.521" y="921.99" width="102.932" height="68.6211" fill="black" fill-opacity="0.13"/>
<rect x="309.332" y="996.527" width="864.118" height="69.8919" rx="10.1661" fill="#0D3728"/>
<rect x="309.332" y="996.527" width="864.118" height="24.1445" rx="10.1661" fill="#196F50"/>
<mask id="mask0_435_3088" style="mask-type:alpha" maskUnits="userSpaceOnUse" x="410" y="650" width="455" height="248">
<rect x="410.992" y="650.881" width="453.662" height="246.528" rx="15.2491" fill="#1A6449"/>
</mask>
<g mask="url(#mask0_435_3088)">
<rect x="410.992" y="650.881" width="453.662" height="246.528" rx="15.2491" fill="#1A6449"/>
<rect x="389.193" y="690.199" width="49.3511" height="391.971" rx="4" transform="rotate(-45.5 389.193 690.199)" fill="white" fill-opacity="0.04"/>
<rect x="370" y="718.025" width="19.6654" height="391.971" rx="4" transform="rotate(-45.5 370 718.025)" fill="white" fill-opacity="0.04"/>
<rect x="630.193" y="594.199" width="49.3511" height="391.971" rx="4" transform="rotate(-45.5 630.193 594.199)" fill="white" fill-opacity="0.04"/>
<rect x="611" y="622.025" width="19.6654" height="391.971" rx="4" transform="rotate(-45.5 611 622.025)" fill="white" fill-opacity="0.04"/>
</g>
<path d="M289 518.086C289 487.556 313.749 462.808 344.278 462.808H399.556V656.599C399.556 687.128 374.807 711.877 344.278 711.877V711.877C313.749 711.877 289 687.128 289 656.599V518.086Z" fill="#24956C"/>
<path d="M399.557 462.808H510.113V656.599C510.113 687.128 485.364 711.877 454.835 711.877V711.877C424.306 711.877 399.557 687.128 399.557 656.599V462.808Z" fill="#28B884"/>
<path d="M510.111 462.808H620.668V656.599C620.668 687.128 595.919 711.877 565.389 711.877V711.877C534.86 711.877 510.111 687.128 510.111 656.599V462.808Z" fill="#24956C"/>
<path d="M620.668 462.808H731.224V656.599C731.224 687.128 706.475 711.877 675.946 711.877V711.877C645.417 711.877 620.668 687.128 620.668 656.599V462.808Z" fill="#28B884"/>
<path d="M731.225 462.808H841.781V656.599C841.781 687.128 817.032 711.877 786.503 711.877V711.877C755.973 711.877 731.225 687.128 731.225 656.599V462.808Z" fill="#24956C"/>
<path d="M841.781 462.808H952.337V656.599C952.337 687.128 927.589 711.877 897.059 711.877V711.877C866.53 711.877 841.781 687.128 841.781 656.599V462.808Z" fill="#28B884"/>
<path d="M952.338 462.808H1062.89V656.599C1062.89 687.128 1038.15 711.877 1007.62 711.877V711.877C977.087 711.877 952.338 687.128 952.338 656.599V462.808Z" fill="#24956C"/>
<path d="M1062.89 462.808H1118.17C1148.7 462.808 1173.45 487.556 1173.45 518.086V656.599C1173.45 687.128 1148.7 711.877 1118.17 711.877V711.877C1087.64 711.877 1062.89 687.128 1062.89 656.599V462.808Z" fill="#28B884"/>
<rect x="390.66" y="880.889" width="490.514" height="44.4766" rx="22.2383" fill="#1D7C5A"/>
<ellipse cx="679.988" cy="314.743" rx="18.9877" ry="23.7421" fill="#1A5D4C"/>
<ellipse cx="681.939" cy="314.742" rx="18.9877" ry="23.7421" fill="#FA8F12"/>
<ellipse cx="683.892" cy="314.745" rx="18.9877" ry="23.7421" fill="#FAE312"/>
<g filter="url(#filter0_i_435_3088)">
<ellipse cx="683.875" cy="314.8" rx="17.4886" ry="21.8676" fill="#FAE312"/>
<ellipse cx="683.875" cy="314.8" rx="17.4886" ry="21.8676" fill="url(#paint0_linear_435_3088)"/>
</g>
<g filter="url(#filter1_i_435_3088)">
<path d="M683.853 326.764L683.503 303.696L684.973 303.851L685.323 326.919L683.853 326.764ZM687.854 311.522C687.759 310.726 687.397 310.076 686.769 309.572C686.147 309.069 685.343 308.766 684.357 308.662C683.664 308.589 683.071 308.632 682.578 308.79C682.085 308.948 681.71 309.194 681.453 309.526C681.195 309.859 681.067 310.256 681.068 310.718C681.074 311.103 681.166 311.445 681.343 311.746C681.527 312.047 681.772 312.313 682.08 312.543C682.388 312.767 682.728 312.965 683.1 313.136C683.473 313.307 683.848 313.458 684.226 313.587L685.953 314.201C686.649 314.436 687.318 314.725 687.962 315.069C688.611 315.413 689.193 315.822 689.708 316.296C690.228 316.77 690.642 317.321 690.95 317.947C691.257 318.573 691.417 319.285 691.429 320.084C691.446 321.166 691.186 322.089 690.648 322.854C690.111 323.613 689.326 324.17 688.293 324.523C687.267 324.871 686.018 324.968 684.548 324.813C683.12 324.663 681.877 324.31 680.819 323.755C679.766 323.201 678.938 322.466 678.333 321.551C677.735 320.636 677.402 319.564 677.336 318.333L680.607 318.677C680.665 319.325 680.87 319.88 681.223 320.343C681.576 320.806 682.032 321.172 682.591 321.441C683.156 321.71 683.785 321.881 684.478 321.954C685.201 322.03 685.833 321.988 686.373 321.829C686.92 321.665 687.345 321.403 687.65 321.046C687.955 320.682 688.106 320.236 688.104 319.708C688.091 319.227 687.944 318.815 687.665 318.474C687.385 318.127 686.995 317.822 686.496 317.56C686.003 317.292 685.427 317.039 684.767 316.802L682.67 316.042C681.153 315.493 679.949 314.775 679.058 313.89C678.174 312.999 677.721 311.893 677.701 310.571C677.685 309.484 677.963 308.563 678.536 307.807C679.115 307.052 679.909 306.503 680.918 306.159C681.927 305.81 683.074 305.702 684.359 305.837C685.661 305.974 686.806 306.322 687.793 306.882C688.786 307.436 689.569 308.145 690.143 309.009C690.717 309.867 691.02 310.817 691.054 311.858L687.854 311.522Z" fill="#FFCD1E"/>
</g>
<path d="M1112 752.5L1080.2 700.04C939.47 467.922 680.777 333.966 410 353V353" stroke="white" stroke-width="4" stroke-linecap="round" stroke-dasharray="20 20"/>
<path d="M1094.79 848.862C1126.6 857.386 1159.3 838.507 1167.83 806.693C1176.35 774.88 1157.47 742.18 1125.66 733.655C1093.84 725.131 1061.14 744.011 1052.62 775.824C1044.1 807.637 1062.98 840.338 1094.79 848.862Z" fill="#FFEB33"/>
<path d="M1089.75 786.74C1089.75 786.74 1079.35 791.165 1081.79 778.912C1081.79 778.912 1072.58 782.505 1070.36 775.426C1068 767.948 1073.44 766.435 1074.48 765.928C1074.55 765.886 1074.58 765.773 1074.47 765.743C1073.1 765.436 1069.57 764.127 1070.35 758.277C1071.07 752.413 1076.39 752.687 1076.39 752.687C1076.39 752.687 1064.36 745.826 1073.71 735.791C1080.52 728.467 1089.12 737.072 1089.12 737.072C1089.12 737.072 1091.24 728.491 1097.83 728.744C1107.85 729.125 1107.86 739.488 1107.86 739.488C1107.86 739.488 1109.54 724.852 1123.88 728.33C1133.49 730.664 1128.67 741.428 1128.67 741.428C1128.67 741.428 1145.39 737.792 1147.87 750.269C1149.79 760.054 1138.17 762.03 1138.17 762.03C1138.17 762.03 1154.93 769.127 1148.22 783.564C1144.65 791.213 1139.05 784.319 1139.05 784.319C1139.05 784.319 1140.85 788.679 1137.08 791.668C1134 794.114 1130.63 791.758 1130.63 791.758C1130.63 791.758 1129.03 804.962 1116.26 793.603C1103.49 782.244 1116.09 780.895 1116.09 780.895L1115.79 771.605L1110.94 764.852L1103.92 762.789L1100.16 766.871L1089.79 764.397C1089.79 764.397 1087.12 770.527 1087.29 772.631C1087.45 776.31 1089.75 786.74 1089.75 786.74Z" fill="black"/>
<path d="M1030.44 756.187L1024.36 766.433L1037.19 772.597L1041.28 761.394L1030.44 756.187Z" fill="#F8B706"/>
<path d="M1093.16 799.105L1116.34 804.166C1118.51 805.352 1127.85 811.187 1128.81 813.021C1134.08 823.217 1137.63 829.622 1137.63 829.622L1124.28 832.648L1120.05 828.304L1119.87 848.19C1111.04 846.31 1102.66 850.001 1096.59 847.103C1085.22 841.63 1079.77 828.479 1078.7 821.405C1078.37 819.256 1081.43 811.23 1081.43 811.23L1072.77 808.486L1073.27 792.808L1093.16 799.105Z" fill="#0F9F4F"/>
<path d="M1101.44 756.19C1101.44 756.19 1093.73 762.604 1087.45 763.649C1087.45 763.649 1081.03 789.86 1097.78 797.013C1098.75 797.455 1098.45 799.253 1098.45 799.253L1093.16 799.107C1089.94 800.487 1090.04 803.058 1091.27 804.782C1093.38 807.77 1099.32 814.755 1099.32 814.755C1099.32 814.755 1117.55 808.006 1115.93 803.877L1108.26 801.093L1107.84 798.559C1111.27 798.205 1113.94 794.8 1115.56 793.053C1115.56 793.053 1112.54 789.396 1114.44 786.816C1116.17 784.432 1120.09 784.271 1120.09 784.271C1120.09 784.271 1126.85 787.11 1127.53 779.356C1128.09 773.205 1123.54 771.865 1120.55 777.365L1119.5 776.78C1121.39 771.53 1121.42 769.842 1122.39 766.65C1122.39 766.65 1119.86 770.454 1116.83 765.704C1113.45 760.438 1116.96 758.892 1116.96 758.892C1116.96 758.892 1109.38 764.798 1101.44 756.19Z" fill="#CDBF8D"/>
<path d="M1033.46 773.6C1043.87 794.444 1073.11 805.186 1073.11 805.186L1073.24 794.74C1052.65 786.798 1042.89 770.55 1042.89 770.55C1042.89 770.55 1043.48 761.986 1037.12 763.128C1030.75 764.27 1039.46 766.361 1039.46 766.361L1037.26 772.556L1032.05 770.069L1033.46 773.6Z" fill="#CDBF8D"/>
<path d="M1070.67 827.857L1096.21 827.733L1097.71 858.976L1071.04 860.372L1070.67 827.857Z" fill="#85D7FF"/>
<path d="M1124.97 832.533L1134.07 830.485C1134.07 830.485 1146.23 865.371 1097.07 853.897C1096.79 853.821 1096.51 853.745 1096.28 853.685C1092.07 852.918 1089.36 851.467 1088.64 850.788C1088.34 850.528 1088.08 850.395 1088.58 850.106C1089.08 849.816 1093.81 852.295 1095.31 851.908C1095.31 851.908 1089.51 849.809 1087.78 848.318C1087.55 848.072 1087.74 847.579 1088.14 847.685C1090.93 848.797 1096.65 849.844 1095.44 849.582C1090.31 848.389 1087.7 846.599 1087.43 846.04C1087.32 845.769 1087.63 845.49 1087.75 845.521C1092.61 846.823 1096.17 847.11 1096.17 847.11C1092.16 846.461 1088.65 844.428 1087.76 843.647C1087.37 843.3 1087.66 842.893 1087.95 842.969C1093.15 844.362 1097.13 844.883 1097.13 844.883L1097.15 841.86C1097.15 841.86 1099.53 843.589 1099.47 845.633C1099.48 845.817 1099.78 845.837 1099.95 845.882C1134.08 854.179 1124.97 832.533 1124.97 832.533Z" fill="#CDBF8D"/>
<path d="M1091.19 774.101C1093.78 774.795 1096.45 773.258 1097.14 770.666C1097.83 768.075 1096.3 765.411 1093.71 764.717C1091.11 764.023 1088.45 765.561 1087.76 768.152C1087.06 770.743 1088.6 773.407 1091.19 774.101Z" fill="white"/>
<path d="M1103.97 776.859C1106.56 777.553 1109.22 776.015 1109.92 773.424C1110.61 770.833 1109.07 768.169 1106.48 767.475C1103.89 766.781 1101.23 768.318 1100.53 770.91C1099.84 773.501 1101.38 776.164 1103.97 776.859Z" fill="white"/>
<path d="M1090.5 772.827C1092 773.228 1093.54 772.339 1093.94 770.84C1094.35 769.342 1093.46 767.801 1091.96 767.4C1090.46 766.998 1088.92 767.888 1088.52 769.386C1088.12 770.885 1089 772.425 1090.5 772.827Z" fill="#1D1E1C"/>
<path d="M1103.13 775.667C1104.63 776.068 1106.17 775.179 1106.57 773.68C1106.97 772.182 1106.09 770.641 1104.59 770.24C1103.09 769.838 1101.55 770.728 1101.15 772.226C1100.74 773.725 1101.63 775.265 1103.13 775.667Z" fill="#1D1E1C"/>
<path d="M1097.97 771.434C1098.73 771.759 1098.45 771.442 1102.69 778.455C1103.95 780.549 1094.33 780.941 1092.55 779.193C1089.82 776.521 1097.21 771.109 1097.97 771.434Z" fill="#2E98D4"/>
<path d="M1105.17 789.784C1103.23 790.66 1097.43 792.195 1097.87 787.163C1098.1 784.739 1102.73 785.314 1102.73 785.314C1104.3 782.161 1109.16 783.705 1109.16 783.705C1109.16 783.705 1110.07 787.524 1105.17 789.784Z" fill="#EE774D"/>
<path d="M1111.97 767.551L1117.64 773.978L1121.4 776.014C1127.95 771.468 1127.22 779.15 1127.22 779.15C1124.89 777.918 1132.72 782.139 1134.21 782.902C1134.21 782.902 1139.06 783.352 1137.26 778.325L1120.48 768.801L1111.97 767.551Z" fill="#F8B706"/>
<path d="M1117.64 773.979C1117.64 773.979 1118.48 774.022 1119.16 773.054C1119.6 772.323 1118.78 771.742 1118.78 771.742C1118.78 771.742 1120 772.188 1120.24 771.525C1120.49 770.805 1119.56 770.193 1119.56 770.193C1119.56 770.193 1120.69 770.496 1121.04 769.863C1121.4 769.23 1120.55 768.762 1120.55 768.762L1111.98 767.496L1117.64 773.979Z" fill="#FFD460"/>
<path d="M1111.97 767.552L1113.45 769.281L1114.07 767.871L1111.97 767.552Z" fill="black"/>
<path d="M1118.72 771.781L1123.86 774.735C1123.86 774.735 1126.34 774.308 1126.96 776.533L1136.88 782.222C1136.88 782.222 1137.64 781.88 1137.66 780.915C1137.67 779.95 1119.55 770.248 1119.55 770.248C1119.55 770.248 1120.37 771.255 1120.23 771.579C1120.02 771.888 1118.72 771.781 1118.72 771.781Z" fill="black"/>
<path d="M1137.05 778.21L1134.2 782.961C1134.2 782.961 1136.16 784.456 1137.58 782.109C1139.35 779.129 1137.05 778.21 1137.05 778.21Z" fill="#EE774D"/>
<path d="M312.002 680V680C482.186 462.213 750.788 341.619 1026.5 361V361" stroke="white" stroke-width="4" stroke-linecap="round" stroke-dasharray="40 40"/>
<path d="M320.421 724.934C345.846 717.883 360.741 691.556 353.69 666.131C346.639 640.706 320.312 625.811 294.887 632.862C269.463 639.913 254.567 666.24 261.618 691.665C268.669 717.09 294.996 731.985 320.421 724.934Z" fill="#90FA6B"/>
<path d="M306.204 687.063L316.773 683.274L320.389 689.272C320.389 689.272 350.52 684.583 331.575 645.976L339.004 643.915C339.004 643.915 358.006 676.888 335.854 692.318L343.823 710.062C343.823 710.062 332.1 727.552 303.224 726.464L302.688 711.135L302.615 703.488C302.615 703.488 262.211 707.026 265.987 665.689L275.273 664.828C275.273 664.828 270.945 693.698 303.103 694.257L307.441 693.244L306.204 687.063Z" fill="#FF5216"/>
<path d="M286.516 670.331L288.073 675.948C288.073 675.948 284.912 674.681 283.651 677.174C282.39 679.667 286.339 687.382 292.443 683.118C292.443 683.118 302.042 690.599 311.727 687.914C323.711 684.59 324.844 672.703 324.862 671.222C324.862 671.222 331.706 670.658 327.481 663.495C325.422 660.018 322.349 664.394 322.349 664.394L314.721 653.889L287.733 666.136L286.516 670.331Z" fill="#F4D3BA"/>
<path d="M286.055 674.171L287.458 673.734L288.084 675.99L288.065 673.518L321.117 662.876L322.36 664.436L321.636 662.684L322.198 662.481C322.198 662.481 317.448 643.463 298.247 649.788C278.946 656.093 286.055 674.171 286.055 674.171Z" fill="white"/>
<path d="M300.154 676.929C302.352 676.319 303.64 674.043 303.031 671.845C302.421 669.647 300.145 668.359 297.947 668.969C295.749 669.578 294.461 671.854 295.071 674.052C295.68 676.25 297.956 677.538 300.154 676.929Z" fill="white"/>
<path d="M313.498 672.324C315.696 671.715 316.984 669.438 316.374 667.24C315.765 665.042 313.489 663.754 311.291 664.364C309.092 664.974 307.805 667.25 308.414 669.448C309.024 671.646 311.3 672.934 313.498 672.324Z" fill="white"/>
<path d="M298.915 674.178C300.185 673.826 300.929 672.511 300.577 671.241C300.224 669.971 298.909 669.227 297.639 669.579C296.369 669.931 295.625 671.246 295.978 672.516C296.33 673.786 297.645 674.53 298.915 674.178Z" fill="#1D1E1C"/>
<path d="M312.239 669.672C313.509 669.32 314.253 668.005 313.901 666.735C313.549 665.465 312.234 664.721 310.964 665.073C309.694 665.425 308.95 666.741 309.302 668.011C309.654 669.281 310.969 670.025 312.239 669.672Z" fill="#1D1E1C"/>
<path d="M300.101 678.801C303.374 677.893 305.291 674.505 304.384 671.232C303.476 667.959 300.087 666.042 296.815 666.949C293.542 667.857 291.624 671.246 292.532 674.519C293.44 677.791 296.829 679.709 300.101 678.801Z" stroke="#E95426" stroke-width="0.917836" stroke-miterlimit="0"/>
<path d="M314.259 674.208C317.532 673.301 319.45 669.912 318.542 666.639C317.634 663.366 314.245 661.449 310.973 662.357C307.7 663.264 305.783 666.653 306.69 669.926C307.598 673.199 310.987 675.116 314.259 674.208Z" stroke="#E95426" stroke-width="0.917836" stroke-miterlimit="0"/>
<path d="M305.382 669.671C305.893 669.624 307.329 671.369 309.337 675.86C309.963 677.258 308.106 676.916 306.337 677.407C303.981 678.012 304.871 669.717 305.382 669.671Z" fill="#2E98D4"/>
<path d="M304.387 671.233L306.859 670.357" stroke="#E95426" stroke-width="0.917836" stroke-miterlimit="0"/>
<path d="M314.04 678.745C314.04 678.745 312.945 677.716 311.692 679.206C310.947 680.127 310.531 680.861 310.531 680.861C310.531 680.861 314.709 682.703 316.648 680.594C318.111 678.998 316.736 676.617 316.736 676.617C316.736 676.617 314.115 676.439 314.04 678.745Z" fill="#E95426"/>
<path d="M310.565 680.806C310.25 680.702 315.348 680.194 316.769 676.561C316.769 676.561 317.579 679.48 315.117 680.734C313.028 681.789 310.565 680.806 310.565 680.806Z" fill="#1D1E1C"/>
<path d="M289.585 682.432L290.353 689.838L295.218 687.632L289.585 682.432Z" fill="#2E98D4"/>
<path d="M325.863 668.658L325.907 676.027L330 674.13L325.863 668.658Z" fill="#2E98D4"/>
<path d="M267.329 665.556L273.547 665.308L273.791 663.097C273.791 663.097 278.371 661.065 277.874 656.012C277.718 654.245 277.814 653.218 277.576 653.046C276.861 652.53 274.827 657.904 274.827 657.904C274.827 657.904 274.755 647.685 273.635 647.424C271.999 647.021 271.979 655.361 271.979 655.361C271.979 655.361 271.211 646.239 269.867 646.374C268.801 646.479 268.753 655.922 268.753 655.922C268.753 655.922 267.87 647.071 266.536 646.726C265.347 646.389 265.871 656.864 265.871 656.864C265.871 656.864 264.807 651.825 263.08 651.78C261.353 651.735 265.248 660.799 267.119 662.566L267.329 665.556Z" fill="#F4D3BA"/>
<path d="M338.107 644.115L332.945 645.595L332.484 644.961C332.484 644.961 327.688 645.528 325.555 640.929C324.824 639.322 324.168 638.504 324.284 638.234C324.631 637.423 329.009 641.019 329.009 641.019C329.009 641.019 323.896 632.198 324.678 631.409C325.828 630.233 330.052 637.396 330.052 637.396C330.052 637.396 326.057 629.17 327.233 628.605C328.157 628.158 332.974 636.252 332.974 636.252C332.974 636.252 329.216 628.198 330.138 627.228C330.939 626.339 335.796 635.612 335.796 635.612C335.796 635.612 334.113 630.745 335.526 629.83C336.939 628.914 338.313 638.677 337.664 641.143L338.107 644.115Z" fill="#F4D3BA"/>
<path d="M306.482 621.264C307.794 625.996 306.637 631.27 302.764 634.82C302.231 635.301 302.503 642.465 302.54 641.74L293.863 642.908C293.322 643.534 291.406 638.684 290.6 638.527C285.081 637.343 281.895 635.988 279.859 628.647C277.824 621.306 282.138 613.68 289.479 611.644C296.82 609.609 304.433 613.879 306.482 621.264Z" fill="#FFD460"/>
<path d="M294.777 642.941C294.5 641.255 291.504 622.037 286.666 623.14C281.829 624.243 296.441 641.384 296.441 641.384C296.441 641.384 296.887 620.496 291.398 621.828C287.602 622.738 298.757 640.98 298.757 640.98C298.757 640.98 302.057 621.11 296.838 620.319C291.618 619.529 301.177 641.976 301.177 641.976" stroke="#1D1D1B" stroke-width="0.229459" stroke-miterlimit="10"/>
<path d="M293.607 642.837L295.495 647.409L302.509 646.083L302.498 641.752L293.607 642.837Z" fill="#CECDCE"/>
<path d="M318.154 646.327C318.998 643.064 316.619 639.626 312.84 638.649C309.061 637.671 305.314 639.525 304.47 642.788C303.626 646.052 306.005 649.49 309.783 650.467C313.562 651.444 317.31 649.591 318.154 646.327Z" fill="white"/>
<path d="M1035.82 410.668C1008.9 423.796 976.442 412.618 963.315 385.703C950.187 358.788 961.364 326.327 988.28 313.2C1015.19 300.073 1047.66 311.25 1060.78 338.165C1073.91 365.08 1062.73 397.541 1035.82 410.668Z" fill="#FF85F3"/>
<path d="M927.701 358.561C927.782 357.526 917.305 364.627 917.305 364.627L921.379 376.462C919.259 378.96 935.039 371.205 935.039 371.205C935.039 371.205 927.365 361.595 927.701 358.561Z" fill="#13CE66"/>
<path d="M1011.38 355.522C1011.38 355.522 1025.67 350.719 1029.72 351.206C1033.74 351.646 1043.67 357.112 1043.67 357.112C1043.67 357.112 1040.9 365.608 1034.69 369.69L1037.37 375.414C1037.37 375.414 1045.72 395.179 1028.47 403.649C1025.21 405.241 996.723 383.23 995.268 380.367C995.199 380.225 995.058 380.176 994.94 380.175C992.867 380.367 977.55 381.746 977.137 380.659C976.609 379.217 981.642 375.006 976.167 366.782C976.167 366.782 973.486 366.449 993.454 361.396C998.056 360.264 1011.38 355.522 1011.38 355.522Z" fill="#472A08"/>
<path d="M1002.75 340.112L1004.04 333.273C1004.04 333.273 993.614 318.974 991.197 320.621C988.779 322.269 989.351 321.521 989.351 321.521C989.351 321.521 983.56 316.732 978.029 318.961C972.497 321.19 964.524 327.539 965.194 338.399C965.502 342.993 966.505 339.166 966.505 339.166C966.505 339.166 968.405 349.426 974.109 353.555C975.558 354.605 966.505 339.166 982.247 332.894C989.41 329.927 1002.75 340.112 1002.75 340.112Z" fill="black"/>
<path d="M1002.57 336.979C1002.57 336.979 1000.91 326.486 1007.05 326.711C1012.37 326.929 1012.44 336.794 1008.7 338.97C1007.92 339.41 1007.62 340.608 1008.04 341.342C1010.33 345.202 1009.63 353.741 1008.67 356.086L1012.9 356.599C1012.9 356.599 1011.44 368.968 1004.53 365.604C1003.47 365.123 1000.91 362.272 1000.91 362.272C1000.91 362.272 988.412 371.354 977.465 359.357C977.465 359.357 975.098 363.03 969.787 357.304C965.756 353.002 966.631 350.233 973.566 351.243C973.566 351.243 971.996 345.742 967.177 337.784C967.177 337.784 971.197 333.656 972.968 333.085C981.139 330.623 988.265 324.219 988.265 324.219C992.569 331.842 1002.26 337.777 1002.57 336.979Z" fill="#F4DECA"/>
<path d="M977.557 369.034C977.557 369.034 980.506 375.561 977.767 378.712C975.029 381.864 935.375 372.973 935.375 372.973C935.375 372.973 931.016 373.284 929.971 371.861C927.648 368.659 925.7 368.028 923.93 366.08C922.09 364.108 925.272 363.668 925.882 363.957C926.866 364.414 927.815 366.001 929.841 365.95C931.866 365.899 926.753 359.139 926.753 359.139C930.791 355.529 934.544 366.467 937.819 366.217C946.961 365.507 977.557 369.034 977.557 369.034Z" fill="#F4DECA"/>
<path d="M1041.17 362.433L1034.67 369.644C1034.67 369.644 1047.19 389.426 1026.3 404.359C1022.39 407.146 1013.02 409.196 1012.65 413.124C1012.41 415.641 1015.67 412.589 1015.67 412.589C1015.67 412.589 1013.7 418.997 1017 421.195C1018.89 422.438 1016.02 414.994 1018.45 414.452C1018.45 414.452 1016.46 422.626 1020.94 422.199C1021.84 422.114 1019.83 415.361 1021.25 414.551C1021.25 414.551 1021.45 423.24 1024.06 421.265C1026.03 419.777 1022.92 415.203 1024.28 415.593C1025.31 415.909 1024.78 421.79 1028.33 420.059C1029.52 419.482 1026.8 413.075 1028.76 412.059C1035.2 408.802 1064.49 384.559 1041.17 362.433Z" fill="#F4DECA"/>
<path d="M1060.53 399.376L1047.34 393.218L1060.83 385.582L1060.53 399.376Z" fill="white"/>
<path d="M1084.05 347.201L1039.65 367.976L1061.06 398.417L1098.54 376.915L1084.05 347.201Z" fill="white" stroke="#05A7F9" stroke-width="0.526424" stroke-miterlimit="10"/>
<path d="M1067.67 374.748C1067.79 374.984 1067.9 375.221 1068.02 375.457C1068.07 375.434 1068.09 375.482 1068.09 375.482C1068.14 375.576 1068.21 375.718 1068.3 375.79C1068.62 376.217 1068.97 376.573 1069.4 376.836C1069.82 377.1 1070.29 377.34 1070.8 377.439C1071.25 377.514 1071.7 377.589 1072.14 377.546C1072.54 377.527 1072.97 377.437 1073.37 377.299C1073.37 377.299 1073.42 377.276 1073.44 377.324C1073.49 377.301 1073.53 377.278 1073.58 377.254C1073.72 377.185 1073.87 377.116 1074.06 377.024C1074.1 377.001 1074.15 376.978 1074.15 376.978C1074.17 376.907 1074.22 376.884 1074.27 376.861C1074.62 376.629 1074.96 376.35 1075.24 375.976C1075.65 375.486 1075.91 374.947 1076.08 374.336C1076.16 374.007 1076.21 373.631 1076.21 373.278C1076.22 372.689 1076.1 372.1 1075.9 371.556C1075.9 371.556 1075.88 371.509 1075.92 371.486C1075.83 371.297 1075.74 371.107 1075.65 370.918C1075.6 370.941 1075.58 370.894 1075.58 370.894C1075.51 370.752 1075.39 370.633 1075.32 370.491C1075.02 370.111 1074.67 369.755 1074.25 369.492C1073.83 369.229 1073.43 369.013 1072.96 368.89C1072.49 368.768 1072.04 368.693 1071.59 368.736C1071.12 368.731 1070.65 368.844 1070.23 369.052C1070.23 369.052 1070.18 369.075 1070.16 369.028C1069.97 369.12 1069.78 369.212 1069.59 369.304C1069.61 369.352 1069.56 369.375 1069.56 369.375C1069.42 369.444 1069.3 369.561 1069.11 369.653C1068.78 369.932 1068.42 370.282 1068.19 370.633C1067.97 370.913 1067.83 371.218 1067.71 371.57C1067.56 371.992 1067.44 372.462 1067.41 372.885C1067.38 373.426 1067.45 374.039 1067.63 374.535C1067.63 374.653 1067.7 374.677 1067.67 374.748ZM1069.99 369.52C1072.02 368.528 1074.48 369.376 1075.43 371.316C1076.52 373.422 1075.62 375.909 1073.59 376.901C1071.55 377.894 1069.09 377.045 1068.09 375.011C1067.08 372.929 1067.98 370.442 1069.99 369.52Z" fill="#D8D8D8"/>
<path d="M1070.13 369.099C1070.15 369.146 1070.2 369.123 1070.2 369.123C1070.65 368.963 1071.12 368.85 1071.57 368.807C1072.02 368.764 1072.51 368.816 1072.93 368.962C1073.4 369.084 1073.85 369.277 1074.22 369.563C1074.64 369.826 1074.99 370.183 1075.29 370.562C1075.41 370.681 1075.48 370.823 1075.55 370.965C1075.55 370.965 1075.57 371.012 1075.62 370.989C1075.02 369.759 1074.44 368.576 1073.84 367.346C1073.82 367.299 1073.82 367.299 1073.77 367.322C1072.59 367.899 1071.36 368.499 1070.13 369.099Z" fill="#FEFEFE"/>
<path d="M1067.67 374.747C1067.7 374.676 1067.67 374.629 1067.65 374.581C1067.44 374.038 1067.4 373.472 1067.43 372.931C1067.46 372.508 1067.53 372.061 1067.73 371.616C1067.85 371.264 1067.99 370.959 1068.21 370.679C1068.49 370.305 1068.8 369.978 1069.14 369.699C1069.25 369.583 1069.4 369.513 1069.59 369.421C1069.59 369.421 1069.63 369.398 1069.61 369.351C1068.38 369.951 1067.2 370.528 1065.97 371.128C1065.92 371.151 1065.92 371.151 1065.94 371.198C1066.52 372.381 1067.1 373.564 1067.67 374.747Z" fill="#FEFEFE"/>
<path d="M1075.94 371.533C1075.9 371.556 1075.9 371.556 1075.94 371.533C1076.17 372.124 1076.24 372.737 1076.23 373.325C1076.23 373.678 1076.15 374.007 1076.1 374.384C1075.93 374.994 1075.67 375.533 1075.26 376.023C1074.98 376.397 1074.64 376.676 1074.29 376.908C1074.24 376.931 1074.19 376.955 1074.17 377.025C1075.35 376.448 1076.54 375.871 1077.72 375.294C1077.77 375.271 1077.77 375.271 1077.74 375.224C1077.12 373.946 1076.52 372.716 1075.94 371.533Z" fill="#FEFEFE"/>
<path d="M1073.39 377.348C1073.37 377.301 1073.32 377.324 1073.39 377.348C1072.94 377.508 1072.52 377.598 1072.12 377.618C1071.67 377.66 1071.22 377.585 1070.78 377.51C1070.26 377.411 1069.79 377.171 1069.37 376.908C1068.93 376.598 1068.58 376.241 1068.27 375.861C1068.23 375.767 1068.14 375.695 1068.07 375.553C1068.07 375.553 1068.04 375.506 1068 375.529C1068.57 376.712 1069.15 377.895 1069.73 379.077C1069.75 379.125 1069.75 379.125 1069.8 379.102C1071.03 378.502 1072.21 377.925 1073.39 377.348Z" fill="#FEFEFE"/>
<path d="M1069.99 369.52C1067.95 370.512 1067.1 372.976 1068.1 375.011C1069.09 377.045 1071.55 377.894 1073.59 376.901C1075.62 375.909 1076.52 373.422 1075.43 371.316C1074.48 369.376 1072.05 368.457 1069.99 369.52ZM1073.69 373.159C1073.88 373.537 1074.06 373.916 1074.25 374.294C1074.29 374.389 1074.32 374.436 1074.18 374.506C1073.44 374.804 1072.62 374.443 1072.28 373.734C1072.07 373.308 1071.86 372.882 1071.65 372.456C1071.49 372.125 1071.33 371.794 1071.19 371.51C1071.15 371.415 1071.19 371.392 1071.24 371.369C1071.29 371.346 1071.33 371.323 1071.33 371.323C1072 371.117 1072.79 371.431 1073.14 372.023C1073.3 372.355 1073.49 372.733 1073.69 373.159ZM1071.32 372.971C1071.48 373.302 1071.62 373.586 1071.78 373.917C1071.85 374.059 1071.9 374.154 1071.96 374.295C1072.01 374.39 1072.01 374.39 1071.92 374.436C1071.87 374.459 1071.82 374.482 1071.77 374.505C1070.95 374.733 1070.13 374.254 1069.88 373.38C1069.7 372.766 1070.03 372.016 1070.58 371.692C1070.67 371.646 1070.72 371.623 1070.77 371.717C1070.9 372.119 1071.11 372.545 1071.32 372.971Z" fill="#FEFEFE"/>
<path d="M1073.69 373.158C1073.51 372.78 1073.32 372.401 1073.14 372.023C1072.84 371.408 1072.02 371.046 1071.33 371.322C1071.29 371.345 1071.24 371.368 1071.24 371.368C1071.14 371.414 1071.14 371.414 1071.19 371.509C1071.35 371.84 1071.51 372.171 1071.65 372.455C1071.86 372.881 1072.07 373.307 1072.27 373.733C1072.62 374.442 1073.47 374.733 1074.17 374.505C1074.27 374.459 1074.32 374.436 1074.25 374.294C1074.06 373.915 1073.88 373.537 1073.69 373.158Z" fill="#4064AB"/>
<path d="M1071.32 372.972C1071.11 372.546 1070.9 372.12 1070.69 371.694C1070.65 371.6 1070.62 371.552 1070.5 371.669C1069.91 372.016 1069.62 372.743 1069.8 373.357C1070.03 374.183 1070.85 374.662 1071.7 374.482C1071.75 374.459 1071.79 374.436 1071.84 374.413C1071.94 374.367 1071.94 374.367 1071.89 374.272C1071.82 374.13 1071.78 374.036 1071.71 373.894C1071.61 373.587 1071.45 373.256 1071.32 372.972Z" fill="#61BDEB"/>
<path d="M985.485 345.663C985.979 345.715 985.834 346.137 991.061 350.85C992.601 352.207 989.361 356.131 987.745 355.22C985.264 353.736 984.991 345.611 985.485 345.663Z" fill="#472A08"/>
<path d="M992.017 346.929C989.77 348.025 987.06 347.092 985.964 344.845C984.868 342.598 985.801 339.887 988.048 338.791C990.295 337.695 993.006 338.628 994.102 340.876C995.198 343.123 994.265 345.833 992.017 346.929Z" fill="white"/>
<path d="M981.828 353.538C979.581 354.634 976.87 353.701 975.774 351.453C974.678 349.206 975.611 346.496 977.859 345.4C980.106 344.304 982.816 345.237 983.912 347.484C985.008 349.731 984.075 352.442 981.828 353.538Z" fill="white"/>
<path d="M990.282 346.489C988.975 347.126 987.399 346.584 986.762 345.277C986.125 343.97 986.668 342.395 987.974 341.757C989.281 341.12 990.856 341.663 991.494 342.969C992.131 344.276 991.588 345.852 990.282 346.489Z" fill="#1D1D1B"/>
<path d="M980.254 353.192C978.948 353.829 977.372 353.287 976.735 351.98C976.098 350.674 976.64 349.098 977.947 348.46C979.253 347.823 980.829 348.366 981.466 349.672C982.104 350.979 981.561 352.555 980.254 353.192Z" fill="#1D1D1B"/>
<path d="M998.777 344.216C1000.33 344.396 1003.08 350.027 999.686 352.324C998.69 353.044 994.837 352.229 996.019 351.77C1002.21 349.453 997.272 344.013 998.777 344.216Z" fill="black"/>
<path d="M1039.36 330.869L1041.94 336.168L1025.13 341.088L1039.36 330.869Z" fill="white"/>
<path d="M1029.43 321.186L1034.71 324.817L1023.13 336.969L1029.43 321.186Z" fill="white"/>
<path d="M1023.67 319.953L1017.52 319.845L1019.7 335.594L1023.67 319.953Z" fill="white"/>
<path d="M369.677 377.555C396.292 393.232 430.577 384.365 446.254 357.75C461.932 331.136 453.065 296.851 426.45 281.173C399.835 265.496 365.551 274.363 349.873 300.978C334.196 327.593 343.063 361.877 369.677 377.555Z" fill="#4F11FF"/>
<path d="M397.248 333.749C397.248 333.749 370.756 316.059 361.287 317.434C351.819 318.809 343.66 326.328 338.589 333.327L357.187 345.104L353.819 348.998C353.819 348.998 354.779 386.854 402.074 385.323C405.277 385.25 414.445 369.793 413.941 367.537C413.941 367.537 429.572 371.688 432.394 367.219C435.465 362.328 432.213 342.526 432.213 342.526C432.213 342.526 423.82 345.293 419.358 344.498C412.867 343.392 397.248 333.749 397.248 333.749Z" fill="#F8B700"/>
<path d="M391.993 379.259L407.197 388.215C407.197 388.215 400.099 404.449 397.744 404.263C395.389 404.076 385.429 400.169 383.761 396.026C383.17 394.667 382.424 395.934 383.806 393.588C384.248 392.837 374.896 392.511 379.982 383.877C384.681 375.9 389.824 382.406 389.824 382.406C391.297 379.797 391.993 379.259 391.993 379.259Z" fill="#FFD55F"/>
<path d="M398.109 295.704L391.507 304.014C391.507 304.014 391.323 298.533 388.228 298.1C385.086 297.64 379.749 305.304 382.534 307.766C385.318 310.228 388.211 311.111 387.977 310.972C387.742 310.834 384.952 322.653 387.833 325.488C390.714 328.323 406.006 344.852 415.032 337.148C423.074 330.256 424.041 328.613 424.041 328.613C424.041 328.613 427.893 332.589 431.719 325.235C435.498 317.854 429.16 319.493 427.769 319.495C426.377 319.497 431.158 308.914 431.158 308.914L402.816 292.219L398.109 295.704Z" fill="#C4924D"/>
<path d="M341.055 334.401L357.362 344.702C357.362 344.702 348.446 357.906 374.577 372.667C374.577 372.667 385.396 376.511 387.378 377.868C388.289 378.468 389.852 382.359 389.852 382.359C389.852 382.359 386.535 378.762 384.091 380.23C380.829 382.227 388.498 383.585 388.498 383.585C388.498 383.585 386.862 390.332 384.228 390.297C372.065 390.022 370.639 383.43 370.639 383.43C370.639 383.43 322.325 372.1 341.055 334.401Z" fill="#C4924D"/>
<path d="M486.271 320.076C483.692 319.947 477.456 331.822 477.488 333.484C477.517 334.829 476.186 335.372 476.186 335.372C476.186 335.372 438.751 351.497 432.371 344.516L433.215 365.617C433.215 365.617 471.66 363.55 483.74 340.896C483.74 340.896 485.325 340.566 486.695 340.172C493.881 338.274 495.971 328.823 493.292 330.153C491.952 330.817 488.949 334.736 489.17 333.287C489.17 333.287 497.92 320.364 495.165 319.247L486.271 320.076Z" fill="#C4924D"/>
<path d="M392.208 328.252L382.654 329.451C382.654 329.451 394.407 344.906 400.621 342.941C406.835 340.977 402.719 334.444 402.719 334.444L392.208 328.252V328.252Z" fill="#C4924D"/>
<path d="M385.028 328.638C385.028 328.638 383.746 325.986 380.037 327.025C376.328 328.064 374.414 338.503 378.305 342.628C382.168 346.799 387.855 344.334 387.855 344.334C387.855 344.334 392.361 339.151 385.028 328.638Z" fill="#E95426"/>
<path d="M407.628 339.737C407.628 339.737 410.288 338.333 412.779 341.507C415.271 344.682 410.391 354.575 404.581 355.64C398.771 356.705 395.513 351.183 395.513 351.183C395.513 351.183 394.294 343.703 407.628 339.737Z" fill="#E95426"/>
<path d="M387.034 320.085C387.034 320.085 377.036 316.029 379.607 329.047C382.178 342.064 385.425 332.474 385.425 332.474C385.425 332.474 377.821 323.065 387.034 320.085Z" fill="#E95426"/>
<path d="M382.189 341.369C383.995 340.902 384.835 338.116 384.067 335.146C383.299 332.176 381.213 330.147 379.408 330.614C377.602 331.08 376.761 333.867 377.529 336.837C378.298 339.807 380.384 341.836 382.189 341.369Z" fill="#F39B7E"/>
<path d="M406.666 353.221C409.336 351.711 410.756 349.17 409.838 347.547C408.919 345.924 406.011 345.833 403.34 347.344C400.67 348.855 399.25 351.395 400.168 353.018C401.087 354.641 403.996 354.732 406.666 353.221Z" fill="#F39B7E"/>
<path d="M382.633 326.911C382.633 326.911 388.054 334.339 387.874 344.409C387.874 344.409 390.875 341.246 389.012 334.966C386.689 327.214 382.633 326.911 382.633 326.911Z" fill="#EE774D"/>
<path d="M395.512 351.183C395.512 351.183 401.766 342.605 411.544 340.275C411.544 340.275 407.84 338.409 402.103 341.603C394.72 345.66 395.512 351.183 395.512 351.183Z" fill="#EE774D"/>
<path d="M400.003 315.018C402.283 316.361 405.221 315.602 406.564 313.321C407.908 311.041 407.148 308.103 404.868 306.759C402.587 305.416 399.649 306.176 398.306 308.456C396.963 310.737 397.722 313.675 400.003 315.018Z" fill="white"/>
<path d="M414.946 323.126C417.227 324.47 420.165 323.71 421.508 321.429C422.851 319.149 422.091 316.211 419.811 314.868C417.53 313.525 414.593 314.284 413.249 316.565C411.906 318.845 412.666 321.783 414.946 323.126Z" fill="white"/>
<path d="M402.24 314.442C403.561 315.22 405.264 314.78 406.043 313.458C406.821 312.137 406.381 310.434 405.059 309.656C403.737 308.877 402.035 309.318 401.256 310.639C400.478 311.961 400.918 313.663 402.24 314.442Z" fill="#1D1E1C"/>
<path d="M417.005 322.634C418.327 323.413 420.03 322.973 420.808 321.651C421.587 320.329 421.146 318.627 419.825 317.848C418.503 317.07 416.801 317.51 416.022 318.832C415.243 320.153 415.684 321.856 417.005 322.634Z" fill="#1D1E1C"/>
<path d="M410.936 314.698C407.298 312.935 410.464 315.179 402.49 318.951C400.145 320.035 406.343 326.467 408.87 325.932C412.833 325.106 411.668 315.066 410.936 314.698Z" fill="#2E98D4"/>
<path d="M395.039 303.059L392.209 303.035C392.209 303.035 379.094 320.15 384.903 326.921C390.711 333.692 404.132 344.063 408.877 342.875C413.574 341.661 428.909 325.285 428.317 317.921C427.993 313.748 427.613 317.506 427.613 317.506C427.613 317.506 415.552 335.62 413.296 331.51C411.238 327.707 402.062 324.83 402.062 324.83C400.052 319.98 395.819 319.762 395.584 319.624C395.659 319.605 390.548 315.835 395.039 303.059Z" fill="#1D1D1B"/>
<path d="M395.559 321.063C395.559 321.063 396.464 325.642 401.547 325.918C401.547 325.918 400.811 328.455 403.906 329.962C403.906 329.962 398.191 333.548 394.506 327.143C392.147 323.099 395.559 321.063 395.559 321.063Z" fill="#C4924D"/>
<path d="M410.055 303.752L418.971 309.003L418.028 301.053L410.055 303.752Z" fill="#1D1D1B"/>
<path d="M391.506 304.012C391.506 304.012 410.752 307.069 416.722 302.621C416.722 302.621 418.334 311.472 427.806 319.643C427.806 319.643 436.728 314.153 436.844 305.373C436.997 289.662 411.348 280.305 401.655 286.352C397.752 288.793 392.222 296.786 391.506 304.012Z" fill="#F8B700"/>
<path d="M208.352 591.046L216.176 602.313L229.751 600.351L218.485 608.175L220.446 621.75L212.623 610.484L199.047 612.446L210.314 604.622L208.352 591.046Z" fill="white"/>
<path d="M1147.35 548.046L1155.18 559.313L1168.75 557.351L1157.48 565.175L1159.45 578.75L1151.62 567.484L1138.05 569.446L1149.31 561.622L1147.35 548.046Z" fill="white"/>
<path d="M541.003 323.667L537.646 333.572L545.006 341.004L535.101 337.646L527.669 345.006L531.027 335.101L523.667 327.669L533.572 331.027L541.003 323.667Z" fill="white"/>
<path d="M278.003 836.667L274.646 846.572L282.006 854.004L272.101 850.646L264.669 858.006L268.027 848.101L260.667 840.669L270.572 844.027L278.003 836.667Z" fill="white"/>
<rect x="90" y="916" width="341" height="151" rx="11" fill="#1F8963"/>
<rect x="80" y="916" width="363" height="34" rx="11" fill="#125C42"/>
<rect x="31.2422" y="965" width="144.667" height="102" rx="11" fill="#239069"/>
<rect x="24" y="965" width="157" height="25" rx="11" fill="#125C42"/>
<rect x="1066.32" y="916" width="181.303" height="151" rx="11" fill="#1F8963"/>
<rect x="1061" y="916" width="193" height="34" rx="6" fill="#197151"/>
<rect x="443" y="798" width="149" height="65" rx="10" fill="#1D825E"/>
<path d="M497.335 830.753C497.335 832.961 496.921 834.852 496.094 836.427C495.273 837.994 494.153 839.195 492.732 840.029C491.317 840.863 489.713 841.28 487.918 841.28C486.124 841.28 484.516 840.863 483.095 840.029C481.681 839.188 480.56 837.984 479.733 836.417C478.912 834.842 478.502 832.954 478.502 830.753C478.502 828.545 478.912 826.657 479.733 825.089C480.56 823.514 481.681 822.31 483.095 821.476C484.516 820.643 486.124 820.226 487.918 820.226C489.713 820.226 491.317 820.643 492.732 821.476C494.153 822.31 495.273 823.514 496.094 825.089C496.921 826.657 497.335 828.545 497.335 830.753ZM493.602 830.753C493.602 829.198 493.359 827.887 492.872 826.82C492.391 825.746 491.724 824.935 490.87 824.388C490.016 823.835 489.032 823.558 487.918 823.558C486.804 823.558 485.82 823.835 484.966 824.388C484.112 824.935 483.442 825.746 482.955 826.82C482.475 827.887 482.234 829.198 482.234 830.753C482.234 832.307 482.475 833.621 482.955 834.695C483.442 835.763 484.112 836.573 484.966 837.127C485.82 837.674 486.804 837.948 487.918 837.948C489.032 837.948 490.016 837.674 490.87 837.127C491.724 836.573 492.391 835.763 492.872 834.695C493.359 833.621 493.602 832.307 493.602 830.753Z" fill="#12543C"/>
<path d="M500.845 841V820.506H508.53C510.104 820.506 511.425 820.799 512.493 821.386C513.567 821.973 514.377 822.781 514.924 823.808C515.478 824.829 515.755 825.989 515.755 827.29C515.755 828.605 515.478 829.772 514.924 830.793C514.37 831.813 513.553 832.617 512.472 833.204C511.392 833.785 510.061 834.075 508.48 834.075H503.386V831.023H507.979C508.9 831.023 509.654 830.863 510.241 830.543C510.828 830.222 511.262 829.782 511.542 829.222C511.829 828.661 511.972 828.018 511.972 827.29C511.972 826.563 511.829 825.923 511.542 825.369C511.262 824.815 510.825 824.385 510.231 824.078C509.644 823.765 508.887 823.608 507.959 823.608H504.557V841H500.845Z" fill="#12543C"/>
<path d="M518.979 841V820.506H532.308V823.618H522.692V829.182H531.618V832.294H522.692V837.888H532.388V841H518.979Z" fill="#12543C"/>
<path d="M552.937 820.506V841H549.635L539.979 827.04H539.809V841H536.096V820.506H539.418L549.065 834.475H549.245V820.506H552.937Z" fill="#12543C"/>
<path d="M838 146.5C838 114.191 864.191 88 896.5 88H1181.5C1213.81 88 1240 114.191 1240 146.5C1240 178.809 1213.81 205 1181.5 205H896.5C864.191 205 838 178.809 838 146.5Z" fill="#43B78D"/>
<path d="M912 97.5C912 58.0116 944.012 26 983.5 26H1008.5C1047.99 26 1080 58.0116 1080 97.5C1080 136.988 1047.99 169 1008.5 169H983.5C944.012 169 912 136.988 912 97.5Z" fill="#43B78D"/>
<path d="M402 120.5C402 88.1913 375.809 62 343.5 62H58.5C26.1913 62 0 88.1913 0 120.5C0 152.809 26.1913 179 58.5 179H343.5C375.809 179 402 152.809 402 120.5Z" fill="#43B78D"/>
<path d="M328 71.5C328 32.0116 295.988 0 256.5 0H231.5C192.012 0 160 32.0116 160 71.5C160 110.988 192.012 143 231.5 143H256.5C295.988 143 328 110.988 328 71.5Z" fill="#43B78D"/>
<defs>
<filter id="filter0_i_435_3088" x="666.387" y="292.933" width="34.9766" height="43.8812" filterUnits="userSpaceOnUse" color-interpolation-filters="sRGB">
<feFlood flood-opacity="0" result="BackgroundImageFix"/>
<feBlend mode="normal" in="SourceGraphic" in2="BackgroundImageFix" result="shape"/>
<feColorMatrix in="SourceAlpha" type="matrix" values="0 0 0 0 0 0 0 0 0 0 0 0 0 0 0 0 0 0 127 0" result="hardAlpha"/>
<feOffset dy="0.145881"/>
<feGaussianBlur stdDeviation="0.0729404"/>
<feComposite in2="hardAlpha" operator="arithmetic" k2="-1" k3="1"/>
<feColorMatrix type="matrix" values="0 0 0 0 0 0 0 0 0 0 0 0 0 0 0 0 0 0 0.25 0"/>
<feBlend mode="normal" in2="shape" result="effect1_innerShadow_435_3088"/>
</filter>
<filter id="filter1_i_435_3088" x="677.336" y="303.696" width="14.3126" height="23.4415" filterUnits="userSpaceOnUse" color-interpolation-filters="sRGB">
<feFlood flood-opacity="0" result="BackgroundImageFix"/>
<feBlend mode="normal" in="SourceGraphic" in2="BackgroundImageFix" result="shape"/>
<feColorMatrix in="SourceAlpha" type="matrix" values="0 0 0 0 0 0 0 0 0 0 0 0 0 0 0 0 0 0 127 0" result="hardAlpha"/>
<feOffset dx="0.218821" dy="0.218821"/>
<feGaussianBlur stdDeviation="0.200586"/>
<feComposite in2="hardAlpha" operator="arithmetic" k2="-1" k3="1"/>
<feColorMatrix type="matrix" values="0 0 0 0 0 0 0 0 0 0 0 0 0 0 0 0 0 0 0.25 0"/>
<feBlend mode="normal" in2="shape" result="effect1_innerShadow_435_3088"/>
</filter>
<linearGradient id="paint0_linear_435_3088" x1="683.875" y1="292.932" x2="683.875" y2="336.668" gradientUnits="userSpaceOnUse">
<stop stop-color="#FFE924"/>
<stop offset="1" stop-color="#F0D805"/>
</linearGradient>
</defs>
</svg>
