<svg width="953" height="365" viewBox="0 0 953 365" fill="none" xmlns="http://www.w3.org/2000/svg">
<path d="M916.694 339.263C935.448 336.124 948.106 318.377 944.968 299.624C941.83 280.87 924.083 268.212 905.329 271.35C886.576 274.488 873.917 292.235 877.055 310.989C880.194 329.742 897.941 342.401 916.694 339.263Z" fill="#FC3BE8"/>
<path d="M899.173 307.835C899.173 307.835 894.772 312.648 893.117 305.629C893.117 305.629 889.143 309.719 886.281 306.533C883.251 303.169 885.744 301.073 886.171 300.556C886.199 300.518 886.188 300.451 886.121 300.462C885.327 300.629 883.161 300.786 882.17 297.526C881.146 294.272 884.005 293.143 884.005 293.143C884.005 293.143 876.04 292.42 878.551 284.909C880.375 279.431 886.953 281.893 886.953 281.893C886.953 281.893 886.011 276.878 889.537 275.431C894.89 273.234 897.377 278.676 897.377 278.676C897.377 278.676 894.755 270.584 903.119 268.979C908.729 267.904 908.772 274.713 908.772 274.713C908.772 274.713 916.689 268.798 920.975 274.761C924.328 279.441 918.698 283.261 918.698 283.261C918.698 283.261 929.201 282.976 929.129 292.169C929.088 297.04 924.493 294.76 924.493 294.76C924.493 294.76 926.483 296.62 925.218 299.092C924.186 301.115 921.853 300.683 921.853 300.683C921.853 300.683 924.174 308.002 914.746 305.092C905.318 302.182 911.615 298.457 911.615 298.457L909.234 293.648L905.067 291.263L900.885 291.86L899.887 294.904L893.85 296.086C893.85 296.086 893.914 299.946 894.503 301.012C895.471 302.905 899.173 307.835 899.173 307.835Z" fill="#F6FA38"/>
<path d="M860.702 305.984L859.962 312.822L868.177 312.989L867.645 306.124L860.702 305.984Z" fill="#F8B706"/>
<path d="M903.924 313.514L917.314 310.623C918.736 310.727 925.041 311.556 925.986 312.289C931.193 316.385 934.594 318.898 934.594 318.898L928.304 323.685L925.043 322.415L929.71 332.905C924.622 334.03 921.104 337.976 917.221 337.906C909.933 337.756 903.925 332.149 901.668 328.69C900.978 327.641 900.664 322.692 900.664 322.692L895.46 323.323L891.972 314.966L903.924 313.514Z" fill="#0F9F4F"/>
<path d="M898.003 288.986C898.003 288.986 895.485 294.203 892.437 296.255C892.437 296.255 895.341 311.561 905.85 311.31C906.466 311.309 906.739 312.325 906.739 312.325L903.924 313.516C902.564 315.011 903.231 316.338 904.293 316.948C906.115 318.014 910.91 320.26 910.91 320.26C910.91 320.26 918.87 312.351 917.03 310.569L912.332 310.944L911.509 309.712C913.224 308.705 913.812 306.277 914.244 304.972C914.244 304.972 911.783 303.774 912.165 301.963C912.502 300.296 914.524 299.273 914.524 299.273C914.524 299.273 918.75 299.148 917.253 294.911C916.074 291.546 913.363 291.931 913.11 295.536L912.416 295.48C912.153 292.27 911.763 291.376 911.512 289.466C911.512 289.466 911.092 292.071 908.363 290.301C905.329 288.342 906.8 286.691 906.8 286.691C906.8 286.691 904.232 291.609 898.003 288.986Z" fill="#CDBF8D"/>
<path d="M866.459 314.407C876.918 322.865 894.847 321.509 894.847 321.509L892.416 315.989C879.697 316.747 870.678 310.549 870.678 310.549C870.678 310.549 868.942 305.907 865.871 308.03C862.801 310.154 867.877 309.168 867.877 309.168L868.202 312.95L864.869 312.891L866.459 314.407Z" fill="#CDBF8D"/>
<path d="M898.995 334.003L912.383 327.823L920.653 343.876L906.977 350.995L898.995 334.003Z" fill="#85D7FF"/>
<path d="M928.641 323.459L932.927 320.206C932.927 320.206 947.668 335.622 919.099 341.361C918.933 341.389 918.766 341.417 918.633 341.439C916.234 342.047 914.467 341.931 913.923 341.748C913.706 341.682 913.534 341.676 913.728 341.404C913.922 341.132 917 341.302 917.694 340.74C917.694 340.74 914.144 341.026 912.883 340.655C912.7 340.582 912.683 340.277 912.916 340.238C914.649 340.153 917.904 339.335 917.209 339.485C914.227 340.087 912.427 339.772 912.149 339.544C912.027 339.428 912.127 339.205 912.194 339.194C915.059 338.715 916.997 338.013 916.997 338.013C914.737 338.631 912.404 338.405 911.754 338.206C911.465 338.117 911.521 337.834 911.687 337.806C914.753 337.293 916.969 336.614 916.969 336.614L916.257 335.02C916.257 335.02 917.923 335.358 918.379 336.446C918.43 336.541 918.591 336.479 918.691 336.463C938.606 332.65 928.641 323.459 928.641 323.459Z" fill="#CDBF8D"/>
<path d="M896.906 300.85C898.434 300.594 899.465 299.149 899.209 297.621C898.954 296.094 897.508 295.063 895.981 295.318C894.453 295.574 893.422 297.02 893.678 298.547C893.933 300.075 895.379 301.106 896.906 300.85Z" fill="white"/>
<path d="M904.277 299.24C905.805 298.984 906.836 297.539 906.58 296.011C906.325 294.484 904.879 293.452 903.352 293.708C901.824 293.964 900.793 295.409 901.049 296.937C901.304 298.464 902.75 299.495 904.277 299.24Z" fill="white"/>
<path d="M896.24 300.344C897.124 300.197 897.72 299.361 897.572 298.477C897.424 297.594 896.588 296.998 895.705 297.145C894.822 297.293 894.225 298.129 894.373 299.013C894.521 299.896 895.357 300.492 896.24 300.344Z" fill="#1D1E1C"/>
<path d="M903.553 298.813C904.436 298.665 905.032 297.829 904.885 296.946C904.737 296.063 903.901 295.466 903.017 295.614C902.134 295.762 901.538 296.598 901.686 297.481C901.833 298.365 902.669 298.961 903.553 298.813Z" fill="#1D1E1C"/>
<path d="M899.826 297.827C900.303 297.816 900.081 297.716 903.988 300.385C905.149 301.184 900.191 303.692 898.841 303.199C896.763 302.45 899.348 297.838 899.826 297.827Z" fill="#2E98D4"/>
<path d="M908.001 305.742C907.197 306.665 904.515 308.861 903.541 306.112C903.079 304.785 905.651 303.978 905.651 303.978C905.721 301.945 908.643 301.593 908.643 301.593C908.643 301.593 910.038 303.38 908.001 305.742Z" fill="#EE774D"/>
<path d="M906.255 292.434L910.772 294.453L913.233 294.623C915.585 290.667 917.043 294.876 917.043 294.876C915.521 294.788 920.648 295.129 921.615 295.173C921.615 295.173 924.269 294.249 922.118 292.04L911.025 291.053L906.255 292.434Z" fill="#F8B706"/>
<path d="M910.772 294.454C910.772 294.454 911.222 294.276 911.349 293.603C911.404 293.115 910.837 293.004 910.837 293.004C910.837 293.004 911.582 292.948 911.548 292.542C911.509 292.104 910.876 292.004 910.876 292.004C910.876 292.004 911.542 291.893 911.575 291.476C911.608 291.059 911.053 291.015 911.053 291.015L906.249 292.401L910.772 294.454Z" fill="#FFD460"/>
<path d="M906.253 292.435L907.442 292.99L907.43 292.101L906.253 292.435Z" fill="black"/>
<path d="M910.808 293.041L914.219 293.361C914.219 293.361 915.418 292.543 916.274 293.565L922.851 294.177C922.851 294.177 923.167 293.816 922.945 293.305C922.722 292.794 910.88 292.035 910.88 292.035C910.88 292.035 911.552 292.368 911.552 292.574C911.519 292.785 910.808 293.041 910.808 293.041Z" fill="black"/>
<path d="M921.982 292.029L921.623 295.206C921.623 295.206 923.011 295.522 923.194 293.95C923.409 291.961 921.982 292.029 921.982 292.029Z" fill="#EE774D"/>
<path d="M801.694 76.2626C820.448 73.1243 833.106 55.3775 829.968 36.6239C826.83 17.8703 809.083 5.21161 790.329 8.34988C771.576 11.4882 758.917 29.235 762.055 47.9886C765.194 66.7422 782.941 79.4009 801.694 76.2626Z" fill="#05EB38"/>
<path d="M784.173 44.8354C784.173 44.8354 779.772 49.6485 778.117 42.6287C778.117 42.6287 774.143 46.7194 771.281 43.533C768.251 40.169 770.744 38.0733 771.171 37.5565C771.199 37.5176 771.188 37.4509 771.121 37.4621C770.327 37.6292 768.161 37.7862 767.17 34.5263C766.146 31.2721 769.005 30.1427 769.005 30.1427C769.005 30.1427 761.04 29.4203 763.551 21.909C765.375 16.431 771.953 18.8929 771.953 18.8929C771.953 18.8929 771.011 13.8778 774.537 12.4313C779.89 10.2338 782.377 15.6756 782.377 15.6756C782.377 15.6756 779.755 7.5844 788.119 5.97921C793.729 4.90351 793.772 11.7133 793.772 11.7133C793.772 11.7133 801.689 5.7981 805.975 11.7608C809.328 16.441 803.698 20.2606 803.698 20.2606C803.698 20.2606 814.201 19.976 814.129 29.1687C814.088 34.04 809.493 31.7602 809.493 31.7602C809.493 31.7602 811.483 33.6196 810.218 36.0922C809.186 38.1147 806.853 37.683 806.853 37.683C806.853 37.683 809.174 45.0022 799.746 42.0923C790.318 39.1824 796.615 35.4568 796.615 35.4568L794.234 30.6482L790.067 28.2625L785.885 28.8596L784.887 31.9041L778.85 33.0856C778.85 33.0856 778.914 36.9459 779.503 38.012C780.471 39.9055 784.173 44.8354 784.173 44.8354Z" fill="black"/>
<path d="M745.702 42.9843L744.962 49.8224L753.177 49.9892L752.645 43.1242L745.702 42.9843Z" fill="#F8B706"/>
<path d="M788.924 50.5142L802.314 47.6226C803.736 47.7272 810.041 48.5562 810.986 49.2888C816.193 53.3845 819.594 55.8985 819.594 55.8985L813.304 60.685L810.043 59.4152L814.71 69.9045C809.622 71.0299 806.104 74.9759 802.221 74.9062C794.933 74.7555 788.925 69.1494 786.668 65.6905C785.978 64.6411 785.664 59.6923 785.664 59.6923L780.46 60.3234L776.972 51.9662L788.924 50.5142Z" fill="#0F9F4F"/>
<path d="M783.003 25.9857C783.003 25.9857 780.485 31.203 777.437 33.2546C777.437 33.2546 780.341 48.5608 790.85 48.3095C791.466 48.3091 791.739 49.3254 791.739 49.3254L788.924 50.5159C787.564 52.011 788.231 53.338 789.293 53.9483C791.115 55.0136 795.91 57.26 795.91 57.26C795.91 57.26 803.87 49.3508 802.03 47.569L797.332 47.9442L796.509 46.7117C798.224 45.7052 798.812 43.2775 799.244 41.9719C799.244 41.9719 796.783 40.7737 797.165 38.9627C797.502 37.2962 799.524 36.2728 799.524 36.2728C799.524 36.2728 803.75 36.1478 802.253 31.9107C801.074 28.5455 798.363 28.9306 798.11 32.5356L797.416 32.4805C797.153 29.2702 796.763 28.3762 796.512 26.4656C796.512 26.4656 796.092 29.0709 793.363 27.3008C790.329 25.3421 791.8 23.6914 791.8 23.6914C791.8 23.6914 789.232 28.6088 783.003 25.9857Z" fill="#CDBF8D"/>
<path d="M751.459 51.4065C761.918 59.8647 779.847 58.5087 779.847 58.5087L777.416 52.9891C764.697 53.7474 755.678 47.5489 755.678 47.5489C755.678 47.5489 753.942 42.9065 750.871 45.0304C747.801 47.1542 752.877 46.1677 752.877 46.1677L753.202 49.9501L749.869 49.8912L751.459 51.4065Z" fill="#CDBF8D"/>
<path d="M783.995 71.0031L797.383 64.8232L805.653 80.8758L791.977 87.9945L783.995 71.0031Z" fill="#85D7FF"/>
<path d="M813.641 60.4586L817.927 57.2064C817.927 57.2064 832.668 72.6215 804.099 78.3614C803.933 78.3893 803.766 78.4172 803.633 78.4395C801.234 79.0465 799.467 78.931 798.923 78.7481C798.706 78.6816 798.534 78.6761 798.728 78.4038C798.922 78.1315 802 78.3017 802.694 77.7402C802.694 77.7402 799.144 78.0259 797.883 77.6545C797.7 77.5825 797.683 77.277 797.916 77.2379C799.649 77.1535 802.904 76.3348 802.209 76.4853C799.227 77.0871 797.427 76.7717 797.149 76.5441C797.027 76.4276 797.127 76.2053 797.194 76.1942C800.059 75.7146 801.997 75.0135 801.997 75.0135C799.737 75.6315 797.404 75.4053 796.754 75.2058C796.465 75.1171 796.521 74.8338 796.687 74.8059C799.753 74.2928 801.969 73.6137 801.969 73.6137L801.257 72.0201C801.257 72.0201 802.923 72.3578 803.379 73.4462C803.43 73.5406 803.591 73.4794 803.691 73.4626C823.606 69.6503 813.641 60.4586 813.641 60.4586Z" fill="#CDBF8D"/>
<path d="M781.906 37.8501C783.434 37.5944 784.465 36.1489 784.209 34.6214C783.954 33.0939 782.508 32.0628 780.981 32.3184C779.453 32.574 778.422 34.0195 778.678 35.5471C778.933 37.0746 780.379 38.1057 781.906 37.8501Z" fill="white"/>
<path d="M789.277 36.2397C790.805 35.9841 791.836 34.5386 791.58 33.011C791.325 31.4835 789.879 30.4524 788.352 30.7081C786.824 30.9637 785.793 32.4092 786.049 33.9367C786.304 35.4642 787.75 36.4953 789.277 36.2397Z" fill="white"/>
<path d="M781.24 37.3444C782.124 37.1966 782.72 36.3607 782.572 35.4773C782.424 34.5939 781.588 33.9976 780.705 34.1454C779.822 34.2932 779.225 35.1292 779.373 36.0126C779.521 36.896 780.357 37.4923 781.24 37.3444Z" fill="#1D1E1C"/>
<path d="M788.553 35.8132C789.436 35.6654 790.032 34.8294 789.885 33.946C789.737 33.0626 788.901 32.4663 788.017 32.6142C787.134 32.762 786.538 33.598 786.686 34.4814C786.833 35.3647 787.669 35.961 788.553 35.8132Z" fill="#1D1E1C"/>
<path d="M784.826 34.8271C785.303 34.8157 785.081 34.7158 788.988 37.385C790.149 38.184 785.191 40.6924 783.841 40.1989C781.763 39.4504 784.348 34.8385 784.826 34.8271Z" fill="#2E98D4"/>
<path d="M793.001 42.7424C792.197 43.6649 789.515 45.8607 788.541 43.1119C788.079 41.7847 790.651 40.9776 790.651 40.9776C790.721 38.9446 793.643 38.5928 793.643 38.5928C793.643 38.5928 795.038 40.3804 793.001 42.7424Z" fill="#EE774D"/>
<path d="M791.255 29.4337L795.772 31.4525L798.233 31.6231C800.585 27.6668 802.043 31.8761 802.043 31.8761C800.521 31.7882 805.648 32.1293 806.615 32.1731C806.615 32.1731 809.269 31.2493 807.118 29.04L796.025 28.053L791.255 29.4337Z" fill="#F8B706"/>
<path d="M795.772 31.4536C795.772 31.4536 796.222 31.2756 796.349 30.6034C796.404 30.1146 795.837 30.0039 795.837 30.0039C795.837 30.0039 796.582 29.9478 796.548 29.5424C796.509 29.1036 795.876 29.0041 795.876 29.0041C795.876 29.0041 796.542 28.8925 796.575 28.4759C796.608 28.0593 796.053 28.0152 796.053 28.0152L791.249 29.4015L795.772 31.4536Z" fill="#FFD460"/>
<path d="M791.253 29.4351L792.442 29.9897L792.43 29.101L791.253 29.4351Z" fill="black"/>
<path d="M795.808 30.0406L799.219 30.3605C799.219 30.3605 800.418 29.5432 801.274 30.5647L807.851 31.1769C807.851 31.1769 808.167 30.8156 807.945 30.3048C807.722 29.7939 795.88 29.0352 795.88 29.0352C795.88 29.0352 796.552 29.368 796.552 29.5735C796.519 29.7846 795.808 30.0406 795.808 30.0406Z" fill="black"/>
<path d="M806.982 29.0288L806.623 32.2062C806.623 32.2062 808.011 32.5219 808.194 30.9499C808.409 28.9612 806.982 29.0288 806.982 29.0288Z" fill="#EE774D"/>
<path d="M79.7143 73.602C93.0727 78.2017 107.631 71.1013 112.23 57.7429C116.83 44.3845 109.73 29.8266 96.3711 25.2269C83.0127 20.6272 68.4548 27.7276 63.8551 41.086C59.2555 54.4444 66.3558 69.0023 79.7143 73.602Z" fill="#F6B101"/>
<path d="M88.0763 51.4554C88.0763 51.4554 74.5897 45.9422 70.4711 47.4219C66.3524 48.9016 63.3816 53.0157 61.747 56.6152L71.1564 60.1976L70.0019 62.2501C70.0019 62.2501 73.8843 79.1298 94.9421 74.1307C96.3711 73.8061 99.0708 66.0421 98.6392 65.0768C98.6392 65.0768 106.024 65.512 106.881 63.2518C107.811 60.7797 104.548 52.2007 104.548 52.2007C104.548 52.2007 101.039 54.2063 98.9665 54.2568C95.9564 54.3531 88.0763 51.4554 88.0763 51.4554Z" fill="#86FF92"/>
<path d="M89.8723 72.3317L97.503 74.9592C97.503 74.9592 95.8022 82.8827 94.7296 83.0139C93.657 83.1451 88.8365 82.302 87.7111 80.5973C87.3228 80.042 87.1038 80.6779 87.5093 79.5003C87.639 79.1235 83.4178 79.8302 84.9099 75.4967C86.2885 71.4929 89.1868 73.9398 89.1868 73.9398C89.6093 72.6364 89.8723 72.3317 89.8723 72.3317Z" fill="#FFD55F"/>
<path d="M84.9932 34.3244L82.7921 38.6509C82.7921 38.6509 82.2097 36.2111 80.783 36.2995C79.3328 36.3797 77.6399 40.3016 79.1125 41.1511C80.585 42.0006 81.9622 42.1324 81.8444 42.0918C81.7267 42.0513 81.5538 47.603 83.1035 48.6108C84.6533 49.6186 93.0147 55.6326 96.3574 51.3568C99.3333 47.5341 99.6172 46.7098 99.6172 46.7098C99.6172 46.7098 101.706 48.1405 102.75 44.4957C103.771 40.8429 101.08 42.1555 100.456 42.2832C99.8329 42.411 101.01 37.2315 101.01 37.2315L86.7852 32.3334L84.9932 34.3244Z" fill="#C4924D"/>
<path d="M62.9492 56.8711L71.1973 60.0009C71.1973 60.0009 68.4054 66.732 81.4635 70.9648C81.4635 70.9648 86.6631 71.7015 87.675 72.1289C88.1379 72.3147 89.1934 73.9163 89.1934 73.9163C89.1934 73.9163 87.3788 72.6065 86.417 73.4872C85.137 74.6797 88.6984 74.5888 88.6984 74.5888C88.6984 74.5888 88.5805 77.7622 87.3967 77.9868C81.9202 78.9726 80.6798 76.1482 80.6798 76.1482C80.6798 76.1482 57.9921 75.4755 62.9492 56.8711Z" fill="#C4924D"/>
<path d="M126.729 37.2083C125.561 37.3858 123.849 43.2768 124.015 44.0189C124.151 44.6189 123.604 44.9838 123.604 44.9838C123.604 44.9838 108.296 55.6246 104.8 53.0773L107.102 62.4581C107.102 62.4581 124.145 58.0259 127.493 46.7709C127.493 46.7709 128.174 46.4782 128.752 46.1767C131.799 44.6707 131.874 40.2445 130.795 41.0846C130.255 41.5046 129.266 43.5351 129.233 42.8652C129.233 42.8652 131.977 36.2754 130.64 36.0259L126.729 37.2083Z" fill="#C4924D"/>
<path d="M85.3148 49.4508L81.1418 50.859C81.1418 50.859 87.819 56.7146 90.4249 55.2673C93.0308 53.8199 90.5904 51.2673 90.5904 51.2673L85.3148 49.4508Z" fill="#C4924D"/>
<path d="M82.1347 50.2776C82.1347 50.2776 81.3182 49.2061 79.7506 50.0099C78.183 50.8137 78.2769 55.6669 80.3969 57.1609C82.5088 58.6784 84.8328 57.055 84.8328 57.055C84.8328 57.055 86.3801 54.3211 82.1347 50.2776Z" fill="#E95426"/>
<path d="M93.2747 53.1923C93.2747 53.1923 94.3388 52.3205 95.7449 53.516C97.151 54.7114 95.8662 59.5905 93.3592 60.5977C90.8522 61.6049 88.8886 59.4272 88.8886 59.4272C88.8886 59.4272 87.6602 56.1854 93.2747 53.1923Z" fill="#E95426"/>
<path d="M82.2526 46.2626C82.2526 46.2626 77.4013 45.3561 79.7407 50.9563C82.0802 56.5564 82.6611 51.9619 82.6611 51.9619C82.6611 51.9619 78.3949 48.438 82.2526 46.2626Z" fill="#E95426"/>
<path d="M82.0218 56.2436C82.7884 55.8697 82.9112 54.5442 82.2961 53.2831C81.681 52.0219 80.5609 51.3026 79.7943 51.6765C79.0277 52.0504 78.9049 53.3759 79.52 54.6371C80.1351 55.8982 81.2552 56.6175 82.0218 56.2436Z" fill="#F39B7E"/>
<path d="M94.0726 59.3234C95.1316 58.4029 95.5365 57.1348 94.977 56.4911C94.4174 55.8474 93.1053 56.0719 92.0464 56.9924C90.9874 57.9129 90.5825 59.181 91.1421 59.8247C91.7016 60.4684 93.0137 60.244 94.0726 59.3234Z" fill="#F39B7E"/>
<path d="M80.9016 49.722C80.9016 49.722 84.0087 52.5569 84.8463 57.0867C84.8463 57.0867 85.9028 55.3956 84.4952 52.7508C82.7471 49.4881 80.9016 49.722 80.9016 49.722Z" fill="#EE774D"/>
<path d="M88.8889 59.4266C88.8889 59.4266 90.9096 55.0117 95.08 53.0756C95.08 53.0756 93.2496 52.5771 90.9695 54.5318C88.0304 57.0235 88.8889 59.4266 88.8889 59.4266Z" fill="#EE774D"/>
<path d="M87.6023 42.8079C88.7469 43.2021 89.9944 42.5937 90.3885 41.449C90.7826 40.3044 90.1742 39.057 89.0296 38.6629C87.8849 38.2687 86.6375 38.8771 86.2434 40.0218C85.8493 41.1664 86.4577 42.4138 87.6023 42.8079Z" fill="white"/>
<path d="M95.0398 45.0804C96.1844 45.4745 97.4319 44.8661 97.826 43.7215C98.2201 42.5769 97.6117 41.3294 96.4671 40.9353C95.3224 40.5412 94.075 41.1496 93.6809 42.2942C93.2868 43.4389 93.8952 44.6863 95.0398 45.0804Z" fill="white"/>
<path d="M88.5536 42.3461C89.217 42.5745 89.94 42.2219 90.1684 41.5586C90.3968 40.8952 90.0442 40.1723 89.3808 39.9439C88.7174 39.7154 87.9945 40.068 87.7661 40.7314C87.5377 41.3948 87.8903 42.1177 88.5536 42.3461Z" fill="#1D1E1C"/>
<path d="M95.9169 44.6713C96.5803 44.8997 97.3032 44.5471 97.5317 43.8838C97.7601 43.2204 97.4075 42.4975 96.7441 42.2691C96.0807 42.0406 95.3578 42.3932 95.1294 43.0566C94.901 43.72 95.2536 44.4429 95.9169 44.6713Z" fill="#1D1E1C"/>
<path d="M92.474 41.6683C90.6825 41.2095 92.3061 41.9266 89.0762 44.3446C88.124 45.0441 91.4884 47.3617 92.5722 46.8919C94.273 46.1603 92.8354 41.7664 92.474 41.6683Z" fill="#2E98D4"/>
<path d="M84.2864 37.9014L83.0157 38.1488C83.0157 38.1488 78.6982 47.0154 81.9189 49.5206C85.1396 52.0258 92.1008 55.4501 94.119 54.4854C96.1137 53.5125 101.493 44.7746 100.556 41.5278C100.031 39.6873 100.203 41.4062 100.203 41.4062C100.203 41.4062 96.4494 50.6249 95.0634 48.9885C93.7944 47.4715 89.4191 47.0187 89.4191 47.0187C88.076 45.0283 86.1589 45.3166 86.0412 45.276C86.0728 45.2606 83.4382 44.0373 84.2864 37.9014Z" fill="#1D1D1B"/>
<path d="M86.1628 45.9236C86.1628 45.9236 86.9863 47.8931 89.2897 47.5535C89.2897 47.5535 89.1912 48.7577 90.7155 49.1509C90.7155 49.1509 88.481 51.2793 86.2453 48.7444C84.8195 47.147 86.1628 45.9236 86.1628 45.9236Z" fill="#C4924D"/>
<path d="M91.0805 36.8415L95.5553 38.3823L94.408 34.905L91.0805 36.8415Z" fill="#1D1D1B"/>
<path d="M82.7925 38.6504C82.7925 38.6504 91.6975 38.2656 93.9676 35.7279C93.9676 35.7279 95.4974 39.5476 100.488 42.346C100.488 42.346 103.986 39.0721 103.237 35.1261C101.873 28.0704 89.5241 26.2156 85.7312 29.8096C84.2045 31.2597 82.4548 35.3465 82.7925 38.6504Z" fill="#86FF92"/>
<path d="M38.3422 352.957C54.25 356.049 69.6525 345.66 72.7447 329.752C75.8369 313.845 65.4477 298.442 49.5399 295.35C33.6321 292.258 18.2296 302.647 15.1375 318.555C12.0453 334.462 22.4344 349.865 38.3422 352.957Z" fill="#E95426"/>
<path d="M87.5588 310.576C87.3716 310.046 93.8424 312.291 93.8424 312.291L93.3705 319.048C94.8286 320.057 85.4938 318.213 85.4938 318.213C85.4938 318.213 88.1594 312.115 87.5588 310.576Z" fill="#13CE66"/>
<path d="M43.3901 320.708C43.3901 320.708 35.247 320.199 33.201 321.02C31.1604 321.813 26.7361 326.061 26.7361 326.061C26.7361 326.061 29.3728 330.114 33.19 331.378L32.5936 334.745C32.5936 334.745 30.9965 346.246 41.1982 348.258C43.1277 348.633 54.9332 333.138 55.2927 331.438C55.309 331.354 55.3758 331.309 55.4372 331.292C56.548 331.101 64.7476 329.677 64.8113 329.051C64.885 328.223 61.6644 326.727 63.3746 321.661C63.3746 321.661 64.7293 321.112 53.5839 321.267C51.0197 321.32 43.3901 320.708 43.3901 320.708Z" fill="#472A08"/>
<path d="M45.7432 311.445L44.1102 308.051C44.1102 308.051 47.5594 299.115 49.054 299.638C50.5485 300.161 50.1446 299.85 50.1446 299.85C50.1446 299.85 52.5011 296.535 55.7046 296.926C58.9081 297.317 63.9652 299.518 65.1361 305.289C65.6187 307.734 64.5582 305.873 64.5582 305.873C64.5582 305.873 65.0021 311.503 62.5989 314.46C61.9884 315.212 64.5582 305.873 55.4511 304.8C51.2914 304.252 45.7432 311.445 45.7432 311.445Z" fill="black"/>
<path d="M45.4005 309.781C45.4005 309.781 44.7997 304.063 41.6203 305.041C38.8705 305.9 40.217 311.066 42.4775 311.68C42.9475 311.8 43.2691 312.385 43.1542 312.827C42.4964 315.166 44.0565 319.532 44.8892 320.623L42.7485 321.484C42.7485 321.484 45.2462 327.744 48.3882 325.018C48.8721 324.618 49.8119 322.77 49.8119 322.77C49.8119 322.77 57.6164 325.767 61.6584 317.962C61.6584 317.962 63.4101 319.551 65.3845 315.813C66.8889 313 66.0437 311.675 62.5599 313.175C62.5599 313.175 62.6102 310.079 64.0143 305.244C64.0143 305.244 61.3351 303.65 60.3292 303.599C55.7135 303.457 51.0914 301.107 51.0914 301.107C49.9095 305.695 45.6762 310.154 45.4005 309.781Z" fill="#F4DECA"/>
<path d="M62.9639 323.033C62.9639 323.033 62.3365 326.858 64.2094 328.121C66.0823 329.385 85.565 319.184 85.565 319.184C85.565 319.184 87.8868 318.735 88.234 317.845C88.9998 315.846 89.9295 315.244 90.582 313.977C91.2678 312.689 89.5426 312.905 89.2645 313.141C88.814 313.518 88.5398 314.48 87.4741 314.737C86.4084 314.995 88.1341 310.745 88.1341 310.745C85.5178 309.423 85.0879 315.667 83.3409 315.994C78.4627 316.904 62.9639 323.033 62.9639 323.033Z" fill="#F4DECA"/>
<path d="M28.7903 328.492L33.1972 331.351C33.1972 331.351 29.4243 343.445 42.435 348.325C44.8703 349.234 50.0538 348.994 50.7965 350.995C51.2728 352.278 49.1435 351.138 49.1435 351.138C49.1435 351.138 51.0709 354.212 49.6549 355.823C48.8386 356.738 49.2959 352.445 47.9497 352.502C47.9497 352.502 50.1335 356.497 47.7332 356.901C47.2532 356.981 47.3555 353.171 46.4994 352.946C46.4994 352.946 47.6136 357.516 45.973 356.849C44.7356 356.347 45.7204 353.52 45.0632 353.915C44.5677 354.225 45.6678 357.225 43.5704 356.817C42.8713 356.681 43.3931 352.952 42.224 352.695C38.4037 351.895 19.6966 343.325 28.7903 328.492Z" fill="#F4DECA"/>
<path d="M23.8412 350.516L29.8757 345.449L21.752 343.348L23.8412 350.516Z" fill="white"/>
<path d="M4.24073 326.536L30.3574 331.177L23.4312 350.087L0.827057 344.097L4.24073 326.536Z" fill="white" stroke="#05A7F9" stroke-width="0.284881" stroke-miterlimit="10"/>
<path d="M16.6584 338.642C16.6312 338.782 16.6041 338.921 16.5769 339.061C16.5489 339.056 16.5435 339.084 16.5435 339.084C16.5326 339.14 16.5163 339.224 16.4775 339.274C16.3672 339.543 16.2344 339.778 16.0511 339.975C15.8677 340.171 15.6565 340.362 15.4001 340.487C15.1772 340.588 14.9543 340.69 14.7142 340.731C14.5022 340.776 14.2676 340.789 14.0384 340.773C14.0384 340.773 14.0105 340.768 14.005 340.796C13.9771 340.79 13.9491 340.785 13.9211 340.78C13.8373 340.763 13.7534 340.747 13.6415 340.725C13.6135 340.72 13.5856 340.714 13.5856 340.714C13.563 340.681 13.5351 340.676 13.5071 340.67C13.2888 340.599 13.076 340.499 12.874 340.344C12.5936 340.144 12.3799 339.9 12.2052 339.604C12.1205 339.443 12.0412 339.253 11.99 339.069C11.9045 338.762 11.8804 338.438 11.9122 338.125C11.9122 338.125 11.9177 338.097 11.8897 338.092C11.9114 337.98 11.9332 337.868 11.9549 337.756C11.9829 337.762 11.9883 337.734 11.9883 337.734C12.0046 337.65 12.0489 337.572 12.0652 337.488C12.1701 337.247 12.3029 337.011 12.4862 336.815C12.6695 336.618 12.8474 336.45 13.0757 336.32C13.3041 336.19 13.527 336.089 13.7671 336.048C14.0125 335.98 14.2751 335.973 14.5268 336.022C14.5268 336.022 14.5547 336.027 14.5601 335.999C14.672 336.021 14.7839 336.043 14.8957 336.064C14.8903 336.092 14.9183 336.098 14.9183 336.098C15.0021 336.114 15.0806 336.158 15.1925 336.18C15.4053 336.28 15.6407 336.412 15.8147 336.562C15.9662 336.679 16.0843 336.818 16.1969 336.985C16.3321 337.185 16.4618 337.414 16.5356 337.631C16.6265 337.91 16.6786 338.239 16.6522 338.524C16.6693 338.586 16.6359 338.608 16.6584 338.642ZM14.7179 336.233C13.5154 335.999 12.3464 336.788 12.1235 337.934C11.8509 339.187 12.6674 340.362 13.8699 340.595C15.0724 340.829 16.2414 340.041 16.4751 338.838C16.7143 337.608 15.8978 336.433 14.7179 336.233Z" fill="#D8D8D8"/>
<path d="M14.5855 336.033C14.5801 336.061 14.5521 336.056 14.5521 336.056C14.295 336.035 14.0325 336.042 13.7924 336.082C13.5524 336.123 13.3015 336.219 13.1011 336.354C12.8728 336.484 12.6669 336.647 12.5116 336.849C12.3283 337.046 12.1954 337.281 12.0906 337.522C12.0463 337.6 12.03 337.684 12.0137 337.768C12.0137 337.768 12.0083 337.796 11.9803 337.791C12.1216 337.064 12.2575 336.364 12.3989 335.637C12.4043 335.609 12.4043 335.609 12.4323 335.615C13.1314 335.751 13.8585 335.892 14.5855 336.033Z" fill="#FEFEFE"/>
<path d="M16.6587 338.641C16.6362 338.608 16.6417 338.58 16.6471 338.552C16.6789 338.239 16.6214 337.937 16.5305 337.658C16.4567 337.441 16.3549 337.218 16.1918 337.012C16.0792 336.845 15.9611 336.706 15.8096 336.59C15.6076 336.434 15.4002 336.307 15.1874 336.208C15.1089 336.163 15.025 336.147 14.9132 336.125C14.9132 336.125 14.8852 336.12 14.8906 336.092C15.6177 336.233 16.3168 336.369 17.0439 336.51C17.0719 336.516 17.0719 336.516 17.0664 336.544C16.9305 337.243 16.7946 337.942 16.6587 338.641Z" fill="#FEFEFE"/>
<path d="M11.8867 338.12C11.9147 338.126 11.9147 338.126 11.8867 338.12C11.8495 338.461 11.9015 338.79 11.987 339.097C12.0383 339.281 12.1229 339.443 12.2022 339.633C12.377 339.928 12.5906 340.172 12.871 340.372C13.073 340.527 13.2859 340.627 13.5041 340.698C13.5321 340.704 13.5601 340.709 13.5826 340.742C12.8835 340.607 12.1844 340.471 11.4853 340.335C11.4573 340.329 11.4573 340.329 11.4627 340.301C11.6095 339.546 11.7508 338.819 11.8867 338.12Z" fill="#FEFEFE"/>
<path d="M14.0341 340.801C14.0396 340.773 14.0675 340.779 14.0341 340.801C14.2913 340.822 14.5259 340.81 14.7379 340.764C14.9779 340.723 15.2009 340.622 15.4238 340.52C15.6801 340.396 15.8914 340.204 16.0747 340.008C16.2635 339.783 16.3963 339.548 16.5011 339.307C16.512 339.251 16.5508 339.201 16.5671 339.117C16.5671 339.117 16.5726 339.089 16.6005 339.094C16.4647 339.793 16.3288 340.493 16.1929 341.192C16.1874 341.22 16.1874 341.22 16.1595 341.214C15.4324 341.073 14.7333 340.937 14.0341 340.801Z" fill="#FEFEFE"/>
<path d="M14.7169 336.233C15.9193 336.467 16.7078 337.636 16.4741 338.839C16.2404 340.041 15.0714 340.829 13.8689 340.596C12.6664 340.362 11.8499 339.188 12.1225 337.935C12.3454 336.788 13.4919 335.966 14.7169 336.233ZM13.2885 338.655C13.245 338.878 13.2015 339.102 13.158 339.326C13.1472 339.382 13.1417 339.41 13.2256 339.426C13.6505 339.48 14.0288 339.176 14.1103 338.756C14.1593 338.505 14.2082 338.253 14.2571 338.001C14.2952 337.806 14.3332 337.61 14.3658 337.442C14.3767 337.386 14.3487 337.381 14.3208 337.375C14.2928 337.37 14.2648 337.364 14.2648 337.364C13.8904 337.35 13.5176 337.625 13.419 337.983C13.3809 338.179 13.3374 338.403 13.2885 338.655ZM14.5041 338.223C14.4661 338.419 14.4335 338.587 14.3954 338.783C14.3791 338.867 14.3682 338.923 14.3519 339.006C14.3411 339.062 14.3411 339.062 14.397 339.073C14.425 339.079 14.4529 339.084 14.4809 339.09C14.9446 339.093 15.3058 338.727 15.3143 338.236C15.3236 337.889 15.0424 337.544 14.7123 337.451C14.6563 337.44 14.6284 337.435 14.6175 337.491C14.602 337.72 14.5531 337.972 14.5041 338.223Z" fill="#FEFEFE"/>
<path d="M13.2892 338.654C13.3327 338.43 13.3762 338.206 13.4196 337.983C13.4903 337.619 13.8686 337.315 14.2655 337.363C14.2935 337.369 14.3215 337.374 14.3215 337.374C14.3774 337.385 14.3774 337.385 14.3665 337.441C14.3285 337.637 14.2904 337.833 14.2578 338C14.2089 338.252 14.1599 338.504 14.111 338.755C14.0295 339.175 13.6287 339.445 13.2263 339.425C13.1704 339.414 13.1424 339.409 13.1587 339.325C13.2022 339.101 13.2457 338.877 13.2892 338.654Z" fill="#4064AB"/>
<path d="M14.5062 338.223C14.5552 337.972 14.6041 337.72 14.653 337.468C14.6639 337.412 14.6693 337.384 14.7478 337.429C15.1059 337.527 15.3591 337.867 15.3498 338.213C15.3468 338.677 14.9856 339.042 14.5164 339.067C14.4884 339.061 14.4605 339.056 14.4325 339.051C14.3766 339.04 14.3766 339.04 14.3874 338.984C14.4038 338.9 14.4146 338.844 14.4309 338.76C14.4356 338.587 14.4736 338.391 14.5062 338.223Z" fill="#61BDEB"/>
<path d="M55.5482 311.927C55.2973 312.024 55.4325 312.224 53.3602 315.42C52.745 316.345 54.9885 317.942 55.7054 317.24C56.7944 316.117 55.7991 311.831 55.5482 311.927Z" fill="#472A08"/>
<path d="M52.3098 313.504C53.6381 313.762 54.9241 312.895 55.1823 311.566C55.4405 310.238 54.573 308.952 53.2448 308.694C51.9166 308.436 50.6305 309.303 50.3724 310.632C50.1142 311.96 50.9816 313.246 52.3098 313.504Z" fill="white"/>
<path d="M58.5618 315.531C59.89 315.789 61.1761 314.922 61.4342 313.594C61.6924 312.266 60.825 310.98 59.4968 310.721C58.1685 310.463 56.8825 311.331 56.6243 312.659C56.3661 313.987 57.2336 315.273 58.5618 315.531Z" fill="white"/>
<path d="M53.1554 313.03C53.9277 313.18 54.6754 312.676 54.8255 311.904C54.9756 311.132 54.4712 310.384 53.699 310.234C52.9268 310.084 52.1791 310.588 52.029 311.36C51.8789 312.132 52.3832 312.88 53.1554 313.03Z" fill="#1D1D1B"/>
<path d="M59.3351 315.131C60.1073 315.281 60.855 314.777 61.0051 314.004C61.1553 313.232 60.6509 312.484 59.8787 312.334C59.1065 312.184 58.3588 312.689 58.2087 313.461C58.0586 314.233 58.5629 314.981 59.3351 315.131Z" fill="#1D1D1B"/>
<path d="M48.3965 313.033C47.6104 313.344 46.9635 316.672 49.057 317.398C49.6785 317.635 51.5784 316.67 50.8964 316.595C47.3356 316.251 49.1546 312.716 48.3965 313.033Z" fill="black"/>
<path d="M25.3145 311.739L24.7056 314.871L34.1825 315.088L25.3145 311.739Z" fill="white"/>
<path d="M29.1505 305.287L26.8965 307.925L34.6545 312.655L29.1505 305.287Z" fill="white"/>
<path d="M31.9873 303.837L35.1837 302.92L36.2523 311.457L31.9873 303.837Z" fill="white"/>
</svg>
