<svg width="1488" height="1617" viewBox="0 0 1488 1617" fill="none" xmlns="http://www.w3.org/2000/svg">
<mask id="mask0_412_1371" style="mask-type:alpha" maskUnits="userSpaceOnUse" x="198" y="177" width="1092" height="1262">
<ellipse cx="743.724" cy="808.289" rx="520.636" ry="651" transform="rotate(-24.5 743.724 808.289)" fill="#122E27"/>
</mask>
<g mask="url(#mask0_412_1371)">
<ellipse cx="743.724" cy="808.289" rx="520.636" ry="651" transform="rotate(-24.5 743.724 808.289)" fill="#122E27"/>
<path d="M201.342 524.652L462.91 437.345" stroke="#09150A" stroke-opacity="0.33" stroke-width="2"/>
<path d="M195.663 543.828L457.23 456.522" stroke="#09150A" stroke-opacity="0.33" stroke-width="2"/>
<path d="M189.983 563.005L451.551 475.698" stroke="#09150A" stroke-opacity="0.33" stroke-width="2"/>
<path d="M184.301 582.181L445.869 494.874" stroke="#09150A" stroke-opacity="0.33" stroke-width="2"/>
<path d="M178.622 601.357L440.189 514.051" stroke="#09150A" stroke-opacity="0.33" stroke-width="2"/>
<path d="M172.942 620.534L434.51 533.228" stroke="#09150A" stroke-opacity="0.33" stroke-width="2"/>
<path d="M167.26 639.71L428.828 552.404" stroke="#09150A" stroke-opacity="0.33" stroke-width="2"/>
<path d="M161.581 658.887L423.148 571.58" stroke="#09150A" stroke-opacity="0.33" stroke-width="2"/>
<path d="M155.901 678.063L417.469 590.756" stroke="#09150A" stroke-opacity="0.33" stroke-width="2"/>
<path d="M150.219 697.24L411.787 609.933" stroke="#09150A" stroke-opacity="0.33" stroke-width="2"/>
<path d="M144.539 716.416L406.107 629.109" stroke="#09150A" stroke-opacity="0.33" stroke-width="2"/>
<path d="M138.86 735.592L400.428 648.286" stroke="#09150A" stroke-opacity="0.33" stroke-width="2"/>
<path d="M133.178 754.768L394.746 667.462" stroke="#09150A" stroke-opacity="0.33" stroke-width="2"/>
<path d="M127.498 773.945L389.066 686.639" stroke="#09150A" stroke-opacity="0.33" stroke-width="2"/>
<path d="M121.819 793.121L383.387 705.815" stroke="#09150A" stroke-opacity="0.33" stroke-width="2"/>
<path d="M116.139 812.298L377.707 724.991" stroke="#09150A" stroke-opacity="0.33" stroke-width="2"/>
<path d="M110.457 831.474L372.025 744.167" stroke="#09150A" stroke-opacity="0.33" stroke-width="2"/>
<path d="M104.778 850.651L366.346 763.344" stroke="#09150A" stroke-opacity="0.33" stroke-width="2"/>
<path d="M99.0981 869.827L360.666 782.52" stroke="#09150A" stroke-opacity="0.33" stroke-width="2"/>
<path d="M93.4165 889.003L354.984 801.697" stroke="#09150A" stroke-opacity="0.33" stroke-width="2"/>
<path d="M87.7368 908.18L349.305 820.873" stroke="#09150A" stroke-opacity="0.33" stroke-width="2"/>
<path d="M82.0571 927.356L343.625 840.05" stroke="#09150A" stroke-opacity="0.33" stroke-width="2"/>
<path d="M76.3754 946.533L337.943 859.226" stroke="#09150A" stroke-opacity="0.33" stroke-width="2"/>
<path d="M70.6957 965.709L332.264 878.402" stroke="#09150A" stroke-opacity="0.33" stroke-width="2"/>
<path d="M238.305 935.05L499.873 847.743" stroke="#09150A" stroke-opacity="0.33" stroke-width="2"/>
<path d="M207.024 505.475L468.592 418.169" stroke="#09150A" stroke-opacity="0.33" stroke-width="2"/>
<path d="M212.418 487.258L473.986 399.951" stroke="#09150A" stroke-opacity="0.33" stroke-width="2"/>
<path d="M217.815 469.04L479.383 381.734" stroke="#09150A" stroke-opacity="0.33" stroke-width="2"/>
<path d="M223.211 450.823L484.779 363.516" stroke="#09150A" stroke-opacity="0.33" stroke-width="2"/>
<path d="M228.608 432.605L490.176 345.299" stroke="#09150A" stroke-opacity="0.33" stroke-width="2"/>
<path d="M234.004 414.388L495.572 327.081" stroke="#09150A" stroke-opacity="0.33" stroke-width="2"/>
<path d="M239.401 396.17L500.969 308.863" stroke="#09150A" stroke-opacity="0.33" stroke-width="2"/>
<path d="M244.797 377.952L506.365 290.646" stroke="#09150A" stroke-opacity="0.33" stroke-width="2"/>
<path d="M250.194 359.735L511.762 272.428" stroke="#09150A" stroke-opacity="0.33" stroke-width="2"/>
<path d="M255.59 341.517L517.158 254.211" stroke="#09150A" stroke-opacity="0.33" stroke-width="2"/>
<path d="M260.987 323.3L522.555 235.993" stroke="#09150A" stroke-opacity="0.33" stroke-width="2"/>
<path d="M266.383 305.082L527.951 217.775" stroke="#09150A" stroke-opacity="0.33" stroke-width="2"/>
<path d="M244.875 951.598L506.443 864.291" stroke="#09150A" stroke-opacity="0.33" stroke-width="2"/>
<path d="M251.448 968.146L513.016 880.839" stroke="#09150A" stroke-opacity="0.33" stroke-width="2"/>
<path d="M258.018 984.694L519.586 897.388" stroke="#09150A" stroke-opacity="0.33" stroke-width="2"/>
<path d="M264.588 1001.24L526.156 913.936" stroke="#09150A" stroke-opacity="0.33" stroke-width="2"/>
<path d="M271.159 1017.79L532.726 930.484" stroke="#09150A" stroke-opacity="0.33" stroke-width="2"/>
<path d="M277.729 1034.34L539.297 947.032" stroke="#09150A" stroke-opacity="0.33" stroke-width="2"/>
<path d="M284.301 1050.89L545.869 963.58" stroke="#09150A" stroke-opacity="0.33" stroke-width="2"/>
<path d="M290.872 1067.43L552.439 980.128" stroke="#09150A" stroke-opacity="0.33" stroke-width="2"/>
<path d="M297.442 1083.98L559.01 996.676" stroke="#09150A" stroke-opacity="0.33" stroke-width="2"/>
<path d="M304.012 1100.53L565.58 1013.22" stroke="#09150A" stroke-opacity="0.33" stroke-width="2"/>
<g filter="url(#filter0_i_412_1371)">
<ellipse cx="803.205" cy="781.182" rx="508.778" ry="651" transform="rotate(-24.5 803.205 781.182)" fill="#FA8F12"/>
</g>
<path d="M1265.72 570.403C1414.75 897.427 1328.3 1256.75 1072.96 1373.11C817.622 1489.48 489.725 1318.99 340.692 991.962C191.658 664.937 278.106 305.618 533.447 189.252C788.788 72.8869 1116.68 243.378 1265.72 570.403Z" stroke="black"/>
<ellipse cx="841.105" cy="763.91" rx="520.636" ry="651" transform="rotate(-24.5 841.105 763.91)" fill="#FAE312"/>
<g filter="url(#filter1_i_412_1371)">
<ellipse cx="841.328" cy="765.495" rx="479.532" ry="599.604" transform="rotate(-24.5 841.328 765.495)" fill="#FAE312"/>
<ellipse cx="841.328" cy="765.495" rx="479.532" ry="599.604" transform="rotate(-24.5 841.328 765.495)" fill="url(#paint0_linear_412_1371)"/>
</g>
<g filter="url(#filter2_i_412_1371)">
<ellipse cx="826.596" cy="755.562" rx="421.296" ry="526.785" transform="rotate(-24.5 826.596 755.562)" fill="#FAE312"/>
<ellipse cx="826.596" cy="755.562" rx="421.296" ry="526.785" transform="rotate(-24.5 826.596 755.562)" fill="url(#paint1_linear_412_1371)"/>
</g>
<g filter="url(#filter3_i_412_1371)">
<ellipse cx="810.269" cy="744.821" rx="361.944" ry="452.572" transform="rotate(-24.5 810.269 744.821)" fill="#FAE312"/>
<ellipse cx="810.269" cy="744.821" rx="361.944" ry="452.572" transform="rotate(-24.5 810.269 744.821)" fill="url(#paint2_linear_412_1371)"/>
</g>
<g filter="url(#filter4_i_412_1371)">
<ellipse cx="796.036" cy="725.613" rx="284.853" ry="356.179" transform="rotate(-24.5 796.036 725.613)" fill="#FAE312"/>
<ellipse cx="796.036" cy="725.613" rx="284.853" ry="356.179" transform="rotate(-24.5 796.036 725.613)" fill="url(#paint3_linear_412_1371)"/>
</g>
<g filter="url(#filter5_i_412_1371)">
<ellipse cx="798.627" cy="725.443" rx="222.264" ry="277.917" transform="rotate(-24.5 798.627 725.443)" fill="#FAE312"/>
<ellipse cx="798.627" cy="725.443" rx="222.264" ry="277.917" transform="rotate(-24.5 798.627 725.443)" fill="url(#paint4_linear_412_1371)"/>
</g>
<g filter="url(#filter6_i_412_1371)">
<path d="M976.819 1064.25L705.775 492.663L744.206 479.804L1015.25 1051.39L976.819 1064.25ZM903.33 638.439C891.896 619.672 875.479 607.573 854.079 602.143C832.835 596.661 809.325 598.232 783.547 606.857C765.425 612.921 751.116 620.727 740.62 630.275C730.123 639.824 723.556 650.214 720.917 661.445C718.278 672.676 719.598 684.048 724.877 695.562C729.394 705.088 735.577 712.592 743.425 718.072C751.429 723.5 760.58 727.337 770.876 729.583C781.103 731.68 791.835 732.746 803.074 732.78C814.313 732.814 825.383 732.3 836.284 731.24L886.359 726.903C906.387 724.858 926.382 724.463 946.345 725.717C966.465 726.919 985.634 730.508 1003.85 736.484C1022.23 742.408 1038.82 751.432 1053.62 763.554C1068.42 775.677 1080.51 791.637 1089.9 811.434C1102.6 838.227 1106.6 864.225 1101.9 889.427C1097.13 914.48 1083.87 937.284 1062.12 957.841C1040.46 978.197 1010.41 994.805 971.978 1007.66C934.64 1020.16 899.612 1025.5 866.893 1023.68C834.33 1021.81 805.304 1012.9 779.814 996.937C754.481 980.923 733.99 957.942 718.341 927.994L803.875 899.375C812.677 914.884 824.115 926.407 838.187 933.943C852.26 941.48 867.796 945.423 884.795 945.771C901.951 946.067 919.59 943.184 937.712 937.12C956.615 930.795 971.905 922.575 983.58 912.459C995.341 902.143 1002.99 890.788 1006.53 878.394C1009.99 865.852 1008.7 853.005 1002.64 839.854C996.838 827.998 988.508 819.402 977.651 814.067C966.724 808.582 953.541 805.404 938.104 804.533C922.753 803.461 905.496 803.716 886.335 805.298L825.382 810.17C781.268 813.72 743.071 809.512 710.788 797.548C678.592 785.383 654.729 762.926 639.201 730.179C626.425 703.237 622.892 677.083 628.603 651.716C634.47 626.297 648.036 603.563 669.3 583.513C690.494 563.314 717.885 547.595 751.474 536.356C785.531 524.961 818.052 520.633 849.038 523.373C880.109 525.912 907.716 534.698 931.86 549.73C955.933 564.614 974.309 584.853 986.989 610.448L903.33 638.439Z" fill="#FFCD1E"/>
</g>
</g>
<defs>
<filter id="filter0_i_412_1371" x="267.188" y="148.174" width="1072.04" height="1262.02" filterUnits="userSpaceOnUse" color-interpolation-filters="sRGB">
<feFlood flood-opacity="0" result="BackgroundImageFix"/>
<feBlend mode="normal" in="SourceGraphic" in2="BackgroundImageFix" result="shape"/>
<feColorMatrix in="SourceAlpha" type="matrix" values="0 0 0 0 0 0 0 0 0 0 0 0 0 0 0 0 0 0 127 0" result="hardAlpha"/>
<feOffset dy="-5"/>
<feGaussianBlur stdDeviation="2"/>
<feComposite in2="hardAlpha" operator="arithmetic" k2="-1" k3="1"/>
<feColorMatrix type="matrix" values="0 0 0 0 0 0 0 0 0 0 0 0 0 0 0 0 0 0 0.25 0"/>
<feBlend mode="normal" in2="shape" result="effect1_innerShadow_412_1371"/>
</filter>
<filter id="filter1_i_412_1371" x="339.012" y="184.612" width="1004.63" height="1165.77" filterUnits="userSpaceOnUse" color-interpolation-filters="sRGB">
<feFlood flood-opacity="0" result="BackgroundImageFix"/>
<feBlend mode="normal" in="SourceGraphic" in2="BackgroundImageFix" result="shape"/>
<feColorMatrix in="SourceAlpha" type="matrix" values="0 0 0 0 0 0 0 0 0 0 0 0 0 0 0 0 0 0 127 0" result="hardAlpha"/>
<feOffset dy="4"/>
<feGaussianBlur stdDeviation="2"/>
<feComposite in2="hardAlpha" operator="arithmetic" k2="-1" k3="1"/>
<feColorMatrix type="matrix" values="0 0 0 0 0 0 0 0 0 0 0 0 0 0 0 0 0 0 0.25 0"/>
<feBlend mode="normal" in2="shape" result="effect1_innerShadow_412_1371"/>
</filter>
<filter id="filter2_i_412_1371" x="385.285" y="245.224" width="882.623" height="1024.19" filterUnits="userSpaceOnUse" color-interpolation-filters="sRGB">
<feFlood flood-opacity="0" result="BackgroundImageFix"/>
<feBlend mode="normal" in="SourceGraphic" in2="BackgroundImageFix" result="shape"/>
<feColorMatrix in="SourceAlpha" type="matrix" values="0 0 0 0 0 0 0 0 0 0 0 0 0 0 0 0 0 0 127 0" result="hardAlpha"/>
<feOffset dy="3.51422"/>
<feGaussianBlur stdDeviation="1.75711"/>
<feComposite in2="hardAlpha" operator="arithmetic" k2="-1" k3="1"/>
<feColorMatrix type="matrix" values="0 0 0 0 0 0 0 0 0 0 0 0 0 0 0 0 0 0 0.25 0"/>
<feBlend mode="normal" in2="shape" result="effect1_innerShadow_412_1371"/>
</filter>
<filter id="filter3_i_412_1371" x="431.129" y="306.379" width="758.281" height="879.903" filterUnits="userSpaceOnUse" color-interpolation-filters="sRGB">
<feFlood flood-opacity="0" result="BackgroundImageFix"/>
<feBlend mode="normal" in="SourceGraphic" in2="BackgroundImageFix" result="shape"/>
<feColorMatrix in="SourceAlpha" type="matrix" values="0 0 0 0 0 0 0 0 0 0 0 0 0 0 0 0 0 0 127 0" result="hardAlpha"/>
<feOffset dy="3.01914"/>
<feGaussianBlur stdDeviation="1.50957"/>
<feComposite in2="hardAlpha" operator="arithmetic" k2="-1" k3="1"/>
<feColorMatrix type="matrix" values="0 0 0 0 0 0 0 0 0 0 0 0 0 0 0 0 0 0 0.25 0"/>
<feBlend mode="normal" in2="shape" result="effect1_innerShadow_412_1371"/>
</filter>
<filter id="filter4_i_412_1371" x="497.648" y="380.555" width="596.773" height="692.493" filterUnits="userSpaceOnUse" color-interpolation-filters="sRGB">
<feFlood flood-opacity="0" result="BackgroundImageFix"/>
<feBlend mode="normal" in="SourceGraphic" in2="BackgroundImageFix" result="shape"/>
<feColorMatrix in="SourceAlpha" type="matrix" values="0 0 0 0 0 0 0 0 0 0 0 0 0 0 0 0 0 0 127 0" result="hardAlpha"/>
<feOffset dy="2.3761"/>
<feGaussianBlur stdDeviation="1.18805"/>
<feComposite in2="hardAlpha" operator="arithmetic" k2="-1" k3="1"/>
<feColorMatrix type="matrix" values="0 0 0 0 0 0 0 0 0 0 0 0 0 0 0 0 0 0 0.25 0"/>
<feBlend mode="normal" in2="shape" result="effect1_innerShadow_412_1371"/>
</filter>
<filter id="filter5_i_412_1371" x="565.803" y="456.203" width="465.648" height="540.334" filterUnits="userSpaceOnUse" color-interpolation-filters="sRGB">
<feFlood flood-opacity="0" result="BackgroundImageFix"/>
<feBlend mode="normal" in="SourceGraphic" in2="BackgroundImageFix" result="shape"/>
<feColorMatrix in="SourceAlpha" type="matrix" values="0 0 0 0 0 0 0 0 0 0 0 0 0 0 0 0 0 0 127 0" result="hardAlpha"/>
<feOffset dy="1.854"/>
<feGaussianBlur stdDeviation="0.927002"/>
<feComposite in2="hardAlpha" operator="arithmetic" k2="-1" k3="1"/>
<feColorMatrix type="matrix" values="0 0 0 0 0 0 0 0 0 0 0 0 0 0 0 0 0 0 0.25 0"/>
<feBlend mode="normal" in2="shape" result="effect1_innerShadow_412_1371"/>
</filter>
<filter id="filter6_i_412_1371" x="625.957" y="479.804" width="478.85" height="585.448" filterUnits="userSpaceOnUse" color-interpolation-filters="sRGB">
<feFlood flood-opacity="0" result="BackgroundImageFix"/>
<feBlend mode="normal" in="SourceGraphic" in2="BackgroundImageFix" result="shape"/>
<feColorMatrix in="SourceAlpha" type="matrix" values="0 0 0 0 0 0 0 0 0 0 0 0 0 0 0 0 0 0 127 0" result="hardAlpha"/>
<feOffset dx="1" dy="6"/>
<feGaussianBlur stdDeviation="0.5"/>
<feComposite in2="hardAlpha" operator="arithmetic" k2="-1" k3="1"/>
<feColorMatrix type="matrix" values="0 0 0 0 0 0 0 0 0 0 0 0 0 0 0 0 0 0 0.25 0"/>
<feBlend mode="normal" in2="shape" result="effect1_innerShadow_412_1371"/>
</filter>
<linearGradient id="paint0_linear_412_1371" x1="841.328" y1="165.891" x2="841.328" y2="1365.1" gradientUnits="userSpaceOnUse">
<stop stop-color="#FFE924"/>
<stop offset="1" stop-color="#F0D805"/>
</linearGradient>
<linearGradient id="paint1_linear_412_1371" x1="826.596" y1="228.776" x2="826.596" y2="1282.35" gradientUnits="userSpaceOnUse">
<stop stop-color="#FFE924"/>
<stop offset="1" stop-color="#F0D805"/>
</linearGradient>
<linearGradient id="paint2_linear_412_1371" x1="810.269" y1="292.25" x2="810.269" y2="1197.39" gradientUnits="userSpaceOnUse">
<stop stop-color="#FFE924"/>
<stop offset="1" stop-color="#F0D805"/>
</linearGradient>
<linearGradient id="paint3_linear_412_1371" x1="796.036" y1="369.435" x2="796.036" y2="1081.79" gradientUnits="userSpaceOnUse">
<stop stop-color="#FFE924"/>
<stop offset="1" stop-color="#F0D805"/>
</linearGradient>
<linearGradient id="paint4_linear_412_1371" x1="798.627" y1="447.526" x2="798.627" y2="1003.36" gradientUnits="userSpaceOnUse">
<stop stop-color="#FFE924"/>
<stop offset="1" stop-color="#F0D805"/>
</linearGradient>
</defs>
</svg>
