<svg xmlns="http://www.w3.org/2000/svg" width="963" height="90" viewBox="0 0 963 90" fill="none">
<path d="M16.352 79.176C15.136 79.368 13.664 79.336 11.936 79.08C10.208 78.888 8.352 78.536 6.368 78.024C5.344 77.704 4.608 77.32 4.16 76.872C3.776 76.424 3.104 75.592 2.144 74.376C1.504 73.416 1.088 72.328 0.896 71.112C0.768 69.896 0.928 68.808 1.376 67.848C1.888 66.888 2.72 66.312 3.872 66.12C4.384 65.992 4.992 66.12 5.696 66.504C6.464 66.824 7.264 67.24 8.096 67.752C9.44 68.52 10.88 69.288 12.416 70.056C13.952 70.888 15.36 71.208 16.64 71.016C17.536 70.824 18.592 70.696 19.808 70.632C21.088 70.632 22.304 70.536 23.456 70.344C24.672 70.152 25.632 69.8 26.336 69.288C29.728 66.984 32.256 65.16 33.92 63.816C35.584 62.408 36.416 61.704 36.416 61.704C36.544 61.448 36.768 61.256 37.088 61.128C37.472 60.936 37.92 60.744 38.432 60.552C38.816 60.168 39.424 59.56 40.256 58.728C41.088 57.832 41.888 56.968 42.656 56.136C43.488 55.304 44 54.824 44.192 54.696C44.32 54.12 44.448 53.672 44.576 53.352C44.704 52.968 44.768 52.584 44.768 52.2C45.28 51.688 45.952 50.632 46.784 49.032C47.68 47.368 48.576 45.544 49.472 43.56C50.368 41.512 51.008 39.656 51.392 37.992C52.224 34.472 52.512 31.272 52.256 28.392C52 25.512 51.264 22.92 50.048 20.616C48.832 18.312 47.2 16.296 45.152 14.568C44.448 13.992 43.488 13.384 42.272 12.744C41.056 12.04 39.808 11.4 38.528 10.824C37.248 10.184 36.096 9.70399 35.072 9.384C34.112 9.064 33.536 8.936 33.344 9C33.088 9.064 32.576 10.056 31.808 11.976C31.104 13.832 30.208 16.232 29.12 19.176C28.096 22.12 26.976 25.288 25.76 28.68C24.608 32.008 23.488 35.176 22.4 38.184C22.08 39.4 21.664 40.68 21.152 42.024C20.704 43.368 20.32 44.552 20 45.576C19.68 46.536 19.52 47.176 19.52 47.496C18.816 48.584 18.08 50.248 17.312 52.488C16.544 54.728 15.904 57.928 15.392 62.088C14.816 64.264 14.4 66.088 14.144 67.56C13.888 68.968 13.632 69.64 13.376 69.576C13.376 69.576 13.344 69.864 13.28 70.44C13.216 71.08 13.088 71.496 12.896 71.688C12.896 72.072 12.512 72.328 11.744 72.456C10.976 72.584 10.08 72.424 9.056 71.976C8.032 71.528 7.072 70.664 6.176 69.384C5.984 68.68 5.824 67.656 5.696 66.312C5.632 64.904 5.856 63.272 6.368 61.416C6.688 60.2 7.136 58.632 7.712 56.712C8.288 54.792 8.928 52.808 9.632 50.76C10.336 48.712 10.976 46.824 11.552 45.096C12.192 43.368 12.64 42.088 12.896 41.256C13.344 40.168 13.984 38.12 14.816 35.112C15.328 33.448 15.84 31.784 16.352 30.12C16.928 28.456 17.472 26.984 17.984 25.704C18.496 24.36 18.848 23.496 19.04 23.112C19.36 22.28 19.744 20.936 20.192 19.08C20.704 17.16 21.472 14.984 22.496 12.552L23.168 9.384L22.112 8.904C21.344 9.16 20.736 9.256 20.288 9.192C19.904 9.064 19.648 8.968 19.52 8.904C19.136 9.032 18.624 8.936 17.984 8.616C17.408 8.232 16.864 7.752 16.352 7.17599C15.904 6.59999 15.616 6.12 15.488 5.736C15.36 5.48 15.264 5.16 15.2 4.776C15.2 4.328 15.2 4.10399 15.2 4.10399C15.264 3.72 15.808 3.336 16.832 2.952C17.856 2.504 19.168 2.088 20.768 1.704C22.432 1.32 24.192 1.032 26.048 0.839996C27.904 0.647995 29.632 0.615995 31.232 0.743998C32.896 0.871996 34.944 1.25599 37.376 1.89599C39.808 2.536 41.888 3.176 43.616 3.816C45.664 4.584 47.872 5.896 50.24 7.752C52.608 9.608 54.752 11.816 56.672 14.376C58.656 16.936 59.968 19.624 60.608 22.44C60.8 23.208 60.992 24.296 61.184 25.704C61.376 27.112 61.472 28.488 61.472 29.832C61.536 31.112 61.408 31.944 61.088 32.328C60.96 32.584 60.864 32.904 60.8 33.288C60.8 33.608 60.928 33.832 61.184 33.96C61.12 34.152 60.896 34.888 60.512 36.168C60.128 37.384 59.776 38.44 59.456 39.336C59.328 41 58.88 42.92 58.112 45.096C57.408 47.272 56.608 49.352 55.712 51.336C54.88 53.256 54.144 54.76 53.504 55.848C53.248 55.848 52.992 55.912 52.736 56.04C52.544 56.104 52.576 56.168 52.832 56.232C52.832 56.552 52.48 57.16 51.776 58.056C51.52 58.248 51.104 58.728 50.528 59.496C50.016 60.2 49.6 60.68 49.28 60.936C49.216 61.384 49.024 61.768 48.704 62.088C48.384 62.344 48.096 62.472 47.84 62.472C47.84 62.472 47.776 62.472 47.648 62.472C47.584 62.472 47.552 62.6 47.552 62.856C47.04 63.624 46.176 64.616 44.96 65.832C43.744 67.048 42.368 68.296 40.832 69.576C39.296 70.856 37.76 72.04 36.224 73.128C34.688 74.216 33.28 75.016 32 75.528C31.36 75.976 30.688 76.328 29.984 76.584C29.28 76.904 28.608 77.224 27.968 77.544C27.648 77.8 26.72 78.024 25.184 78.216C23.648 78.408 22.016 78.568 20.288 78.696C18.624 78.824 17.312 78.984 16.352 79.176ZM69.4093 68.328C68.5773 68.328 67.9053 68.168 67.3932 67.848C66.9453 67.528 66.3693 67.08 65.6653 66.504C64.4493 65.224 63.4573 63.848 62.6893 62.376C61.9853 60.904 61.7293 59.624 61.9213 58.536C62.1133 58.024 62.1773 57.544 62.1133 57.096C62.1133 56.584 62.1133 56.328 62.1133 56.328C61.7933 56.008 61.6973 55.816 61.8253 55.752C61.9533 55.624 62.0813 55.432 62.2093 55.176C62.5933 55.176 62.7213 54.824 62.5933 54.12C62.4653 53.608 62.6573 52.52 63.1693 50.856C63.7453 49.128 64.5133 47.496 65.4733 45.96C65.8573 45.32 66.4333 44.488 67.2013 43.464C67.9693 42.376 68.8013 41.32 69.6973 40.296C70.6573 39.208 71.5213 38.344 72.2893 37.704C73.8893 36.36 75.3613 35.272 76.7053 34.44C78.1133 33.608 79.5213 33.032 80.9293 32.712C82.3373 32.392 83.7773 32.232 85.2493 32.232C86.7853 32.232 88.0333 32.744 88.9933 33.768C90.4653 34.408 91.4893 35.272 92.0653 36.36C92.7053 37.448 93.1213 38.856 93.3133 40.584C93.5053 42.504 93.3133 44.872 92.7373 47.688C92.1613 50.44 90.5933 53.64 88.0333 57.288C86.4333 59.592 84.8653 61.384 83.3293 62.664C81.7933 63.944 80.0973 65.128 78.2413 66.216C76.8973 67.112 75.4573 67.656 73.9213 67.848C72.3853 68.04 70.8813 68.2 69.4093 68.328ZM79.2013 56.616C80.6093 55.4 81.6013 54.056 82.1773 52.584C82.8173 51.112 83.4893 49.384 84.1933 47.4C84.4493 47.016 84.6093 46.376 84.6733 45.48C84.8013 44.584 84.8333 43.72 84.7693 42.888C84.7053 41.992 84.4813 41.48 84.0973 41.352C83.5213 40.904 82.9453 40.808 82.3693 41.064C81.7933 41.256 81.0573 41.672 80.1613 42.312C78.2413 43.912 76.4493 45.768 74.7853 47.88C73.1853 49.928 72.0653 52.456 71.4253 55.464C71.2333 57.064 71.3933 58.28 71.9053 59.112C72.4813 59.88 73.3773 60.104 74.5933 59.784C75.8733 59.4 77.4093 58.344 79.2013 56.616ZM130.591 66.696C129.183 66.568 127.999 66.28 127.039 65.832C126.143 65.32 125.407 64.328 124.831 62.856C124.575 61.832 124.447 60.776 124.447 59.688C124.511 58.536 124.607 57.448 124.735 56.424C124.863 55.336 124.927 54.408 124.927 53.64C124.927 53.512 124.927 53.256 124.927 52.872C124.927 52.488 124.927 52.136 124.927 51.816C124.799 50.856 124.543 50.28 124.159 50.088C123.839 49.832 123.263 49.864 122.431 50.184C121.087 50.824 119.615 51.688 118.015 52.776C116.479 53.8 114.847 55.016 113.119 56.424C111.455 57.768 109.727 59.208 107.935 60.744C106.527 62.28 105.471 63.528 104.767 64.488C104.127 65.448 103.455 65.928 102.751 65.928C102.239 66.184 101.695 66.12 101.119 65.736C100.543 65.352 99.9345 64.904 99.2945 64.392C98.8465 63.88 98.3025 63.24 97.6625 62.472C97.0865 61.64 96.7345 61.096 96.6065 60.84C96.6065 59.816 96.6705 58.888 96.7985 58.056C96.9905 57.224 97.2465 56.36 97.5665 55.464C97.9505 54.568 98.3985 53.544 98.9105 52.392C99.1665 51.944 99.3905 51.496 99.5825 51.048C99.8385 50.536 100.127 49.992 100.447 49.416C100.703 48.52 101.055 47.496 101.503 46.344C102.015 45.192 102.495 44.104 102.943 43.08C103.647 41.416 104.191 39.976 104.575 38.76C104.959 37.544 105.279 36.232 105.535 34.824C105.471 34.696 105.503 34.504 105.631 34.248C105.759 33.992 105.951 33.832 106.207 33.768H106.303H106.399C106.847 33.448 107.679 33.416 108.895 33.672C110.175 33.864 111.135 34.216 111.775 34.728C113.119 35.88 113.759 37.384 113.695 39.24C113.631 41.096 112.671 43.528 110.815 46.536C110.367 47.56 109.887 48.52 109.375 49.416C108.927 50.248 108.703 50.824 108.703 51.144C108.703 51.144 108.959 50.952 109.471 50.568C109.983 50.184 110.591 49.736 111.295 49.224C111.999 48.648 112.607 48.2 113.119 47.88C113.439 47.56 114.143 46.984 115.231 46.152C116.319 45.256 117.503 44.328 118.783 43.368C120.063 42.408 121.087 41.672 121.855 41.16C122.559 40.648 123.455 40.136 124.543 39.624C125.631 39.048 126.303 38.76 126.559 38.76C127.199 38.76 127.967 38.984 128.863 39.432C129.823 39.88 130.687 40.424 131.455 41.064C132.287 41.64 132.767 42.184 132.895 42.696C132.895 42.952 132.863 43.304 132.799 43.752C132.735 44.136 132.703 44.488 132.703 44.808C132.639 45.832 132.607 47.08 132.607 48.552C132.671 49.96 132.703 51.4 132.703 52.872C132.703 54.28 132.575 55.56 132.319 56.712C132.319 56.712 132.351 56.776 132.415 56.904C132.479 56.968 132.543 57.096 132.607 57.288C132.543 57.352 132.511 57.48 132.511 57.672C132.575 57.8 132.607 57.864 132.607 57.864C132.735 58.312 132.863 58.76 132.991 59.208C133.183 59.656 133.407 60.168 133.663 60.744C133.919 61.256 134.207 61.928 134.527 62.76C134.463 63.592 133.983 64.424 133.087 65.256C132.255 66.024 131.423 66.504 130.591 66.696ZM151.133 27.624C150.109 27.816 149.277 27.848 148.637 27.72C148.061 27.528 147.549 27.24 147.101 26.856C146.909 26.152 146.973 25.448 147.293 24.744C147.613 23.976 147.933 23.368 148.253 22.92C149.021 21.64 149.885 20.136 150.845 18.408C151.869 16.616 152.541 15.24 152.861 14.28C152.989 13.576 153.181 12.68 153.437 11.592C153.757 10.44 153.917 9.25599 153.917 8.04C153.917 7.72 153.981 7.208 154.109 6.504C154.301 5.8 154.557 5.16 154.877 4.584C155.197 4.008 155.517 3.816 155.837 4.008C156.413 4.264 157.149 4.616 158.045 5.064C158.941 5.512 159.709 6.024 160.349 6.6C161.053 7.176 161.341 7.816 161.213 8.51999C161.085 10.056 160.733 11.72 160.157 13.512C159.581 15.304 159.101 16.84 158.717 18.12C158.333 19.528 157.629 21 156.605 22.536C155.581 24.008 154.525 25.384 153.437 26.664C153.501 26.92 153.309 27.08 152.861 27.144C152.413 27.208 151.837 27.368 151.133 27.624ZM159.791 69.096C159.087 68.968 158.319 68.552 157.487 67.848C156.655 67.08 155.887 66.248 155.183 65.352C154.543 64.392 154.127 63.592 153.935 62.952C153.935 62.824 153.839 62.664 153.647 62.472C153.519 62.28 153.455 62.184 153.455 62.184C153.199 61.992 153.039 61.16 152.975 59.688C152.975 58.152 153.071 56.456 153.263 54.6C153.455 52.744 153.679 51.272 153.935 50.184C154.255 49.16 154.735 47.784 155.375 46.056C156.015 44.264 156.559 42.664 157.007 41.256L159.599 35.688L155.759 34.632C155.311 34.504 154.927 34.248 154.607 33.864C154.351 33.48 154.223 33.16 154.223 32.904C154.223 32.392 154.511 31.656 155.087 30.696C155.663 29.736 156.079 29.256 156.335 29.256C156.655 29.32 157.231 29.352 158.063 29.352C158.959 29.352 159.823 29.32 160.655 29.256C161.487 29.192 161.999 29.128 162.191 29.064C162.447 28.936 162.703 28.776 162.959 28.584C163.215 28.328 163.407 27.976 163.535 27.528C163.855 26.824 164.143 26.28 164.399 25.896C164.655 25.512 165.007 24.936 165.455 24.168C165.903 23.336 166.255 22.632 166.511 22.056C166.831 21.48 167.311 20.68 167.951 19.656C168.271 19.208 168.623 18.664 169.007 18.024C169.391 17.384 169.871 16.84 170.447 16.392C171.023 15.88 171.951 15.528 173.231 15.336C174.575 15.08 175.727 15.368 176.687 16.2C177.199 16.84 177.487 17.448 177.551 18.024C177.615 18.6 177.359 19.336 176.783 20.232C176.271 21.32 175.663 22.312 174.959 23.208C174.319 24.04 173.711 25 173.135 26.088C172.111 27.496 171.919 28.296 172.559 28.488C173.199 28.68 174.991 28.552 177.935 28.104C179.791 27.784 181.135 27.976 181.967 28.68C182.799 29.384 183.279 30.28 183.407 31.368C183.599 32.904 183.439 33.832 182.927 34.152C182.415 34.472 180.943 34.632 178.511 34.632C176.975 34.888 175.663 35.048 174.575 35.112C173.487 35.112 172.687 35.112 172.175 35.112C171.343 35.176 170.799 35.208 170.543 35.208C170.287 35.208 169.903 35.272 169.391 35.4C168.879 35.528 168.495 35.752 168.239 36.072C168.047 36.328 167.823 36.712 167.567 37.224C167.311 37.48 166.927 38.152 166.415 39.24C165.903 40.328 165.263 41.512 164.495 42.792C163.599 45.48 162.831 48.072 162.191 50.568C161.615 53 161.103 55.432 160.655 57.864C160.463 59.08 160.495 59.976 160.751 60.552C161.071 61.064 161.903 61.384 163.247 61.512C163.951 61.576 164.975 61.576 166.319 61.512C167.663 61.384 168.783 61.192 169.679 60.936C170.383 60.616 171.119 60.296 171.887 59.976C172.655 59.592 173.359 59.208 173.999 58.824C174.575 58.504 175.151 58.184 175.727 57.864C176.303 57.48 176.591 57.288 176.591 57.288C176.911 56.776 177.359 56.872 177.935 57.576C178.575 58.216 179.023 58.92 179.279 59.688C179.279 60.456 179.119 61.384 178.799 62.472C178.479 63.496 177.295 64.584 175.247 65.736C172.367 67.528 169.487 68.616 166.607 69C163.727 69.384 161.455 69.416 159.791 69.096ZM210.694 65.448C210.502 65.192 210.086 64.872 209.446 64.488C208.806 64.104 208.486 63.784 208.486 63.528C208.486 63.4 208.454 63.24 208.39 63.048C208.39 62.856 208.262 62.76 208.006 62.76C207.814 62.568 207.91 61.864 208.294 60.648C208.742 59.432 209.318 57.992 210.022 56.328C210.79 54.664 211.59 53.064 212.422 51.528C213.254 49.928 213.958 48.648 214.534 47.688C214.854 47.496 215.046 47.24 215.11 46.92C215.238 46.536 215.238 46.344 215.11 46.344C215.11 46.344 215.27 46.056 215.59 45.48C215.974 44.84 216.262 44.424 216.454 44.232C216.966 43.336 217.35 42.44 217.606 41.544C217.862 40.584 217.926 39.784 217.798 39.144C217.542 38.824 217.254 38.728 216.934 38.856C216.614 38.984 216.454 39.048 216.454 39.048C216.198 39.112 215.814 39.24 215.302 39.432C214.854 39.56 214.438 39.752 214.054 40.008C212.582 41.032 211.494 41.544 210.79 41.544C210.15 41.544 209.51 40.776 208.87 39.24C208.614 38.536 208.518 37.864 208.582 37.224C208.646 36.584 208.902 36.072 209.35 35.688C209.862 35.24 210.502 34.792 211.27 34.344C212.038 33.832 212.55 33.48 212.806 33.288C213.51 32.84 214.502 32.36 215.782 31.848C217.062 31.336 217.83 31.048 218.086 30.984C219.75 30.472 221.158 30.472 222.31 30.984C223.462 31.432 224.326 32.328 224.902 33.672C225.798 34.76 226.246 35.912 226.246 37.128C226.246 38.344 225.798 39.848 224.902 41.64L223.942 43.08C223.622 43.72 223.558 44.04 223.75 44.04C224.006 44.04 224.294 43.816 224.614 43.368C224.806 43.112 225.19 42.728 225.766 42.216C226.342 41.704 226.726 41.448 226.918 41.448C226.918 41.448 226.982 41.416 227.11 41.352C227.302 41.288 227.398 41.032 227.398 40.584C227.59 40.392 227.782 40.2 227.974 40.008C228.23 39.816 228.358 39.72 228.358 39.72C228.614 39.72 228.934 39.592 229.318 39.336C229.766 39.016 230.502 38.44 231.526 37.608C232.23 37.096 232.87 36.84 233.446 36.84C234.918 36.392 236.102 36.872 236.998 38.28C237.958 39.688 238.438 41.512 238.438 43.752L236.422 48.936L239.878 44.712C240.262 44.2 240.646 43.752 241.03 43.368C241.478 42.984 241.862 42.664 242.182 42.408C242.31 41.96 242.502 41.704 242.758 41.64C243.014 41.576 243.142 41.544 243.142 41.544C243.142 41.544 243.206 41.544 243.334 41.544C243.462 41.48 243.526 41.352 243.526 41.16C243.846 40.904 244.198 40.68 244.582 40.488C244.966 40.232 245.222 39.976 245.35 39.72C246.438 39.272 247.75 39.208 249.286 39.528C250.822 39.784 251.91 40.584 252.55 41.928C252.998 42.696 253.414 43.368 253.798 43.944C254.182 44.52 254.374 45.384 254.374 46.536C254.246 47.496 254.118 48.168 253.99 48.552C253.926 48.936 253.862 49.352 253.798 49.8C253.734 50.184 253.638 50.888 253.51 51.912C253.254 52.424 253.094 52.968 253.03 53.544C253.03 54.12 253.03 54.664 253.03 55.176C253.03 56.008 253.062 56.584 253.126 56.904C253.19 57.16 253.446 57.288 253.894 57.288C254.79 57.096 255.526 56.808 256.102 56.424C256.742 55.976 257.446 55.4 258.214 54.696C259.174 53.8 260.006 53.672 260.71 54.312C261.478 54.888 261.958 55.56 262.15 56.328C262.278 56.584 262.15 57.16 261.766 58.056C261.382 58.952 260.934 59.816 260.422 60.648C259.91 61.48 259.494 61.896 259.174 61.896C258.982 61.896 258.598 62.152 258.022 62.664C257.446 63.176 256.998 63.528 256.678 63.72C256.23 64.168 255.782 64.584 255.334 64.968C254.95 65.352 254.502 65.544 253.99 65.544C253.734 65.544 253.414 65.64 253.03 65.832C252.71 65.96 252.326 66.024 251.878 66.024C251.238 66.216 250.246 66.12 248.902 65.736C247.622 65.352 246.79 64.456 246.406 63.048C246.15 62.344 245.766 61.448 245.254 60.36C244.806 59.272 244.71 57.928 244.966 56.328C245.222 55.176 245.382 54.12 245.446 53.16C245.51 52.2 245.638 51.528 245.83 51.144C245.83 50.952 245.83 50.504 245.83 49.8C245.83 49.032 245.734 48.648 245.542 48.648C245.286 48.648 244.806 48.968 244.102 49.608C243.398 50.248 242.566 51.112 241.606 52.2C240.646 53.224 239.654 54.344 238.63 55.56C237.67 56.776 236.806 57.992 236.038 59.208C235.462 59.912 234.95 60.776 234.502 61.8C234.054 62.824 233.734 63.4 233.542 63.528C233.094 64.04 232.326 64.104 231.238 63.72C230.214 63.336 229.446 62.728 228.934 61.896C228.742 61.512 228.518 61.288 228.262 61.224C228.006 61.096 227.782 60.904 227.59 60.648C227.462 60.328 227.462 59.72 227.59 58.824C227.782 57.928 228.198 56.488 228.838 54.504C229.542 52.328 230.15 50.376 230.662 48.648C231.238 46.856 231.526 45.96 231.526 45.96C231.526 45.704 231.046 45.96 230.086 46.728C229.126 47.432 228.006 48.328 226.726 49.416C226.15 50.12 225.382 51.016 224.422 52.104C223.526 53.192 222.47 54.472 221.254 55.944C220.102 57.416 218.79 59.144 217.318 61.128C215.462 63.752 214.054 65.352 213.094 65.928C212.198 66.504 211.398 66.344 210.694 65.448ZM267.076 67.368C266.564 66.856 266.18 66.088 265.924 65.064C265.732 64.04 265.668 63.048 265.732 62.088C265.796 61.064 265.956 60.296 266.212 59.784C266.212 59.272 266.276 58.888 266.404 58.632C266.596 58.312 266.66 58.024 266.596 57.768C266.532 57.512 266.596 57.064 266.788 56.424C266.98 55.784 267.172 55.176 267.364 54.6C267.812 53.576 268.324 52.264 268.9 50.664C269.476 49 270.052 47.336 270.628 45.672C271.204 43.944 271.684 42.472 272.068 41.256C272.452 39.976 272.676 39.208 272.74 38.952C272.74 38.184 273.252 37.768 274.276 37.704C275.044 37.448 275.972 37.768 277.06 38.664C278.148 39.56 279.012 40.52 279.652 41.544C280.164 42.056 280.356 42.728 280.228 43.56C280.1 44.392 279.684 45.576 278.98 47.112C278.724 47.624 278.404 48.488 278.02 49.704C277.7 50.856 277.476 51.816 277.348 52.584C277.092 53.096 276.772 53.832 276.388 54.792C276.068 55.688 275.78 56.552 275.524 57.384C275.396 57.704 275.268 58.312 275.14 59.208C275.012 60.04 274.852 60.904 274.66 61.8C274.468 62.696 274.212 63.4 273.892 63.912C273.316 66.536 272.292 68.072 270.82 68.52C269.412 68.968 268.164 68.584 267.076 67.368ZM277.444 28.872C276.74 28.36 276.196 27.752 275.812 27.048C275.492 26.28 275.3 25.608 275.236 25.032C275.236 24.456 275.3 24.104 275.428 23.976C276.068 23.272 276.612 22.344 277.06 21.192C277.572 20.04 278.116 18.984 278.692 18.024C278.82 17.832 278.98 17.576 279.172 17.256C279.428 16.872 279.684 16.648 279.94 16.584C280.708 16.072 281.764 16.104 283.108 16.68C284.516 17.256 285.54 18.056 286.18 19.08C286.756 20.296 286.916 21.544 286.66 22.824C286.468 24.104 285.796 25.448 284.644 26.856C283.684 28.136 282.468 28.968 280.996 29.352C279.524 29.672 278.34 29.512 277.444 28.872ZM295.135 69.672C291.743 69.672 289.247 68.584 287.647 66.408C287.199 65.384 286.975 64.36 286.975 63.336C287.039 62.248 287.295 61.48 287.743 61.032C288.191 60.52 288.735 60.616 289.375 61.32C290.207 61.832 291.391 62.088 292.927 62.088C293.695 62.088 294.367 62.088 294.943 62.088C295.583 62.024 296.319 61.96 297.151 61.896C298.623 61.768 299.551 61.32 299.935 60.552C300.383 59.784 300.287 59.144 299.647 58.632H299.743C298.015 58.184 296.319 57.544 294.655 56.712C292.991 55.88 291.583 54.952 290.431 53.928C289.279 52.84 288.607 51.816 288.415 50.856C287.903 48.744 288.031 46.568 288.799 44.328C289.567 42.088 290.687 40.136 292.159 38.472C292.735 38.088 293.535 37.544 294.559 36.84C295.583 36.072 296.319 35.656 296.767 35.592V35.688C297.983 34.408 299.359 33.384 300.895 32.616C302.431 31.784 304.223 31.016 306.271 30.312L307.807 30.12C308.575 29.992 309.247 29.928 309.823 29.928C309.759 29.928 309.919 29.992 310.303 30.12C310.687 30.248 311.007 30.344 311.263 30.408C311.647 30.6 312.031 30.696 312.415 30.696C313.311 30.824 314.175 31.304 315.007 32.136C315.903 32.904 316.607 33.832 317.119 34.92C317.695 35.944 317.919 36.904 317.791 37.8C317.599 39.272 317.055 40.744 316.159 42.216C315.263 43.624 314.303 44.424 313.279 44.616C313.407 44.552 313.279 44.424 312.895 44.232C312.511 44.04 312.159 43.848 311.839 43.656L311.455 43.848C311.455 43.848 311.423 43.752 311.359 43.56C311.359 43.368 311.295 43.144 311.167 42.888C310.911 42.44 310.719 41.96 310.591 41.448C310.527 40.936 310.527 40.36 310.591 39.72C310.719 39.016 310.751 38.6 310.687 38.472C310.623 38.344 310.239 38.248 309.535 38.184C308.703 37.992 307.647 38.088 306.367 38.472C305.087 38.792 303.903 39.368 302.815 40.2C301.535 41.032 300.575 41.704 299.935 42.216C299.359 42.728 298.911 43.24 298.591 43.752C298.271 44.2 297.919 44.872 297.535 45.768C297.279 46.216 297.055 46.632 296.863 47.016C296.671 47.336 296.575 47.656 296.575 47.976C296.575 48.616 297.119 49.288 298.207 49.992C299.295 50.632 300.927 51.4 303.103 52.296C304.831 53 305.951 53.96 306.463 55.176C307.039 56.392 307.551 57.544 307.999 58.632C308.127 58.888 308.255 59.368 308.383 60.072C308.575 60.712 308.607 61.096 308.479 61.224C308.607 61.352 308.671 61.48 308.671 61.608V61.512C309.183 62.472 309.087 63.496 308.383 64.584C307.743 65.608 306.719 66.568 305.311 67.464C303.903 68.296 302.303 68.904 300.511 69.288H300.607C299.647 69.416 298.687 69.512 297.727 69.576C296.831 69.64 295.967 69.672 295.135 69.672ZM324.282 69.576C322.106 68.68 320.506 67.752 319.482 66.792C318.522 65.768 318.138 64.872 318.33 64.104C318.458 63.72 318.682 63.368 319.002 63.048C319.322 62.728 320.026 62.6 321.114 62.664C322.266 62.664 324.026 62.952 326.394 63.528C327.098 63.528 327.802 63.496 328.506 63.432C329.21 63.368 329.85 63.272 330.426 63.144C331.066 63.016 331.578 62.856 331.962 62.664C332.282 62.536 332.378 62.376 332.25 62.184C332.122 61.928 331.898 61.672 331.578 61.416C331.322 61.096 331.034 60.904 330.714 60.84C330.394 60.712 330.106 60.648 329.85 60.648C329.722 60.328 329.434 60.008 328.986 59.688C328.602 59.368 328.122 59.016 327.546 58.632C326.138 57.48 324.858 56.456 323.706 55.56C322.554 54.664 322.106 53.992 322.362 53.544C322.362 53.288 322.362 53.16 322.362 53.16C322.362 53.096 322.362 53.064 322.362 53.064C321.914 53.064 321.498 52.456 321.114 51.24C320.73 49.96 320.538 48.808 320.538 47.784C320.538 46.504 320.794 45.224 321.306 43.944C321.882 42.664 322.586 41.448 323.418 40.296C324.314 39.144 325.21 38.12 326.106 37.224C327.322 36.072 328.602 34.952 329.946 33.864C331.354 32.712 332.858 31.688 334.458 30.792C336.122 29.896 337.946 29.192 339.93 28.68C340.826 28.488 341.85 28.392 343.002 28.392C344.154 28.392 344.986 28.552 345.498 28.872C346.01 28.552 346.65 28.648 347.418 29.16C348.186 29.608 348.954 30.248 349.722 31.08C350.49 31.912 351.066 32.744 351.45 33.576C351.45 34.344 351.418 35.304 351.354 36.456C351.354 37.544 351.29 38.504 351.162 39.336C351.034 40.168 350.746 40.584 350.298 40.584C350.298 40.584 350.202 40.616 350.01 40.68C349.882 40.68 349.818 40.84 349.818 41.16C349.818 41.8 349.338 42.536 348.378 43.368C347.162 44.2 346.01 44.872 344.922 45.384C343.834 45.896 343.002 45.928 342.426 45.48C342.042 45.224 341.69 44.968 341.37 44.712C341.05 44.456 340.762 44.136 340.506 43.752C340.506 43.752 340.41 43.624 340.218 43.368C340.09 43.048 340.026 42.76 340.026 42.504C340.026 42.248 340.122 42.024 340.314 41.832C340.506 41.576 340.602 41.448 340.602 41.448C341.498 40.616 342.17 39.848 342.618 39.144C343.13 38.44 343.482 37.832 343.674 37.32C343.866 36.744 343.962 36.296 343.962 35.976C343.962 35.592 343.866 35.368 343.674 35.304C343.546 35.176 343.226 35.112 342.714 35.112C342.394 35.112 341.69 35.368 340.602 35.88C339.578 36.392 338.49 37.032 337.338 37.8C336.186 38.504 335.29 39.144 334.65 39.72C334.394 40.168 334.202 40.456 334.074 40.584C334.01 40.712 333.85 40.776 333.594 40.776C333.594 40.52 333.434 40.552 333.114 40.872C332.794 41.192 332.41 41.64 331.962 42.216C331.514 42.792 331.066 43.4 330.618 44.04C330.17 44.68 329.818 45.192 329.562 45.576C329.498 46.152 329.338 46.696 329.082 47.208C328.89 47.656 328.826 48.136 328.89 48.648C328.954 49.288 329.274 49.896 329.85 50.472C330.426 51.048 331.258 51.784 332.346 52.68C334.586 54.344 336.25 55.656 337.338 56.616C338.49 57.576 339.29 58.344 339.738 58.92C340.186 59.496 340.474 60.072 340.602 60.648C341.69 62.632 341.818 64.36 340.986 65.832C340.154 67.24 338.874 68.328 337.146 69.096C336.506 69.416 335.386 69.704 333.786 69.96C332.186 70.28 330.49 70.408 328.698 70.344C326.97 70.344 325.498 70.088 324.282 69.576ZM385.126 68.232C383.782 68.488 382.758 68.424 382.054 68.04C381.414 67.592 380.742 67.048 380.038 66.408C379.014 65.896 378.086 65.192 377.254 64.296C376.422 63.336 375.782 62.344 375.334 61.32C374.886 60.296 374.694 59.496 374.758 58.92C374.95 56.68 375.462 54.248 376.294 51.624C377.19 49 378.31 46.44 379.654 43.944C381.062 41.448 382.63 39.24 384.358 37.32C386.15 35.336 388.07 33.896 390.118 33C391.398 32.488 392.774 32.296 394.246 32.424C395.718 32.552 396.71 33.16 397.222 34.248C398.182 36.104 397.958 37.288 396.55 37.8C396.358 37.8 396.134 37.896 395.878 38.088C395.622 38.216 395.494 38.408 395.494 38.664C395.75 38.792 396.454 38.824 397.606 38.76C398.758 38.632 399.91 38.44 401.062 38.184C402.278 37.864 403.078 37.544 403.462 37.224C403.846 37.032 404.134 36.936 404.326 36.936C404.518 36.936 404.998 37 405.766 37.128C406.854 37.448 407.398 37.832 407.398 38.28C407.398 38.536 407.494 38.952 407.686 39.528C407.878 40.04 408.102 40.296 408.358 40.296C408.806 40.36 408.902 40.808 408.646 41.64C408.454 42.472 407.718 43.336 406.438 44.232C405.222 45 404.454 45.512 404.134 45.768C403.878 45.96 403.846 46.408 404.038 47.112C404.55 48.328 404.518 49.8 403.942 51.528C403.366 53.256 402.406 55.048 401.062 56.904C399.718 58.76 398.118 60.52 396.262 62.184C394.47 63.784 392.582 65.16 390.598 66.312C388.678 67.4 386.854 68.04 385.126 68.232ZM385.414 60.168C385.67 60.168 386.118 60.04 386.758 59.784C387.398 59.464 387.91 59.208 388.294 59.016C388.55 58.76 388.87 58.472 389.254 58.152C389.702 57.768 390.054 57.544 390.31 57.48C390.566 57.48 390.726 57.384 390.79 57.192C390.854 56.936 391.078 56.456 391.462 55.752C391.846 54.984 392.614 53.864 393.766 52.392C395.046 50.984 395.878 49.864 396.262 49.032C396.646 48.136 396.678 47.176 396.358 46.152C396.294 45.896 396.102 45.736 395.782 45.672C395.526 45.608 395.174 45.448 394.726 45.192C394.086 45.192 393.638 45.352 393.382 45.672C393.19 45.928 392.742 45.768 392.038 45.192L390.502 43.272L388.87 44.904C387.846 45.928 386.918 47.208 386.086 48.744C385.318 50.28 384.71 51.848 384.262 53.448C383.814 55.048 383.526 56.456 383.398 57.672C383.334 58.632 383.494 59.272 383.878 59.592C384.262 59.912 384.774 60.104 385.414 60.168ZM417.508 65.64C416.292 64.552 415.236 63.432 414.34 62.28C413.444 61.064 412.836 59.208 412.516 56.712C412.388 55.56 412.516 53.96 412.9 51.912C413.284 49.864 413.86 47.72 414.628 45.48C415.396 43.176 416.228 41.064 417.124 39.144C418.02 37.224 418.916 35.816 419.812 34.92C420.58 33.96 421.54 33.192 422.692 32.616C423.908 32.04 425.156 32.04 426.436 32.616C427.14 33.448 427.492 34.6 427.492 36.072C427.556 37.48 427.204 38.792 426.436 40.008C425.156 41.736 424.036 43.912 423.076 46.536C422.18 49.096 421.572 51.4 421.252 53.448C420.804 54.92 420.612 56.072 420.676 56.904C420.74 57.672 421.188 58.152 422.02 58.344C423.236 58.664 424.484 58.312 425.764 57.288C427.108 56.264 428.388 54.76 429.604 52.776C430.884 50.792 432.004 48.52 432.964 45.96C433.348 45.064 433.636 44.008 433.828 42.792C434.084 41.576 434.34 40.68 434.596 40.104C434.916 38.824 435.46 37.832 436.228 37.128C437.06 36.36 437.924 35.88 438.82 35.688C439.716 35.496 440.388 35.592 440.836 35.976C441.412 36.232 442.02 36.648 442.66 37.224C443.3 37.8 443.556 38.824 443.428 40.296C443.428 42.664 442.916 44.68 441.892 46.344C440.868 48.008 440.004 49.768 439.3 51.624C438.724 52.968 437.796 54.536 436.516 56.328C435.236 58.12 433.86 59.752 432.388 61.224C430.98 62.696 429.668 63.688 428.452 64.2C426.66 65.352 424.836 66.056 422.98 66.312C421.124 66.504 419.3 66.28 417.508 65.64ZM458.799 69.576C457.903 69.32 457.007 68.872 456.111 68.232C455.215 67.592 454.287 66.856 453.327 66.024C452.559 65 452.015 64.072 451.695 63.24C451.375 62.344 451.183 61.32 451.119 60.168C451.119 58.952 451.119 57.416 451.119 55.56C451.119 54.792 451.247 53.704 451.503 52.296C451.823 50.888 452.143 49.416 452.463 47.88C452.847 46.344 453.199 45 453.519 43.848C453.839 42.632 454.031 41.832 454.095 41.448C454.287 40.616 453.967 40.136 453.135 40.008C452.303 39.88 451.375 39.848 450.351 39.912C449.391 39.912 448.751 39.816 448.431 39.624C448.175 39.56 448.047 39.24 448.047 38.664C448.047 38.024 448.047 37.704 448.047 37.704C448.047 37.448 447.919 37.288 447.663 37.224C447.407 37.096 447.183 36.872 446.991 36.552C446.863 36.296 447.023 35.816 447.471 35.112C447.919 34.408 448.495 33.992 449.199 33.864C449.775 33.736 450.639 33.64 451.791 33.576C452.943 33.448 454.095 33.224 455.247 32.904C456.463 32.52 457.391 31.944 458.031 31.176C458.607 29.768 459.247 28.264 459.951 26.664C460.655 25 461.327 23.56 461.967 22.344C462.607 21.064 463.055 20.264 463.311 19.944C464.399 19.368 465.519 19.144 466.671 19.272C467.823 19.336 468.719 19.88 469.359 20.904C469.679 21.352 469.935 21.672 470.127 21.864C470.383 22.056 470.479 22.344 470.415 22.728C470.415 23.112 470.159 23.816 469.647 24.84C469.199 25.8 468.431 27.304 467.343 29.352C467.023 29.992 466.735 30.568 466.479 31.08C466.223 31.528 466.095 31.752 466.095 31.752C466.351 31.816 466.735 31.848 467.247 31.848C467.759 31.848 468.399 31.816 469.167 31.752C469.871 31.624 470.639 31.528 471.471 31.464C472.303 31.336 473.039 31.336 473.679 31.464C475.151 31.464 476.239 31.88 476.943 32.712C477.647 33.544 478.031 34.6 478.095 35.88C478.223 36.584 477.967 37.192 477.327 37.704C476.687 38.216 475.503 38.472 473.775 38.472C473.199 38.472 472.367 38.504 471.279 38.568C470.191 38.632 469.071 38.696 467.919 38.76C466.767 38.824 465.775 38.92 464.943 39.048C464.175 39.112 463.791 39.208 463.791 39.336C463.599 39.464 463.279 39.976 462.831 40.872C462.447 41.704 462.031 42.728 461.583 43.944C461.199 45.16 460.847 46.312 460.527 47.4C460.079 49.576 459.759 51.688 459.567 53.736C459.375 55.784 459.343 57.576 459.471 59.112C459.663 60.584 460.047 61.64 460.623 62.28C461.199 62.856 462.063 62.856 463.215 62.28C464.431 61.64 465.551 60.904 466.575 60.072C467.727 59.112 468.719 58.824 469.551 59.208C470.383 59.528 470.895 60.232 471.087 61.32C471.343 62.344 471.055 63.464 470.223 64.68C469.455 65.896 468.367 66.92 466.959 67.752C465.551 68.584 464.111 69.16 462.639 69.48C461.167 69.864 459.887 69.896 458.799 69.576ZM473.78 77.256C473.076 77.256 472.468 77.096 471.956 76.776C471.508 76.456 471.156 76.072 470.9 75.624C470.9 75.176 471.028 74.792 471.284 74.472C471.54 74.152 471.892 73.768 472.34 73.32C473.044 72.68 473.716 71.88 474.356 70.92C474.996 70.024 475.572 69.096 476.084 68.136C476.66 67.176 477.108 66.408 477.428 65.832C477.684 65.128 477.94 64.296 478.196 63.336C478.452 62.376 478.708 61.32 478.964 60.168C478.964 59.656 478.964 59.208 478.964 58.824C479.028 58.376 479.188 58.024 479.444 57.768C479.956 57.32 480.564 56.936 481.268 56.616C482.036 56.232 482.772 56.36 483.476 57C484.244 57.576 484.82 59.08 485.204 61.512C485.46 62.92 485.46 64.2 485.204 65.352C484.948 66.504 484.404 67.912 483.572 69.576C483.444 70.024 482.964 70.76 482.132 71.784C481.364 72.808 480.564 73.736 479.732 74.568C478.964 75.464 478.484 75.912 478.292 75.912C478.036 75.912 477.812 75.976 477.62 76.104C477.428 76.296 477.172 76.52 476.852 76.776C476.596 77.032 476.212 77.16 475.7 77.16C475.188 77.224 474.548 77.256 473.78 77.256ZM531.325 88.2C529.533 88.904 527.645 88.776 525.661 87.816C523.741 86.92 522.077 85.48 520.669 83.496C520.413 83.112 520.029 82.408 519.517 81.384C519.005 80.424 518.493 79.368 517.981 78.216C517.533 77.064 517.181 76.072 516.925 75.24C516.733 74.408 516.733 73.928 516.925 73.8C517.181 73.096 517.757 72.68 518.653 72.552C519.549 72.424 520.445 72.456 521.341 72.648C522.237 72.904 522.749 73.224 522.877 73.608C523.069 74.056 523.261 74.504 523.453 74.952C523.645 75.464 523.869 75.912 524.125 76.296C524.445 76.744 524.733 77.128 524.989 77.448C525.693 78.536 526.461 79.272 527.293 79.656C528.125 80.104 528.765 80.168 529.213 79.848C530.301 79.016 531.101 78.024 531.613 76.872C532.189 75.784 532.925 73.832 533.821 71.016C534.525 68.648 535.133 66.6 535.645 64.872C536.157 63.144 536.701 61.544 537.277 60.072C537.469 59.304 537.693 58.664 537.949 58.152C538.269 57.576 538.557 57.16 538.813 56.904H539.389C537.981 57.8 536.797 58.696 535.837 59.592C534.877 60.488 533.565 61.288 531.901 61.992C531.517 62.44 530.557 62.728 529.021 62.856C527.549 62.92 526.109 62.728 524.701 62.28C523.805 61.768 523.069 61.256 522.493 60.744C521.981 60.168 521.533 59.528 521.149 58.824C520.829 58.12 520.477 57.288 520.093 56.328C519.645 55.368 519.581 53.8 519.901 51.624C520.221 49.448 520.797 47.272 521.629 45.096C522.397 43.496 523.517 41.768 524.989 39.912C526.461 38.056 528.029 36.392 529.693 34.92C531.357 33.384 532.861 32.424 534.205 32.04C534.717 31.784 535.613 31.496 536.893 31.176C538.173 30.792 539.389 30.76 540.541 31.08C541.629 31.208 542.461 31.464 543.037 31.848C543.613 32.168 544.541 32.872 545.821 33.96C546.653 34.792 547.677 35.88 548.893 37.224C550.109 38.504 550.877 39.592 551.197 40.488C551.645 41.448 551.741 42.504 551.485 43.656C551.229 44.744 550.781 45.704 550.141 46.536C549.565 47.368 548.957 48.2 548.317 49.032C547.677 49.864 547.197 51.016 546.877 52.488C546.557 54.408 545.949 56.584 545.053 59.016C544.157 61.384 543.453 63.592 542.941 65.64L541.405 71.592C539.805 77.032 538.045 80.968 536.125 83.4C534.205 85.896 532.605 87.496 531.325 88.2ZM529.309 55.176C530.589 55.112 531.677 54.984 532.573 54.792C533.533 54.536 534.429 54.024 535.261 53.256C536.093 52.424 537.053 51.176 538.141 49.512C539.229 47.976 539.997 46.568 540.445 45.288C540.893 44.008 541.053 42.568 540.925 40.968C540.861 39.944 540.573 39.272 540.061 38.952C539.549 38.632 538.877 38.536 538.045 38.664C536.829 38.856 535.741 39.368 534.781 40.2C533.821 40.968 532.701 42.184 531.421 43.848C530.461 45.128 529.661 46.664 529.021 48.456C528.381 50.376 528.093 51.912 528.157 53.064C528.285 54.216 528.669 54.92 529.309 55.176ZM573.878 67.08C571.958 68.168 569.91 68.808 567.734 69C565.622 69.128 563.638 68.84 561.782 68.136C559.926 67.368 558.422 66.248 557.27 64.776C556.63 63.944 556.022 62.632 555.446 60.84C554.87 58.984 554.774 56.488 555.158 53.352C555.542 50.408 556.438 47.432 557.846 44.424C559.318 41.416 561.11 38.76 563.222 36.456C565.334 34.152 567.638 32.584 570.134 31.752C571.03 31.432 571.926 31.208 572.822 31.08C573.782 30.888 575.03 30.856 576.566 30.984C578.038 31.176 579.35 31.56 580.502 32.136C581.654 32.648 582.486 33.224 582.998 33.864C584.022 34.888 584.694 35.88 585.014 36.84C585.334 37.8 585.462 38.728 585.398 39.624C585.078 41.672 584.15 43.88 582.614 46.248C581.142 48.616 579.062 50.376 576.374 51.528C575.286 51.976 574.006 52.264 572.534 52.392C571.062 52.52 569.046 52.328 566.486 51.816C564.95 51.496 563.926 51.656 563.414 52.296C562.966 52.936 562.774 54.184 562.838 56.04C562.966 57.192 563.222 58.216 563.606 59.112C564.054 59.944 564.854 60.52 566.006 60.84C567.478 61.096 568.534 61.128 569.174 60.936C569.814 60.68 570.614 60.328 571.574 59.88C572.086 59.56 572.566 59.208 573.014 58.824C573.526 58.44 574.006 58.056 574.454 57.672C574.966 57.288 575.382 57 575.702 56.808C576.022 56.552 576.342 56.392 576.662 56.328C576.982 56.264 577.302 56.232 577.622 56.232C578.326 56.296 578.998 56.68 579.638 57.384C580.278 58.088 580.694 58.76 580.886 59.4C580.886 59.912 580.566 60.648 579.926 61.608C579.286 62.504 578.422 63.464 577.334 64.488C576.31 65.448 575.158 66.312 573.878 67.08ZM572.63 45.672C573.078 45.48 573.718 45.032 574.55 44.328C575.446 43.624 576.246 42.888 576.95 42.12C577.654 41.288 578.006 40.648 578.006 40.2C578.006 39.496 577.526 38.888 576.566 38.376C575.67 37.864 574.486 37.768 573.014 38.088C572.502 38.216 571.894 38.568 571.19 39.144C570.486 39.72 569.782 40.392 569.078 41.16C568.374 41.864 567.766 42.568 567.254 43.272C566.742 43.912 566.39 44.424 566.198 44.808C566.454 45.128 566.966 45.384 567.734 45.576C568.502 45.768 569.334 45.864 570.23 45.864C571.19 45.864 571.99 45.8 572.63 45.672ZM599.893 69.576C598.997 69.32 598.101 68.872 597.205 68.232C596.309 67.592 595.381 66.856 594.421 66.024C593.653 65 593.109 64.072 592.789 63.24C592.469 62.344 592.277 61.32 592.213 60.168C592.213 58.952 592.213 57.416 592.213 55.56C592.213 54.792 592.341 53.704 592.597 52.296C592.917 50.888 593.237 49.416 593.557 47.88C593.941 46.344 594.293 45 594.613 43.848C594.933 42.632 595.125 41.832 595.189 41.448C595.381 40.616 595.061 40.136 594.229 40.008C593.397 39.88 592.469 39.848 591.445 39.912C590.485 39.912 589.845 39.816 589.525 39.624C589.269 39.56 589.141 39.24 589.141 38.664C589.141 38.024 589.141 37.704 589.141 37.704C589.141 37.448 589.013 37.288 588.757 37.224C588.501 37.096 588.277 36.872 588.085 36.552C587.957 36.296 588.117 35.816 588.565 35.112C589.013 34.408 589.589 33.992 590.293 33.864C590.869 33.736 591.733 33.64 592.885 33.576C594.037 33.448 595.189 33.224 596.341 32.904C597.557 32.52 598.485 31.944 599.125 31.176C599.701 29.768 600.341 28.264 601.045 26.664C601.749 25 602.421 23.56 603.061 22.344C603.701 21.064 604.149 20.264 604.405 19.944C605.493 19.368 606.613 19.144 607.765 19.272C608.917 19.336 609.813 19.88 610.453 20.904C610.773 21.352 611.029 21.672 611.221 21.864C611.477 22.056 611.573 22.344 611.509 22.728C611.509 23.112 611.253 23.816 610.741 24.84C610.293 25.8 609.525 27.304 608.437 29.352C608.117 29.992 607.829 30.568 607.573 31.08C607.317 31.528 607.189 31.752 607.189 31.752C607.445 31.816 607.829 31.848 608.341 31.848C608.853 31.848 609.493 31.816 610.261 31.752C610.965 31.624 611.733 31.528 612.565 31.464C613.397 31.336 614.133 31.336 614.773 31.464C616.245 31.464 617.333 31.88 618.037 32.712C618.741 33.544 619.125 34.6 619.189 35.88C619.317 36.584 619.061 37.192 618.421 37.704C617.781 38.216 616.597 38.472 614.869 38.472C614.293 38.472 613.461 38.504 612.373 38.568C611.285 38.632 610.165 38.696 609.013 38.76C607.861 38.824 606.869 38.92 606.036 39.048C605.269 39.112 604.885 39.208 604.885 39.336C604.693 39.464 604.373 39.976 603.925 40.872C603.541 41.704 603.125 42.728 602.677 43.944C602.293 45.16 601.941 46.312 601.621 47.4C601.173 49.576 600.853 51.688 600.661 53.736C600.469 55.784 600.437 57.576 600.565 59.112C600.757 60.584 601.141 61.64 601.717 62.28C602.293 62.856 603.157 62.856 604.309 62.28C605.525 61.64 606.645 60.904 607.669 60.072C608.821 59.112 609.813 58.824 610.645 59.208C611.477 59.528 611.989 60.232 612.181 61.32C612.437 62.344 612.149 63.464 611.317 64.68C610.549 65.896 609.461 66.92 608.053 67.752C606.645 68.584 605.205 69.16 603.733 69.48C602.261 69.864 600.981 69.896 599.893 69.576ZM649.26 69.096C648.556 68.968 647.788 68.552 646.956 67.848C646.124 67.08 645.356 66.248 644.652 65.352C644.012 64.392 643.596 63.592 643.404 62.952C643.404 62.824 643.308 62.664 643.116 62.472C642.988 62.28 642.924 62.184 642.924 62.184C642.668 61.992 642.508 61.16 642.444 59.688C642.444 58.152 642.54 56.456 642.732 54.6C642.924 52.744 643.148 51.272 643.404 50.184C643.724 49.16 644.204 47.784 644.844 46.056C645.484 44.264 646.028 42.664 646.476 41.256L649.068 35.688L645.228 34.632C644.78 34.504 644.396 34.248 644.076 33.864C643.82 33.48 643.692 33.16 643.692 32.904C643.692 32.392 643.98 31.656 644.556 30.696C645.132 29.736 645.548 29.256 645.804 29.256C646.124 29.32 646.7 29.352 647.532 29.352C648.428 29.352 649.292 29.32 650.124 29.256C650.956 29.192 651.468 29.128 651.66 29.064C651.916 28.936 652.172 28.776 652.428 28.584C652.684 28.328 652.876 27.976 653.004 27.528C653.324 26.824 653.612 26.28 653.868 25.896C654.124 25.512 654.476 24.936 654.924 24.168C655.372 23.336 655.724 22.632 655.98 22.056C656.3 21.48 656.78 20.68 657.42 19.656C657.74 19.208 658.092 18.664 658.476 18.024C658.86 17.384 659.34 16.84 659.916 16.392C660.492 15.88 661.42 15.528 662.7 15.336C664.044 15.08 665.196 15.368 666.156 16.2C666.668 16.84 666.956 17.448 667.02 18.024C667.084 18.6 666.828 19.336 666.252 20.232C665.74 21.32 665.132 22.312 664.428 23.208C663.788 24.04 663.18 25 662.604 26.088C661.58 27.496 661.388 28.296 662.028 28.488C662.668 28.68 664.46 28.552 667.404 28.104C669.26 27.784 670.604 27.976 671.436 28.68C672.268 29.384 672.748 30.28 672.876 31.368C673.068 32.904 672.908 33.832 672.396 34.152C671.884 34.472 670.412 34.632 667.98 34.632C666.444 34.888 665.132 35.048 664.044 35.112C662.956 35.112 662.156 35.112 661.644 35.112C660.812 35.176 660.268 35.208 660.012 35.208C659.756 35.208 659.372 35.272 658.86 35.4C658.348 35.528 657.964 35.752 657.708 36.072C657.516 36.328 657.292 36.712 657.036 37.224C656.78 37.48 656.396 38.152 655.884 39.24C655.372 40.328 654.732 41.512 653.964 42.792C653.068 45.48 652.3 48.072 651.66 50.568C651.084 53 650.572 55.432 650.124 57.864C649.932 59.08 649.964 59.976 650.22 60.552C650.54 61.064 651.372 61.384 652.716 61.512C653.42 61.576 654.444 61.576 655.788 61.512C657.132 61.384 658.252 61.192 659.148 60.936C659.852 60.616 660.588 60.296 661.356 59.976C662.124 59.592 662.828 59.208 663.468 58.824C664.044 58.504 664.62 58.184 665.196 57.864C665.772 57.48 666.06 57.288 666.06 57.288C666.38 56.776 666.828 56.872 667.404 57.576C668.044 58.216 668.492 58.92 668.748 59.688C668.748 60.456 668.588 61.384 668.268 62.472C667.948 63.496 666.764 64.584 664.716 65.736C661.836 67.528 658.956 68.616 656.076 69C653.196 69.384 650.924 69.416 649.26 69.096ZM705.041 67.464C703.441 68.232 701.873 68.52 700.337 68.328C698.865 68.072 697.617 67.272 696.593 65.928C695.633 64.52 695.153 62.472 695.153 59.784C695.153 59.08 695.185 58.248 695.249 57.288C695.377 56.264 695.569 55.208 695.825 54.12C696.081 52.968 696.401 51.816 696.785 50.664C696.977 50.088 697.233 49.512 697.553 48.936C697.937 48.36 698.001 48.072 697.745 48.072C697.489 48.072 697.169 48.232 696.785 48.552C696.465 48.872 696.209 49.128 696.017 49.32C694.417 50.728 692.945 52.2 691.601 53.736C690.321 55.208 689.169 56.68 688.145 58.152C687.185 59.56 686.417 60.872 685.841 62.088C685.329 63.304 685.073 64.328 685.073 65.16C685.073 66.12 684.593 66.792 683.633 67.176C682.673 67.56 681.841 67.528 681.137 67.08C679.921 66.376 678.801 65.288 677.777 63.816C676.817 62.344 676.433 60.424 676.625 58.056C676.817 55.048 677.073 52.36 677.393 49.992C677.713 47.624 678.225 45.064 678.929 42.312C679.697 39.496 680.689 36.072 681.905 32.04C682.737 29.8 683.505 27.688 684.209 25.704C684.913 23.656 685.521 21.928 686.033 20.52C686.609 19.112 686.961 18.248 687.089 17.928C687.409 17.608 687.825 16.84 688.337 15.624C688.849 14.344 689.297 13.064 689.681 11.784C690.129 10.504 690.353 9.736 690.353 9.48C690.353 8.968 690.449 8.52 690.641 8.136C690.897 7.752 691.121 7.4 691.313 7.08C691.697 6.184 692.017 5.576 692.273 5.256C692.593 4.872 692.881 4.68 693.137 4.68C693.457 4.68 693.969 4.84 694.673 5.16C695.441 5.48 696.145 5.896 696.785 6.408C697.489 6.856 697.905 7.336 698.033 7.848C698.481 8.744 698.737 9.672 698.801 10.632C698.865 11.528 698.641 12.648 698.129 13.992C697.617 15.336 696.721 17.192 695.441 19.56C694.417 21.544 693.489 23.592 692.657 25.704C691.825 27.816 691.025 30.024 690.257 32.328C689.937 33.288 689.521 34.568 689.009 36.168C688.497 37.704 687.985 39.304 687.473 40.968C687.025 42.568 686.641 44.008 686.321 45.288C686.001 46.568 685.841 47.4 685.841 47.784C685.841 48.232 686.097 48.456 686.609 48.456C687.121 48.392 687.633 48.008 688.145 47.304C688.401 46.792 688.817 46.312 689.393 45.864C689.969 45.352 690.481 44.84 690.929 44.328C691.441 43.688 692.049 42.952 692.753 42.12C693.521 41.224 694.321 40.392 695.153 39.624C696.049 38.792 696.849 38.12 697.553 37.608C698.321 37.096 698.961 36.84 699.473 36.84C700.689 36.84 701.713 37.192 702.545 37.896C703.377 38.6 704.081 39.688 704.657 41.16C704.849 41.352 705.041 41.608 705.233 41.928C705.425 42.184 705.553 42.376 705.617 42.504C705.937 42.76 706.097 43.784 706.097 45.576C706.097 47.304 705.585 49.704 704.561 52.776C703.985 55.144 703.633 56.904 703.505 58.056C703.441 59.208 703.665 59.784 704.177 59.784C704.177 59.784 704.497 59.592 705.137 59.208C705.841 58.824 706.577 58.408 707.345 57.96C709.201 56.744 710.545 56.36 711.377 56.808C712.209 57.256 712.625 57.832 712.625 58.536C712.625 59.112 712.401 59.784 711.953 60.552C711.569 61.32 711.377 61.832 711.377 62.088C711.377 62.088 711.377 62.12 711.377 62.184C711.377 62.184 711.377 62.312 711.377 62.568C711.377 62.696 710.961 63.144 710.129 63.912C709.297 64.68 708.369 65.448 707.345 66.216C706.385 66.92 705.617 67.336 705.041 67.464ZM737.191 67.08C735.271 68.168 733.223 68.808 731.047 69C728.935 69.128 726.951 68.84 725.095 68.136C723.239 67.368 721.735 66.248 720.583 64.776C719.943 63.944 719.335 62.632 718.759 60.84C718.183 58.984 718.087 56.488 718.471 53.352C718.855 50.408 719.751 47.432 721.159 44.424C722.631 41.416 724.423 38.76 726.535 36.456C728.647 34.152 730.951 32.584 733.447 31.752C734.343 31.432 735.239 31.208 736.135 31.08C737.095 30.888 738.343 30.856 739.879 30.984C741.351 31.176 742.663 31.56 743.815 32.136C744.967 32.648 745.799 33.224 746.311 33.864C747.335 34.888 748.007 35.88 748.327 36.84C748.647 37.8 748.775 38.728 748.711 39.624C748.391 41.672 747.463 43.88 745.927 46.248C744.455 48.616 742.375 50.376 739.687 51.528C738.599 51.976 737.319 52.264 735.847 52.392C734.375 52.52 732.359 52.328 729.799 51.816C728.263 51.496 727.239 51.656 726.727 52.296C726.279 52.936 726.087 54.184 726.151 56.04C726.279 57.192 726.535 58.216 726.919 59.112C727.367 59.944 728.167 60.52 729.319 60.84C730.791 61.096 731.847 61.128 732.487 60.936C733.127 60.68 733.927 60.328 734.887 59.88C735.399 59.56 735.879 59.208 736.327 58.824C736.839 58.44 737.319 58.056 737.767 57.672C738.279 57.288 738.695 57 739.015 56.808C739.335 56.552 739.655 56.392 739.975 56.328C740.295 56.264 740.615 56.232 740.935 56.232C741.639 56.296 742.311 56.68 742.951 57.384C743.591 58.088 744.007 58.76 744.199 59.4C744.199 59.912 743.879 60.648 743.239 61.608C742.599 62.504 741.735 63.464 740.647 64.488C739.623 65.448 738.471 66.312 737.191 67.08ZM735.943 45.672C736.391 45.48 737.031 45.032 737.863 44.328C738.759 43.624 739.559 42.888 740.263 42.12C740.967 41.288 741.319 40.648 741.319 40.2C741.319 39.496 740.839 38.888 739.879 38.376C738.983 37.864 737.799 37.768 736.327 38.088C735.815 38.216 735.207 38.568 734.503 39.144C733.799 39.72 733.095 40.392 732.391 41.16C731.687 41.864 731.079 42.568 730.567 43.272C730.055 43.912 729.703 44.424 729.511 44.808C729.767 45.128 730.279 45.384 731.047 45.576C731.815 45.768 732.647 45.864 733.543 45.864C734.503 45.864 735.303 45.8 735.943 45.672ZM800.279 70.824C799.447 71.016 798.615 70.792 797.783 70.152C797.015 69.576 796.471 68.936 796.151 68.232C795.767 67.208 795.511 66.248 795.383 65.352C795.319 64.392 795.255 63.304 795.191 62.088L795.095 58.824L791.159 62.376C788.983 64.424 786.935 65.896 785.015 66.792C783.159 67.624 781.463 68.04 779.927 68.04C779.223 67.912 778.359 67.464 777.335 66.696C776.375 65.864 775.479 64.968 774.647 64.008C773.879 62.984 773.335 62.152 773.015 61.512C772.631 60.616 772.503 59.368 772.631 57.768C772.823 56.168 773.207 54.408 773.783 52.488C774.423 50.568 775.191 48.68 776.087 46.824C777.047 44.968 778.135 43.368 779.351 42.024C781.463 38.824 784.087 36.84 787.223 36.072C790.359 35.24 793.143 35.496 795.575 36.84C796.727 37.416 797.559 37.64 798.071 37.512C798.583 37.384 798.903 36.968 799.031 36.264C799.287 35.24 799.575 34.28 799.895 33.384C800.215 32.488 800.663 31.144 801.239 29.352C802.839 24.488 804.215 20.68 805.367 17.928C806.583 15.176 807.671 12.776 808.631 10.728C809.335 9.25599 810.039 8.23199 810.743 7.65599C811.447 7.08 812.055 6.824 812.567 6.888C813.271 6.888 814.135 7.144 815.159 7.65599C816.247 8.168 816.951 8.872 817.271 9.768C817.527 10.344 817.623 10.952 817.559 11.592C817.559 12.232 817.367 12.904 816.983 13.608C816.151 15.144 815.159 17.192 814.007 19.752C812.919 22.248 811.799 25 810.647 28.008C809.559 31.016 808.535 33.992 807.575 36.936C806.615 39.88 805.815 42.472 805.175 44.712C804.791 46.12 804.471 47.912 804.215 50.088C804.023 52.264 803.863 54.504 803.735 56.808C803.671 59.048 803.671 61.064 803.735 62.856C803.799 64.584 803.895 65.704 804.023 66.216C804.407 67.496 804.407 68.456 804.023 69.096C803.639 69.736 803.095 70.152 802.391 70.344C801.687 70.6 800.983 70.76 800.279 70.824ZM784.439 59.208C785.335 58.888 786.135 58.504 786.839 58.056C787.543 57.608 788.375 57.032 789.335 56.328C791.255 54.856 792.631 53.576 793.463 52.488C794.359 51.4 795.063 50.056 795.575 48.456C795.895 47.496 795.895 46.664 795.575 45.96C795.319 45.256 794.839 44.584 794.135 43.944C793.431 43.368 792.535 43.144 791.447 43.272C790.359 43.336 789.111 44.008 787.703 45.288C786.167 46.696 784.855 48.328 783.767 50.184C782.679 52.04 781.783 54.696 781.079 58.152C780.951 58.792 781.175 59.24 781.751 59.496C782.327 59.752 783.223 59.656 784.439 59.208ZM812.888 67.368C812.376 66.856 811.992 66.088 811.736 65.064C811.544 64.04 811.48 63.048 811.544 62.088C811.608 61.064 811.768 60.296 812.024 59.784C812.024 59.272 812.088 58.888 812.216 58.632C812.408 58.312 812.472 58.024 812.408 57.768C812.344 57.512 812.408 57.064 812.6 56.424C812.792 55.784 812.984 55.176 813.176 54.6C813.624 53.576 814.136 52.264 814.712 50.664C815.288 49 815.864 47.336 816.44 45.672C817.016 43.944 817.496 42.472 817.88 41.256C818.264 39.976 818.488 39.208 818.552 38.952C818.552 38.184 819.064 37.768 820.088 37.704C820.856 37.448 821.784 37.768 822.872 38.664C823.96 39.56 824.824 40.52 825.464 41.544C825.976 42.056 826.168 42.728 826.04 43.56C825.912 44.392 825.496 45.576 824.792 47.112C824.536 47.624 824.216 48.488 823.832 49.704C823.512 50.856 823.288 51.816 823.16 52.584C822.904 53.096 822.584 53.832 822.2 54.792C821.88 55.688 821.592 56.552 821.336 57.384C821.208 57.704 821.08 58.312 820.952 59.208C820.824 60.04 820.664 60.904 820.472 61.8C820.28 62.696 820.024 63.4 819.704 63.912C819.128 66.536 818.104 68.072 816.632 68.52C815.224 68.968 813.976 68.584 812.888 67.368ZM823.256 28.872C822.552 28.36 822.008 27.752 821.624 27.048C821.304 26.28 821.112 25.608 821.048 25.032C821.048 24.456 821.112 24.104 821.24 23.976C821.88 23.272 822.424 22.344 822.872 21.192C823.384 20.04 823.928 18.984 824.504 18.024C824.632 17.832 824.792 17.576 824.984 17.256C825.24 16.872 825.496 16.648 825.752 16.584C826.52 16.072 827.576 16.104 828.92 16.68C830.328 17.256 831.352 18.056 831.992 19.08C832.568 20.296 832.728 21.544 832.472 22.824C832.28 24.104 831.608 25.448 830.456 26.856C829.496 28.136 828.28 28.968 826.808 29.352C825.336 29.672 824.152 29.512 823.256 28.872ZM839.892 87.624C839.188 87.688 838.1 87.528 836.628 87.144C835.156 86.824 833.716 86.184 832.308 85.224C830.58 83.752 829.396 82.536 828.756 81.576C828.116 80.616 827.764 79.752 827.7 78.984C827.7 78.28 827.732 77.64 827.796 77.064C828.116 75.656 828.788 74.984 829.812 75.048C830.9 75.112 831.732 75.4 832.308 75.912C832.948 76.424 833.62 77.032 834.324 77.736C835.092 78.504 835.828 79.176 836.532 79.752C837.3 80.328 837.94 80.584 838.452 80.52C839.732 80.392 840.788 79.848 841.62 78.888C842.452 77.992 843.284 76.552 844.116 74.568C844.628 73.16 845.012 71.944 845.268 70.92C845.588 69.896 845.908 68.776 846.228 67.56C846.548 66.344 846.932 64.712 847.38 62.664C847.7 61.192 847.924 60.168 848.052 59.592C848.244 58.952 848.34 58.568 848.34 58.44C848.34 58.248 848.308 58.152 848.244 58.152C848.244 58.152 848.02 58.28 847.572 58.536C847.124 58.792 846.484 59.08 845.652 59.4C844.884 59.72 844.02 60.04 843.06 60.36C841.268 60.936 839.476 61.448 837.684 61.896C835.892 62.28 834.516 62.312 833.556 61.992C832.596 61.608 831.828 60.968 831.252 60.072C830.676 59.176 830.292 58.216 830.1 57.192C829.972 56.168 829.94 55.336 830.004 54.696C830.132 54.184 830.42 53.352 830.868 52.2C831.316 51.048 831.828 49.832 832.404 48.552C832.98 47.272 833.524 46.152 834.036 45.192C834.548 44.232 834.964 43.72 835.284 43.656C835.54 43.528 835.764 43.272 835.956 42.888C836.212 42.44 836.34 42.088 836.34 41.832C836.404 41.576 836.66 41.16 837.108 40.584C837.62 40.008 839.06 38.888 841.428 37.224C843.796 34.984 845.94 33.32 847.86 32.232C849.78 31.08 851.54 30.44 853.14 30.312C853.588 30.376 854.004 30.408 854.388 30.408C854.836 30.408 855.06 30.408 855.06 30.408C855.06 30.408 855.412 30.504 856.116 30.696C856.82 30.888 857.524 31.144 858.228 31.464C859.06 31.784 859.956 32.552 860.916 33.768C861.876 34.92 862.708 36.2 863.412 37.608C864.116 39.016 864.5 40.296 864.564 41.448C864.5 42.856 864.18 44.264 863.604 45.672C863.028 47.08 862.484 47.752 861.972 47.688C861.46 47.624 860.884 47.816 860.244 48.264C859.668 48.648 859.22 49.416 858.9 50.568C858.708 50.824 858.484 51.24 858.228 51.816C857.972 52.328 857.684 52.84 857.364 53.352C857.3 53.672 857.14 54.472 856.884 55.752C856.628 56.968 856.308 58.344 855.924 59.88C855.604 61.352 855.316 62.728 855.06 64.008C854.804 65.224 854.644 66.024 854.58 66.408C854.516 66.664 854.356 67.272 854.1 68.232C853.844 69.128 853.524 70.152 853.14 71.304C852.82 72.456 852.468 73.512 852.084 74.472C851.828 76.328 851.316 77.928 850.548 79.272C849.78 80.68 848.948 81.928 848.052 83.016C846.58 84.616 845.108 85.736 843.636 86.376C842.228 87.08 840.98 87.496 839.892 87.624ZM838.068 54.024C838.26 54.536 838.772 54.728 839.604 54.6C840.5 54.472 841.716 54.184 843.252 53.736C845.108 52.968 846.484 52.36 847.38 51.912C848.34 51.464 849.076 50.888 849.588 50.184C849.972 49.672 850.324 49.16 850.644 48.648C851.028 48.136 851.38 47.688 851.7 47.304C851.828 47.176 852.02 46.952 852.276 46.632C852.596 46.312 852.852 46.024 853.044 45.768C853.428 45.512 853.748 45.288 854.004 45.096C854.324 44.84 854.612 44.616 854.868 44.424C855.188 44.296 855.476 44.008 855.732 43.56C855.988 43.048 856.052 42.536 855.924 42.024C855.86 41.576 855.572 40.968 855.06 40.2C854.548 39.368 853.844 38.728 852.948 38.28C852.116 37.768 851.124 38.12 849.972 39.336C848.884 40.552 847.124 42.184 844.692 44.232C843.284 45.768 842.036 47.208 840.948 48.552C839.86 49.832 839.06 50.952 838.548 51.912C838.036 52.808 837.876 53.512 838.068 54.024ZM876.109 70.728C872.589 70.728 869.869 69.704 867.949 67.656C866.093 65.608 865.165 62.472 865.165 58.248C865.165 55.944 865.581 53.416 866.413 50.664C867.309 47.912 868.461 45.224 869.869 42.6C871.341 39.976 872.941 37.704 874.669 35.784C876.397 33.8 878.125 32.424 879.853 31.656C880.493 31.336 881.165 31.112 881.869 30.984C882.637 30.792 883.373 30.696 884.077 30.696C884.845 30.696 885.677 30.76 886.573 30.888C887.533 30.952 888.429 31.144 889.261 31.464C890.733 31.912 892.013 32.776 893.101 34.056C894.253 35.336 894.829 37.192 894.829 39.624C894.829 40.264 894.765 40.968 894.637 41.736C894.509 42.44 894.285 43.144 893.965 43.848C893.133 45.96 891.853 47.976 890.125 49.896C888.461 51.816 886.701 53.16 884.845 53.928C884.333 54.184 883.821 54.376 883.309 54.504C882.861 54.568 882.381 54.6 881.869 54.6C880.525 54.6 879.309 54.408 878.221 54.024C877.197 53.64 876.237 53.128 875.341 52.488L874.573 51.816L874.093 52.776C873.645 53.992 873.325 55.016 873.133 55.848C873.005 56.68 872.941 57.288 872.941 57.672C872.941 58.44 872.973 59.24 873.037 60.072C873.101 60.84 873.293 61.48 873.613 61.992C873.869 62.312 874.189 62.568 874.573 62.76C875.021 62.952 875.565 63.048 876.205 63.048C876.589 63.048 876.941 63.048 877.261 63.048C877.645 62.984 877.965 62.92 878.221 62.856C879.373 62.6 880.301 62.184 881.005 61.608C881.773 60.968 882.573 60.424 883.405 59.976L883.789 59.784L883.693 59.496C884.781 58.92 885.517 58.568 885.901 58.44C886.285 58.248 886.573 58.088 886.765 57.96C887.021 57.704 887.309 57.576 887.629 57.576C888.525 57.448 889.389 57.704 890.221 58.344C891.117 58.92 891.565 59.656 891.565 60.552C891.565 60.936 891.277 61.544 890.701 62.376C890.189 63.208 889.517 64.04 888.685 64.872C887.917 65.64 887.117 66.248 886.285 66.696C886.093 66.76 885.901 66.856 885.709 66.984C885.517 67.048 885.325 67.144 885.133 67.272H885.229C884.653 68.04 884.077 68.424 883.501 68.424H882.733C882.477 68.872 881.645 69.352 880.237 69.864C878.829 70.44 877.453 70.728 876.109 70.728ZM881.101 47.592C881.677 47.592 882.189 47.496 882.637 47.304C883.149 47.112 883.629 46.888 884.077 46.632C885.613 45.544 886.605 44.136 887.053 42.408C887.501 40.68 887.341 39.368 886.573 38.472C886.445 38.28 886.285 38.152 886.093 38.088C885.901 37.96 885.677 37.896 885.421 37.896C884.717 37.896 883.917 38.12 883.021 38.568C882.189 39.016 881.357 39.656 880.525 40.488C879.693 41.32 878.925 42.312 878.221 43.464L876.973 45.48C877.101 45.416 877.197 45.384 877.261 45.384C877.389 45.32 877.485 45.288 877.549 45.288C878.125 45.288 878.509 45.48 878.701 45.864C878.893 46.248 879.117 46.632 879.373 47.016C879.693 47.4 880.269 47.592 881.101 47.592ZM907.979 69.672C904.587 69.672 902.091 68.584 900.491 66.408C900.043 65.384 899.819 64.36 899.819 63.336C899.883 62.248 900.139 61.48 900.587 61.032C901.035 60.52 901.579 60.616 902.219 61.32C903.051 61.832 904.235 62.088 905.771 62.088C906.539 62.088 907.211 62.088 907.787 62.088C908.427 62.024 909.163 61.96 909.995 61.896C911.467 61.768 912.395 61.32 912.779 60.552C913.227 59.784 913.131 59.144 912.491 58.632H912.587C910.859 58.184 909.163 57.544 907.499 56.712C905.835 55.88 904.427 54.952 903.275 53.928C902.123 52.84 901.451 51.816 901.259 50.856C900.747 48.744 900.875 46.568 901.643 44.328C902.411 42.088 903.531 40.136 905.003 38.472C905.579 38.088 906.379 37.544 907.403 36.84C908.427 36.072 909.163 35.656 909.611 35.592V35.688C910.827 34.408 912.203 33.384 913.739 32.616C915.275 31.784 917.067 31.016 919.115 30.312L920.651 30.12C921.419 29.992 922.091 29.928 922.667 29.928C922.603 29.928 922.763 29.992 923.147 30.12C923.531 30.248 923.851 30.344 924.107 30.408C924.491 30.6 924.875 30.696 925.259 30.696C926.155 30.824 927.019 31.304 927.851 32.136C928.747 32.904 929.451 33.832 929.963 34.92C930.539 35.944 930.763 36.904 930.635 37.8C930.443 39.272 929.899 40.744 929.003 42.216C928.107 43.624 927.147 44.424 926.123 44.616C926.251 44.552 926.123 44.424 925.739 44.232C925.355 44.04 925.003 43.848 924.683 43.656L924.299 43.848C924.299 43.848 924.267 43.752 924.203 43.56C924.203 43.368 924.139 43.144 924.011 42.888C923.755 42.44 923.563 41.96 923.435 41.448C923.371 40.936 923.371 40.36 923.435 39.72C923.563 39.016 923.595 38.6 923.531 38.472C923.467 38.344 923.083 38.248 922.379 38.184C921.547 37.992 920.491 38.088 919.211 38.472C917.931 38.792 916.747 39.368 915.659 40.2C914.379 41.032 913.419 41.704 912.779 42.216C912.203 42.728 911.755 43.24 911.435 43.752C911.115 44.2 910.763 44.872 910.379 45.768C910.123 46.216 909.899 46.632 909.707 47.016C909.515 47.336 909.419 47.656 909.419 47.976C909.419 48.616 909.963 49.288 911.051 49.992C912.139 50.632 913.771 51.4 915.947 52.296C917.675 53 918.795 53.96 919.307 55.176C919.883 56.392 920.395 57.544 920.843 58.632C920.971 58.888 921.099 59.368 921.227 60.072C921.419 60.712 921.451 61.096 921.323 61.224C921.451 61.352 921.515 61.48 921.515 61.608V61.512C922.027 62.472 921.931 63.496 921.227 64.584C920.587 65.608 919.563 66.568 918.155 67.464C916.747 68.296 915.147 68.904 913.355 69.288H913.451C912.491 69.416 911.531 69.512 910.571 69.576C909.675 69.64 908.811 69.672 907.979 69.672ZM938.854 69.096C938.15 68.968 937.382 68.552 936.549 67.848C935.718 67.08 934.95 66.248 934.246 65.352C933.606 64.392 933.19 63.592 932.998 62.952C932.998 62.824 932.902 62.664 932.71 62.472C932.582 62.28 932.518 62.184 932.518 62.184C932.262 61.992 932.102 61.16 932.038 59.688C932.038 58.152 932.134 56.456 932.326 54.6C932.518 52.744 932.742 51.272 932.998 50.184C933.318 49.16 933.798 47.784 934.438 46.056C935.078 44.264 935.622 42.664 936.07 41.256L938.662 35.688L934.822 34.632C934.374 34.504 933.99 34.248 933.67 33.864C933.414 33.48 933.286 33.16 933.286 32.904C933.286 32.392 933.574 31.656 934.15 30.696C934.726 29.736 935.142 29.256 935.398 29.256C935.718 29.32 936.294 29.352 937.126 29.352C938.022 29.352 938.886 29.32 939.718 29.256C940.55 29.192 941.062 29.128 941.254 29.064C941.51 28.936 941.766 28.776 942.022 28.584C942.278 28.328 942.47 27.976 942.598 27.528C942.918 26.824 943.206 26.28 943.462 25.896C943.718 25.512 944.07 24.936 944.518 24.168C944.966 23.336 945.318 22.632 945.574 22.056C945.894 21.48 946.374 20.68 947.014 19.656C947.334 19.208 947.686 18.664 948.07 18.024C948.454 17.384 948.934 16.84 949.51 16.392C950.086 15.88 951.014 15.528 952.294 15.336C953.638 15.08 954.79 15.368 955.75 16.2C956.262 16.84 956.55 17.448 956.614 18.024C956.678 18.6 956.422 19.336 955.846 20.232C955.334 21.32 954.726 22.312 954.022 23.208C953.382 24.04 952.774 25 952.198 26.088C951.174 27.496 950.982 28.296 951.622 28.488C952.262 28.68 954.054 28.552 956.998 28.104C958.854 27.784 960.198 27.976 961.03 28.68C961.862 29.384 962.342 30.28 962.47 31.368C962.662 32.904 962.502 33.832 961.99 34.152C961.478 34.472 960.006 34.632 957.574 34.632C956.038 34.888 954.726 35.048 953.638 35.112C952.55 35.112 951.75 35.112 951.238 35.112C950.406 35.176 949.862 35.208 949.606 35.208C949.35 35.208 948.966 35.272 948.454 35.4C947.942 35.528 947.558 35.752 947.302 36.072C947.11 36.328 946.886 36.712 946.63 37.224C946.374 37.48 945.99 38.152 945.478 39.24C944.966 40.328 944.326 41.512 943.558 42.792C942.662 45.48 941.894 48.072 941.254 50.568C940.678 53 940.166 55.432 939.718 57.864C939.526 59.08 939.558 59.976 939.814 60.552C940.134 61.064 940.966 61.384 942.31 61.512C943.014 61.576 944.038 61.576 945.382 61.512C946.726 61.384 947.846 61.192 948.742 60.936C949.446 60.616 950.182 60.296 950.95 59.976C951.718 59.592 952.422 59.208 953.062 58.824C953.638 58.504 954.214 58.184 954.79 57.864C955.366 57.48 955.654 57.288 955.654 57.288C955.974 56.776 956.422 56.872 956.998 57.576C957.638 58.216 958.086 58.92 958.342 59.688C958.342 60.456 958.182 61.384 957.862 62.472C957.542 63.496 956.358 64.584 954.31 65.736C951.43 67.528 948.55 68.616 945.67 69C942.79 69.384 940.518 69.416 938.854 69.096Z" fill="#3EA7F3"/>
</svg>