<svg width="1423" height="703" viewBox="0 0 1423 703" fill="none" xmlns="http://www.w3.org/2000/svg">
<rect width="1423" height="703" fill="#ED7DFF"/>
<rect x="303" y="108.154" width="92" height="92" rx="21.85" transform="rotate(-42.5 303 108.154)" fill="white"/>
<rect x="326.594" y="117.73" width="70.725" height="45.6857" rx="9.66429" transform="rotate(-42.5 326.594 117.73)" fill="#504CFF"/>
<rect x="371.688" y="124.674" width="10.9821" height="2.19643" rx="1.09821" transform="rotate(-42.5 371.688 124.674)" fill="white"/>
<mask id="mask0_1004_6909" style="mask-type:alpha" maskUnits="userSpaceOnUse" x="362" y="91" width="19" height="21">
<rect x="359.465" y="98.334" width="13.6179" height="21.0857" rx="6.80893" transform="rotate(-42.5 359.465 98.334)" fill="white"/>
</mask>
<g mask="url(#mask0_1004_6909)">
<rect x="359.465" y="98.334" width="13.6179" height="21.0857" rx="6.80893" transform="rotate(-42.5 359.465 98.334)" fill="white"/>
<rect x="366.992" y="103.949" width="10.1036" height="14.9357" rx="5.05179" transform="rotate(-42.5 366.992 103.949)" fill="#07055A"/>
</g>
<mask id="mask1_1004_6909" style="mask-type:alpha" maskUnits="userSpaceOnUse" x="346" y="106" width="20" height="20">
<rect x="343.918" y="112.578" width="13.6179" height="21.0857" rx="6.80893" transform="rotate(-42.5 343.918 112.578)" fill="white"/>
</mask>
<g mask="url(#mask1_1004_6909)">
<rect x="343.918" y="112.578" width="13.6179" height="21.0857" rx="6.80893" transform="rotate(-42.5 343.918 112.578)" fill="white"/>
<rect x="351.445" y="118.193" width="10.1036" height="14.9357" rx="5.05179" transform="rotate(-42.5 351.445 118.193)" fill="#07055A"/>
</g>
<rect x="90.9922" y="351.283" width="92" height="92" rx="21.85" transform="rotate(19.5 90.9922 351.283)" fill="white"/>
<rect x="93.6133" y="376.611" width="70.725" height="45.6857" rx="9.66429" transform="rotate(19.5 93.6133 376.611)" fill="#504CFF"/>
<rect x="108.652" y="419.686" width="10.9821" height="2.19643" rx="1.09821" transform="rotate(19.5 108.652 419.686)" fill="white"/>
<mask id="mask2_1004_6909" style="mask-type:alpha" maskUnits="userSpaceOnUse" x="121" y="398" width="17" height="22">
<rect x="126.172" y="396.527" width="13.6179" height="21.0857" rx="6.80893" transform="rotate(19.5 126.172 396.527)" fill="white"/>
</mask>
<g mask="url(#mask2_1004_6909)">
<rect x="126.172" y="396.527" width="13.6179" height="21.0857" rx="6.80893" transform="rotate(19.5 126.172 396.527)" fill="white"/>
<rect x="124.75" y="405.809" width="10.1036" height="14.9357" rx="5.05179" transform="rotate(19.5 124.75 405.809)" fill="#07055A"/>
</g>
<mask id="mask3_1004_6909" style="mask-type:alpha" maskUnits="userSpaceOnUse" x="101" y="391" width="17" height="22">
<rect x="106.297" y="389.49" width="13.6179" height="21.0857" rx="6.80893" transform="rotate(19.5 106.297 389.49)" fill="white"/>
</mask>
<g mask="url(#mask3_1004_6909)">
<rect x="106.297" y="389.49" width="13.6179" height="21.0857" rx="6.80893" transform="rotate(19.5 106.297 389.49)" fill="white"/>
<rect x="104.875" y="398.771" width="10.1036" height="14.9357" rx="5.05179" transform="rotate(19.5 104.875 398.771)" fill="#07055A"/>
</g>
<rect x="342" y="572.52" width="92" height="92" rx="21.85" transform="rotate(-39.5 342 572.52)" fill="white"/>
<rect x="365.059" y="583.318" width="70.725" height="45.6857" rx="9.66429" transform="rotate(-39.5 365.059 583.318)" fill="#504CFF"/>
<rect x="409.727" y="592.611" width="10.9821" height="2.19643" rx="1.09821" transform="rotate(-39.5 409.727 592.611)" fill="white"/>
<mask id="mask4_1004_6909" style="mask-type:alpha" maskUnits="userSpaceOnUse" x="401" y="559" width="20" height="21">
<rect x="398.898" y="565.67" width="13.6179" height="21.0857" rx="6.80893" transform="rotate(-39.5 398.898 565.67)" fill="white"/>
</mask>
<g mask="url(#mask4_1004_6909)">
<rect x="398.898" y="565.67" width="13.6179" height="21.0857" rx="6.80893" transform="rotate(-39.5 398.898 565.67)" fill="white"/>
<rect x="406.121" y="571.67" width="10.1036" height="14.9357" rx="5.05179" transform="rotate(-39.5 406.121 571.67)" fill="#07055A"/>
</g>
<mask id="mask5_1004_6909" style="mask-type:alpha" maskUnits="userSpaceOnUse" x="385" y="573" width="19" height="20">
<rect x="382.629" y="579.08" width="13.6179" height="21.0857" rx="6.80893" transform="rotate(-39.5 382.629 579.08)" fill="white"/>
</mask>
<g mask="url(#mask5_1004_6909)">
<rect x="382.629" y="579.08" width="13.6179" height="21.0857" rx="6.80893" transform="rotate(-39.5 382.629 579.08)" fill="white"/>
<rect x="389.852" y="585.08" width="10.1036" height="14.9357" rx="5.05179" transform="rotate(-39.5 389.852 585.08)" fill="#07055A"/>
</g>
<rect x="687.949" y="152" width="92" height="92" rx="21.85" transform="rotate(23 687.949 152)" fill="white"/>
<rect x="689.02" y="177.439" width="70.725" height="45.6857" rx="9.66429" transform="rotate(23 689.02 177.439)" fill="#504CFF"/>
<rect x="701.402" y="221.352" width="10.9821" height="2.19643" rx="1.09821" transform="rotate(23 701.402 221.352)" fill="white"/>
<mask id="mask6_1004_6909" style="mask-type:alpha" maskUnits="userSpaceOnUse" x="714" y="201" width="17" height="21">
<rect x="720.301" y="199.307" width="13.6179" height="21.0857" rx="6.80893" transform="rotate(23 720.301 199.307)" fill="white"/>
</mask>
<g mask="url(#mask6_1004_6909)">
<rect x="720.301" y="199.307" width="13.6179" height="21.0857" rx="6.80893" transform="rotate(23 720.301 199.307)" fill="white"/>
<rect x="718.312" y="208.484" width="10.1036" height="14.9357" rx="5.05179" transform="rotate(23 718.312 208.484)" fill="#07055A"/>
</g>
<mask id="mask7_1004_6909" style="mask-type:alpha" maskUnits="userSpaceOnUse" x="694" y="193" width="18" height="21">
<rect x="700.895" y="191.068" width="13.6179" height="21.0857" rx="6.80893" transform="rotate(23 700.895 191.068)" fill="white"/>
</mask>
<g mask="url(#mask7_1004_6909)">
<rect x="700.895" y="191.068" width="13.6179" height="21.0857" rx="6.80893" transform="rotate(23 700.895 191.068)" fill="white"/>
<rect x="698.906" y="200.246" width="10.1036" height="14.9357" rx="5.05179" transform="rotate(23 698.906 200.246)" fill="#07055A"/>
</g>
<rect x="713" y="541.77" width="92" height="92" rx="21.85" transform="rotate(-35 713 541.77)" fill="white"/>
<rect x="735.141" y="554.344" width="70.725" height="45.6857" rx="9.66429" transform="rotate(-35 735.141 554.344)" fill="#504CFF"/>
<rect x="778.941" y="567.113" width="10.9821" height="2.19643" rx="1.09821" transform="rotate(-35 778.941 567.113)" fill="white"/>
<mask id="mask8_1004_6909" style="mask-type:alpha" maskUnits="userSpaceOnUse" x="772" y="534" width="19" height="21">
<rect x="770.262" y="539.404" width="13.6179" height="21.0857" rx="6.80893" transform="rotate(-35 770.262 539.404)" fill="white"/>
</mask>
<g mask="url(#mask8_1004_6909)">
<rect x="770.262" y="539.404" width="13.6179" height="21.0857" rx="6.80893" transform="rotate(-35 770.262 539.404)" fill="white"/>
<rect x="776.992" y="545.953" width="10.1036" height="14.9357" rx="5.05179" transform="rotate(-35 776.992 545.953)" fill="#07055A"/>
</g>
<mask id="mask9_1004_6909" style="mask-type:alpha" maskUnits="userSpaceOnUse" x="755" y="546" width="19" height="21">
<rect x="752.992" y="551.496" width="13.6179" height="21.0857" rx="6.80893" transform="rotate(-35 752.992 551.496)" fill="white"/>
</mask>
<g mask="url(#mask9_1004_6909)">
<rect x="752.992" y="551.496" width="13.6179" height="21.0857" rx="6.80893" transform="rotate(-35 752.992 551.496)" fill="white"/>
<rect x="759.723" y="558.045" width="10.1036" height="14.9357" rx="5.05179" transform="rotate(-35 759.723 558.045)" fill="#07055A"/>
</g>
<rect x="1216" y="373.191" width="92" height="92" rx="21.85" transform="rotate(-18.5 1216 373.191)" fill="white"/>
<rect x="1233.66" y="391.537" width="70.725" height="45.6857" rx="9.66429" transform="rotate(-18.5 1233.66 391.537)" fill="#504CFF"/>
<rect x="1272.03" y="416.221" width="10.9821" height="2.19643" rx="1.09821" transform="rotate(-18.5 1272.03 416.221)" fill="white"/>
<mask id="mask10_1004_6909" style="mask-type:alpha" maskUnits="userSpaceOnUse" x="1273" y="384" width="17" height="22">
<rect x="1271.57" y="387.188" width="13.6179" height="21.0857" rx="6.80893" transform="rotate(-18.5 1271.57 387.188)" fill="white"/>
</mask>
<g mask="url(#mask10_1004_6909)">
<rect x="1271.57" y="387.188" width="13.6179" height="21.0857" rx="6.80893" transform="rotate(-18.5 1271.57 387.188)" fill="white"/>
<rect x="1276.17" y="395.379" width="10.1036" height="14.9357" rx="5.05179" transform="rotate(-18.5 1276.17 395.379)" fill="#07055A"/>
</g>
<mask id="mask11_1004_6909" style="mask-type:alpha" maskUnits="userSpaceOnUse" x="1253" y="391" width="17" height="22">
<rect x="1251.58" y="393.877" width="13.6179" height="21.0857" rx="6.80893" transform="rotate(-18.5 1251.58 393.877)" fill="white"/>
</mask>
<g mask="url(#mask11_1004_6909)">
<rect x="1251.58" y="393.877" width="13.6179" height="21.0857" rx="6.80893" transform="rotate(-18.5 1251.58 393.877)" fill="white"/>
<rect x="1256.18" y="402.068" width="10.1036" height="14.9357" rx="5.05179" transform="rotate(-18.5 1256.18 402.068)" fill="#07055A"/>
</g>
<rect x="1232.33" y="65" width="92" height="92" rx="21.85" transform="rotate(26 1232.33 65)" fill="white"/>
<rect x="1232.07" y="90.4609" width="70.725" height="45.6857" rx="9.66429" transform="rotate(26 1232.07 90.4609)" fill="#504CFF"/>
<rect x="1242.13" y="134.959" width="10.9821" height="2.19643" rx="1.09821" transform="rotate(26 1242.13 134.959)" fill="white"/>
<mask id="mask12_1004_6909" style="mask-type:alpha" maskUnits="userSpaceOnUse" x="1255" y="116" width="18" height="21">
<rect x="1262.16" y="113.936" width="13.6179" height="21.0857" rx="6.80893" transform="rotate(26 1262.16 113.936)" fill="white"/>
</mask>
<g mask="url(#mask12_1004_6909)">
<rect x="1262.16" y="113.936" width="13.6179" height="21.0857" rx="6.80893" transform="rotate(26 1262.16 113.936)" fill="white"/>
<rect x="1259.7" y="122.996" width="10.1036" height="14.9357" rx="5.05179" transform="rotate(26 1259.7 122.996)" fill="#07055A"/>
</g>
<mask id="mask13_1004_6909" style="mask-type:alpha" maskUnits="userSpaceOnUse" x="1236" y="106" width="18" height="22">
<rect x="1243.21" y="104.693" width="13.6179" height="21.0857" rx="6.80893" transform="rotate(26 1243.21 104.693)" fill="white"/>
</mask>
<g mask="url(#mask13_1004_6909)">
<rect x="1243.21" y="104.693" width="13.6179" height="21.0857" rx="6.80893" transform="rotate(26 1243.21 104.693)" fill="white"/>
<rect x="1240.75" y="113.754" width="10.1036" height="14.9357" rx="5.05179" transform="rotate(26 1240.75 113.754)" fill="#07055A"/>
</g>
<path d="M483.353 393.863L570.449 329.416L583.272 346.745L496.176 411.192L483.353 393.863ZM492.48 333.176L509.809 320.353L574.257 407.449L556.928 420.272L492.48 333.176Z" fill="white"/>
<path d="M84.7169 611.141L179.48 558.613L189.931 577.467L95.1681 629.995L84.7169 611.141ZM101.687 552.164L120.542 541.712L173.07 636.475L154.215 646.927L101.687 552.164Z" fill="white"/>
<path d="M99.1641 211.202L154.967 118.33L173.445 129.432L117.642 222.304L99.1641 211.202ZM84.3723 151.641L95.4752 133.163L188.347 188.966L177.244 207.444L84.3723 151.641Z" fill="white"/>
<path d="M1015.12 544.268L1117.56 508.993L1124.58 529.376L1022.13 564.65L1015.12 544.268ZM1042.07 489.133L1062.45 482.115L1097.73 584.56L1077.34 591.578L1042.07 489.133Z" fill="white"/>
<path d="M958.164 136.202L1013.97 43.3295L1032.45 54.4324L976.642 147.304L958.164 136.202ZM943.372 76.6408L954.475 58.1626L1047.35 113.966L1036.24 132.444L943.372 76.6408Z" fill="white"/>
</svg>
