<svg width="250" height="160" viewBox="0 0 250 160" fill="none" xmlns="http://www.w3.org/2000/svg">
<g clip-path="url(#clip0_52_5420)">
<rect width="250" height="160" fill="transparent"/>
<path d="M1.41421 8.31485e-05L0.707107 -0.707024L0 8.31485e-05L0.707107 0.70719L1.41421 8.31485e-05Z" fill="black"/>
<path d="M10.3031 8.31485e-05L9.59603 -0.707024L8.88892 8.31485e-05L9.59603 0.70719L10.3031 8.31485e-05Z" fill="black"/>
<path d="M19.192 8.31485e-05L18.4849 -0.707024L17.7778 8.31485e-05L18.4849 0.70719L19.192 8.31485e-05Z" fill="black"/>
<path d="M28.0809 8.31485e-05L27.3738 -0.707024L26.6667 8.31485e-05L27.3738 0.70719L28.0809 8.31485e-05Z" fill="black"/>
<path d="M36.9698 8.31485e-05L36.2627 -0.707024L35.5556 8.31485e-05L36.2627 0.70719L36.9698 8.31485e-05Z" fill="black"/>
<path d="M45.8587 8.31485e-05L45.1515 -0.707024L44.4444 8.31485e-05L45.1515 0.70719L45.8587 8.31485e-05Z" fill="black"/>
<path d="M54.7476 8.31485e-05L54.0405 -0.707024L53.3333 8.31485e-05L54.0405 0.70719L54.7476 8.31485e-05Z" fill="black"/>
<path d="M63.6364 8.31485e-05L62.9293 -0.707024L62.2222 8.31485e-05L62.9293 0.70719L63.6364 8.31485e-05Z" fill="black"/>
<path d="M72.5253 8.31485e-05L71.8182 -0.707024L71.1111 8.31485e-05L71.8182 0.70719L72.5253 8.31485e-05Z" fill="black"/>
<path d="M81.4142 8.31485e-05L80.7071 -0.707024L80 8.31485e-05L80.7071 0.70719L81.4142 8.31485e-05Z" fill="black"/>
<path d="M90.3031 8.31485e-05L89.596 -0.707024L88.8889 8.31485e-05L89.596 0.70719L90.3031 8.31485e-05Z" fill="black"/>
<path d="M99.192 8.31485e-05L98.4849 -0.707024L97.7778 8.31485e-05L98.4849 0.70719L99.192 8.31485e-05Z" fill="black"/>
<path d="M108.081 8.31485e-05L107.374 -0.707024L106.667 8.31485e-05L107.374 0.70719L108.081 8.31485e-05Z" fill="black"/>
<path d="M116.97 8.31485e-05L116.263 -0.707024L115.556 8.31485e-05L116.263 0.70719L116.97 8.31485e-05Z" fill="black"/>
<path d="M125.859 8.31485e-05L125.152 -0.707024L124.444 8.31485e-05L125.152 0.70719L125.859 8.31485e-05Z" fill="black"/>
<path d="M134.747 8.31485e-05L134.04 -0.707024L133.333 8.31485e-05L134.04 0.70719L134.747 8.31485e-05Z" fill="black"/>
<path d="M143.636 8.31485e-05L142.929 -0.707024L142.222 8.31485e-05L142.929 0.70719L143.636 8.31485e-05Z" fill="black"/>
<path d="M152.525 8.31485e-05L151.818 -0.707024L151.111 8.31485e-05L151.818 0.70719L152.525 8.31485e-05Z" fill="black"/>
<path d="M161.414 8.31485e-05L160.707 -0.707024L160 8.31485e-05L160.707 0.70719L161.414 8.31485e-05Z" fill="black"/>
<path d="M1.41421 8.88901L0.707107 8.1819L0 8.88901L0.707107 9.59612L1.41421 8.88901Z" fill="black"/>
<path d="M10.3031 8.88901L9.59603 8.1819L8.88892 8.88901L9.59603 9.59612L10.3031 8.88901Z" fill="black"/>
<path d="M19.192 8.88901L18.4849 8.1819L17.7778 8.88901L18.4849 9.59612L19.192 8.88901Z" fill="black"/>
<path d="M28.0809 8.88901L27.3738 8.1819L26.6667 8.88901L27.3738 9.59612L28.0809 8.88901Z" fill="black"/>
<path d="M36.9698 8.88901L36.2627 8.1819L35.5556 8.88901L36.2627 9.59612L36.9698 8.88901Z" fill="black"/>
<path d="M45.8587 8.88901L45.1515 8.1819L44.4444 8.88901L45.1515 9.59612L45.8587 8.88901Z" fill="black"/>
<path d="M54.7476 8.88901L54.0405 8.1819L53.3333 8.88901L54.0405 9.59612L54.7476 8.88901Z" fill="black"/>
<path d="M63.6364 8.88901L62.9293 8.1819L62.2222 8.88901L62.9293 9.59612L63.6364 8.88901Z" fill="black"/>
<path d="M72.5253 8.88901L71.8182 8.1819L71.1111 8.88901L71.8182 9.59612L72.5253 8.88901Z" fill="black"/>
<path d="M81.4142 8.88901L80.7071 8.1819L80 8.88901L80.7071 9.59612L81.4142 8.88901Z" fill="black"/>
<path d="M90.3031 8.88901L89.596 8.1819L88.8889 8.88901L89.596 9.59612L90.3031 8.88901Z" fill="black"/>
<path d="M99.192 8.88901L98.4849 8.1819L97.7778 8.88901L98.4849 9.59612L99.192 8.88901Z" fill="black"/>
<path d="M108.081 8.88901L107.374 8.1819L106.667 8.88901L107.374 9.59612L108.081 8.88901Z" fill="black"/>
<path d="M116.97 8.88901L116.263 8.1819L115.556 8.88901L116.263 9.59612L116.97 8.88901Z" fill="black"/>
<path d="M125.859 8.88901L125.152 8.1819L124.444 8.88901L125.152 9.59612L125.859 8.88901Z" fill="black"/>
<path d="M134.747 8.88901L134.04 8.1819L133.333 8.88901L134.04 9.59612L134.747 8.88901Z" fill="black"/>
<path d="M143.636 8.88901L142.929 8.1819L142.222 8.88901L142.929 9.59612L143.636 8.88901Z" fill="black"/>
<path d="M152.525 8.88901L151.818 8.1819L151.111 8.88901L151.818 9.59612L152.525 8.88901Z" fill="black"/>
<path d="M161.414 8.88901L160.707 8.1819L160 8.88901L160.707 9.59612L161.414 8.88901Z" fill="black"/>
<path d="M1.41421 17.7779L0.707107 17.0708L0 17.7779L0.707107 18.485L1.41421 17.7779Z" fill="black"/>
<path d="M10.3031 17.7779L9.59603 17.0708L8.88892 17.7779L9.59603 18.485L10.3031 17.7779Z" fill="black"/>
<path d="M19.192 17.7779L18.4849 17.0708L17.7778 17.7779L18.4849 18.485L19.192 17.7779Z" fill="black"/>
<path d="M28.0809 17.7779L27.3738 17.0708L26.6667 17.7779L27.3738 18.485L28.0809 17.7779Z" fill="black"/>
<path d="M36.9698 17.7779L36.2627 17.0708L35.5556 17.7779L36.2627 18.485L36.9698 17.7779Z" fill="black"/>
<path d="M45.8587 17.7779L45.1515 17.0708L44.4444 17.7779L45.1515 18.485L45.8587 17.7779Z" fill="black"/>
<path d="M54.7476 17.7779L54.0405 17.0708L53.3333 17.7779L54.0405 18.485L54.7476 17.7779Z" fill="black"/>
<path d="M63.6364 17.7779L62.9293 17.0708L62.2222 17.7779L62.9293 18.485L63.6364 17.7779Z" fill="black"/>
<path d="M72.5253 17.7779L71.8182 17.0708L71.1111 17.7779L71.8182 18.485L72.5253 17.7779Z" fill="black"/>
<path d="M81.4142 17.7779L80.7071 17.0708L80 17.7779L80.7071 18.485L81.4142 17.7779Z" fill="black"/>
<path d="M90.3031 17.7779L89.596 17.0708L88.8889 17.7779L89.596 18.485L90.3031 17.7779Z" fill="black"/>
<path d="M99.192 17.7779L98.4849 17.0708L97.7778 17.7779L98.4849 18.485L99.192 17.7779Z" fill="black"/>
<path d="M108.081 17.7779L107.374 17.0708L106.667 17.7779L107.374 18.485L108.081 17.7779Z" fill="black"/>
<path d="M116.97 17.7779L116.263 17.0708L115.556 17.7779L116.263 18.485L116.97 17.7779Z" fill="black"/>
<path d="M125.859 17.7779L125.152 17.0708L124.444 17.7779L125.152 18.485L125.859 17.7779Z" fill="black"/>
<path d="M134.747 17.7779L134.04 17.0708L133.333 17.7779L134.04 18.485L134.747 17.7779Z" fill="black"/>
<path d="M143.636 17.7779L142.929 17.0708L142.222 17.7779L142.929 18.485L143.636 17.7779Z" fill="black"/>
<path d="M152.525 17.7779L151.818 17.0708L151.111 17.7779L151.818 18.485L152.525 17.7779Z" fill="black"/>
<path d="M161.414 17.7779L160.707 17.0708L160 17.7779L160.707 18.485L161.414 17.7779Z" fill="black"/>
<path d="M1.41421 26.6669L0.707107 25.9598L0 26.6669L0.707107 27.374L1.41421 26.6669Z" fill="black"/>
<path d="M10.3031 26.6669L9.59603 25.9598L8.88892 26.6669L9.59603 27.374L10.3031 26.6669Z" fill="black"/>
<path d="M19.192 26.6669L18.4849 25.9598L17.7778 26.6669L18.4849 27.374L19.192 26.6669Z" fill="black"/>
<path d="M28.0809 26.6669L27.3738 25.9598L26.6667 26.6669L27.3738 27.374L28.0809 26.6669Z" fill="black"/>
<path d="M36.9698 26.6669L36.2627 25.9598L35.5556 26.6669L36.2627 27.374L36.9698 26.6669Z" fill="black"/>
<path d="M45.8587 26.6669L45.1515 25.9598L44.4444 26.6669L45.1515 27.374L45.8587 26.6669Z" fill="black"/>
<path d="M54.7476 26.6669L54.0405 25.9598L53.3333 26.6669L54.0405 27.374L54.7476 26.6669Z" fill="black"/>
<path d="M63.6364 26.6669L62.9293 25.9598L62.2222 26.6669L62.9293 27.374L63.6364 26.6669Z" fill="black"/>
<path d="M72.5253 26.6669L71.8182 25.9598L71.1111 26.6669L71.8182 27.374L72.5253 26.6669Z" fill="black"/>
<path d="M81.4142 26.6669L80.7071 25.9598L80 26.6669L80.7071 27.374L81.4142 26.6669Z" fill="black"/>
<path d="M90.3031 26.6669L89.596 25.9598L88.8889 26.6669L89.596 27.374L90.3031 26.6669Z" fill="black"/>
<path d="M99.192 26.6669L98.4849 25.9598L97.7778 26.6669L98.4849 27.374L99.192 26.6669Z" fill="black"/>
<path d="M108.081 26.6669L107.374 25.9598L106.667 26.6669L107.374 27.374L108.081 26.6669Z" fill="black"/>
<path d="M116.97 26.6669L116.263 25.9598L115.556 26.6669L116.263 27.374L116.97 26.6669Z" fill="black"/>
<path d="M125.859 26.6669L125.152 25.9598L124.444 26.6669L125.152 27.374L125.859 26.6669Z" fill="black"/>
<path d="M134.747 26.6669L134.04 25.9598L133.333 26.6669L134.04 27.374L134.747 26.6669Z" fill="black"/>
<path d="M143.636 26.6669L142.929 25.9598L142.222 26.6669L142.929 27.374L143.636 26.6669Z" fill="black"/>
<path d="M152.525 26.6669L151.818 25.9598L151.111 26.6669L151.818 27.374L152.525 26.6669Z" fill="black"/>
<path d="M161.414 26.6669L160.707 25.9598L160 26.6669L160.707 27.374L161.414 26.6669Z" fill="black"/>
<path d="M1.41421 35.5557L0.707107 34.8486L0 35.5557L0.707107 36.2628L1.41421 35.5557Z" fill="black"/>
<path d="M10.3031 35.5557L9.59603 34.8486L8.88892 35.5557L9.59603 36.2628L10.3031 35.5557Z" fill="black"/>
<path d="M19.192 35.5557L18.4849 34.8486L17.7778 35.5557L18.4849 36.2628L19.192 35.5557Z" fill="black"/>
<path d="M28.0809 35.5557L27.3738 34.8486L26.6667 35.5557L27.3738 36.2628L28.0809 35.5557Z" fill="black"/>
<path d="M36.9698 35.5557L36.2627 34.8486L35.5556 35.5557L36.2627 36.2628L36.9698 35.5557Z" fill="black"/>
<path d="M45.8587 35.5557L45.1515 34.8486L44.4444 35.5557L45.1515 36.2628L45.8587 35.5557Z" fill="black"/>
<path d="M54.7476 35.5557L54.0405 34.8486L53.3333 35.5557L54.0405 36.2628L54.7476 35.5557Z" fill="black"/>
<path d="M63.6364 35.5557L62.9293 34.8486L62.2222 35.5557L62.9293 36.2628L63.6364 35.5557Z" fill="black"/>
<path d="M72.5253 35.5557L71.8182 34.8486L71.1111 35.5557L71.8182 36.2628L72.5253 35.5557Z" fill="black"/>
<path d="M81.4142 35.5557L80.7071 34.8486L80 35.5557L80.7071 36.2628L81.4142 35.5557Z" fill="black"/>
<path d="M90.3031 35.5557L89.596 34.8486L88.8889 35.5557L89.596 36.2628L90.3031 35.5557Z" fill="black"/>
<path d="M99.192 35.5557L98.4849 34.8486L97.7778 35.5557L98.4849 36.2628L99.192 35.5557Z" fill="black"/>
<path d="M108.081 35.5557L107.374 34.8486L106.667 35.5557L107.374 36.2628L108.081 35.5557Z" fill="black"/>
<path d="M116.97 35.5557L116.263 34.8486L115.556 35.5557L116.263 36.2628L116.97 35.5557Z" fill="black"/>
<path d="M125.859 35.5557L125.152 34.8486L124.444 35.5557L125.152 36.2628L125.859 35.5557Z" fill="black"/>
<path d="M134.747 35.5557L134.04 34.8486L133.333 35.5557L134.04 36.2628L134.747 35.5557Z" fill="black"/>
<path d="M143.636 35.5557L142.929 34.8486L142.222 35.5557L142.929 36.2628L143.636 35.5557Z" fill="black"/>
<path d="M152.525 35.5557L151.818 34.8486L151.111 35.5557L151.818 36.2628L152.525 35.5557Z" fill="black"/>
<path d="M161.414 35.5557L160.707 34.8486L160 35.5557L160.707 36.2628L161.414 35.5557Z" fill="black"/>
<path d="M1.41421 44.4446L0.707107 43.7375L0 44.4446L0.707107 45.1517L1.41421 44.4446Z" fill="black"/>
<path d="M10.3031 44.4446L9.59603 43.7375L8.88892 44.4446L9.59603 45.1517L10.3031 44.4446Z" fill="black"/>
<path d="M19.192 44.4446L18.4849 43.7375L17.7778 44.4446L18.4849 45.1517L19.192 44.4446Z" fill="black"/>
<path d="M28.0809 44.4446L27.3738 43.7375L26.6667 44.4446L27.3738 45.1517L28.0809 44.4446Z" fill="black"/>
<path d="M36.9698 44.4446L36.2627 43.7375L35.5556 44.4446L36.2627 45.1517L36.9698 44.4446Z" fill="black"/>
<path d="M45.8587 44.4446L45.1515 43.7375L44.4444 44.4446L45.1515 45.1517L45.8587 44.4446Z" fill="black"/>
<path d="M54.7476 44.4446L54.0405 43.7375L53.3333 44.4446L54.0405 45.1517L54.7476 44.4446Z" fill="black"/>
<path d="M63.6364 44.4446L62.9293 43.7375L62.2222 44.4446L62.9293 45.1517L63.6364 44.4446Z" fill="black"/>
<path d="M72.5253 44.4446L71.8182 43.7375L71.1111 44.4446L71.8182 45.1517L72.5253 44.4446Z" fill="black"/>
<path d="M81.4142 44.4446L80.7071 43.7375L80 44.4446L80.7071 45.1517L81.4142 44.4446Z" fill="black"/>
<path d="M90.3031 44.4446L89.596 43.7375L88.8889 44.4446L89.596 45.1517L90.3031 44.4446Z" fill="black"/>
<path d="M99.192 44.4446L98.4849 43.7375L97.7778 44.4446L98.4849 45.1517L99.192 44.4446Z" fill="black"/>
<path d="M108.081 44.4446L107.374 43.7375L106.667 44.4446L107.374 45.1517L108.081 44.4446Z" fill="black"/>
<path d="M116.97 44.4446L116.263 43.7375L115.556 44.4446L116.263 45.1517L116.97 44.4446Z" fill="black"/>
<path d="M125.859 44.4446L125.152 43.7375L124.444 44.4446L125.152 45.1517L125.859 44.4446Z" fill="black"/>
<path d="M134.747 44.4446L134.04 43.7375L133.333 44.4446L134.04 45.1517L134.747 44.4446Z" fill="black"/>
<path d="M143.636 44.4446L142.929 43.7375L142.222 44.4446L142.929 45.1517L143.636 44.4446Z" fill="black"/>
<path d="M152.525 44.4446L151.818 43.7375L151.111 44.4446L151.818 45.1517L152.525 44.4446Z" fill="black"/>
<path d="M161.414 44.4446L160.707 43.7375L160 44.4446L160.707 45.1517L161.414 44.4446Z" fill="black"/>
<path d="M1.41421 53.3335L0.707107 52.6264L0 53.3335L0.707107 54.0407L1.41421 53.3335Z" fill="black"/>
<path d="M10.3031 53.3335L9.59603 52.6264L8.88892 53.3335L9.59603 54.0407L10.3031 53.3335Z" fill="black"/>
<path d="M19.192 53.3335L18.4849 52.6264L17.7778 53.3335L18.4849 54.0407L19.192 53.3335Z" fill="black"/>
<path d="M28.0809 53.3335L27.3738 52.6264L26.6667 53.3335L27.3738 54.0407L28.0809 53.3335Z" fill="black"/>
<path d="M36.9698 53.3335L36.2627 52.6264L35.5556 53.3335L36.2627 54.0407L36.9698 53.3335Z" fill="black"/>
<path d="M45.8587 53.3335L45.1515 52.6264L44.4444 53.3335L45.1515 54.0407L45.8587 53.3335Z" fill="black"/>
<path d="M54.7476 53.3335L54.0405 52.6264L53.3333 53.3335L54.0405 54.0407L54.7476 53.3335Z" fill="black"/>
<path d="M63.6364 53.3335L62.9293 52.6264L62.2222 53.3335L62.9293 54.0407L63.6364 53.3335Z" fill="black"/>
<path d="M72.5253 53.3335L71.8182 52.6264L71.1111 53.3335L71.8182 54.0407L72.5253 53.3335Z" fill="black"/>
<path d="M81.4142 53.3335L80.7071 52.6264L80 53.3335L80.7071 54.0407L81.4142 53.3335Z" fill="black"/>
<path d="M90.3031 53.3335L89.596 52.6264L88.8889 53.3335L89.596 54.0407L90.3031 53.3335Z" fill="black"/>
<path d="M99.192 53.3335L98.4849 52.6264L97.7778 53.3335L98.4849 54.0407L99.192 53.3335Z" fill="black"/>
<path d="M108.081 53.3335L107.374 52.6264L106.667 53.3335L107.374 54.0407L108.081 53.3335Z" fill="black"/>
<path d="M116.97 53.3335L116.263 52.6264L115.556 53.3335L116.263 54.0407L116.97 53.3335Z" fill="black"/>
<path d="M125.859 53.3335L125.152 52.6264L124.444 53.3335L125.152 54.0407L125.859 53.3335Z" fill="black"/>
<path d="M134.747 53.3335L134.04 52.6264L133.333 53.3335L134.04 54.0407L134.747 53.3335Z" fill="black"/>
<path d="M143.636 53.3335L142.929 52.6264L142.222 53.3335L142.929 54.0407L143.636 53.3335Z" fill="black"/>
<path d="M152.525 53.3335L151.818 52.6264L151.111 53.3335L151.818 54.0407L152.525 53.3335Z" fill="black"/>
<path d="M161.414 53.3335L160.707 52.6264L160 53.3335L160.707 54.0407L161.414 53.3335Z" fill="black"/>
<path d="M1.41421 62.2223L0.707107 61.5152L0 62.2223L0.707107 62.9294L1.41421 62.2223Z" fill="black"/>
<path d="M10.3031 62.2223L9.59603 61.5152L8.88892 62.2223L9.59603 62.9294L10.3031 62.2223Z" fill="black"/>
<path d="M19.192 62.2223L18.4849 61.5152L17.7778 62.2223L18.4849 62.9294L19.192 62.2223Z" fill="black"/>
<path d="M28.0809 62.2223L27.3738 61.5152L26.6667 62.2223L27.3738 62.9294L28.0809 62.2223Z" fill="black"/>
<path d="M36.9698 62.2223L36.2627 61.5152L35.5556 62.2223L36.2627 62.9294L36.9698 62.2223Z" fill="black"/>
<path d="M45.8587 62.2223L45.1515 61.5152L44.4444 62.2223L45.1515 62.9294L45.8587 62.2223Z" fill="black"/>
<path d="M54.7476 62.2223L54.0405 61.5152L53.3333 62.2223L54.0405 62.9294L54.7476 62.2223Z" fill="black"/>
<path d="M63.6364 62.2223L62.9293 61.5152L62.2222 62.2223L62.9293 62.9294L63.6364 62.2223Z" fill="black"/>
<path d="M72.5253 62.2223L71.8182 61.5152L71.1111 62.2223L71.8182 62.9294L72.5253 62.2223Z" fill="black"/>
<path d="M81.4142 62.2223L80.7071 61.5152L80 62.2223L80.7071 62.9294L81.4142 62.2223Z" fill="black"/>
<path d="M90.3031 62.2223L89.596 61.5152L88.8889 62.2223L89.596 62.9294L90.3031 62.2223Z" fill="black"/>
<path d="M99.192 62.2223L98.4849 61.5152L97.7778 62.2223L98.4849 62.9294L99.192 62.2223Z" fill="black"/>
<path d="M108.081 62.2223L107.374 61.5152L106.667 62.2223L107.374 62.9294L108.081 62.2223Z" fill="black"/>
<path d="M116.97 62.2223L116.263 61.5152L115.556 62.2223L116.263 62.9294L116.97 62.2223Z" fill="black"/>
<path d="M125.859 62.2223L125.152 61.5152L124.444 62.2223L125.152 62.9294L125.859 62.2223Z" fill="black"/>
<path d="M134.747 62.2223L134.04 61.5152L133.333 62.2223L134.04 62.9294L134.747 62.2223Z" fill="black"/>
<path d="M143.636 62.2223L142.929 61.5152L142.222 62.2223L142.929 62.9294L143.636 62.2223Z" fill="black"/>
<path d="M152.525 62.2223L151.818 61.5152L151.111 62.2223L151.818 62.9294L152.525 62.2223Z" fill="black"/>
<path d="M161.414 62.2223L160.707 61.5152L160 62.2223L160.707 62.9294L161.414 62.2223Z" fill="black"/>
<path d="M1.41421 71.1113L0.707107 70.4042L0 71.1113L0.707107 71.8184L1.41421 71.1113Z" fill="black"/>
<path d="M10.3031 71.1113L9.59603 70.4042L8.88892 71.1113L9.59603 71.8184L10.3031 71.1113Z" fill="black"/>
<path d="M19.192 71.1113L18.4849 70.4042L17.7778 71.1113L18.4849 71.8184L19.192 71.1113Z" fill="black"/>
<path d="M28.0809 71.1113L27.3738 70.4042L26.6667 71.1113L27.3738 71.8184L28.0809 71.1113Z" fill="black"/>
<path d="M36.9698 71.1113L36.2627 70.4042L35.5556 71.1113L36.2627 71.8184L36.9698 71.1113Z" fill="black"/>
<path d="M45.8587 71.1113L45.1515 70.4042L44.4444 71.1113L45.1515 71.8184L45.8587 71.1113Z" fill="black"/>
<path d="M54.7476 71.1113L54.0405 70.4042L53.3333 71.1113L54.0405 71.8184L54.7476 71.1113Z" fill="black"/>
<path d="M63.6364 71.1113L62.9293 70.4042L62.2222 71.1113L62.9293 71.8184L63.6364 71.1113Z" fill="black"/>
<path d="M72.5253 71.1113L71.8182 70.4042L71.1111 71.1113L71.8182 71.8184L72.5253 71.1113Z" fill="black"/>
<path d="M81.4142 71.1113L80.7071 70.4042L80 71.1113L80.7071 71.8184L81.4142 71.1113Z" fill="black"/>
<path d="M90.3031 71.1113L89.596 70.4042L88.8889 71.1113L89.596 71.8184L90.3031 71.1113Z" fill="black"/>
<path d="M99.192 71.1113L98.4849 70.4042L97.7778 71.1113L98.4849 71.8184L99.192 71.1113Z" fill="black"/>
<path d="M108.081 71.1113L107.374 70.4042L106.667 71.1113L107.374 71.8184L108.081 71.1113Z" fill="black"/>
<path d="M116.97 71.1113L116.263 70.4042L115.556 71.1113L116.263 71.8184L116.97 71.1113Z" fill="black"/>
<path d="M125.859 71.1113L125.152 70.4042L124.444 71.1113L125.152 71.8184L125.859 71.1113Z" fill="black"/>
<path d="M134.747 71.1113L134.04 70.4042L133.333 71.1113L134.04 71.8184L134.747 71.1113Z" fill="black"/>
<path d="M143.636 71.1113L142.929 70.4042L142.222 71.1113L142.929 71.8184L143.636 71.1113Z" fill="black"/>
<path d="M152.525 71.1113L151.818 70.4042L151.111 71.1113L151.818 71.8184L152.525 71.1113Z" fill="black"/>
<path d="M161.414 71.1113L160.707 70.4042L160 71.1113L160.707 71.8184L161.414 71.1113Z" fill="black"/>
<path d="M1.41421 80.0002L0.707107 79.2931L0 80.0002L0.707107 80.7073L1.41421 80.0002Z" fill="black"/>
<path d="M10.3031 80.0002L9.59603 79.2931L8.88892 80.0002L9.59603 80.7073L10.3031 80.0002Z" fill="black"/>
<path d="M19.192 80.0002L18.4849 79.2931L17.7778 80.0002L18.4849 80.7073L19.192 80.0002Z" fill="black"/>
<path d="M28.0809 80.0002L27.3738 79.2931L26.6667 80.0002L27.3738 80.7073L28.0809 80.0002Z" fill="black"/>
<path d="M36.9698 80.0002L36.2627 79.2931L35.5556 80.0002L36.2627 80.7073L36.9698 80.0002Z" fill="black"/>
<path d="M45.8587 80.0002L45.1515 79.2931L44.4444 80.0002L45.1515 80.7073L45.8587 80.0002Z" fill="black"/>
<path d="M54.7476 80.0002L54.0405 79.2931L53.3333 80.0002L54.0405 80.7073L54.7476 80.0002Z" fill="black"/>
<path d="M63.6364 80.0002L62.9293 79.2931L62.2222 80.0002L62.9293 80.7073L63.6364 80.0002Z" fill="black"/>
<path d="M72.5253 80.0002L71.8182 79.2931L71.1111 80.0002L71.8182 80.7073L72.5253 80.0002Z" fill="black"/>
<path d="M81.4142 80.0002L80.7071 79.2931L80 80.0002L80.7071 80.7073L81.4142 80.0002Z" fill="black"/>
<path d="M90.3031 80.0002L89.596 79.2931L88.8889 80.0002L89.596 80.7073L90.3031 80.0002Z" fill="black"/>
<path d="M99.192 80.0002L98.4849 79.2931L97.7778 80.0002L98.4849 80.7073L99.192 80.0002Z" fill="black"/>
<path d="M108.081 80.0002L107.374 79.2931L106.667 80.0002L107.374 80.7073L108.081 80.0002Z" fill="black"/>
<path d="M116.97 80.0002L116.263 79.2931L115.556 80.0002L116.263 80.7073L116.97 80.0002Z" fill="black"/>
<path d="M125.859 80.0002L125.152 79.2931L124.444 80.0002L125.152 80.7073L125.859 80.0002Z" fill="black"/>
<path d="M134.747 80.0002L134.04 79.2931L133.333 80.0002L134.04 80.7073L134.747 80.0002Z" fill="black"/>
<path d="M143.636 80.0002L142.929 79.2931L142.222 80.0002L142.929 80.7073L143.636 80.0002Z" fill="black"/>
<path d="M152.525 80.0002L151.818 79.2931L151.111 80.0002L151.818 80.7073L152.525 80.0002Z" fill="black"/>
<path d="M161.414 80.0002L160.707 79.2931L160 80.0002L160.707 80.7073L161.414 80.0002Z" fill="black"/>
<path d="M1.41421 88.889L0.707107 88.1819L0 88.889L0.707107 89.5962L1.41421 88.889Z" fill="black"/>
<path d="M10.3031 88.889L9.59603 88.1819L8.88892 88.889L9.59603 89.5962L10.3031 88.889Z" fill="black"/>
<path d="M19.192 88.889L18.4849 88.1819L17.7778 88.889L18.4849 89.5962L19.192 88.889Z" fill="black"/>
<path d="M28.0809 88.889L27.3738 88.1819L26.6667 88.889L27.3738 89.5962L28.0809 88.889Z" fill="black"/>
<path d="M36.9698 88.889L36.2627 88.1819L35.5556 88.889L36.2627 89.5962L36.9698 88.889Z" fill="black"/>
<path d="M45.8587 88.889L45.1515 88.1819L44.4444 88.889L45.1515 89.5962L45.8587 88.889Z" fill="black"/>
<path d="M54.7476 88.889L54.0405 88.1819L53.3333 88.889L54.0405 89.5962L54.7476 88.889Z" fill="black"/>
<path d="M63.6364 88.889L62.9293 88.1819L62.2222 88.889L62.9293 89.5962L63.6364 88.889Z" fill="black"/>
<path d="M72.5253 88.889L71.8182 88.1819L71.1111 88.889L71.8182 89.5962L72.5253 88.889Z" fill="black"/>
<path d="M81.4142 88.889L80.7071 88.1819L80 88.889L80.7071 89.5962L81.4142 88.889Z" fill="black"/>
<path d="M90.3031 88.889L89.596 88.1819L88.8889 88.889L89.596 89.5962L90.3031 88.889Z" fill="black"/>
<path d="M99.192 88.889L98.4849 88.1819L97.7778 88.889L98.4849 89.5962L99.192 88.889Z" fill="black"/>
<path d="M108.081 88.889L107.374 88.1819L106.667 88.889L107.374 89.5962L108.081 88.889Z" fill="black"/>
<path d="M116.97 88.889L116.263 88.1819L115.556 88.889L116.263 89.5962L116.97 88.889Z" fill="black"/>
<path d="M125.859 88.889L125.152 88.1819L124.444 88.889L125.152 89.5962L125.859 88.889Z" fill="black"/>
<path d="M134.747 88.889L134.04 88.1819L133.333 88.889L134.04 89.5962L134.747 88.889Z" fill="black"/>
<path d="M143.636 88.889L142.929 88.1819L142.222 88.889L142.929 89.5962L143.636 88.889Z" fill="black"/>
<path d="M152.525 88.889L151.818 88.1819L151.111 88.889L151.818 89.5962L152.525 88.889Z" fill="black"/>
<path d="M161.414 88.889L160.707 88.1819L160 88.889L160.707 89.5962L161.414 88.889Z" fill="black"/>
<path d="M1.41421 97.7779L0.707107 97.0708L0 97.7779L0.707107 98.485L1.41421 97.7779Z" fill="black"/>
<path d="M10.3031 97.7779L9.59603 97.0708L8.88892 97.7779L9.59603 98.485L10.3031 97.7779Z" fill="black"/>
<path d="M19.192 97.7779L18.4849 97.0708L17.7778 97.7779L18.4849 98.485L19.192 97.7779Z" fill="black"/>
<path d="M28.0809 97.7779L27.3738 97.0708L26.6667 97.7779L27.3738 98.485L28.0809 97.7779Z" fill="black"/>
<path d="M36.9698 97.7779L36.2627 97.0708L35.5556 97.7779L36.2627 98.485L36.9698 97.7779Z" fill="black"/>
<path d="M45.8587 97.7779L45.1515 97.0708L44.4444 97.7779L45.1515 98.485L45.8587 97.7779Z" fill="black"/>
<path d="M54.7476 97.7779L54.0405 97.0708L53.3333 97.7779L54.0405 98.485L54.7476 97.7779Z" fill="black"/>
<path d="M63.6364 97.7779L62.9293 97.0708L62.2222 97.7779L62.9293 98.485L63.6364 97.7779Z" fill="black"/>
<path d="M72.5253 97.7779L71.8182 97.0708L71.1111 97.7779L71.8182 98.485L72.5253 97.7779Z" fill="black"/>
<path d="M81.4142 97.7779L80.7071 97.0708L80 97.7779L80.7071 98.485L81.4142 97.7779Z" fill="black"/>
<path d="M90.3031 97.7779L89.596 97.0708L88.8889 97.7779L89.596 98.485L90.3031 97.7779Z" fill="black"/>
<path d="M99.192 97.7779L98.4849 97.0708L97.7778 97.7779L98.4849 98.485L99.192 97.7779Z" fill="black"/>
<path d="M108.081 97.7779L107.374 97.0708L106.667 97.7779L107.374 98.485L108.081 97.7779Z" fill="black"/>
<path d="M116.97 97.7779L116.263 97.0708L115.556 97.7779L116.263 98.485L116.97 97.7779Z" fill="black"/>
<path d="M125.859 97.7779L125.152 97.0708L124.444 97.7779L125.152 98.485L125.859 97.7779Z" fill="black"/>
<path d="M134.747 97.7779L134.04 97.0708L133.333 97.7779L134.04 98.485L134.747 97.7779Z" fill="black"/>
<path d="M143.636 97.7779L142.929 97.0708L142.222 97.7779L142.929 98.485L143.636 97.7779Z" fill="black"/>
<path d="M152.525 97.7779L151.818 97.0708L151.111 97.7779L151.818 98.485L152.525 97.7779Z" fill="black"/>
<path d="M161.414 97.7779L160.707 97.0708L160 97.7779L160.707 98.485L161.414 97.7779Z" fill="black"/>
<path d="M1.41421 106.667L0.707107 105.96L0 106.667L0.707107 107.374L1.41421 106.667Z" fill="black"/>
<path d="M10.3031 106.667L9.59603 105.96L8.88892 106.667L9.59603 107.374L10.3031 106.667Z" fill="black"/>
<path d="M19.192 106.667L18.4849 105.96L17.7778 106.667L18.4849 107.374L19.192 106.667Z" fill="black"/>
<path d="M28.0809 106.667L27.3738 105.96L26.6667 106.667L27.3738 107.374L28.0809 106.667Z" fill="black"/>
<path d="M36.9698 106.667L36.2627 105.96L35.5556 106.667L36.2627 107.374L36.9698 106.667Z" fill="black"/>
<path d="M45.8587 106.667L45.1515 105.96L44.4444 106.667L45.1515 107.374L45.8587 106.667Z" fill="black"/>
<path d="M54.7476 106.667L54.0405 105.96L53.3333 106.667L54.0405 107.374L54.7476 106.667Z" fill="black"/>
<path d="M63.6364 106.667L62.9293 105.96L62.2222 106.667L62.9293 107.374L63.6364 106.667Z" fill="black"/>
<path d="M72.5253 106.667L71.8182 105.96L71.1111 106.667L71.8182 107.374L72.5253 106.667Z" fill="black"/>
<path d="M81.4142 106.667L80.7071 105.96L80 106.667L80.7071 107.374L81.4142 106.667Z" fill="black"/>
<path d="M90.3031 106.667L89.596 105.96L88.8889 106.667L89.596 107.374L90.3031 106.667Z" fill="black"/>
<path d="M99.192 106.667L98.4849 105.96L97.7778 106.667L98.4849 107.374L99.192 106.667Z" fill="black"/>
<path d="M108.081 106.667L107.374 105.96L106.667 106.667L107.374 107.374L108.081 106.667Z" fill="black"/>
<path d="M116.97 106.667L116.263 105.96L115.556 106.667L116.263 107.374L116.97 106.667Z" fill="black"/>
<path d="M125.859 106.667L125.152 105.96L124.444 106.667L125.152 107.374L125.859 106.667Z" fill="black"/>
<path d="M134.747 106.667L134.04 105.96L133.333 106.667L134.04 107.374L134.747 106.667Z" fill="black"/>
<path d="M143.636 106.667L142.929 105.96L142.222 106.667L142.929 107.374L143.636 106.667Z" fill="black"/>
<path d="M152.525 106.667L151.818 105.96L151.111 106.667L151.818 107.374L152.525 106.667Z" fill="black"/>
<path d="M161.414 106.667L160.707 105.96L160 106.667L160.707 107.374L161.414 106.667Z" fill="black"/>
<path d="M1.41421 115.556L0.707107 114.849L0 115.556L0.707107 116.263L1.41421 115.556Z" fill="black"/>
<path d="M10.3031 115.556L9.59603 114.849L8.88892 115.556L9.59603 116.263L10.3031 115.556Z" fill="black"/>
<path d="M19.192 115.556L18.4849 114.849L17.7778 115.556L18.4849 116.263L19.192 115.556Z" fill="black"/>
<path d="M28.0809 115.556L27.3738 114.849L26.6667 115.556L27.3738 116.263L28.0809 115.556Z" fill="black"/>
<path d="M36.9698 115.556L36.2627 114.849L35.5556 115.556L36.2627 116.263L36.9698 115.556Z" fill="black"/>
<path d="M45.8587 115.556L45.1515 114.849L44.4444 115.556L45.1515 116.263L45.8587 115.556Z" fill="black"/>
<path d="M54.7476 115.556L54.0405 114.849L53.3333 115.556L54.0405 116.263L54.7476 115.556Z" fill="black"/>
<path d="M63.6364 115.556L62.9293 114.849L62.2222 115.556L62.9293 116.263L63.6364 115.556Z" fill="black"/>
<path d="M72.5253 115.556L71.8182 114.849L71.1111 115.556L71.8182 116.263L72.5253 115.556Z" fill="black"/>
<path d="M81.4142 115.556L80.7071 114.849L80 115.556L80.7071 116.263L81.4142 115.556Z" fill="black"/>
<path d="M90.3031 115.556L89.596 114.849L88.8889 115.556L89.596 116.263L90.3031 115.556Z" fill="black"/>
<path d="M99.192 115.556L98.4849 114.849L97.7778 115.556L98.4849 116.263L99.192 115.556Z" fill="black"/>
<path d="M108.081 115.556L107.374 114.849L106.667 115.556L107.374 116.263L108.081 115.556Z" fill="black"/>
<path d="M116.97 115.556L116.263 114.849L115.556 115.556L116.263 116.263L116.97 115.556Z" fill="black"/>
<path d="M125.859 115.556L125.152 114.849L124.444 115.556L125.152 116.263L125.859 115.556Z" fill="black"/>
<path d="M134.747 115.556L134.04 114.849L133.333 115.556L134.04 116.263L134.747 115.556Z" fill="black"/>
<path d="M143.636 115.556L142.929 114.849L142.222 115.556L142.929 116.263L143.636 115.556Z" fill="black"/>
<path d="M152.525 115.556L151.818 114.849L151.111 115.556L151.818 116.263L152.525 115.556Z" fill="black"/>
<path d="M161.414 115.556L160.707 114.849L160 115.556L160.707 116.263L161.414 115.556Z" fill="black"/>
<path d="M1.41421 124.445L0.707107 123.737L0 124.445L0.707107 125.152L1.41421 124.445Z" fill="black"/>
<path d="M10.3031 124.445L9.59603 123.737L8.88892 124.445L9.59603 125.152L10.3031 124.445Z" fill="black"/>
<path d="M19.192 124.445L18.4849 123.737L17.7778 124.445L18.4849 125.152L19.192 124.445Z" fill="black"/>
<path d="M28.0809 124.445L27.3738 123.737L26.6667 124.445L27.3738 125.152L28.0809 124.445Z" fill="black"/>
<path d="M36.9698 124.445L36.2627 123.737L35.5556 124.445L36.2627 125.152L36.9698 124.445Z" fill="black"/>
<path d="M45.8587 124.445L45.1515 123.737L44.4444 124.445L45.1515 125.152L45.8587 124.445Z" fill="black"/>
<path d="M54.7476 124.445L54.0405 123.737L53.3333 124.445L54.0405 125.152L54.7476 124.445Z" fill="black"/>
<path d="M63.6364 124.445L62.9293 123.737L62.2222 124.445L62.9293 125.152L63.6364 124.445Z" fill="black"/>
<path d="M72.5253 124.445L71.8182 123.737L71.1111 124.445L71.8182 125.152L72.5253 124.445Z" fill="black"/>
<path d="M81.4142 124.445L80.7071 123.737L80 124.445L80.7071 125.152L81.4142 124.445Z" fill="black"/>
<path d="M90.3031 124.445L89.596 123.737L88.8889 124.445L89.596 125.152L90.3031 124.445Z" fill="black"/>
<path d="M99.192 124.445L98.4849 123.737L97.7778 124.445L98.4849 125.152L99.192 124.445Z" fill="black"/>
<path d="M108.081 124.445L107.374 123.737L106.667 124.445L107.374 125.152L108.081 124.445Z" fill="black"/>
<path d="M116.97 124.445L116.263 123.737L115.556 124.445L116.263 125.152L116.97 124.445Z" fill="black"/>
<path d="M125.859 124.445L125.152 123.737L124.444 124.445L125.152 125.152L125.859 124.445Z" fill="black"/>
<path d="M134.747 124.445L134.04 123.737L133.333 124.445L134.04 125.152L134.747 124.445Z" fill="black"/>
<path d="M143.636 124.445L142.929 123.737L142.222 124.445L142.929 125.152L143.636 124.445Z" fill="black"/>
<path d="M152.525 124.445L151.818 123.737L151.111 124.445L151.818 125.152L152.525 124.445Z" fill="black"/>
<path d="M161.414 124.445L160.707 123.737L160 124.445L160.707 125.152L161.414 124.445Z" fill="black"/>
<path d="M1.41421 133.334L0.707107 132.626L0 133.334L0.707107 134.041L1.41421 133.334Z" fill="black"/>
<path d="M10.3031 133.334L9.59603 132.626L8.88892 133.334L9.59603 134.041L10.3031 133.334Z" fill="black"/>
<path d="M19.192 133.334L18.4849 132.626L17.7778 133.334L18.4849 134.041L19.192 133.334Z" fill="black"/>
<path d="M28.0809 133.334L27.3738 132.626L26.6667 133.334L27.3738 134.041L28.0809 133.334Z" fill="black"/>
<path d="M36.9698 133.334L36.2627 132.626L35.5556 133.334L36.2627 134.041L36.9698 133.334Z" fill="black"/>
<path d="M45.8587 133.334L45.1515 132.626L44.4444 133.334L45.1515 134.041L45.8587 133.334Z" fill="black"/>
<path d="M54.7476 133.334L54.0405 132.626L53.3333 133.334L54.0405 134.041L54.7476 133.334Z" fill="black"/>
<path d="M63.6364 133.334L62.9293 132.626L62.2222 133.334L62.9293 134.041L63.6364 133.334Z" fill="black"/>
<path d="M72.5253 133.334L71.8182 132.626L71.1111 133.334L71.8182 134.041L72.5253 133.334Z" fill="black"/>
<path d="M81.4142 133.334L80.7071 132.626L80 133.334L80.7071 134.041L81.4142 133.334Z" fill="black"/>
<path d="M90.3031 133.334L89.596 132.626L88.8889 133.334L89.596 134.041L90.3031 133.334Z" fill="black"/>
<path d="M99.192 133.334L98.4849 132.626L97.7778 133.334L98.4849 134.041L99.192 133.334Z" fill="black"/>
<path d="M108.081 133.334L107.374 132.626L106.667 133.334L107.374 134.041L108.081 133.334Z" fill="black"/>
<path d="M116.97 133.334L116.263 132.626L115.556 133.334L116.263 134.041L116.97 133.334Z" fill="black"/>
<path d="M125.859 133.334L125.152 132.626L124.444 133.334L125.152 134.041L125.859 133.334Z" fill="black"/>
<path d="M134.747 133.334L134.04 132.626L133.333 133.334L134.04 134.041L134.747 133.334Z" fill="black"/>
<path d="M143.636 133.334L142.929 132.626L142.222 133.334L142.929 134.041L143.636 133.334Z" fill="black"/>
<path d="M152.525 133.334L151.818 132.626L151.111 133.334L151.818 134.041L152.525 133.334Z" fill="black"/>
<path d="M161.414 133.334L160.707 132.626L160 133.334L160.707 134.041L161.414 133.334Z" fill="black"/>
<path d="M1.41421 142.222L0.707107 141.515L0 142.222L0.707107 142.93L1.41421 142.222Z" fill="black"/>
<path d="M10.3031 142.222L9.59603 141.515L8.88892 142.222L9.59603 142.93L10.3031 142.222Z" fill="black"/>
<path d="M19.192 142.222L18.4849 141.515L17.7778 142.222L18.4849 142.93L19.192 142.222Z" fill="black"/>
<path d="M28.0809 142.222L27.3738 141.515L26.6667 142.222L27.3738 142.93L28.0809 142.222Z" fill="black"/>
<path d="M36.9698 142.222L36.2627 141.515L35.5556 142.222L36.2627 142.93L36.9698 142.222Z" fill="black"/>
<path d="M45.8587 142.222L45.1515 141.515L44.4444 142.222L45.1515 142.93L45.8587 142.222Z" fill="black"/>
<path d="M54.7476 142.222L54.0405 141.515L53.3333 142.222L54.0405 142.93L54.7476 142.222Z" fill="black"/>
<path d="M63.6364 142.222L62.9293 141.515L62.2222 142.222L62.9293 142.93L63.6364 142.222Z" fill="black"/>
<path d="M72.5253 142.222L71.8182 141.515L71.1111 142.222L71.8182 142.93L72.5253 142.222Z" fill="black"/>
<path d="M81.4142 142.222L80.7071 141.515L80 142.222L80.7071 142.93L81.4142 142.222Z" fill="black"/>
<path d="M90.3031 142.222L89.596 141.515L88.8889 142.222L89.596 142.93L90.3031 142.222Z" fill="black"/>
<path d="M99.192 142.222L98.4849 141.515L97.7778 142.222L98.4849 142.93L99.192 142.222Z" fill="black"/>
<path d="M108.081 142.222L107.374 141.515L106.667 142.222L107.374 142.93L108.081 142.222Z" fill="black"/>
<path d="M116.97 142.222L116.263 141.515L115.556 142.222L116.263 142.93L116.97 142.222Z" fill="black"/>
<path d="M125.859 142.222L125.152 141.515L124.444 142.222L125.152 142.93L125.859 142.222Z" fill="black"/>
<path d="M134.747 142.222L134.04 141.515L133.333 142.222L134.04 142.93L134.747 142.222Z" fill="black"/>
<path d="M143.636 142.222L142.929 141.515L142.222 142.222L142.929 142.93L143.636 142.222Z" fill="black"/>
<path d="M152.525 142.222L151.818 141.515L151.111 142.222L151.818 142.93L152.525 142.222Z" fill="black"/>
<path d="M161.414 142.222L160.707 141.515L160 142.222L160.707 142.93L161.414 142.222Z" fill="black"/>
<path d="M1.41421 151.111L0.707107 150.404L0 151.111L0.707107 151.818L1.41421 151.111Z" fill="black"/>
<path d="M10.3031 151.111L9.59603 150.404L8.88892 151.111L9.59603 151.818L10.3031 151.111Z" fill="black"/>
<path d="M19.192 151.111L18.4849 150.404L17.7778 151.111L18.4849 151.818L19.192 151.111Z" fill="black"/>
<path d="M28.0809 151.111L27.3738 150.404L26.6667 151.111L27.3738 151.818L28.0809 151.111Z" fill="black"/>
<path d="M36.9698 151.111L36.2627 150.404L35.5556 151.111L36.2627 151.818L36.9698 151.111Z" fill="black"/>
<path d="M45.8587 151.111L45.1515 150.404L44.4444 151.111L45.1515 151.818L45.8587 151.111Z" fill="black"/>
<path d="M54.7476 151.111L54.0405 150.404L53.3333 151.111L54.0405 151.818L54.7476 151.111Z" fill="black"/>
<path d="M63.6364 151.111L62.9293 150.404L62.2222 151.111L62.9293 151.818L63.6364 151.111Z" fill="black"/>
<path d="M72.5253 151.111L71.8182 150.404L71.1111 151.111L71.8182 151.818L72.5253 151.111Z" fill="black"/>
<path d="M81.4142 151.111L80.7071 150.404L80 151.111L80.7071 151.818L81.4142 151.111Z" fill="black"/>
<path d="M90.3031 151.111L89.596 150.404L88.8889 151.111L89.596 151.818L90.3031 151.111Z" fill="black"/>
<path d="M99.192 151.111L98.4849 150.404L97.7778 151.111L98.4849 151.818L99.192 151.111Z" fill="black"/>
<path d="M108.081 151.111L107.374 150.404L106.667 151.111L107.374 151.818L108.081 151.111Z" fill="black"/>
<path d="M116.97 151.111L116.263 150.404L115.556 151.111L116.263 151.818L116.97 151.111Z" fill="black"/>
<path d="M125.859 151.111L125.152 150.404L124.444 151.111L125.152 151.818L125.859 151.111Z" fill="black"/>
<path d="M134.747 151.111L134.04 150.404L133.333 151.111L134.04 151.818L134.747 151.111Z" fill="black"/>
<path d="M143.636 151.111L142.929 150.404L142.222 151.111L142.929 151.818L143.636 151.111Z" fill="black"/>
<path d="M152.525 151.111L151.818 150.404L151.111 151.111L151.818 151.818L152.525 151.111Z" fill="black"/>
<path d="M161.414 151.111L160.707 150.404L160 151.111L160.707 151.818L161.414 151.111Z" fill="black"/>
<path d="M1.41421 160L0.707107 159.293L0 160L0.707107 160.707L1.41421 160Z" fill="black"/>
<path d="M10.3031 160L9.59603 159.293L8.88892 160L9.59603 160.707L10.3031 160Z" fill="black"/>
<path d="M19.192 160L18.4849 159.293L17.7778 160L18.4849 160.707L19.192 160Z" fill="black"/>
<path d="M28.0809 160L27.3738 159.293L26.6667 160L27.3738 160.707L28.0809 160Z" fill="black"/>
<path d="M36.9698 160L36.2627 159.293L35.5556 160L36.2627 160.707L36.9698 160Z" fill="black"/>
<path d="M45.8587 160L45.1515 159.293L44.4444 160L45.1515 160.707L45.8587 160Z" fill="black"/>
<path d="M54.7476 160L54.0405 159.293L53.3333 160L54.0405 160.707L54.7476 160Z" fill="black"/>
<path d="M63.6364 160L62.9293 159.293L62.2222 160L62.9293 160.707L63.6364 160Z" fill="black"/>
<path d="M72.5253 160L71.8182 159.293L71.1111 160L71.8182 160.707L72.5253 160Z" fill="black"/>
<path d="M81.4142 160L80.7071 159.293L80 160L80.7071 160.707L81.4142 160Z" fill="black"/>
<path d="M90.3031 160L89.596 159.293L88.8889 160L89.596 160.707L90.3031 160Z" fill="black"/>
<path d="M99.192 160L98.4849 159.293L97.7778 160L98.4849 160.707L99.192 160Z" fill="black"/>
<path d="M108.081 160L107.374 159.293L106.667 160L107.374 160.707L108.081 160Z" fill="black"/>
<path d="M116.97 160L116.263 159.293L115.556 160L116.263 160.707L116.97 160Z" fill="black"/>
<path d="M125.859 160L125.152 159.293L124.444 160L125.152 160.707L125.859 160Z" fill="black"/>
<path d="M134.747 160L134.04 159.293L133.333 160L134.04 160.707L134.747 160Z" fill="black"/>
<path d="M143.636 160L142.929 159.293L142.222 160L142.929 160.707L143.636 160Z" fill="black"/>
<path d="M152.525 160L151.818 159.293L151.111 160L151.818 160.707L152.525 160Z" fill="black"/>
<path d="M161.414 160L160.707 159.293L160 160L160.707 160.707L161.414 160Z" fill="black"/>
<path d="M90.3043 7.55191e-05L89.5972 -0.707031L88.8901 7.55191e-05L89.5972 0.707182L90.3043 7.55191e-05Z" fill="black"/>
<path d="M99.1932 7.55191e-05L98.4861 -0.707031L97.779 7.55191e-05L98.4861 0.707182L99.1932 7.55191e-05Z" fill="black"/>
<path d="M108.082 7.55191e-05L107.375 -0.707031L106.668 7.55191e-05L107.375 0.707182L108.082 7.55191e-05Z" fill="black"/>
<path d="M116.971 7.55191e-05L116.264 -0.707031L115.557 7.55191e-05L116.264 0.707182L116.971 7.55191e-05Z" fill="black"/>
<path d="M125.86 7.55191e-05L125.153 -0.707031L124.446 7.55191e-05L125.153 0.707182L125.86 7.55191e-05Z" fill="black"/>
<path d="M134.749 7.55191e-05L134.042 -0.707031L133.334 7.55191e-05L134.042 0.707182L134.749 7.55191e-05Z" fill="black"/>
<path d="M143.638 7.55191e-05L142.931 -0.707031L142.223 7.55191e-05L142.931 0.707182L143.638 7.55191e-05Z" fill="black"/>
<path d="M152.526 7.55191e-05L151.819 -0.707031L151.112 7.55191e-05L151.819 0.707182L152.526 7.55191e-05Z" fill="black"/>
<path d="M161.415 7.55191e-05L160.708 -0.707031L160.001 7.55191e-05L160.708 0.707182L161.415 7.55191e-05Z" fill="black"/>
<path d="M170.304 7.55191e-05L169.597 -0.707031L168.89 7.55191e-05L169.597 0.707182L170.304 7.55191e-05Z" fill="black"/>
<path d="M179.193 7.55191e-05L178.486 -0.707031L177.779 7.55191e-05L178.486 0.707182L179.193 7.55191e-05Z" fill="black"/>
<path d="M188.082 7.55191e-05L187.375 -0.707031L186.668 7.55191e-05L187.375 0.707182L188.082 7.55191e-05Z" fill="black"/>
<path d="M196.971 7.55191e-05L196.264 -0.707031L195.557 7.55191e-05L196.264 0.707182L196.971 7.55191e-05Z" fill="black"/>
<path d="M205.86 7.55191e-05L205.153 -0.707031L204.446 7.55191e-05L205.153 0.707182L205.86 7.55191e-05Z" fill="black"/>
<path d="M214.749 7.55191e-05L214.042 -0.707031L213.335 7.55191e-05L214.042 0.707182L214.749 7.55191e-05Z" fill="black"/>
<path d="M223.638 7.55191e-05L222.93 -0.707031L222.223 7.55191e-05L222.93 0.707182L223.638 7.55191e-05Z" fill="black"/>
<path d="M232.526 7.55191e-05L231.819 -0.707031L231.112 7.55191e-05L231.819 0.707182L232.526 7.55191e-05Z" fill="black"/>
<path d="M241.415 7.55191e-05L240.708 -0.707031L240.001 7.55191e-05L240.708 0.707182L241.415 7.55191e-05Z" fill="black"/>
<path d="M250.304 7.55191e-05L249.597 -0.707031L248.89 7.55191e-05L249.597 0.707182L250.304 7.55191e-05Z" fill="black"/>
<path d="M90.3043 8.889L89.5972 8.18189L88.8901 8.889L89.5972 9.59611L90.3043 8.889Z" fill="black"/>
<path d="M99.1932 8.889L98.4861 8.18189L97.779 8.889L98.4861 9.59611L99.1932 8.889Z" fill="black"/>
<path d="M108.082 8.889L107.375 8.18189L106.668 8.889L107.375 9.59611L108.082 8.889Z" fill="black"/>
<path d="M116.971 8.889L116.264 8.18189L115.557 8.889L116.264 9.59611L116.971 8.889Z" fill="black"/>
<path d="M125.86 8.889L125.153 8.18189L124.446 8.889L125.153 9.59611L125.86 8.889Z" fill="black"/>
<path d="M134.749 8.889L134.042 8.18189L133.334 8.889L134.042 9.59611L134.749 8.889Z" fill="black"/>
<path d="M143.638 8.889L142.931 8.18189L142.223 8.889L142.931 9.59611L143.638 8.889Z" fill="black"/>
<path d="M152.526 8.889L151.819 8.18189L151.112 8.889L151.819 9.59611L152.526 8.889Z" fill="black"/>
<path d="M161.415 8.889L160.708 8.18189L160.001 8.889L160.708 9.59611L161.415 8.889Z" fill="black"/>
<path d="M170.304 8.889L169.597 8.18189L168.89 8.889L169.597 9.59611L170.304 8.889Z" fill="black"/>
<path d="M179.193 8.889L178.486 8.18189L177.779 8.889L178.486 9.59611L179.193 8.889Z" fill="black"/>
<path d="M188.082 8.889L187.375 8.18189L186.668 8.889L187.375 9.59611L188.082 8.889Z" fill="black"/>
<path d="M196.971 8.889L196.264 8.18189L195.557 8.889L196.264 9.59611L196.971 8.889Z" fill="black"/>
<path d="M205.86 8.889L205.153 8.18189L204.446 8.889L205.153 9.59611L205.86 8.889Z" fill="black"/>
<path d="M214.749 8.889L214.042 8.18189L213.335 8.889L214.042 9.59611L214.749 8.889Z" fill="black"/>
<path d="M223.638 8.889L222.93 8.18189L222.223 8.889L222.93 9.59611L223.638 8.889Z" fill="black"/>
<path d="M232.526 8.889L231.819 8.18189L231.112 8.889L231.819 9.59611L232.526 8.889Z" fill="black"/>
<path d="M241.415 8.889L240.708 8.18189L240.001 8.889L240.708 9.59611L241.415 8.889Z" fill="black"/>
<path d="M250.304 8.889L249.597 8.18189L248.89 8.889L249.597 9.59611L250.304 8.889Z" fill="black"/>
<path d="M90.3043 17.7779L89.5972 17.0708L88.8901 17.7779L89.5972 18.485L90.3043 17.7779Z" fill="black"/>
<path d="M99.1932 17.7779L98.4861 17.0708L97.779 17.7779L98.4861 18.485L99.1932 17.7779Z" fill="black"/>
<path d="M108.082 17.7779L107.375 17.0708L106.668 17.7779L107.375 18.485L108.082 17.7779Z" fill="black"/>
<path d="M116.971 17.7779L116.264 17.0708L115.557 17.7779L116.264 18.485L116.971 17.7779Z" fill="black"/>
<path d="M125.86 17.7779L125.153 17.0708L124.446 17.7779L125.153 18.485L125.86 17.7779Z" fill="black"/>
<path d="M134.749 17.7779L134.042 17.0708L133.334 17.7779L134.042 18.485L134.749 17.7779Z" fill="black"/>
<path d="M143.638 17.7779L142.931 17.0708L142.223 17.7779L142.931 18.485L143.638 17.7779Z" fill="black"/>
<path d="M152.526 17.7779L151.819 17.0708L151.112 17.7779L151.819 18.485L152.526 17.7779Z" fill="black"/>
<path d="M161.415 17.7779L160.708 17.0708L160.001 17.7779L160.708 18.485L161.415 17.7779Z" fill="black"/>
<path d="M170.304 17.7779L169.597 17.0708L168.89 17.7779L169.597 18.485L170.304 17.7779Z" fill="black"/>
<path d="M179.193 17.7779L178.486 17.0708L177.779 17.7779L178.486 18.485L179.193 17.7779Z" fill="black"/>
<path d="M188.082 17.7779L187.375 17.0708L186.668 17.7779L187.375 18.485L188.082 17.7779Z" fill="black"/>
<path d="M196.971 17.7779L196.264 17.0708L195.557 17.7779L196.264 18.485L196.971 17.7779Z" fill="black"/>
<path d="M205.86 17.7779L205.153 17.0708L204.446 17.7779L205.153 18.485L205.86 17.7779Z" fill="black"/>
<path d="M214.749 17.7779L214.042 17.0708L213.335 17.7779L214.042 18.485L214.749 17.7779Z" fill="black"/>
<path d="M223.638 17.7779L222.93 17.0708L222.223 17.7779L222.93 18.485L223.638 17.7779Z" fill="black"/>
<path d="M232.526 17.7779L231.819 17.0708L231.112 17.7779L231.819 18.485L232.526 17.7779Z" fill="black"/>
<path d="M241.415 17.7779L240.708 17.0708L240.001 17.7779L240.708 18.485L241.415 17.7779Z" fill="black"/>
<path d="M250.304 17.7779L249.597 17.0708L248.89 17.7779L249.597 18.485L250.304 17.7779Z" fill="black"/>
<path d="M90.3043 26.6669L89.5972 25.9598L88.8901 26.6669L89.5972 27.374L90.3043 26.6669Z" fill="black"/>
<path d="M99.1932 26.6669L98.4861 25.9598L97.779 26.6669L98.4861 27.374L99.1932 26.6669Z" fill="black"/>
<path d="M108.082 26.6669L107.375 25.9598L106.668 26.6669L107.375 27.374L108.082 26.6669Z" fill="black"/>
<path d="M116.971 26.6669L116.264 25.9598L115.557 26.6669L116.264 27.374L116.971 26.6669Z" fill="black"/>
<path d="M125.86 26.6669L125.153 25.9598L124.446 26.6669L125.153 27.374L125.86 26.6669Z" fill="black"/>
<path d="M134.749 26.6669L134.042 25.9598L133.334 26.6669L134.042 27.374L134.749 26.6669Z" fill="black"/>
<path d="M143.638 26.6669L142.931 25.9598L142.223 26.6669L142.931 27.374L143.638 26.6669Z" fill="black"/>
<path d="M152.526 26.6669L151.819 25.9598L151.112 26.6669L151.819 27.374L152.526 26.6669Z" fill="black"/>
<path d="M161.415 26.6669L160.708 25.9598L160.001 26.6669L160.708 27.374L161.415 26.6669Z" fill="black"/>
<path d="M170.304 26.6669L169.597 25.9598L168.89 26.6669L169.597 27.374L170.304 26.6669Z" fill="black"/>
<path d="M179.193 26.6669L178.486 25.9598L177.779 26.6669L178.486 27.374L179.193 26.6669Z" fill="black"/>
<path d="M188.082 26.6669L187.375 25.9598L186.668 26.6669L187.375 27.374L188.082 26.6669Z" fill="black"/>
<path d="M196.971 26.6669L196.264 25.9598L195.557 26.6669L196.264 27.374L196.971 26.6669Z" fill="black"/>
<path d="M205.86 26.6669L205.153 25.9598L204.446 26.6669L205.153 27.374L205.86 26.6669Z" fill="black"/>
<path d="M214.749 26.6669L214.042 25.9598L213.335 26.6669L214.042 27.374L214.749 26.6669Z" fill="black"/>
<path d="M223.638 26.6669L222.93 25.9598L222.223 26.6669L222.93 27.374L223.638 26.6669Z" fill="black"/>
<path d="M232.526 26.6669L231.819 25.9598L231.112 26.6669L231.819 27.374L232.526 26.6669Z" fill="black"/>
<path d="M241.415 26.6669L240.708 25.9598L240.001 26.6669L240.708 27.374L241.415 26.6669Z" fill="black"/>
<path d="M250.304 26.6669L249.597 25.9598L248.89 26.6669L249.597 27.374L250.304 26.6669Z" fill="black"/>
<path d="M90.3043 35.5557L89.5972 34.8486L88.8901 35.5557L89.5972 36.2628L90.3043 35.5557Z" fill="black"/>
<path d="M99.1932 35.5557L98.4861 34.8486L97.779 35.5557L98.4861 36.2628L99.1932 35.5557Z" fill="black"/>
<path d="M108.082 35.5557L107.375 34.8486L106.668 35.5557L107.375 36.2628L108.082 35.5557Z" fill="black"/>
<path d="M116.971 35.5557L116.264 34.8486L115.557 35.5557L116.264 36.2628L116.971 35.5557Z" fill="black"/>
<path d="M125.86 35.5557L125.153 34.8486L124.446 35.5557L125.153 36.2628L125.86 35.5557Z" fill="black"/>
<path d="M134.749 35.5557L134.042 34.8486L133.334 35.5557L134.042 36.2628L134.749 35.5557Z" fill="black"/>
<path d="M143.638 35.5557L142.931 34.8486L142.223 35.5557L142.931 36.2628L143.638 35.5557Z" fill="black"/>
<path d="M152.526 35.5557L151.819 34.8486L151.112 35.5557L151.819 36.2628L152.526 35.5557Z" fill="black"/>
<path d="M161.415 35.5557L160.708 34.8486L160.001 35.5557L160.708 36.2628L161.415 35.5557Z" fill="black"/>
<path d="M170.304 35.5557L169.597 34.8486L168.89 35.5557L169.597 36.2628L170.304 35.5557Z" fill="black"/>
<path d="M179.193 35.5557L178.486 34.8486L177.779 35.5557L178.486 36.2628L179.193 35.5557Z" fill="black"/>
<path d="M188.082 35.5557L187.375 34.8486L186.668 35.5557L187.375 36.2628L188.082 35.5557Z" fill="black"/>
<path d="M196.971 35.5557L196.264 34.8486L195.557 35.5557L196.264 36.2628L196.971 35.5557Z" fill="black"/>
<path d="M205.86 35.5557L205.153 34.8486L204.446 35.5557L205.153 36.2628L205.86 35.5557Z" fill="black"/>
<path d="M214.749 35.5557L214.042 34.8486L213.335 35.5557L214.042 36.2628L214.749 35.5557Z" fill="black"/>
<path d="M223.638 35.5557L222.93 34.8486L222.223 35.5557L222.93 36.2628L223.638 35.5557Z" fill="black"/>
<path d="M232.526 35.5557L231.819 34.8486L231.112 35.5557L231.819 36.2628L232.526 35.5557Z" fill="black"/>
<path d="M241.415 35.5557L240.708 34.8486L240.001 35.5557L240.708 36.2628L241.415 35.5557Z" fill="black"/>
<path d="M250.304 35.5557L249.597 34.8486L248.89 35.5557L249.597 36.2628L250.304 35.5557Z" fill="black"/>
<path d="M90.3043 44.4446L89.5972 43.7375L88.8901 44.4446L89.5972 45.1517L90.3043 44.4446Z" fill="black"/>
<path d="M99.1932 44.4446L98.4861 43.7375L97.779 44.4446L98.4861 45.1517L99.1932 44.4446Z" fill="black"/>
<path d="M108.082 44.4446L107.375 43.7375L106.668 44.4446L107.375 45.1517L108.082 44.4446Z" fill="black"/>
<path d="M116.971 44.4446L116.264 43.7375L115.557 44.4446L116.264 45.1517L116.971 44.4446Z" fill="black"/>
<path d="M125.86 44.4446L125.153 43.7375L124.446 44.4446L125.153 45.1517L125.86 44.4446Z" fill="black"/>
<path d="M134.749 44.4446L134.042 43.7375L133.334 44.4446L134.042 45.1517L134.749 44.4446Z" fill="black"/>
<path d="M143.638 44.4446L142.931 43.7375L142.223 44.4446L142.931 45.1517L143.638 44.4446Z" fill="black"/>
<path d="M152.526 44.4446L151.819 43.7375L151.112 44.4446L151.819 45.1517L152.526 44.4446Z" fill="black"/>
<path d="M161.415 44.4446L160.708 43.7375L160.001 44.4446L160.708 45.1517L161.415 44.4446Z" fill="black"/>
<path d="M170.304 44.4446L169.597 43.7375L168.89 44.4446L169.597 45.1517L170.304 44.4446Z" fill="black"/>
<path d="M179.193 44.4446L178.486 43.7375L177.779 44.4446L178.486 45.1517L179.193 44.4446Z" fill="black"/>
<path d="M188.082 44.4446L187.375 43.7375L186.668 44.4446L187.375 45.1517L188.082 44.4446Z" fill="black"/>
<path d="M196.971 44.4446L196.264 43.7375L195.557 44.4446L196.264 45.1517L196.971 44.4446Z" fill="black"/>
<path d="M205.86 44.4446L205.153 43.7375L204.446 44.4446L205.153 45.1517L205.86 44.4446Z" fill="black"/>
<path d="M214.749 44.4446L214.042 43.7375L213.335 44.4446L214.042 45.1517L214.749 44.4446Z" fill="black"/>
<path d="M223.638 44.4446L222.93 43.7375L222.223 44.4446L222.93 45.1517L223.638 44.4446Z" fill="black"/>
<path d="M232.526 44.4446L231.819 43.7375L231.112 44.4446L231.819 45.1517L232.526 44.4446Z" fill="black"/>
<path d="M241.415 44.4446L240.708 43.7375L240.001 44.4446L240.708 45.1517L241.415 44.4446Z" fill="black"/>
<path d="M250.304 44.4446L249.597 43.7375L248.89 44.4446L249.597 45.1517L250.304 44.4446Z" fill="black"/>
<path d="M90.3043 53.3335L89.5972 52.6264L88.8901 53.3335L89.5972 54.0406L90.3043 53.3335Z" fill="black"/>
<path d="M99.1932 53.3335L98.4861 52.6264L97.779 53.3335L98.4861 54.0406L99.1932 53.3335Z" fill="black"/>
<path d="M108.082 53.3335L107.375 52.6264L106.668 53.3335L107.375 54.0406L108.082 53.3335Z" fill="black"/>
<path d="M116.971 53.3335L116.264 52.6264L115.557 53.3335L116.264 54.0406L116.971 53.3335Z" fill="black"/>
<path d="M125.86 53.3335L125.153 52.6264L124.446 53.3335L125.153 54.0406L125.86 53.3335Z" fill="black"/>
<path d="M134.749 53.3335L134.042 52.6264L133.334 53.3335L134.042 54.0406L134.749 53.3335Z" fill="black"/>
<path d="M143.638 53.3335L142.931 52.6264L142.223 53.3335L142.931 54.0406L143.638 53.3335Z" fill="black"/>
<path d="M152.526 53.3335L151.819 52.6264L151.112 53.3335L151.819 54.0406L152.526 53.3335Z" fill="black"/>
<path d="M161.415 53.3335L160.708 52.6264L160.001 53.3335L160.708 54.0406L161.415 53.3335Z" fill="black"/>
<path d="M170.304 53.3335L169.597 52.6264L168.89 53.3335L169.597 54.0406L170.304 53.3335Z" fill="black"/>
<path d="M179.193 53.3335L178.486 52.6264L177.779 53.3335L178.486 54.0406L179.193 53.3335Z" fill="black"/>
<path d="M188.082 53.3335L187.375 52.6264L186.668 53.3335L187.375 54.0406L188.082 53.3335Z" fill="black"/>
<path d="M196.971 53.3335L196.264 52.6264L195.557 53.3335L196.264 54.0406L196.971 53.3335Z" fill="black"/>
<path d="M205.86 53.3335L205.153 52.6264L204.446 53.3335L205.153 54.0406L205.86 53.3335Z" fill="black"/>
<path d="M214.749 53.3335L214.042 52.6264L213.335 53.3335L214.042 54.0406L214.749 53.3335Z" fill="black"/>
<path d="M223.638 53.3335L222.93 52.6264L222.223 53.3335L222.93 54.0406L223.638 53.3335Z" fill="black"/>
<path d="M232.526 53.3335L231.819 52.6264L231.112 53.3335L231.819 54.0406L232.526 53.3335Z" fill="black"/>
<path d="M241.415 53.3335L240.708 52.6264L240.001 53.3335L240.708 54.0406L241.415 53.3335Z" fill="black"/>
<path d="M250.304 53.3335L249.597 52.6264L248.89 53.3335L249.597 54.0406L250.304 53.3335Z" fill="black"/>
<path d="M90.3043 62.2223L89.5972 61.5152L88.8901 62.2223L89.5972 62.9294L90.3043 62.2223Z" fill="black"/>
<path d="M99.1932 62.2223L98.4861 61.5152L97.779 62.2223L98.4861 62.9294L99.1932 62.2223Z" fill="black"/>
<path d="M108.082 62.2223L107.375 61.5152L106.668 62.2223L107.375 62.9294L108.082 62.2223Z" fill="black"/>
<path d="M116.971 62.2223L116.264 61.5152L115.557 62.2223L116.264 62.9294L116.971 62.2223Z" fill="black"/>
<path d="M125.86 62.2223L125.153 61.5152L124.446 62.2223L125.153 62.9294L125.86 62.2223Z" fill="black"/>
<path d="M134.749 62.2223L134.042 61.5152L133.334 62.2223L134.042 62.9294L134.749 62.2223Z" fill="black"/>
<path d="M143.638 62.2223L142.931 61.5152L142.223 62.2223L142.931 62.9294L143.638 62.2223Z" fill="black"/>
<path d="M152.526 62.2223L151.819 61.5152L151.112 62.2223L151.819 62.9294L152.526 62.2223Z" fill="black"/>
<path d="M161.415 62.2223L160.708 61.5152L160.001 62.2223L160.708 62.9294L161.415 62.2223Z" fill="black"/>
<path d="M170.304 62.2223L169.597 61.5152L168.89 62.2223L169.597 62.9294L170.304 62.2223Z" fill="black"/>
<path d="M179.193 62.2223L178.486 61.5152L177.779 62.2223L178.486 62.9294L179.193 62.2223Z" fill="black"/>
<path d="M188.082 62.2223L187.375 61.5152L186.668 62.2223L187.375 62.9294L188.082 62.2223Z" fill="black"/>
<path d="M196.971 62.2223L196.264 61.5152L195.557 62.2223L196.264 62.9294L196.971 62.2223Z" fill="black"/>
<path d="M205.86 62.2223L205.153 61.5152L204.446 62.2223L205.153 62.9294L205.86 62.2223Z" fill="black"/>
<path d="M214.749 62.2223L214.042 61.5152L213.335 62.2223L214.042 62.9294L214.749 62.2223Z" fill="black"/>
<path d="M223.638 62.2223L222.93 61.5152L222.223 62.2223L222.93 62.9294L223.638 62.2223Z" fill="black"/>
<path d="M232.526 62.2223L231.819 61.5152L231.112 62.2223L231.819 62.9294L232.526 62.2223Z" fill="black"/>
<path d="M241.415 62.2223L240.708 61.5152L240.001 62.2223L240.708 62.9294L241.415 62.2223Z" fill="black"/>
<path d="M250.304 62.2223L249.597 61.5152L248.89 62.2223L249.597 62.9294L250.304 62.2223Z" fill="black"/>
<path d="M90.3043 71.1113L89.5972 70.4042L88.8901 71.1113L89.5972 71.8184L90.3043 71.1113Z" fill="black"/>
<path d="M99.1932 71.1113L98.4861 70.4042L97.779 71.1113L98.4861 71.8184L99.1932 71.1113Z" fill="black"/>
<path d="M108.082 71.1113L107.375 70.4042L106.668 71.1113L107.375 71.8184L108.082 71.1113Z" fill="black"/>
<path d="M116.971 71.1113L116.264 70.4042L115.557 71.1113L116.264 71.8184L116.971 71.1113Z" fill="black"/>
<path d="M125.86 71.1113L125.153 70.4042L124.446 71.1113L125.153 71.8184L125.86 71.1113Z" fill="black"/>
<path d="M134.749 71.1113L134.042 70.4042L133.334 71.1113L134.042 71.8184L134.749 71.1113Z" fill="black"/>
<path d="M143.638 71.1113L142.931 70.4042L142.223 71.1113L142.931 71.8184L143.638 71.1113Z" fill="black"/>
<path d="M152.526 71.1113L151.819 70.4042L151.112 71.1113L151.819 71.8184L152.526 71.1113Z" fill="black"/>
<path d="M161.415 71.1113L160.708 70.4042L160.001 71.1113L160.708 71.8184L161.415 71.1113Z" fill="black"/>
<path d="M170.304 71.1113L169.597 70.4042L168.89 71.1113L169.597 71.8184L170.304 71.1113Z" fill="black"/>
<path d="M179.193 71.1113L178.486 70.4042L177.779 71.1113L178.486 71.8184L179.193 71.1113Z" fill="black"/>
<path d="M188.082 71.1113L187.375 70.4042L186.668 71.1113L187.375 71.8184L188.082 71.1113Z" fill="black"/>
<path d="M196.971 71.1113L196.264 70.4042L195.557 71.1113L196.264 71.8184L196.971 71.1113Z" fill="black"/>
<path d="M205.86 71.1113L205.153 70.4042L204.446 71.1113L205.153 71.8184L205.86 71.1113Z" fill="black"/>
<path d="M214.749 71.1113L214.042 70.4042L213.335 71.1113L214.042 71.8184L214.749 71.1113Z" fill="black"/>
<path d="M223.638 71.1113L222.93 70.4042L222.223 71.1113L222.93 71.8184L223.638 71.1113Z" fill="black"/>
<path d="M232.526 71.1113L231.819 70.4042L231.112 71.1113L231.819 71.8184L232.526 71.1113Z" fill="black"/>
<path d="M241.415 71.1113L240.708 70.4042L240.001 71.1113L240.708 71.8184L241.415 71.1113Z" fill="black"/>
<path d="M250.304 71.1113L249.597 70.4042L248.89 71.1113L249.597 71.8184L250.304 71.1113Z" fill="black"/>
<path d="M90.3043 80.0002L89.5972 79.2931L88.8901 80.0002L89.5972 80.7073L90.3043 80.0002Z" fill="black"/>
<path d="M99.1932 80.0002L98.4861 79.2931L97.779 80.0002L98.4861 80.7073L99.1932 80.0002Z" fill="black"/>
<path d="M108.082 80.0002L107.375 79.2931L106.668 80.0002L107.375 80.7073L108.082 80.0002Z" fill="black"/>
<path d="M116.971 80.0002L116.264 79.2931L115.557 80.0002L116.264 80.7073L116.971 80.0002Z" fill="black"/>
<path d="M125.86 80.0002L125.153 79.2931L124.446 80.0002L125.153 80.7073L125.86 80.0002Z" fill="black"/>
<path d="M134.749 80.0002L134.042 79.2931L133.334 80.0002L134.042 80.7073L134.749 80.0002Z" fill="black"/>
<path d="M143.638 80.0002L142.931 79.2931L142.223 80.0002L142.931 80.7073L143.638 80.0002Z" fill="black"/>
<path d="M152.526 80.0002L151.819 79.2931L151.112 80.0002L151.819 80.7073L152.526 80.0002Z" fill="black"/>
<path d="M161.415 80.0002L160.708 79.2931L160.001 80.0002L160.708 80.7073L161.415 80.0002Z" fill="black"/>
<path d="M170.304 80.0002L169.597 79.2931L168.89 80.0002L169.597 80.7073L170.304 80.0002Z" fill="black"/>
<path d="M179.193 80.0002L178.486 79.2931L177.779 80.0002L178.486 80.7073L179.193 80.0002Z" fill="black"/>
<path d="M188.082 80.0002L187.375 79.2931L186.668 80.0002L187.375 80.7073L188.082 80.0002Z" fill="black"/>
<path d="M196.971 80.0002L196.264 79.2931L195.557 80.0002L196.264 80.7073L196.971 80.0002Z" fill="black"/>
<path d="M205.86 80.0002L205.153 79.2931L204.446 80.0002L205.153 80.7073L205.86 80.0002Z" fill="black"/>
<path d="M214.749 80.0002L214.042 79.2931L213.335 80.0002L214.042 80.7073L214.749 80.0002Z" fill="black"/>
<path d="M223.638 80.0002L222.93 79.2931L222.223 80.0002L222.93 80.7073L223.638 80.0002Z" fill="black"/>
<path d="M232.526 80.0002L231.819 79.2931L231.112 80.0002L231.819 80.7073L232.526 80.0002Z" fill="black"/>
<path d="M241.415 80.0002L240.708 79.2931L240.001 80.0002L240.708 80.7073L241.415 80.0002Z" fill="black"/>
<path d="M250.304 80.0002L249.597 79.2931L248.89 80.0002L249.597 80.7073L250.304 80.0002Z" fill="black"/>
<path d="M90.3043 88.889L89.5972 88.1819L88.8901 88.889L89.5972 89.5961L90.3043 88.889Z" fill="black"/>
<path d="M99.1932 88.889L98.4861 88.1819L97.779 88.889L98.4861 89.5961L99.1932 88.889Z" fill="black"/>
<path d="M108.082 88.889L107.375 88.1819L106.668 88.889L107.375 89.5961L108.082 88.889Z" fill="black"/>
<path d="M116.971 88.889L116.264 88.1819L115.557 88.889L116.264 89.5961L116.971 88.889Z" fill="black"/>
<path d="M125.86 88.889L125.153 88.1819L124.446 88.889L125.153 89.5961L125.86 88.889Z" fill="black"/>
<path d="M134.749 88.889L134.042 88.1819L133.334 88.889L134.042 89.5961L134.749 88.889Z" fill="black"/>
<path d="M143.638 88.889L142.931 88.1819L142.223 88.889L142.931 89.5961L143.638 88.889Z" fill="black"/>
<path d="M152.526 88.889L151.819 88.1819L151.112 88.889L151.819 89.5961L152.526 88.889Z" fill="black"/>
<path d="M161.415 88.889L160.708 88.1819L160.001 88.889L160.708 89.5961L161.415 88.889Z" fill="black"/>
<path d="M170.304 88.889L169.597 88.1819L168.89 88.889L169.597 89.5961L170.304 88.889Z" fill="black"/>
<path d="M179.193 88.889L178.486 88.1819L177.779 88.889L178.486 89.5961L179.193 88.889Z" fill="black"/>
<path d="M188.082 88.889L187.375 88.1819L186.668 88.889L187.375 89.5961L188.082 88.889Z" fill="black"/>
<path d="M196.971 88.889L196.264 88.1819L195.557 88.889L196.264 89.5961L196.971 88.889Z" fill="black"/>
<path d="M205.86 88.889L205.153 88.1819L204.446 88.889L205.153 89.5961L205.86 88.889Z" fill="black"/>
<path d="M214.749 88.889L214.042 88.1819L213.335 88.889L214.042 89.5961L214.749 88.889Z" fill="black"/>
<path d="M223.638 88.889L222.93 88.1819L222.223 88.889L222.93 89.5961L223.638 88.889Z" fill="black"/>
<path d="M232.526 88.889L231.819 88.1819L231.112 88.889L231.819 89.5961L232.526 88.889Z" fill="black"/>
<path d="M241.415 88.889L240.708 88.1819L240.001 88.889L240.708 89.5961L241.415 88.889Z" fill="black"/>
<path d="M250.304 88.889L249.597 88.1819L248.89 88.889L249.597 89.5961L250.304 88.889Z" fill="black"/>
<path d="M90.3043 97.7779L89.5972 97.0707L88.8901 97.7779L89.5972 98.485L90.3043 97.7779Z" fill="black"/>
<path d="M99.1932 97.7779L98.4861 97.0707L97.779 97.7779L98.4861 98.485L99.1932 97.7779Z" fill="black"/>
<path d="M108.082 97.7779L107.375 97.0707L106.668 97.7779L107.375 98.485L108.082 97.7779Z" fill="black"/>
<path d="M116.971 97.7779L116.264 97.0707L115.557 97.7779L116.264 98.485L116.971 97.7779Z" fill="black"/>
<path d="M125.86 97.7779L125.153 97.0707L124.446 97.7779L125.153 98.485L125.86 97.7779Z" fill="black"/>
<path d="M134.749 97.7779L134.042 97.0707L133.334 97.7779L134.042 98.485L134.749 97.7779Z" fill="black"/>
<path d="M143.638 97.7779L142.931 97.0707L142.223 97.7779L142.931 98.485L143.638 97.7779Z" fill="black"/>
<path d="M152.526 97.7779L151.819 97.0707L151.112 97.7779L151.819 98.485L152.526 97.7779Z" fill="black"/>
<path d="M161.415 97.7779L160.708 97.0707L160.001 97.7779L160.708 98.485L161.415 97.7779Z" fill="black"/>
<path d="M170.304 97.7779L169.597 97.0707L168.89 97.7779L169.597 98.485L170.304 97.7779Z" fill="black"/>
<path d="M179.193 97.7779L178.486 97.0707L177.779 97.7779L178.486 98.485L179.193 97.7779Z" fill="black"/>
<path d="M188.082 97.7779L187.375 97.0707L186.668 97.7779L187.375 98.485L188.082 97.7779Z" fill="black"/>
<path d="M196.971 97.7779L196.264 97.0707L195.557 97.7779L196.264 98.485L196.971 97.7779Z" fill="black"/>
<path d="M205.86 97.7779L205.153 97.0707L204.446 97.7779L205.153 98.485L205.86 97.7779Z" fill="black"/>
<path d="M214.749 97.7779L214.042 97.0707L213.335 97.7779L214.042 98.485L214.749 97.7779Z" fill="black"/>
<path d="M223.638 97.7779L222.93 97.0707L222.223 97.7779L222.93 98.485L223.638 97.7779Z" fill="black"/>
<path d="M232.526 97.7779L231.819 97.0707L231.112 97.7779L231.819 98.485L232.526 97.7779Z" fill="black"/>
<path d="M241.415 97.7779L240.708 97.0707L240.001 97.7779L240.708 98.485L241.415 97.7779Z" fill="black"/>
<path d="M250.304 97.7779L249.597 97.0707L248.89 97.7779L249.597 98.485L250.304 97.7779Z" fill="black"/>
<path d="M90.3043 106.667L89.5972 105.96L88.8901 106.667L89.5972 107.374L90.3043 106.667Z" fill="black"/>
<path d="M99.1932 106.667L98.4861 105.96L97.779 106.667L98.4861 107.374L99.1932 106.667Z" fill="black"/>
<path d="M108.082 106.667L107.375 105.96L106.668 106.667L107.375 107.374L108.082 106.667Z" fill="black"/>
<path d="M116.971 106.667L116.264 105.96L115.557 106.667L116.264 107.374L116.971 106.667Z" fill="black"/>
<path d="M125.86 106.667L125.153 105.96L124.446 106.667L125.153 107.374L125.86 106.667Z" fill="black"/>
<path d="M134.749 106.667L134.042 105.96L133.334 106.667L134.042 107.374L134.749 106.667Z" fill="black"/>
<path d="M143.638 106.667L142.931 105.96L142.223 106.667L142.931 107.374L143.638 106.667Z" fill="black"/>
<path d="M152.526 106.667L151.819 105.96L151.112 106.667L151.819 107.374L152.526 106.667Z" fill="black"/>
<path d="M161.415 106.667L160.708 105.96L160.001 106.667L160.708 107.374L161.415 106.667Z" fill="black"/>
<path d="M170.304 106.667L169.597 105.96L168.89 106.667L169.597 107.374L170.304 106.667Z" fill="black"/>
<path d="M179.193 106.667L178.486 105.96L177.779 106.667L178.486 107.374L179.193 106.667Z" fill="black"/>
<path d="M188.082 106.667L187.375 105.96L186.668 106.667L187.375 107.374L188.082 106.667Z" fill="black"/>
<path d="M196.971 106.667L196.264 105.96L195.557 106.667L196.264 107.374L196.971 106.667Z" fill="black"/>
<path d="M205.86 106.667L205.153 105.96L204.446 106.667L205.153 107.374L205.86 106.667Z" fill="black"/>
<path d="M214.749 106.667L214.042 105.96L213.335 106.667L214.042 107.374L214.749 106.667Z" fill="black"/>
<path d="M223.638 106.667L222.93 105.96L222.223 106.667L222.93 107.374L223.638 106.667Z" fill="black"/>
<path d="M232.526 106.667L231.819 105.96L231.112 106.667L231.819 107.374L232.526 106.667Z" fill="black"/>
<path d="M241.415 106.667L240.708 105.96L240.001 106.667L240.708 107.374L241.415 106.667Z" fill="black"/>
<path d="M250.304 106.667L249.597 105.96L248.89 106.667L249.597 107.374L250.304 106.667Z" fill="black"/>
<path d="M90.3043 115.556L89.5972 114.849L88.8901 115.556L89.5972 116.263L90.3043 115.556Z" fill="black"/>
<path d="M99.1932 115.556L98.4861 114.849L97.779 115.556L98.4861 116.263L99.1932 115.556Z" fill="black"/>
<path d="M108.082 115.556L107.375 114.849L106.668 115.556L107.375 116.263L108.082 115.556Z" fill="black"/>
<path d="M116.971 115.556L116.264 114.849L115.557 115.556L116.264 116.263L116.971 115.556Z" fill="black"/>
<path d="M125.86 115.556L125.153 114.849L124.446 115.556L125.153 116.263L125.86 115.556Z" fill="black"/>
<path d="M134.749 115.556L134.042 114.849L133.334 115.556L134.042 116.263L134.749 115.556Z" fill="black"/>
<path d="M143.638 115.556L142.931 114.849L142.223 115.556L142.931 116.263L143.638 115.556Z" fill="black"/>
<path d="M152.526 115.556L151.819 114.849L151.112 115.556L151.819 116.263L152.526 115.556Z" fill="black"/>
<path d="M161.415 115.556L160.708 114.849L160.001 115.556L160.708 116.263L161.415 115.556Z" fill="black"/>
<path d="M170.304 115.556L169.597 114.849L168.89 115.556L169.597 116.263L170.304 115.556Z" fill="black"/>
<path d="M179.193 115.556L178.486 114.849L177.779 115.556L178.486 116.263L179.193 115.556Z" fill="black"/>
<path d="M188.082 115.556L187.375 114.849L186.668 115.556L187.375 116.263L188.082 115.556Z" fill="black"/>
<path d="M196.971 115.556L196.264 114.849L195.557 115.556L196.264 116.263L196.971 115.556Z" fill="black"/>
<path d="M205.86 115.556L205.153 114.849L204.446 115.556L205.153 116.263L205.86 115.556Z" fill="black"/>
<path d="M214.749 115.556L214.042 114.849L213.335 115.556L214.042 116.263L214.749 115.556Z" fill="black"/>
<path d="M223.638 115.556L222.93 114.849L222.223 115.556L222.93 116.263L223.638 115.556Z" fill="black"/>
<path d="M232.526 115.556L231.819 114.849L231.112 115.556L231.819 116.263L232.526 115.556Z" fill="black"/>
<path d="M241.415 115.556L240.708 114.849L240.001 115.556L240.708 116.263L241.415 115.556Z" fill="black"/>
<path d="M250.304 115.556L249.597 114.849L248.89 115.556L249.597 116.263L250.304 115.556Z" fill="black"/>
<path d="M90.3043 124.445L89.5972 123.737L88.8901 124.445L89.5972 125.152L90.3043 124.445Z" fill="black"/>
<path d="M99.1932 124.445L98.4861 123.737L97.779 124.445L98.4861 125.152L99.1932 124.445Z" fill="black"/>
<path d="M108.082 124.445L107.375 123.737L106.668 124.445L107.375 125.152L108.082 124.445Z" fill="black"/>
<path d="M116.971 124.445L116.264 123.737L115.557 124.445L116.264 125.152L116.971 124.445Z" fill="black"/>
<path d="M125.86 124.445L125.153 123.737L124.446 124.445L125.153 125.152L125.86 124.445Z" fill="black"/>
<path d="M134.749 124.445L134.042 123.737L133.334 124.445L134.042 125.152L134.749 124.445Z" fill="black"/>
<path d="M143.638 124.445L142.931 123.737L142.223 124.445L142.931 125.152L143.638 124.445Z" fill="black"/>
<path d="M152.526 124.445L151.819 123.737L151.112 124.445L151.819 125.152L152.526 124.445Z" fill="black"/>
<path d="M161.415 124.445L160.708 123.737L160.001 124.445L160.708 125.152L161.415 124.445Z" fill="black"/>
<path d="M170.304 124.445L169.597 123.737L168.89 124.445L169.597 125.152L170.304 124.445Z" fill="black"/>
<path d="M179.193 124.445L178.486 123.737L177.779 124.445L178.486 125.152L179.193 124.445Z" fill="black"/>
<path d="M188.082 124.445L187.375 123.737L186.668 124.445L187.375 125.152L188.082 124.445Z" fill="black"/>
<path d="M196.971 124.445L196.264 123.737L195.557 124.445L196.264 125.152L196.971 124.445Z" fill="black"/>
<path d="M205.86 124.445L205.153 123.737L204.446 124.445L205.153 125.152L205.86 124.445Z" fill="black"/>
<path d="M214.749 124.445L214.042 123.737L213.335 124.445L214.042 125.152L214.749 124.445Z" fill="black"/>
<path d="M223.638 124.445L222.93 123.737L222.223 124.445L222.93 125.152L223.638 124.445Z" fill="black"/>
<path d="M232.526 124.445L231.819 123.737L231.112 124.445L231.819 125.152L232.526 124.445Z" fill="black"/>
<path d="M241.415 124.445L240.708 123.737L240.001 124.445L240.708 125.152L241.415 124.445Z" fill="black"/>
<path d="M250.304 124.445L249.597 123.737L248.89 124.445L249.597 125.152L250.304 124.445Z" fill="black"/>
<path d="M90.3043 133.334L89.5972 132.626L88.8901 133.334L89.5972 134.041L90.3043 133.334Z" fill="black"/>
<path d="M99.1932 133.334L98.4861 132.626L97.779 133.334L98.4861 134.041L99.1932 133.334Z" fill="black"/>
<path d="M108.082 133.334L107.375 132.626L106.668 133.334L107.375 134.041L108.082 133.334Z" fill="black"/>
<path d="M116.971 133.334L116.264 132.626L115.557 133.334L116.264 134.041L116.971 133.334Z" fill="black"/>
<path d="M125.86 133.334L125.153 132.626L124.446 133.334L125.153 134.041L125.86 133.334Z" fill="black"/>
<path d="M134.749 133.334L134.042 132.626L133.334 133.334L134.042 134.041L134.749 133.334Z" fill="black"/>
<path d="M143.638 133.334L142.931 132.626L142.223 133.334L142.931 134.041L143.638 133.334Z" fill="black"/>
<path d="M152.526 133.334L151.819 132.626L151.112 133.334L151.819 134.041L152.526 133.334Z" fill="black"/>
<path d="M161.415 133.334L160.708 132.626L160.001 133.334L160.708 134.041L161.415 133.334Z" fill="black"/>
<path d="M170.304 133.334L169.597 132.626L168.89 133.334L169.597 134.041L170.304 133.334Z" fill="black"/>
<path d="M179.193 133.334L178.486 132.626L177.779 133.334L178.486 134.041L179.193 133.334Z" fill="black"/>
<path d="M188.082 133.334L187.375 132.626L186.668 133.334L187.375 134.041L188.082 133.334Z" fill="black"/>
<path d="M196.971 133.334L196.264 132.626L195.557 133.334L196.264 134.041L196.971 133.334Z" fill="black"/>
<path d="M205.86 133.334L205.153 132.626L204.446 133.334L205.153 134.041L205.86 133.334Z" fill="black"/>
<path d="M214.749 133.334L214.042 132.626L213.335 133.334L214.042 134.041L214.749 133.334Z" fill="black"/>
<path d="M223.638 133.334L222.93 132.626L222.223 133.334L222.93 134.041L223.638 133.334Z" fill="black"/>
<path d="M232.526 133.334L231.819 132.626L231.112 133.334L231.819 134.041L232.526 133.334Z" fill="black"/>
<path d="M241.415 133.334L240.708 132.626L240.001 133.334L240.708 134.041L241.415 133.334Z" fill="black"/>
<path d="M250.304 133.334L249.597 132.626L248.89 133.334L249.597 134.041L250.304 133.334Z" fill="black"/>
<path d="M90.3043 142.222L89.5972 141.515L88.8901 142.222L89.5972 142.93L90.3043 142.222Z" fill="black"/>
<path d="M99.1932 142.222L98.4861 141.515L97.779 142.222L98.4861 142.93L99.1932 142.222Z" fill="black"/>
<path d="M108.082 142.222L107.375 141.515L106.668 142.222L107.375 142.93L108.082 142.222Z" fill="black"/>
<path d="M116.971 142.222L116.264 141.515L115.557 142.222L116.264 142.93L116.971 142.222Z" fill="black"/>
<path d="M125.86 142.222L125.153 141.515L124.446 142.222L125.153 142.93L125.86 142.222Z" fill="black"/>
<path d="M134.749 142.222L134.042 141.515L133.334 142.222L134.042 142.93L134.749 142.222Z" fill="black"/>
<path d="M143.638 142.222L142.931 141.515L142.223 142.222L142.931 142.93L143.638 142.222Z" fill="black"/>
<path d="M152.526 142.222L151.819 141.515L151.112 142.222L151.819 142.93L152.526 142.222Z" fill="black"/>
<path d="M161.415 142.222L160.708 141.515L160.001 142.222L160.708 142.93L161.415 142.222Z" fill="black"/>
<path d="M170.304 142.222L169.597 141.515L168.89 142.222L169.597 142.93L170.304 142.222Z" fill="black"/>
<path d="M179.193 142.222L178.486 141.515L177.779 142.222L178.486 142.93L179.193 142.222Z" fill="black"/>
<path d="M188.082 142.222L187.375 141.515L186.668 142.222L187.375 142.93L188.082 142.222Z" fill="black"/>
<path d="M196.971 142.222L196.264 141.515L195.557 142.222L196.264 142.93L196.971 142.222Z" fill="black"/>
<path d="M205.86 142.222L205.153 141.515L204.446 142.222L205.153 142.93L205.86 142.222Z" fill="black"/>
<path d="M214.749 142.222L214.042 141.515L213.335 142.222L214.042 142.93L214.749 142.222Z" fill="black"/>
<path d="M223.638 142.222L222.93 141.515L222.223 142.222L222.93 142.93L223.638 142.222Z" fill="black"/>
<path d="M232.526 142.222L231.819 141.515L231.112 142.222L231.819 142.93L232.526 142.222Z" fill="black"/>
<path d="M241.415 142.222L240.708 141.515L240.001 142.222L240.708 142.93L241.415 142.222Z" fill="black"/>
<path d="M250.304 142.222L249.597 141.515L248.89 142.222L249.597 142.93L250.304 142.222Z" fill="black"/>
<path d="M90.3043 151.111L89.5972 150.404L88.8901 151.111L89.5972 151.818L90.3043 151.111Z" fill="black"/>
<path d="M99.1932 151.111L98.4861 150.404L97.779 151.111L98.4861 151.818L99.1932 151.111Z" fill="black"/>
<path d="M108.082 151.111L107.375 150.404L106.668 151.111L107.375 151.818L108.082 151.111Z" fill="black"/>
<path d="M116.971 151.111L116.264 150.404L115.557 151.111L116.264 151.818L116.971 151.111Z" fill="black"/>
<path d="M125.86 151.111L125.153 150.404L124.446 151.111L125.153 151.818L125.86 151.111Z" fill="black"/>
<path d="M134.749 151.111L134.042 150.404L133.334 151.111L134.042 151.818L134.749 151.111Z" fill="black"/>
<path d="M143.638 151.111L142.931 150.404L142.223 151.111L142.931 151.818L143.638 151.111Z" fill="black"/>
<path d="M152.526 151.111L151.819 150.404L151.112 151.111L151.819 151.818L152.526 151.111Z" fill="black"/>
<path d="M161.415 151.111L160.708 150.404L160.001 151.111L160.708 151.818L161.415 151.111Z" fill="black"/>
<path d="M170.304 151.111L169.597 150.404L168.89 151.111L169.597 151.818L170.304 151.111Z" fill="black"/>
<path d="M179.193 151.111L178.486 150.404L177.779 151.111L178.486 151.818L179.193 151.111Z" fill="black"/>
<path d="M188.082 151.111L187.375 150.404L186.668 151.111L187.375 151.818L188.082 151.111Z" fill="black"/>
<path d="M196.971 151.111L196.264 150.404L195.557 151.111L196.264 151.818L196.971 151.111Z" fill="black"/>
<path d="M205.86 151.111L205.153 150.404L204.446 151.111L205.153 151.818L205.86 151.111Z" fill="black"/>
<path d="M214.749 151.111L214.042 150.404L213.335 151.111L214.042 151.818L214.749 151.111Z" fill="black"/>
<path d="M223.638 151.111L222.93 150.404L222.223 151.111L222.93 151.818L223.638 151.111Z" fill="black"/>
<path d="M232.526 151.111L231.819 150.404L231.112 151.111L231.819 151.818L232.526 151.111Z" fill="black"/>
<path d="M241.415 151.111L240.708 150.404L240.001 151.111L240.708 151.818L241.415 151.111Z" fill="black"/>
<path d="M250.304 151.111L249.597 150.404L248.89 151.111L249.597 151.818L250.304 151.111Z" fill="black"/>
<path d="M90.3043 160L89.5972 159.293L88.8901 160L89.5972 160.707L90.3043 160Z" fill="black"/>
<path d="M99.1932 160L98.4861 159.293L97.779 160L98.4861 160.707L99.1932 160Z" fill="black"/>
<path d="M108.082 160L107.375 159.293L106.668 160L107.375 160.707L108.082 160Z" fill="black"/>
<path d="M116.971 160L116.264 159.293L115.557 160L116.264 160.707L116.971 160Z" fill="black"/>
<path d="M125.86 160L125.153 159.293L124.446 160L125.153 160.707L125.86 160Z" fill="black"/>
<path d="M134.749 160L134.042 159.293L133.334 160L134.042 160.707L134.749 160Z" fill="black"/>
<path d="M143.638 160L142.931 159.293L142.223 160L142.931 160.707L143.638 160Z" fill="black"/>
<path d="M152.526 160L151.819 159.293L151.112 160L151.819 160.707L152.526 160Z" fill="black"/>
<path d="M161.415 160L160.708 159.293L160.001 160L160.708 160.707L161.415 160Z" fill="black"/>
<path d="M170.304 160L169.597 159.293L168.89 160L169.597 160.707L170.304 160Z" fill="black"/>
<path d="M179.193 160L178.486 159.293L177.779 160L178.486 160.707L179.193 160Z" fill="black"/>
<path d="M188.082 160L187.375 159.293L186.668 160L187.375 160.707L188.082 160Z" fill="black"/>
<path d="M196.971 160L196.264 159.293L195.557 160L196.264 160.707L196.971 160Z" fill="black"/>
<path d="M205.86 160L205.153 159.293L204.446 160L205.153 160.707L205.86 160Z" fill="black"/>
<path d="M214.749 160L214.042 159.293L213.335 160L214.042 160.707L214.749 160Z" fill="black"/>
<path d="M223.638 160L222.93 159.293L222.223 160L222.93 160.707L223.638 160Z" fill="black"/>
<path d="M232.526 160L231.819 159.293L231.112 160L231.819 160.707L232.526 160Z" fill="black"/>
<path d="M241.415 160L240.708 159.293L240.001 160L240.708 160.707L241.415 160Z" fill="black"/>
<path d="M250.304 160L249.597 159.293L248.89 160L249.597 160.707L250.304 160Z" fill="black"/>
</g>
<defs>
<clipPath id="clip0_52_5420">
<rect width="250" height="160" fill="white"/>
</clipPath>
</defs>
</svg>
