<svg width="1733" height="703" viewBox="0 0 1733 703" fill="none" xmlns="http://www.w3.org/2000/svg">
<g clip-path="url(#clip0_925_6774)">
<rect width="1733" height="703" fill="#188F65"/>
<path d="M468.518 196.979C436.174 143.073 479.299 89.1663 570.94 94.5569C576.331 186.198 522.424 229.323 468.518 196.979Z" fill="#FAC712"/>
<path d="M533.207 132.287L452.348 213.147" stroke="white" stroke-width="3.28573" stroke-linecap="round" stroke-linejoin="round"/>
<path d="M943.119 223.792C910.775 169.885 953.901 115.979 1045.54 121.369C1050.93 213.01 997.026 256.136 943.119 223.792Z" fill="#FAC712"/>
<path d="M1007.81 159.1L926.949 239.959" stroke="white" stroke-width="3.28573" stroke-linecap="round" stroke-linejoin="round"/>
<path d="M629.397 399.87C597.053 345.963 640.178 292.057 731.819 297.448C737.21 389.089 683.303 432.214 629.397 399.87Z" fill="#FFB7EB"/>
<path d="M694.086 335.178L613.227 416.037" stroke="white" stroke-width="3.28573" stroke-linecap="round" stroke-linejoin="round"/>
<path d="M404.166 588.456C371.822 534.549 414.948 480.643 506.589 486.033C511.979 577.674 458.073 620.8 404.166 588.456Z" fill="#FFB7EB"/>
<path d="M468.856 523.764L387.996 604.623" stroke="white" stroke-width="3.28573" stroke-linecap="round" stroke-linejoin="round"/>
<path d="M743.803 126.37C711.459 72.4633 754.584 18.5569 846.225 23.9475C851.616 115.589 797.709 158.714 743.803 126.37Z" fill="#FFB7EB"/>
<path d="M808.492 61.6777L727.633 142.537" stroke="white" stroke-width="3.28573" stroke-linecap="round" stroke-linejoin="round"/>
<path d="M88.1233 291.38C55.7794 237.473 98.9046 183.567 190.546 188.957C195.936 280.598 142.03 323.723 88.1233 291.38Z" fill="#FAC712"/>
<path d="M152.813 226.688L71.9531 307.547" stroke="white" stroke-width="3.28573" stroke-linecap="round" stroke-linejoin="round"/>
<path d="M328.123 411.38C295.779 357.473 338.905 303.567 430.546 308.957C435.936 400.598 382.03 443.723 328.123 411.38Z" fill="#FAC712"/>
<path d="M392.813 346.688L311.953 427.547" stroke="white" stroke-width="3.28573" stroke-linecap="round" stroke-linejoin="round"/>
<path d="M88.1233 607.38C55.7794 553.473 98.9046 499.567 190.546 504.957C195.936 596.598 142.03 639.723 88.1233 607.38Z" fill="#FFB7EB"/>
<path d="M152.813 542.688L71.9531 623.547" stroke="white" stroke-width="3.28573" stroke-linecap="round" stroke-linejoin="round"/>
<path d="M274.123 142.38C241.779 88.4731 284.905 34.5667 376.546 39.9573C381.936 131.598 328.03 174.723 274.123 142.38Z" fill="#FFB7EB"/>
<path d="M338.813 77.6875L257.953 158.547" stroke="white" stroke-width="3.28573" stroke-linecap="round" stroke-linejoin="round"/>
<path d="M910.123 464.38C877.779 410.473 920.905 356.567 1012.55 361.957C1017.94 453.598 964.03 496.723 910.123 464.38Z" fill="#FAC712"/>
<path d="M974.813 399.688L893.953 480.547" stroke="white" stroke-width="3.28573" stroke-linecap="round" stroke-linejoin="round"/>
<path d="M651.123 653.38C618.779 599.473 661.905 545.567 753.546 550.957C758.936 642.598 705.03 685.723 651.123 653.38Z" fill="#FAC712"/>
<path d="M715.813 588.688L634.953 669.547" stroke="white" stroke-width="3.28573" stroke-linecap="round" stroke-linejoin="round"/>
<path d="M1366.78 442.77C1334.43 388.864 1377.56 334.957 1469.2 340.348C1474.59 431.989 1420.68 475.114 1366.78 442.77Z" fill="#FAC712"/>
<path d="M1431.47 378.078L1350.61 458.938" stroke="white" stroke-width="3.28573" stroke-linecap="round" stroke-linejoin="round"/>
<path d="M1056.12 637.38C1023.78 583.473 1066.9 529.567 1158.55 534.957C1163.94 626.598 1110.03 669.723 1056.12 637.38Z" fill="#FFB7EB"/>
<path d="M1120.81 572.688L1039.95 653.547" stroke="white" stroke-width="3.28573" stroke-linecap="round" stroke-linejoin="round"/>
<path d="M1174.61 346.241C1142.27 292.334 1185.39 238.428 1277.03 243.819C1282.42 335.46 1228.52 378.585 1174.61 346.241Z" fill="#FFB7EB"/>
<path d="M1239.3 281.549L1158.44 362.409" stroke="white" stroke-width="3.28573" stroke-linecap="round" stroke-linejoin="round"/>
<path d="M1366.12 661.38C1333.78 607.473 1376.9 553.567 1468.55 558.957C1473.94 650.598 1420.03 693.723 1366.12 661.38Z" fill="#FFB7EB"/>
<path d="M1430.81 596.688L1349.95 677.547" stroke="white" stroke-width="3.28573" stroke-linecap="round" stroke-linejoin="round"/>
<path d="M1193.12 123.38C1160.78 69.4731 1203.9 15.5667 1295.55 20.9573C1300.94 112.598 1247.03 155.723 1193.12 123.38Z" fill="#FAC712"/>
<path d="M1257.81 58.6875L1176.95 139.547" stroke="white" stroke-width="3.28573" stroke-linecap="round" stroke-linejoin="round"/>
<path d="M1571.45 269.374C1539.1 215.467 1582.23 161.561 1673.87 166.951C1679.26 258.592 1625.35 301.718 1571.45 269.374Z" fill="#FFB7EB"/>
<path d="M1636.14 204.682L1555.28 285.541" stroke="white" stroke-width="3.28573" stroke-linecap="round" stroke-linejoin="round"/>
<path d="M1474.12 118.38C1441.78 64.4731 1484.9 10.5667 1576.55 15.9573C1581.94 107.598 1528.03 150.723 1474.12 118.38Z" fill="#FFB7EB"/>
<path d="M1538.81 53.6875L1457.95 134.547" stroke="white" stroke-width="3.28573" stroke-linecap="round" stroke-linejoin="round"/>
<path d="M1620.12 507.38C1587.78 453.473 1630.9 399.567 1722.55 404.957C1727.94 496.598 1674.03 539.723 1620.12 507.38Z" fill="#FAC712"/>
<path d="M1684.81 442.688L1603.95 523.547" stroke="white" stroke-width="3.28573" stroke-linecap="round" stroke-linejoin="round"/>
</g>
<defs>
<clipPath id="clip0_925_6774">
<rect width="1733" height="703" fill="white"/>
</clipPath>
</defs>
</svg>
