<svg width="1423" height="703" viewBox="0 0 1423 703" fill="none" xmlns="http://www.w3.org/2000/svg">
<g clip-path="url(#clip0_925_6712)">
<rect width="1423" height="703" fill="#06195E"/>
<path d="M-14 300.747C-0.706004 287.453 13.8189 275.319 28.1302 263.16C102.83 199.695 181.237 139.07 264.287 86.8948C328.052 46.8348 401.57 7.23118 478.139 0.052886C488.031 -0.874497 487.184 10.6071 486.193 17.8137C483.807 35.1598 477.019 52.0334 470.497 68.1014C451.396 115.166 428.198 160.539 405.547 205.954C363.507 290.242 320.513 374.491 285.042 461.833C268.335 502.971 255.717 544.914 250.243 589.05C248.198 605.54 248.075 621.936 248.075 638.512C248.075 653.524 264.528 640.834 271.412 636.137C289.348 623.896 558.056 446.661 573.5 431.5C616.916 388.88 23.7004 529.805 64.6646 484.863C157.336 383.191 428.281 365.224 530.559 273.076C573.533 234.357 998.698 170.439 1047.5 139.041C1056.75 133.092 909.922 29.3845 923.088 34.7484C949.083 45.3389 703.571 197.393 691.165 218C662.791 265.133 714.642 421.833 691.165 471.643C681.271 492.634 670.219 515.686 668.551 539.279C667.715 551.1 676.333 555.131 687.344 554.148C741.733 549.292 817.842 673.19 854.917 638.512C978.676 522.751 997.61 193.809 1163.79 139.161C1191.93 129.908 1296.3 139.041 1326.01 139.041C1339.49 139.041 1327.87 155.977 1325.29 164.237C1310.98 209.968 1443.43 284.883 1430.5 331C1408.22 410.476 1232.66 457.033 1197.55 531.534C1177.63 573.824 1154.4 615.579 1139.62 660.093C1134.8 674.635 1125.97 699.62 1133.22 714.924C1139.78 728.774 1159.31 725.211 1170.6 721.12C1191.43 713.575 1381.73 690.555 1399 677C1439.24 645.427 1303.51 617.949 1339.12 581.409C1406.38 512.408 1473.4 443.265 1542.55 376.127C1549.51 369.363 1557.09 360.906 1565.88 356.508" stroke="white" stroke-opacity="0.4" stroke-width="2" stroke-linecap="round" stroke-dasharray="3 200"/>
<ellipse cx="225.459" cy="163.513" rx="101.804" ry="90.8214" transform="rotate(-13.5 225.459 163.513)" fill="#DBA2FF"/>
<path d="M137.988 215.358C137.988 215.358 90.8525 248.83 66.5689 270.734C8.4807 323.13 177.632 240.129 242.467 196.356C305.419 153.855 441.019 44.4262 387.209 57.3445C351.259 65.9751 302.793 100.201 302.793 100.201" stroke="white" stroke-width="12.6727"/>
<ellipse cx="1147.91" cy="487.033" rx="84.7196" ry="75.5798" transform="rotate(-19.5 1147.91 487.033)" fill="#DBA2FF"/>
<path d="M1080.02 537.55C1080.02 537.55 1043.93 569.352 1025.73 589.593C982.216 638.01 1114.99 554.603 1164.84 512.736C1213.24 472.085 1315.95 369.724 1272.54 385.096C1243.54 395.366 1206.4 427.908 1206.4 427.908" stroke="white" stroke-width="10.546"/>
<ellipse cx="1195.06" cy="123.619" rx="44.5562" ry="39.7493" transform="rotate(45.5 1195.06 123.619)" fill="#FAE312"/>
<path d="M1155.89 102.49C1155.89 102.49 1132.71 92.3523 1119.02 88.1797C1086.27 78.1987 1155.54 122.946 1186.57 137.403C1216.71 151.439 1288.33 177.643 1271.35 160.368C1260.01 148.826 1236.24 138.359 1236.24 138.359" stroke="white" stroke-width="5.54641"/>
<ellipse cx="509.441" cy="539.483" rx="82.699" ry="73.7771" transform="rotate(45.5 509.441 539.483)" fill="#6C84FF"/>
<path d="M436.745 500.264C436.745 500.264 393.718 481.447 368.306 473.703C307.519 455.178 436.084 538.232 493.688 565.063C549.62 591.116 682.548 639.751 651.04 607.688C629.99 586.266 585.881 566.839 585.881 566.839" stroke="white" stroke-width="10.2945"/>
<ellipse cx="782.462" cy="295.341" rx="40.6373" ry="36.2532" transform="rotate(120.5 782.462 295.341)" fill="#EE774D"/>
<path d="M791.835 255.849C791.835 255.849 795.294 233.033 795.738 219.986C796.8 188.778 773.729 260.363 768.32 291.118C763.068 320.979 756.889 390.258 768.101 371.225C775.591 358.509 779.203 335.102 779.203 335.102" stroke="white" stroke-width="5.05858"/>
</g>
<defs>
<clipPath id="clip0_925_6712">
<rect width="1423" height="703" fill="white"/>
</clipPath>
</defs>
</svg>
