<svg width="1423" height="703" viewBox="0 0 1423 703" fill="none" xmlns="http://www.w3.org/2000/svg">
<g clip-path="url(#clip0_1006_7278)">
<rect width="1423" height="703" fill="#353535"/>
<line y1="-0.507757" x2="1571.01" y2="-0.507757" transform="matrix(0.999994 -0.00350909 0.00293125 0.999996 -45 17.9609)" stroke="#FDFDFD" stroke-opacity="0.1" stroke-width="1.01551"/>
<line y1="-0.507757" x2="1571.01" y2="-0.507757" transform="matrix(0.999994 -0.00350909 0.00293125 0.999996 -45 84.6211)" stroke="#FDFDFD" stroke-opacity="0.1" stroke-width="1.01551"/>
<line y1="-0.507757" x2="1571.01" y2="-0.507757" transform="matrix(0.999994 -0.00350909 0.00293125 0.999996 -45 151.289)" stroke="#FDFDFD" stroke-opacity="0.1" stroke-width="1.01551"/>
<line y1="-0.507757" x2="1571.01" y2="-0.507757" transform="matrix(0.999994 -0.00350909 0.00293125 0.999996 -45 217.957)" stroke="#FDFDFD" stroke-opacity="0.1" stroke-width="1.01551"/>
<line y1="-0.507757" x2="1571.01" y2="-0.507757" transform="matrix(0.999994 -0.00350909 0.00293125 0.999996 -45 284.625)" stroke="#FDFDFD" stroke-opacity="0.1" stroke-width="1.01551"/>
<line y1="-0.507757" x2="1571.01" y2="-0.507757" transform="matrix(0.999994 -0.00350909 0.00293125 0.999996 -45 351.291)" stroke="#FDFDFD" stroke-opacity="0.1" stroke-width="1.01551"/>
<line y1="-0.507757" x2="1571.01" y2="-0.507757" transform="matrix(0.999994 -0.00350909 0.00293125 0.999996 -45 417.959)" stroke="#FDFDFD" stroke-opacity="0.1" stroke-width="1.01551"/>
<line y1="-0.507757" x2="1571.01" y2="-0.507757" transform="matrix(0.999994 -0.00350909 0.00293125 0.999996 -45 484.625)" stroke="#FDFDFD" stroke-opacity="0.1" stroke-width="1.01551"/>
<line y1="-0.507757" x2="1571.01" y2="-0.507757" transform="matrix(0.999994 -0.00350909 0.00293125 0.999996 -45 551.293)" stroke="#FDFDFD" stroke-opacity="0.1" stroke-width="1.01551"/>
<line y1="-0.507757" x2="1571.01" y2="-0.507757" transform="matrix(0.999994 -0.00350909 0.00293125 0.999996 -45 617.959)" stroke="#FDFDFD" stroke-opacity="0.1" stroke-width="1.01551"/>
<line y1="-0.507757" x2="1571.01" y2="-0.507757" transform="matrix(0.999994 -0.00350909 0.00293125 0.999996 -45 684.623)" stroke="#FDFDFD" stroke-opacity="0.1" stroke-width="1.01551"/>
<line x1="37.7617" y1="-102" x2="37.7616" y2="1008" stroke="#FDFDFD" stroke-opacity="0.1" stroke-width="1.01551"/>
<line x1="104.785" y1="-102" x2="104.785" y2="1008" stroke="#FDFDFD" stroke-opacity="0.1" stroke-width="1.01551"/>
<line x1="171.809" y1="-102" x2="171.808" y2="1008" stroke="#FDFDFD" stroke-opacity="0.1" stroke-width="1.01551"/>
<line x1="238.832" y1="-102" x2="238.832" y2="1008" stroke="#FDFDFD" stroke-opacity="0.1" stroke-width="1.01551"/>
<line x1="305.859" y1="-102" x2="305.859" y2="1008" stroke="#FDFDFD" stroke-opacity="0.1" stroke-width="1.01551"/>
<line x1="372.883" y1="-102" x2="372.883" y2="1008" stroke="#FDFDFD" stroke-opacity="0.1" stroke-width="1.01551"/>
<line x1="439.906" y1="-102" x2="439.906" y2="1008" stroke="#FDFDFD" stroke-opacity="0.1" stroke-width="1.01551"/>
<line x1="506.93" y1="-102" x2="506.93" y2="1008" stroke="#FDFDFD" stroke-opacity="0.1" stroke-width="1.01551"/>
<line x1="573.953" y1="-102" x2="573.953" y2="1008" stroke="#FDFDFD" stroke-opacity="0.1" stroke-width="1.01551"/>
<line x1="640.977" y1="-102" x2="640.976" y2="1008" stroke="#FDFDFD" stroke-opacity="0.1" stroke-width="1.01551"/>
<line x1="708" y1="-102" x2="708" y2="1008" stroke="#FDFDFD" stroke-opacity="0.1" stroke-width="1.01551"/>
<line x1="775.027" y1="-102" x2="775.027" y2="1008" stroke="#FDFDFD" stroke-opacity="0.1" stroke-width="1.01551"/>
<line x1="842.051" y1="-102" x2="842.051" y2="1008" stroke="#FDFDFD" stroke-opacity="0.1" stroke-width="1.01551"/>
<line x1="909.074" y1="-102" x2="909.074" y2="1008" stroke="#FDFDFD" stroke-opacity="0.1" stroke-width="1.01551"/>
<line x1="976.098" y1="-102" x2="976.098" y2="1008" stroke="#FDFDFD" stroke-opacity="0.1" stroke-width="1.01551"/>
<line x1="1043.12" y1="-102" x2="1043.12" y2="1008" stroke="#FDFDFD" stroke-opacity="0.1" stroke-width="1.01551"/>
<line x1="1110.14" y1="-102" x2="1110.14" y2="1008" stroke="#FDFDFD" stroke-opacity="0.1" stroke-width="1.01551"/>
<line x1="1177.17" y1="-102" x2="1177.17" y2="1008" stroke="#FDFDFD" stroke-opacity="0.1" stroke-width="1.01551"/>
<line x1="1244.2" y1="-102" x2="1244.2" y2="1008" stroke="#FDFDFD" stroke-opacity="0.1" stroke-width="1.01551"/>
<line x1="1311.22" y1="-102" x2="1311.22" y2="1008" stroke="#FDFDFD" stroke-opacity="0.1" stroke-width="1.01551"/>
<line x1="1378.24" y1="-102" x2="1378.24" y2="1008" stroke="#FDFDFD" stroke-opacity="0.1" stroke-width="1.01551"/>
<circle cx="1013.5" cy="147.5" r="65.5" fill="#606060"/>
<circle cx="172.5" cy="219.5" r="65.5" fill="#606060"/>
<circle cx="646.5" cy="546.5" r="65.5" fill="#606060"/>
<path d="M251 498L318.55 615H183.45L251 498Z" fill="#EE774D"/>
<path d="M640 199L707.55 82H572.45L640 199Z" fill="#EE774D"/>
<path d="M1244 334L1311.55 451H1176.45L1244 334Z" fill="#EE774D"/>
</g>
<defs>
<clipPath id="clip0_1006_7278">
<rect width="1423" height="703" fill="white"/>
</clipPath>
</defs>
</svg>
