<svg width="1064" height="310" viewBox="0 0 1064 310" fill="none" xmlns="http://www.w3.org/2000/svg">
<rect x="-7" y="290" width="1064" height="0.3" fill="url(#paint0_linear_16_291)"/>
<rect x="-7" y="243" width="1064" height="0.3" fill="url(#paint1_linear_16_291)"/>
<rect x="-7" y="196" width="1064" height="0.3" fill="url(#paint2_linear_16_291)"/>
<rect x="-7" y="149" width="1064" height="0.3" fill="url(#paint3_linear_16_291)"/>
<rect x="-7" y="102" width="1064" height="0.3" fill="url(#paint4_linear_16_291)"/>
<rect y="55" width="1064" height="0.3" fill="url(#paint5_linear_16_291)"/>
<rect x="1022" width="0.3" height="310" fill="url(#paint6_linear_16_291)"/>
<rect x="1022" width="0.3" height="310" fill="url(#paint7_linear_16_291)"/>
<rect x="975" width="0.3" height="310" fill="url(#paint8_linear_16_291)"/>
<rect x="928" y="4" width="0.3" height="310" fill="url(#paint9_linear_16_291)"/>
<rect x="881" y="4" width="0.3" height="310" fill="url(#paint10_linear_16_291)"/>
<rect x="834" y="4" width="0.3" height="310" fill="url(#paint11_linear_16_291)"/>
<rect x="787" y="4" width="0.3" height="310" fill="url(#paint12_linear_16_291)"/>
<rect x="740" y="4" width="0.3" height="310" fill="url(#paint13_linear_16_291)"/>
<rect x="693" y="4" width="0.3" height="310" fill="url(#paint14_linear_16_291)"/>
<rect x="646" y="4" width="0.3" height="310" fill="url(#paint15_linear_16_291)"/>
<rect x="599" y="4" width="0.3" height="310" fill="url(#paint16_linear_16_291)"/>
<rect x="552" y="4" width="0.3" height="310" fill="url(#paint17_linear_16_291)"/>
<rect x="505" y="4" width="0.3" height="310" fill="url(#paint18_linear_16_291)"/>
<rect x="458" y="4" width="0.3" height="310" fill="url(#paint19_linear_16_291)"/>
<rect x="411" y="4" width="0.3" height="310" fill="url(#paint20_linear_16_291)"/>
<rect x="364" y="4" width="0.3" height="310" fill="url(#paint21_linear_16_291)"/>
<rect x="317" y="4" width="0.3" height="310" fill="url(#paint22_linear_16_291)"/>
<rect x="270" y="4" width="0.3" height="310" fill="url(#paint23_linear_16_291)"/>
<rect x="223" y="4" width="0.3" height="310" fill="url(#paint24_linear_16_291)"/>
<rect x="176" y="4" width="0.3" height="310" fill="url(#paint25_linear_16_291)"/>
<rect x="129" y="4" width="0.3" height="310" fill="url(#paint26_linear_16_291)"/>
<rect x="82" y="4" width="0.3" height="310" fill="url(#paint27_linear_16_291)"/>
<rect x="35" y="4" width="0.3" height="310" fill="url(#paint28_linear_16_291)"/>
<path d="M-7 147L1092 147" stroke="url(#paint29_linear_16_291)" stroke-opacity="0.6" stroke-width="0.497181" stroke-dasharray="3.98 3.98"/>
<path d="M-7 147L1092 147" stroke="url(#paint30_linear_16_291)" stroke-opacity="0.6" stroke-width="0.497181" stroke-dasharray="3.98 3.98"/>
<path d="M239 310L239 0" stroke="url(#paint31_linear_16_291)" stroke-opacity="0.8" stroke-width="0.497181" stroke-dasharray="3.98 3.98"/>
<path d="M574 310L574 0" stroke="url(#paint32_linear_16_291)" stroke-opacity="0.6" stroke-width="0.497181" stroke-dasharray="3.98 3.98"/>
<path d="M848 314L848 4" stroke="url(#paint33_linear_16_291)" stroke-opacity="0.6" stroke-width="0.497181" stroke-dasharray="3.98 3.98"/>
<path d="M130.236 160.067L130 160.148L130.081 160.383L133.129 169.233L133.21 169.468L133.445 169.387L151.041 163.328L157.1 180.925L157.181 181.16L157.416 181.079L166.266 178.031L166.501 177.95L166.42 177.715L160.361 160.119L177.925 154.071L178.16 153.99L178.079 153.755L175.032 144.905L174.951 144.67L174.716 144.751L157.152 150.799L151.104 133.235L151.024 133L150.788 133.081L141.939 136.128L141.703 136.209L141.784 136.444L147.832 154.008L130.236 160.067Z" stroke="white" stroke-opacity="0.9" stroke-width="0.497181"/>
<path d="M167.49 137.135L167.583 136.904L167.352 136.811L158.674 133.305L158.443 133.212L158.35 133.442L151.379 150.698L134.123 143.726L133.893 143.633L133.8 143.863L130.293 152.542L130.2 152.772L130.431 152.865L147.686 159.837L140.728 177.06L140.634 177.29L140.865 177.384L149.543 180.89L149.774 180.983L149.867 180.752L156.825 163.529L174.049 170.488L174.279 170.581L174.372 170.351L177.878 161.672L177.972 161.442L177.741 161.349L160.518 154.39L167.49 137.135Z" stroke="white" stroke-opacity="0.9" stroke-width="0.497181"/>
<path d="M550.205 168.312L514.067 134.393L561.412 120L550.205 168.312Z" stroke="white" stroke-opacity="0.8" stroke-width="0.497181"/>
<path d="M838.768 136.996L881.581 103.546L889.143 157.349L838.768 136.996Z" stroke="white" stroke-opacity="0.8" stroke-width="0.497181"/>
<path d="M847.391 204.388C887.249 204.388 919.56 172.077 919.56 132.219C919.56 92.3612 887.249 60.0501 847.391 60.0501C807.533 60.0501 775.222 92.3612 775.222 132.219C775.222 172.077 807.533 204.388 847.391 204.388Z" stroke="white" stroke-opacity="0.9" stroke-width="0.342033"/>
<path d="M847.389 184.252C876.693 184.252 900.449 160.496 900.449 131.192C900.449 101.888 876.693 78.1317 847.389 78.1317C818.085 78.1317 794.329 101.888 794.329 131.192C794.329 160.496 818.085 184.252 847.389 184.252Z" stroke="white" stroke-opacity="0.9" stroke-width="0.251471"/>
<path d="M847.565 167.532C867.918 167.532 884.417 151.033 884.417 130.68C884.417 110.327 867.918 93.8278 847.565 93.8278C827.212 93.8278 810.713 110.327 810.713 130.68C810.713 151.033 827.212 167.532 847.565 167.532Z" stroke="white" stroke-opacity="0.9" stroke-width="0.174655"/>
<path d="M520.244 242.592C578.181 242.592 625.149 195.624 625.149 137.687C625.149 79.7495 578.181 32.782 520.244 32.782C462.307 32.782 415.339 79.7495 415.339 137.687C415.339 195.624 462.307 242.592 520.244 242.592Z" stroke="white" stroke-opacity="0.9" stroke-width="0.497181"/>
<path d="M520.245 213.325C562.842 213.325 597.374 178.793 597.374 136.196C597.374 93.5988 562.842 59.067 520.245 59.067C477.648 59.067 443.116 93.5988 443.116 136.196C443.116 178.793 477.648 213.325 520.245 213.325Z" stroke="white" stroke-opacity="0.9" stroke-width="0.36554"/>
<path d="M520.492 189.019C550.077 189.019 574.061 165.035 574.061 135.45C574.061 105.865 550.077 81.8813 520.492 81.8813C490.907 81.8813 466.923 105.865 466.923 135.45C466.923 165.035 490.907 189.019 520.492 189.019Z" stroke="white" stroke-opacity="0.9" stroke-width="0.25388"/>
<path d="M209.905 243.81C267.842 243.81 314.81 196.842 314.81 138.905C314.81 80.9676 267.842 34 209.905 34C151.968 34 105 80.9676 105 138.905C105 196.842 151.968 243.81 209.905 243.81Z" stroke="white" stroke-opacity="0.9" stroke-width="0.497181"/>
<path d="M209.906 214.544C252.503 214.544 287.035 180.012 287.035 137.415C287.035 94.8178 252.503 60.286 209.906 60.286C167.309 60.286 132.777 94.8178 132.777 137.415C132.777 180.012 167.309 214.544 209.906 214.544Z" stroke="white" stroke-opacity="0.9" stroke-width="0.36554"/>
<path d="M210.154 190.237C239.739 190.237 263.723 166.253 263.723 136.668C263.723 107.083 239.739 83.0992 210.154 83.0992C180.569 83.0992 156.585 107.083 156.585 136.668C156.585 166.253 180.569 190.237 210.154 190.237Z" stroke="white" stroke-opacity="0.9" stroke-width="0.25388"/>
<defs>
<linearGradient id="paint0_linear_16_291" x1="-7" y1="290.15" x2="1057" y2="290.15" gradientUnits="userSpaceOnUse">
<stop stop-color="white" stop-opacity="0"/>
<stop offset="0.3" stop-color="white"/>
<stop offset="0.61" stop-color="white"/>
<stop offset="1" stop-color="white" stop-opacity="0"/>
</linearGradient>
<linearGradient id="paint1_linear_16_291" x1="-7" y1="243.15" x2="1057" y2="243.15" gradientUnits="userSpaceOnUse">
<stop stop-color="white" stop-opacity="0"/>
<stop offset="0.3" stop-color="white"/>
<stop offset="0.61" stop-color="white"/>
<stop offset="1" stop-color="white" stop-opacity="0"/>
</linearGradient>
<linearGradient id="paint2_linear_16_291" x1="-7" y1="196.15" x2="1057" y2="196.15" gradientUnits="userSpaceOnUse">
<stop stop-color="white" stop-opacity="0"/>
<stop offset="0.3" stop-color="white"/>
<stop offset="0.61" stop-color="white"/>
<stop offset="1" stop-color="white" stop-opacity="0"/>
</linearGradient>
<linearGradient id="paint3_linear_16_291" x1="-7" y1="149.15" x2="1057" y2="149.15" gradientUnits="userSpaceOnUse">
<stop stop-color="white" stop-opacity="0"/>
<stop offset="0.3" stop-color="white"/>
<stop offset="0.61" stop-color="white"/>
<stop offset="1" stop-color="white" stop-opacity="0"/>
</linearGradient>
<linearGradient id="paint4_linear_16_291" x1="-7" y1="102.15" x2="1057" y2="102.15" gradientUnits="userSpaceOnUse">
<stop stop-color="white" stop-opacity="0"/>
<stop offset="0.3" stop-color="white"/>
<stop offset="0.61" stop-color="white"/>
<stop offset="1" stop-color="white" stop-opacity="0"/>
</linearGradient>
<linearGradient id="paint5_linear_16_291" x1="0" y1="55.15" x2="1064" y2="55.1502" gradientUnits="userSpaceOnUse">
<stop stop-color="white" stop-opacity="0"/>
<stop offset="0.3" stop-color="white"/>
<stop offset="0.61" stop-color="white"/>
<stop offset="1" stop-color="white" stop-opacity="0"/>
</linearGradient>
<linearGradient id="paint6_linear_16_291" x1="1022.15" y1="-1.51214e-07" x2="1022.48" y2="310" gradientUnits="userSpaceOnUse">
<stop stop-color="white" stop-opacity="0"/>
<stop offset="0.3" stop-color="white"/>
<stop offset="0.61" stop-color="white"/>
<stop offset="1" stop-color="white" stop-opacity="0"/>
</linearGradient>
<linearGradient id="paint7_linear_16_291" x1="1022.15" y1="-1.51214e-07" x2="1022.48" y2="310" gradientUnits="userSpaceOnUse">
<stop stop-color="white" stop-opacity="0"/>
<stop offset="0.3" stop-color="white"/>
<stop offset="0.61" stop-color="white"/>
<stop offset="1" stop-color="white" stop-opacity="0"/>
</linearGradient>
<linearGradient id="paint8_linear_16_291" x1="975.15" y1="-1.51214e-07" x2="975.482" y2="310" gradientUnits="userSpaceOnUse">
<stop stop-color="white" stop-opacity="0"/>
<stop offset="0.3" stop-color="white"/>
<stop offset="0.61" stop-color="white"/>
<stop offset="1" stop-color="white" stop-opacity="0"/>
</linearGradient>
<linearGradient id="paint9_linear_16_291" x1="928.15" y1="4" x2="928.482" y2="314" gradientUnits="userSpaceOnUse">
<stop stop-color="white" stop-opacity="0"/>
<stop offset="0.3" stop-color="white"/>
<stop offset="0.61" stop-color="white"/>
<stop offset="1" stop-color="white" stop-opacity="0"/>
</linearGradient>
<linearGradient id="paint10_linear_16_291" x1="881.15" y1="4" x2="881.482" y2="314" gradientUnits="userSpaceOnUse">
<stop stop-color="white" stop-opacity="0"/>
<stop offset="0.3" stop-color="white"/>
<stop offset="0.61" stop-color="white"/>
<stop offset="1" stop-color="white" stop-opacity="0"/>
</linearGradient>
<linearGradient id="paint11_linear_16_291" x1="834.15" y1="4" x2="834.482" y2="314" gradientUnits="userSpaceOnUse">
<stop stop-color="white" stop-opacity="0"/>
<stop offset="0.3" stop-color="white"/>
<stop offset="0.61" stop-color="white"/>
<stop offset="1" stop-color="white" stop-opacity="0"/>
</linearGradient>
<linearGradient id="paint12_linear_16_291" x1="787.15" y1="4" x2="787.482" y2="314" gradientUnits="userSpaceOnUse">
<stop stop-color="white" stop-opacity="0"/>
<stop offset="0.3" stop-color="white"/>
<stop offset="0.61" stop-color="white"/>
<stop offset="1" stop-color="white" stop-opacity="0"/>
</linearGradient>
<linearGradient id="paint13_linear_16_291" x1="740.15" y1="4" x2="740.482" y2="314" gradientUnits="userSpaceOnUse">
<stop stop-color="white" stop-opacity="0"/>
<stop offset="0.3" stop-color="white"/>
<stop offset="0.61" stop-color="white"/>
<stop offset="1" stop-color="white" stop-opacity="0"/>
</linearGradient>
<linearGradient id="paint14_linear_16_291" x1="693.15" y1="4" x2="693.482" y2="314" gradientUnits="userSpaceOnUse">
<stop stop-color="white" stop-opacity="0"/>
<stop offset="0.3" stop-color="white"/>
<stop offset="0.61" stop-color="white"/>
<stop offset="1" stop-color="white" stop-opacity="0"/>
</linearGradient>
<linearGradient id="paint15_linear_16_291" x1="646.15" y1="4" x2="646.482" y2="314" gradientUnits="userSpaceOnUse">
<stop stop-color="white" stop-opacity="0"/>
<stop offset="0.3" stop-color="white"/>
<stop offset="0.61" stop-color="white"/>
<stop offset="1" stop-color="white" stop-opacity="0"/>
</linearGradient>
<linearGradient id="paint16_linear_16_291" x1="599.15" y1="4" x2="599.482" y2="314" gradientUnits="userSpaceOnUse">
<stop stop-color="white" stop-opacity="0"/>
<stop offset="0.3" stop-color="white"/>
<stop offset="0.61" stop-color="white"/>
<stop offset="1" stop-color="white" stop-opacity="0"/>
</linearGradient>
<linearGradient id="paint17_linear_16_291" x1="552.15" y1="4" x2="552.482" y2="314" gradientUnits="userSpaceOnUse">
<stop stop-color="white" stop-opacity="0"/>
<stop offset="0.3" stop-color="white"/>
<stop offset="0.61" stop-color="white"/>
<stop offset="1" stop-color="white" stop-opacity="0"/>
</linearGradient>
<linearGradient id="paint18_linear_16_291" x1="505.15" y1="4" x2="505.482" y2="314" gradientUnits="userSpaceOnUse">
<stop stop-color="white" stop-opacity="0"/>
<stop offset="0.3" stop-color="white"/>
<stop offset="0.61" stop-color="white"/>
<stop offset="1" stop-color="white" stop-opacity="0"/>
</linearGradient>
<linearGradient id="paint19_linear_16_291" x1="458.15" y1="4" x2="458.482" y2="314" gradientUnits="userSpaceOnUse">
<stop stop-color="white" stop-opacity="0"/>
<stop offset="0.3" stop-color="white"/>
<stop offset="0.61" stop-color="white"/>
<stop offset="1" stop-color="white" stop-opacity="0"/>
</linearGradient>
<linearGradient id="paint20_linear_16_291" x1="411.15" y1="4" x2="411.482" y2="314" gradientUnits="userSpaceOnUse">
<stop stop-color="white" stop-opacity="0"/>
<stop offset="0.3" stop-color="white"/>
<stop offset="0.61" stop-color="white"/>
<stop offset="1" stop-color="white" stop-opacity="0"/>
</linearGradient>
<linearGradient id="paint21_linear_16_291" x1="364.15" y1="4" x2="364.482" y2="314" gradientUnits="userSpaceOnUse">
<stop stop-color="white" stop-opacity="0"/>
<stop offset="0.3" stop-color="white"/>
<stop offset="0.61" stop-color="white"/>
<stop offset="1" stop-color="white" stop-opacity="0"/>
</linearGradient>
<linearGradient id="paint22_linear_16_291" x1="317.15" y1="4" x2="317.482" y2="314" gradientUnits="userSpaceOnUse">
<stop stop-color="white" stop-opacity="0"/>
<stop offset="0.3" stop-color="white"/>
<stop offset="0.61" stop-color="white"/>
<stop offset="1" stop-color="white" stop-opacity="0"/>
</linearGradient>
<linearGradient id="paint23_linear_16_291" x1="270.15" y1="4" x2="270.482" y2="314" gradientUnits="userSpaceOnUse">
<stop stop-color="white" stop-opacity="0"/>
<stop offset="0.3" stop-color="white"/>
<stop offset="0.61" stop-color="white"/>
<stop offset="1" stop-color="white" stop-opacity="0"/>
</linearGradient>
<linearGradient id="paint24_linear_16_291" x1="223.15" y1="4" x2="223.482" y2="314" gradientUnits="userSpaceOnUse">
<stop stop-color="white" stop-opacity="0"/>
<stop offset="0.3" stop-color="white"/>
<stop offset="0.61" stop-color="white"/>
<stop offset="1" stop-color="white" stop-opacity="0"/>
</linearGradient>
<linearGradient id="paint25_linear_16_291" x1="176.15" y1="4" x2="176.482" y2="314" gradientUnits="userSpaceOnUse">
<stop stop-color="white" stop-opacity="0"/>
<stop offset="0.3" stop-color="white"/>
<stop offset="0.61" stop-color="white"/>
<stop offset="1" stop-color="white" stop-opacity="0"/>
</linearGradient>
<linearGradient id="paint26_linear_16_291" x1="129.15" y1="4" x2="129.482" y2="314" gradientUnits="userSpaceOnUse">
<stop stop-color="white" stop-opacity="0"/>
<stop offset="0.3" stop-color="white"/>
<stop offset="0.61" stop-color="white"/>
<stop offset="1" stop-color="white" stop-opacity="0"/>
</linearGradient>
<linearGradient id="paint27_linear_16_291" x1="82.1501" y1="4" x2="82.4824" y2="314" gradientUnits="userSpaceOnUse">
<stop stop-color="white" stop-opacity="0"/>
<stop offset="0.3" stop-color="white"/>
<stop offset="0.61" stop-color="white"/>
<stop offset="1" stop-color="white" stop-opacity="0"/>
</linearGradient>
<linearGradient id="paint28_linear_16_291" x1="35.1501" y1="4" x2="35.4824" y2="314" gradientUnits="userSpaceOnUse">
<stop stop-color="white" stop-opacity="0"/>
<stop offset="0.3" stop-color="white"/>
<stop offset="0.61" stop-color="white"/>
<stop offset="1" stop-color="white" stop-opacity="0"/>
</linearGradient>
<linearGradient id="paint29_linear_16_291" x1="459" y1="147.001" x2="542.5" y2="148.001" gradientUnits="userSpaceOnUse">
<stop stop-color="white" stop-opacity="0"/>
<stop offset="0.355" stop-color="white"/>
<stop offset="1" stop-color="white" stop-opacity="0"/>
</linearGradient>
<linearGradient id="paint30_linear_16_291" x1="-7" y1="147" x2="1025.5" y2="147" gradientUnits="userSpaceOnUse">
<stop stop-color="white" stop-opacity="0"/>
<stop offset="0.355" stop-color="white"/>
<stop offset="1" stop-color="white" stop-opacity="0"/>
</linearGradient>
<linearGradient id="paint31_linear_16_291" x1="239.5" y1="-2.18557e-08" x2="239.5" y2="310" gradientUnits="userSpaceOnUse">
<stop stop-color="white" stop-opacity="0"/>
<stop offset="0.5" stop-color="white"/>
<stop offset="1" stop-color="white" stop-opacity="0"/>
</linearGradient>
<linearGradient id="paint32_linear_16_291" x1="574.5" y1="-2.18557e-08" x2="574.5" y2="310" gradientUnits="userSpaceOnUse">
<stop stop-color="white" stop-opacity="0"/>
<stop offset="0.355" stop-color="white"/>
<stop offset="0.666667" stop-color="white"/>
<stop offset="1" stop-color="white" stop-opacity="0"/>
</linearGradient>
<linearGradient id="paint33_linear_16_291" x1="848.5" y1="4" x2="848.5" y2="314" gradientUnits="userSpaceOnUse">
<stop stop-color="white" stop-opacity="0"/>
<stop offset="0.355" stop-color="white"/>
<stop offset="0.666667" stop-color="white"/>
<stop offset="1" stop-color="white" stop-opacity="0"/>
</linearGradient>
</defs>
</svg>
