<svg width="1502" height="982" viewBox="0 0 1502 982" fill="none" xmlns="http://www.w3.org/2000/svg">
<g clip-path="url(#clip0_1012_7027)">
<line y1="-0.507757" x2="1571.01" y2="-0.507757" transform="matrix(0.999994 -0.00350909 0.00293125 0.999996 -40 57.9609)" stroke="white" stroke-opacity="1" stroke-width="1.01551"/>
<line y1="-0.507757" x2="1571.01" y2="-0.507757" transform="matrix(0.999994 -0.00350909 0.00293125 0.999996 -40 124.621)" stroke="white" stroke-opacity="1" stroke-width="1.01551"/>
<line y1="-0.507757" x2="1571.01" y2="-0.507757" transform="matrix(0.999994 -0.00350909 0.00293125 0.999996 -40 191.289)" stroke="white" stroke-opacity="1" stroke-width="1.01551"/>
<line y1="-0.507757" x2="1571.01" y2="-0.507757" transform="matrix(0.999994 -0.00350909 0.00293125 0.999996 -40 257.957)" stroke="white" stroke-opacity="1" stroke-width="1.01551"/>
<line y1="-0.507757" x2="1571.01" y2="-0.507757" transform="matrix(0.999994 -0.00350909 0.00293125 0.999996 -40 324.625)" stroke="white" stroke-opacity="1" stroke-width="1.01551"/>
<line y1="-0.507757" x2="1571.01" y2="-0.507757" transform="matrix(0.999994 -0.00350909 0.00293125 0.999996 -40 391.291)" stroke="white" stroke-opacity="1" stroke-width="1.01551"/>
<line y1="-0.507757" x2="1571.01" y2="-0.507757" transform="matrix(0.999994 -0.00350909 0.00293125 0.999996 -40 457.959)" stroke="white" stroke-opacity="1" stroke-width="1.01551"/>
<line y1="-0.507757" x2="1571.01" y2="-0.507757" transform="matrix(0.999994 -0.00350909 0.00293125 0.999996 -40 524.625)" stroke="white" stroke-opacity="1" stroke-width="1.01551"/>
<line y1="-0.507757" x2="1571.01" y2="-0.507757" transform="matrix(0.999994 -0.00350909 0.00293125 0.999996 -40 591.293)" stroke="white" stroke-opacity="1" stroke-width="1.01551"/>
<line y1="-0.507757" x2="1571.01" y2="-0.507757" transform="matrix(0.999994 -0.00350909 0.00293125 0.999996 -40 657.959)" stroke="white" stroke-opacity="1" stroke-width="1.01551"/>
<line y1="-0.507757" x2="1571.01" y2="-0.507757" transform="matrix(0.999994 -0.00350909 0.00293125 0.999996 -40 724.623)" stroke="white" stroke-opacity="1" stroke-width="1.01551"/>
<line y1="-0.507757" x2="1571.01" y2="-0.507757" transform="matrix(0.999994 -0.00350909 0.00293125 0.999996 -40 791.289)" stroke="white" stroke-opacity="1" stroke-width="1.01551"/>
<line y1="-0.507757" x2="1571.01" y2="-0.507757" transform="matrix(0.999994 -0.00350909 0.00293125 0.999996 -40 857.955)" stroke="white" stroke-opacity="1" stroke-width="1.01551"/>
<line y1="-0.507757" x2="1571.01" y2="-0.507757" transform="matrix(0.999994 -0.00350909 0.00293125 0.999996 -40 924.623)" stroke="white" stroke-opacity="1" stroke-width="1.01551"/>
<line x1="42.7617" y1="-62" x2="42.7616" y2="1048" stroke="white" stroke-opacity="1" stroke-width="1.01551"/>
<line x1="109.785" y1="-62" x2="109.785" y2="1048" stroke="white" stroke-opacity="1" stroke-width="1.01551"/>
<line x1="176.809" y1="-62" x2="176.808" y2="1048" stroke="white" stroke-opacity="1" stroke-width="1.01551"/>
<line x1="243.832" y1="-62" x2="243.832" y2="1048" stroke="white" stroke-opacity="1" stroke-width="1.01551"/>
<line x1="310.859" y1="-62" x2="310.859" y2="1048" stroke="white" stroke-opacity="1" stroke-width="1.01551"/>
<line x1="377.883" y1="-62" x2="377.883" y2="1048" stroke="white" stroke-opacity="1" stroke-width="1.01551"/>
<line x1="444.906" y1="-62" x2="444.906" y2="1048" stroke="white" stroke-opacity="1" stroke-width="1.01551"/>
<line x1="511.93" y1="-62" x2="511.93" y2="1048" stroke="white" stroke-opacity="1" stroke-width="1.01551"/>
<line x1="578.953" y1="-62" x2="578.953" y2="1048" stroke="white" stroke-opacity="1" stroke-width="1.01551"/>
<line x1="645.977" y1="-62" x2="645.976" y2="1048" stroke="white" stroke-opacity="1" stroke-width="1.01551"/>
<line x1="713" y1="-62" x2="713" y2="1048" stroke="white" stroke-opacity="1" stroke-width="1.01551"/>
<line x1="780.027" y1="-62" x2="780.027" y2="1048" stroke="white" stroke-opacity="1" stroke-width="1.01551"/>
<line x1="847.051" y1="-62" x2="847.051" y2="1048" stroke="white" stroke-opacity="1" stroke-width="1.01551"/>
<line x1="914.074" y1="-62" x2="914.074" y2="1048" stroke="white" stroke-opacity="1" stroke-width="1.01551"/>
<line x1="981.098" y1="-62" x2="981.098" y2="1048" stroke="white" stroke-opacity="1" stroke-width="1.01551"/>
<line x1="1048.12" y1="-62" x2="1048.12" y2="1048" stroke="white" stroke-opacity="1" stroke-width="1.01551"/>
<line x1="1115.14" y1="-62" x2="1115.14" y2="1048" stroke="white" stroke-opacity="1" stroke-width="1.01551"/>
<line x1="1182.17" y1="-62" x2="1182.17" y2="1048" stroke="white" stroke-opacity="1" stroke-width="1.01551"/>
<line x1="1249.2" y1="-62" x2="1249.2" y2="1048" stroke="white" stroke-opacity="1" stroke-width="1.01551"/>
<line x1="1316.22" y1="-62" x2="1316.22" y2="1048" stroke="white" stroke-opacity="1" stroke-width="1.01551"/>
<line x1="1383.24" y1="-62" x2="1383.24" y2="1048" stroke="white" stroke-opacity="1" stroke-width="1.01551"/>
<line x1="1450.27" y1="-62" x2="1450.27" y2="1048" stroke="white" stroke-opacity="1" stroke-width="1.01551"/>
</g>
<defs>
<clipPath id="clip0_1012_7027">
<rect width="1502" height="982" fill="white"/>
</clipPath>
</defs>
</svg>
