<?xml version="1.0" standalone="no"?>
<!DOCTYPE svg PUBLIC "-//W3C//DTD SVG 20010904//EN"
 "http://www.w3.org/TR/2001/REC-SVG-20010904/DTD/svg10.dtd">
<svg version="1.0" xmlns="http://www.w3.org/2000/svg"
 width="296.000000pt" height="296.000000pt" viewBox="0 0 296.000000 296.000000"
 preserveAspectRatio="xMidYMid meet">
<metadata>
Created by potrace 1.14, written by Peter Selinger 2001-2017
</metadata>
<g transform="translate(0.000000,296.000000) scale(0.100000,-0.100000)"
fill="#000000" stroke="none">
<path d="M1250 2473 c-319 -53 -565 -276 -652 -589 -22 -77 -22 -94 -26 -786
-2 -500 0 -713 8 -728 30 -56 289 10 437 111 163 112 284 290 329 484 18 74
19 134 19 788 0 777 4 728 -60 725 -16 0 -41 -3 -55 -5z"/>
<path d="M1647 2463 c-4 -3 -7 -352 -7 -773 0 -614 3 -770 13 -778 9 -8 35 -8
87 -1 326 46 594 297 660 619 24 115 25 180 5 294 -55 312 -285 553 -605 632
-59 14 -142 18 -153 7z"/>
</g>
</svg>
