<?xml version="1.0" standalone="no"?>
<!DOCTYPE svg PUBLIC "-//W3C//DTD SVG 20010904//EN"
 "http://www.w3.org/TR/2001/REC-SVG-20010904/DTD/svg10.dtd">
<svg version="1.0" xmlns="http://www.w3.org/2000/svg"
 width="700.000000pt" height="700.000000pt" viewBox="0 0 700.000000 700.000000"
 preserveAspectRatio="xMidYMid meet">
<metadata>
Created by potrace 1.14, written by Peter Selinger 2001-2017
</metadata>
<g transform="translate(0.000000,700.000000) scale(0.100000,-0.100000)"
fill="#000000" stroke="none">
<path d="M3909 6393 l-29 -25 0 -2144 0 -2145 28 -26 c27 -25 28 -25 152 -19
69 4 154 11 190 17 36 5 79 12 97 14 56 9 285 72 358 99 89 34 270 122 360
177 262 159 539 436 698 701 116 192 216 432 253 609 4 22 17 85 28 134 4 23
13 93 22 175 7 72 7 460 0 530 -10 83 -15 129 -22 164 -122 699 -567 1278
-1209 1572 -86 40 -241 98 -288 109 -12 2 -49 11 -82 20 -133 33 -284 55 -419
59 -102 3 -110 1 -137 -21z"/>
<path d="M2898 6405 c-2 -1 -34 -6 -72 -10 -158 -15 -395 -75 -541 -135 -99
-41 -309 -152 -392 -207 -164 -111 -272 -204 -418 -364 -219 -241 -392 -567
-475 -896 -29 -118 -34 -144 -46 -238 -3 -27 -8 -61 -11 -75 -3 -14 -7 -904
-8 -1978 l-2 -1953 23 -18 c19 -15 38 -18 103 -16 135 5 322 29 426 55 22 6
51 13 63 16 13 2 64 18 114 35 535 177 975 552 1236 1049 104 200 192 470 217
666 4 27 9 60 13 74 3 14 8 911 9 1994 3 1845 2 1970 -14 1988 -14 16 -30 18
-119 17 -57 -1 -104 -2 -106 -4z"/>
</g>
</svg>
